<svg xmlns="http://www.w3.org/2000/svg" xmlns:xlink="http://www.w3.org/1999/xlink" width="793.701" height="1122.52" viewBox="0 0 595.276 841.89"><clipPath id="a"><path transform="matrix(1 0 0 -1 0 841.89)" d="M0 0h595.276v841.89H0z"/></clipPath><g clip-path="url(#a)"><symbol id="b"><path d="M.021 0A2.748 2.748 0 000 .214c0 .01.003.018.01.025A.034.034 0 00.036.25C.046.25.054.246.061.239A.032.032 0 00.072.214L.071.2A1.105 1.105 0 00.065.14L.061.102A5.163 5.163 0 00.051 0h-.03M.15 0a2.748 2.748 0 00-.021.214c0 .01.003.018.01.025A.036.036 0 00.165.25C.175.25.183.246.19.239A.032.032 0 00.201.214L.2.2A1.106 1.106 0 00.194.14L.19.102A5.163 5.163 0 00.18 0H.15z"/></symbol><symbol id="c"><path d="M0 0v.667h.25C.282.667.31.662.335.651A.176.176 0 00.437.546.205.205 0 00.398.335.192.192 0 00.25.277H.057V0H0m.244.329a.138.138 0 01.147.143.145.145 0 01-.041.103.158.158 0 01-.106.04H.057V.329h.187z"/></symbol><symbol id="d"><path d="M0 0v.483h.052V.4a.28.28 0 00.071.067.168.168 0 00.092.026V.436a926.39 926.39 0 01-.026.002.183.183 0 01-.137-.086V0H0z"/></symbol><symbol id="e"><path d="M.04.559a.04.04 0 00-.04.04c0 .011.004.02.012.028A.04.04 0 00.04.638C.051.638.06.634.068.627A.036.036 0 00.08.599a.04.04 0 00-.04-.04M.014 0v.483h.052V0H.014z"/></symbol><symbol id="f"><path d="M.326 0v.327a.16.16 0 01-.009.058.087.087 0 01-.061.057.171.171 0 01-.093-.001.254.254 0 01-.044-.018.208.208 0 01-.067-.058V0H0v.483h.052V.41a.266.266 0 00.122.077.176.176 0 00.052.008c.05 0 .087-.013.113-.038C.365.432.378.393.378.338V0H.326z"/></symbol><symbol id="g"><path d="M.235 0a.232.232 0 00-.171.074.253.253 0 00-.064.18.3.3 0 00.016.099c.011.03.027.057.048.08a.232.232 0 00.171.074.2.2 0 00.171-.082L.37.393a.15.15 0 01-.059.051.165.165 0 01-.073.016A.176.176 0 01.104.4.198.198 0 01.068.335a.27.27 0 010-.163.212.212 0 01.036-.065.172.172 0 01.134-.06c.027 0 .051.005.073.016A.16.16 0 01.37.115L.406.083A.231.231 0 00.337.022.207.207 0 00.235 0z"/></symbol><symbol id="h"><path d="M.22.172a.195.195 0 00-.095.024.21.21 0 00-.073.066V0H0v.667h.052V.591a.211.211 0 00.256.07.18.18 0 00.068-.05.221.221 0 00.044-.08.324.324 0 00.016-.105A.324.324 0 00.42.321a.221.221 0 00-.044-.08A.19.19 0 00.308.19.212.212 0 00.22.172M.211.219a.162.162 0 01.158.125.294.294 0 010 .163.192.192 0 01-.033.066.147.147 0 01-.054.043.153.153 0 01-.071.016.184.184 0 01-.095-.026.175.175 0 01-.064-.06V.307A.15.15 0 01.079.274.25.25 0 01.162.226.174.174 0 01.211.219z"/></symbol><symbol id="i"><path d="M.333.012v.057A.212.212 0 00.107.011a.165.165 0 00-.054.03.165.165 0 00-.039.051A.161.161 0 000 .161C0 .187.005.21.014.23c.01.02.023.037.039.05a.156.156 0 00.054.031c.02.007.04.01.062.01A.21.21 0 00.333.252V.35a.095.095 0 01-.038.082.147.147 0 01-.092.029.194.194 0 01-.082-.017A.202.202 0 01.052.39L.023.426a.258.258 0 00.082.061.25.25 0 00.104.02.254.254 0 00.069-.009A.158.158 0 00.334.47.124.124 0 00.371.421.157.157 0 00.385.352v-.34H.333M.187.041a.21.21 0 01.082.016.167.167 0 01.064.05v.106a.167.167 0 01-.064.05.198.198 0 01-.082.017.134.134 0 01-.096-.034A.113.113 0 01.055.16c0-.034.012-.062.036-.085A.134.134 0 01.187.041z"/></symbol><symbol id="j"><path d="M.186 0a.287.287 0 00-.105.018A.217.217 0 000 .076l.031.039A.199.199 0 01.187.044c.04 0 .072.01.095.028a.087.087 0 01.034.07.061.061 0 01-.023.051.17.17 0 01-.056.029.84.84 0 01-.074.02.468.468 0 00-.073.023.169.169 0 00-.057.04.1.1 0 00-.022.068c0 .019.004.036.011.052.008.017.02.031.034.043A.16.16 0 00.11.496a.224.224 0 00.073.011.234.234 0 00.105-.021.225.225 0 00.068-.05L.327.399a.143.143 0 01-.059.046.192.192 0 01-.085.018.141.141 0 01-.089-.025.077.077 0 01-.032-.063c0-.02.007-.035.022-.046A.216.216 0 01.141.302L.214.283A.358.358 0 00.288.258.157.157 0 00.344.215.109.109 0 00.367.142.13.13 0 00.355.087.125.125 0 00.321.041a.16.16 0 00-.056-.03A.257.257 0 00.186 0z"/></symbol><symbol id="l"><path d="M.391 0L.204.276H.057V0H0v.667h.249A.224.224 0 00.393.615.166.166 0 00.436.554.2.2 0 00.452.472.209.209 0 00.437.391.187.187 0 00.267.28L.46 0H.391M.244.328a.138.138 0 01.137.086.147.147 0 01.011.058.145.145 0 01-.042.103.158.158 0 01-.106.04H.057V.328h.187z"/></symbol><symbol id="m"><path d="M.242 0a.226.226 0 00-.174.071.246.246 0 00-.05.08.286.286 0 00.048.282.23.23 0 00.167.074.214.214 0 00.169-.076.243.243 0 00.044-.082.314.314 0 00.015-.098V.237H.057A.21.21 0 01.11.101.184.184 0 01.246.045a.218.218 0 01.158.067L.431.078A.246.246 0 00.242 0m.166.278c0 .02-.004.042-.011.063A.174.174 0 01.31.445a.168.168 0 01-.078.017.158.158 0 01-.129-.061.192.192 0 01-.046-.123h.351z"/></symbol><symbol id="n"><path d="M.326.012v.071A.286.286 0 00.25.025.198.198 0 00.152 0C.102 0 .064.012.038.036.013.061 0 .1 0 .155v.34h.052V.167C.052.144.055.124.06.108A.099.099 0 01.084.071.103.103 0 01.121.052a.217.217 0 01.094.001.225.225 0 01.111.074v.368h.052V.012H.326z"/></symbol><symbol id="o"><path d="M0 0v.667h.052V0H0z"/></symbol><symbol id="p"><path d="M.175 0C.143 0 .119.009.103.027A.12.12 0 00.08.105v.344H0v.046h.08v.132h.053V.495h.098V.449H.133V.113c0-.02.004-.035.012-.048C.153.053.165.047.183.047c.011 0 .022.002.031.007A.07.07 0 01.237.07l.02-.04A.102.102 0 00.224.008.128.128 0 00.175 0z"/></symbol><symbol id="q"><path d="M.384.012v.077a.217.217 0 00-.07-.064.223.223 0 00-.186-.008.2.2 0 00-.069.051.243.243 0 00-.044.08A.344.344 0 000 .253a.34.34 0 00.015.104c.01.031.025.058.044.08.02.023.042.04.069.052A.212.212 0 00.311.483.21.21 0 00.384.417v.262h.053V.012H.384M.225.047a.183.183 0 01.094.026.196.196 0 01.065.06v.239a.165.165 0 01-.028.034.183.183 0 01-.203.038A.16.16 0 01.1.4.206.206 0 01.067.335a.294.294 0 010-.164A.221.221 0 01.1.106.16.16 0 01.153.062.168.168 0 01.225.047z"/></symbol><symbol id="r"><path d="M.232 0a.225.225 0 00-.169.074.264.264 0 00-.063.18.3.3 0 00.016.099c.011.03.027.057.047.08s.044.041.073.054c.029.013.06.02.096.02a.227.227 0 00.097-.02.203.203 0 00.073-.054.283.283 0 00.063-.179.283.283 0 00-.063-.18A.22.22 0 00.232 0m0 .047A.16.16 0 01.363.11a.251.251 0 010 .287.16.16 0 01-.131.063.161.161 0 01-.131-.063.206.206 0 01-.034-.066.269.269 0 010-.155A.221.221 0 01.101.11.161.161 0 01.232.047z"/></symbol><use xlink:href="#b" transform="matrix(6 0 0 -6 467.119 820.568)" fill="#231f20"/><use xlink:href="#c" transform="matrix(6 0 0 -6 469.17 823.13)" fill="#231f20"/><use xlink:href="#d" transform="matrix(6 0 0 -6 472.585 823.13)" fill="#231f20"/><use xlink:href="#e" transform="matrix(6 0 0 -6 474.403 823.13)" fill="#231f20"/><use xlink:href="#f" transform="matrix(6 0 0 -6 475.77 823.13)" fill="#231f20"/><use xlink:href="#g" transform="matrix(6 0 0 -6 478.843 823.202)" fill="#231f20"/><use xlink:href="#e" transform="matrix(6 0 0 -6 481.89 823.13)" fill="#231f20"/><use xlink:href="#h" transform="matrix(6 0 0 -6 483.259 824.234)" fill="#231f20"/><use xlink:href="#i" transform="matrix(6 0 0 -6 486.505 823.202)" fill="#231f20"/><use xlink:href="#e" transform="matrix(6 0 0 -6 489.703 823.13)" fill="#231f20"/><use xlink:href="#j" transform="matrix(6 0 0 -6 490.819 823.202)" fill="#231f20"/><use xlink:href="#k" transform="matrix(6 0 0 -6 493.339 823.13)" fill="#231f20"/><use xlink:href="#l" transform="matrix(6 0 0 -6 495.39 823.13)" fill="#231f20"/><use xlink:href="#m" transform="matrix(6 0 0 -6 498.594 823.202)" fill="#231f20"/><use xlink:href="#j" transform="matrix(6 0 0 -6 501.912 823.202)" fill="#231f20"/><use xlink:href="#n" transform="matrix(6 0 0 -6 504.918 823.202)" fill="#231f20"/><use xlink:href="#o" transform="matrix(6 0 0 -6 508.158 823.13)" fill="#231f20"/><use xlink:href="#p" transform="matrix(6 0 0 -6 509.022 823.202)" fill="#231f20"/><use xlink:href="#i" transform="matrix(6 0 0 -6 510.936 823.202)" fill="#231f20"/><use xlink:href="#q" transform="matrix(6 0 0 -6 514.05 823.202)" fill="#231f20"/><use xlink:href="#r" transform="matrix(6 0 0 -6 517.476 823.202)" fill="#231f20"/><use xlink:href="#j" transform="matrix(6 0 0 -6 520.818 823.202)" fill="#231f20"/></g><symbol id="s"><path d="M.362 0l-.11.163L.141 0H0l.171.248L.01.483h.142l.1-.149.099.149h.142L.331.248.504 0H.362z"/></symbol><symbol id="t"><path d="M.076.535a.076.076 0 100 .151C.097.686.116.679.13.664A.07.07 0 00.152.611.073.073 0 00.13.557.073.073 0 00.076.535M.013 0v.483H.14V0H.013z"/></symbol><use xlink:href="#s" transform="matrix(6 0 0 -6 535.186 823.13)" fill="#231f20"/><use xlink:href="#s" transform="matrix(6 0 0 -6 538.21 823.13)" fill="#231f20"/><use xlink:href="#t" transform="matrix(6 0 0 -6 541.534 823.13)" fill="#231f20"/><use xlink:href="#s" transform="matrix(6 0 0 -6 542.752 823.13)" fill="#231f20"/><clipPath id="u"><path transform="matrix(1 0 0 -1 0 841.89)" d="M0 0h595.276v841.89H0z"/></clipPath><g clip-path="url(#u)"><filter id="v"><feBlend mode="multiply" in2="BackgroundImage" in="SourceGraphic"/></filter><g filter="url(#v)"><clipPath id="w"><path transform="matrix(1 0 0 -1 0 841.89)" d="M-8-10.496h614.716v864.294H-8z"/></clipPath><g clip-path="url(#w)"><path d="M0 851.386h605.716V-8.504H0z" fill="#e6e7e8"/></g></g><clipPath id="x"><path transform="matrix(1 0 0 -1 0 841.89)" d="M0 0h2.003v841.559H0z"/></clipPath><clipPath id="y"><path transform="matrix(1 0 0 -1 0 841.89)" d="M17.008 0h578.267v841.134H17.008z"/></clipPath><path d="M131.085 376.921l29.575 2 12.35-5.333 33.474 6 21.124-3.667 28.275-11 25.675-12.667 16.25-6.333 26.324 6.667 27.3 1 25.35-4 42.9-14.334 23.4-28.666 25.023 18.666 18.524-17.333 26-19.667 25.025-9.506V175.634l-19.175 10.287-25.999 22.333-23.725 29-26.325-29.666-22.425 39-44.199 15.666-29.249 3-26.974-8.333-21.125-13.333-44.85 23.666-49.074 44.334-26.324-.667-22.425 14-25.35 2.667-21.45 36.771v42.088z" fill="#bc9ac8"/><clipPath id="z"><path transform="matrix(1 0 0 -1 0 841.89)" d="M17.008 0h578.267v841.134H17.008z"/></clipPath><g clip-path="url(#z)"><path d="M131.41 464.254c1.626 0 23.076-1.333 23.076-1.333l23.074-14 31.525-5.333 25.024-10.334 28.87-16.138 34.829-11.862 30.225 7 27.95-2 61.749-13.333 25.675-25 24.699 15.333 26-18 39.973-16.333 3.576.282v-74.455l-25.025 9.506-26 19.667-18.524 17.333-25.025-18.667-23.4 28.667-42.898 14.333-25.35 4-27.3-1-26.325-6.666-16.25 6.333-25.674 12.667-28.275 11-21.124 3.666-33.475-6-12.35 5.334-29.574-2-22.1 29.526v67.182c3.575-1.604 20.967-9.375 22.425-9.375" fill="#b3cde7"/><path d="M537.654 529.569V353.204l-3.575-.282-39.974 16.333-26 18-24.699-15.333-25.675 25-61.749 13.333-27.95 2-30.224-7-34.829 11.862-28.87 16.138-25.025 10.334-31.525 5.333-23.074 14s-21.45 1.333-23.075 1.333c-1.457 0-18.849 7.77-22.424 9.375v55.939z" fill="#eabbd7"/><path stroke-linecap="round" stroke-dasharray="0,2.5" stroke-linejoin="round" fill="none" stroke="#231f20" d="M65.54 49.938h481.975"/></g><symbol id="A"><path d="M0 0v.667h.423V.615H.057V.368h.359V.316H.057V0H0z"/></symbol><symbol id="B"><path d="M0 0v.667h.057V0H0z"/></symbol><symbol id="C"><path d="M.338 0a.33.33 0 00-.312.205A.371.371 0 000 .346a.33.33 0 00.338.345.314.314 0 00.251-.114L.546.546a.25.25 0 01-.09.067.268.268 0 01-.118.026.275.275 0 01-.257-.174A.326.326 0 01.06.346.295.295 0 01.14.134.278.278 0 01.228.073a.286.286 0 01.306.06v.16H.282v.051h.309V.111A.333.333 0 00.338 0z"/></symbol><symbol id="D"><path d="M.26 0a.311.311 0 00-.113.019.228.228 0 00-.081.053.231.231 0 00-.05.084A.366.366 0 000 .268v.411h.058v-.41c0-.068.017-.121.051-.16C.144.071.194.052.26.052c.067 0 .117.019.151.057a.234.234 0 01.051.16v.41H.52V.268A.279.279 0 00.454.072C.411.024.346 0 .26 0z"/></symbol><symbol id="E"><path d="M.391 0L.204.276H.057V0H0v.667h.249A.224.224 0 00.393.615.166.166 0 00.436.554.2.2 0 00.452.472.209.209 0 00.437.391.187.187 0 00.267.28L.46 0H.391M.244.328a.138.138 0 01.137.086.147.147 0 01.011.058.145.145 0 01-.042.103.158.158 0 01-.106.04H.057V.328h.187z"/></symbol><symbol id="F"><path d="M.551 0L.485.164H.132L.066 0H0l.273.667h.071L.617 0H.551M.308.606L.151.216h.315l-.158.39z"/></symbol><symbol id="H"><path d="M.171 0a.23.23 0 00-.096.019A.208.208 0 000 .082l.035.043A.262.262 0 01.089.074.133.133 0 01.168.052a.14.14 0 01.108.042.159.159 0 01.039.111v.474h.058V.205A.239.239 0 00.357.114.181.181 0 00.249.012.245.245 0 00.171 0z"/></symbol><use xlink:href="#A" transform="matrix(10 0 0 -10 65.293 64.565)" fill="#231f20"/><use xlink:href="#B" transform="matrix(10 0 0 -10 71.713 64.565)" fill="#231f20"/><use xlink:href="#C" transform="matrix(10 0 0 -10 74.693 64.695)" fill="#231f20"/><use xlink:href="#D" transform="matrix(10 0 0 -10 83.053 64.685)" fill="#231f20"/><use xlink:href="#E" transform="matrix(10 0 0 -10 90.913 64.565)" fill="#231f20"/><use xlink:href="#F" transform="matrix(10 0 0 -10 97.173 64.565)" fill="#231f20"/><use xlink:href="#G" transform="matrix(10 0 0 -10 104.493 64.565)" fill="#231f20"/><use xlink:href="#H" transform="matrix(10 0 0 -10 108.222 64.685)" fill="#231f20"/><symbol id="I"><path d="M0 0v.667h.312A.254.254 0 00.408.65a.193.193 0 00.07-.047.182.182 0 00.043-.068.23.23 0 00-.044-.234.212.212 0 00-.07-.047.247.247 0 00-.095-.017h-.17V0H0m.293.362c.028 0 .051.008.07.024a.082.082 0 01.028.066c0 .028-.01.05-.028.066a.104.104 0 01-.07.024H.142v-.18h.151z"/></symbol><symbol id="J"><path d="M.258 0a.291.291 0 00-.103.018.247.247 0 00-.082.051A.242.242 0 000 .254a.249.249 0 00.149.233.25.25 0 00.199 0A.218.218 0 00.425.433.239.239 0 00.474.349.311.311 0 00.492.241V.213H.133A.129.129 0 01.174.134.14.14 0 01.272.101a.202.202 0 01.129.048L.457.067a.236.236 0 00-.089-.05A.358.358 0 00.258 0m.111.299a.126.126 0 01-.008.036.1.1 0 01-.021.034.102.102 0 01-.037.026.117.117 0 01-.053.011A.107.107 0 01.163.37.133.133 0 01.131.299h.238z"/></symbol><symbol id="K"><path d="M.363.012v.062A.202.202 0 00.296.019.18.18 0 00.214 0a.197.197 0 00-.153.066.245.245 0 00-.045.079A.34.34 0 000 .253c0 .04.005.075.016.106.01.031.025.058.044.08a.207.207 0 00.154.068.179.179 0 00.081-.019.184.184 0 00.068-.055v.246h.128V.012H.363m-.11.101c.021 0 .042.005.063.015.02.01.036.024.047.04v.171a.115.115 0 01-.047.039.136.136 0 01-.063.016.111.111 0 01-.088-.039.15.15 0 01-.034-.102c0-.02.003-.04.009-.057A.14.14 0 01.165.151.113.113 0 01.253.113z"/></symbol><symbol id="L"><path d="M.076.535a.076.076 0 100 .151C.097.686.116.679.13.664A.07.07 0 00.152.611.073.073 0 00.13.557.073.073 0 00.076.535M.013 0v.483H.14V0H.013z"/></symbol><symbol id="M"><path d="M.255 0a.271.271 0 00-.107.02.255.255 0 00-.08.055A.25.25 0 000 .254C0 .288.006.32.017.351a.238.238 0 00.131.135.26.26 0 00.107.021.26.26 0 00.188-.076.264.264 0 00.05-.275A.236.236 0 00.362.02.271.271 0 00.255 0m0 .113c.02 0 .038.004.053.011A.128.128 0 01.37.199a.167.167 0 01-.024.153.106.106 0 01-.038.03.113.113 0 01-.053.012A.118.118 0 01.14.307a.186.186 0 010-.108.128.128 0 01.062-.075.121.121 0 01.053-.011z"/></symbol><symbol id="N"><path d="M.216 0a.369.369 0 00-.121.02A.27.27 0 000 .075l.055.089A.222.222 0 01.087.14.417.417 0 01.129.118a.23.23 0 01.093-.02C.25.098.27.103.283.112c.013.01.02.023.02.038 0 .013-.007.023-.022.03a.218.218 0 01-.053.016L.159.211A.291.291 0 00.09.235a.16.16 0 00-.053.044.124.124 0 00-.021.076.141.141 0 00.051.106.196.196 0 00.062.033.297.297 0 00.195-.006.298.298 0 00.085-.047L.358.354a.177.177 0 01-.06.039.2.2 0 01-.083.017.1.1 0 01-.056-.014C.146.386.139.376.139.362.139.35.146.341.16.335A.3.3 0 01.213.319L.282.304A.266.266 0 00.351.279.153.153 0 00.404.233.13.13 0 00.425.155.14.14 0 00.411.093.143.143 0 00.37.044.204.204 0 00.305.012.303.303 0 00.216 0z"/></symbol><symbol id="P"><path d="M.194 0L0 .483h.136L.262.147l.126.336h.137L.331 0H.194z"/></symbol><symbol id="Q"><path d="M.321.012v.05A.174.174 0 00.256.016.235.235 0 00.168 0a.186.186 0 00-.113.039.166.166 0 00-.04.05A.157.157 0 000 .16a.16.16 0 00.015.072.147.147 0 00.094.075.249.249 0 00.147-.006.148.148 0 00.065-.044v.065a.07.07 0 01-.029.059.124.124 0 01-.077.022.2.2 0 01-.141-.057L.026.431a.29.29 0 00.099.057.34.34 0 00.191.01.177.177 0 00.067-.031A.143.143 0 00.43.411.189.189 0 00.448.324V.012H.321M.219.086c.02 0 .04.003.058.01a.1.1 0 01.044.032v.06a.093.093 0 01-.044.031.152.152 0 01-.058.011.11.11 0 01-.065-.019.063.063 0 01-.026-.054c0-.023.009-.04.026-.053A.114.114 0 01.219.086z"/></symbol><symbol id="R"><path d="M.355 0a.387.387 0 00-.14.025.344.344 0 00-.113.07.35.35 0 00-.075.109A.36.36 0 000 .345a.334.334 0 00.215.32.387.387 0 00.239.011.301.301 0 00.18-.149L.512.467a.183.183 0 01-.063.069.166.166 0 01-.094.028.208.208 0 01-.15-.063.21.21 0 01-.059-.156.21.21 0 01.125-.203.22.22 0 01.084-.016.17.17 0 01.094.027.18.18 0 01.063.07L.634.164A.443.443 0 00.591.103.297.297 0 00.355 0z"/></symbol><symbol id="S"><path d="M.195 0v.542H0v.125h.532V.542H.338V0H.195z"/></symbol><symbol id="T"><path d="M.158 0a.579.579 0 00-.116.201A.8.8 0 000 .442a.68.68 0 00.042.24.707.707 0 00.116.202l.08-.06A.7.7 0 01.137.442.855.855 0 01.162.241.722.722 0 01.238.062L.158 0z"/></symbol><symbol id="U"><path d="M0 0v.483h.127V.417a.23.23 0 00.067.055.179.179 0 00.087.023V.371a.17.17 0 01-.133-.03.093.093 0 01-.021-.022V0H0z"/></symbol><symbol id="V"><path d="M.217 0C.172 0 .138.011.115.033.092.056.08.089.08.132v.252H0v.111h.08v.132h.128V.495h.098V.384H.208V.166c0-.015.004-.028.011-.038A.04.04 0 01.252.113c.01 0 .018.001.026.004a.054.054 0 01.018.01L.323.031a.112.112 0 00-.04-.022A.205.205 0 00.217 0z"/></symbol><symbol id="W"><path d="M.276.172a.183.183 0 00-.149.074V0H0v.667h.127V.606a.183.183 0 00.149.073.21.21 0 00.085-.017.185.185 0 00.068-.049.222.222 0 00.045-.08A.331.331 0 00.49.426.34.34 0 00.474.318a.234.234 0 00-.045-.08.185.185 0 00-.068-.049.21.21 0 00-.085-.017m-.04.113a.11.11 0 01.088.039.15.15 0 01.034.102.146.146 0 01-.034.101.11.11 0 01-.088.039A.134.134 0 01.174.55.126.126 0 01.127.511V.34A.126.126 0 01.174.301.134.134 0 01.236.285z"/></symbol><symbol id="X"><path d="M.259 0a.199.199 0 00-.11.032l.025.051A.131.131 0 01.255.054a.08.08 0 01.036.008c.01.005.016.014.016.025 0 .017-.01.026-.029.026A.044.044 0 01.246.099L.2.125l.021.059a.265.265 0 00-.09.025.24.24 0 00-.115.131.279.279 0 00.003.197.229.229 0 00.134.133.272.272 0 00.103.019.224.224 0 00.191-.087L.364.524a.115.115 0 01-.102.052.125.125 0 01-.095-.039.14.14 0 01-.036-.101C.131.394.143.36.167.334A.125.125 0 01.262.295a.122.122 0 01.102.052L.447.27A.225.225 0 00.385.213a.22.22 0 00-.102-.03L.267.145a.07.07 0 00.036.01.067.067 0 00.067-.07.07.07 0 00-.033-.062A.133.133 0 00.259 0z"/></symbol><symbol id="Y"><path d="M.321.012v.05A.174.174 0 00.256.016.235.235 0 00.168 0a.186.186 0 00-.113.039.166.166 0 00-.04.05A.157.157 0 000 .16a.16.16 0 00.015.072.147.147 0 00.094.075.249.249 0 00.147-.006.148.148 0 00.065-.044v.065a.07.07 0 01-.029.059.124.124 0 01-.077.022.2.2 0 01-.141-.057L.026.431a.29.29 0 00.099.057.34.34 0 00.191.01.177.177 0 00.067-.031A.143.143 0 00.43.411.189.189 0 00.448.324V.012H.321M.219.086c.02 0 .04.003.058.01a.1.1 0 01.044.032v.06a.093.093 0 01-.044.031.152.152 0 01-.058.011.11.11 0 01-.065-.019.063.063 0 01-.026-.054c0-.023.009-.04.026-.053A.114.114 0 01.219.086m.075.48a.078.078 0 00-.042.01A.165.165 0 00.224.6a.374.374 0 01-.023.023.031.031 0 01-.024.011C.167.634.158.629.151.619a.086.086 0 01-.01-.047H.074c0 .043.009.076.027.099.019.023.046.035.081.035.017 0 .03-.004.04-.011A.136.136 0 00.25.672L.273.649a.036.036 0 01.025-.01c.01 0 .018.005.025.014C.33.663.334.679.334.7h.067A.159.159 0 00.374.601C.356.578.329.566.294.566z"/></symbol><symbol id="Z"><path d="M.599 0v.305A.085.085 0 01.582.36C.572.375.553.382.527.382a.103.103 0 01-.06-.018.157.157 0 01-.04-.038V0H.299v.305A.085.085 0 01.282.36C.272.375.253.382.227.382a.102.102 0 01-.06-.019.157.157 0 01-.04-.038V0H0v.483h.127V.42a.116.116 0 00.022.024c.01.009.023.017.037.024a.202.202 0 00.099.027.15.15 0 00.087-.023.124.124 0 00.047-.065.2.2 0 00.112.08.183.183 0 00.054.008C.63.495.665.483.689.459.714.436.727.399.727.349V0H.599z"/></symbol><symbol id="aa"><path d="M.58 0v.467L.392 0H.33L.142.467V0H0v.667h.199L.361.264l.162.403h.2V0H.58z"/></symbol><symbol id="ab"><path d="M.276.568H.187l.134.144h.117L.276.568M.258 0a.291.291 0 00-.103.018.247.247 0 00-.082.051A.242.242 0 000 .254a.249.249 0 00.149.233.25.25 0 00.199 0A.218.218 0 00.425.433.239.239 0 00.474.349.311.311 0 00.492.241V.213H.133A.129.129 0 01.174.134.14.14 0 01.272.101a.202.202 0 01.129.048L.457.067a.236.236 0 00-.089-.05A.358.358 0 00.258 0m.111.299a.126.126 0 01-.008.036.1.1 0 01-.021.034.102.102 0 01-.037.026.117.117 0 01-.053.011A.107.107 0 01.163.37.133.133 0 01.131.299h.238z"/></symbol><symbol id="ac"><path d="M.326 0v.292c0 .034-.008.057-.024.07a.098.098 0 01-.065.02.12.12 0 01-.066-.018.149.149 0 01-.044-.039V0H0v.483h.127V.42a.216.216 0 00.066.051.208.208 0 00.103.024C.349.495.389.481.414.453A.156.156 0 00.453.341V0H.326z"/></symbol><symbol id="ad"><path d="M0 .062a.858.858 0 01.077.179.63.63 0 01.025.201.865.865 0 01-.025.201A.7.7 0 010 .824l.08.06A.653.653 0 00.229.563.68.68 0 00.08 0L0 .062z"/></symbol><symbol id="ae"><path d="M.256 0a.286.286 0 00-.103.018.24.24 0 00-.134.133A.272.272 0 000 .254a.262.262 0 00.072.182c.023.023.05.04.081.052a.272.272 0 00.103.019A.224.224 0 00.447.42L.364.342a.115.115 0 01-.102.052.125.125 0 01-.095-.039.14.14 0 01-.036-.101c0-.042.012-.076.036-.102A.125.125 0 01.262.113a.122.122 0 01.102.052L.447.088A.217.217 0 00.376.027.235.235 0 00.256 0z"/></symbol><symbol id="af"><path d="M0 0v.667h.127V0H0z"/></symbol><symbol id="ag"><path d="M.229 0a.37.37 0 00-.113.016.276.276 0 00-.095.056l.057.092A.168.168 0 01.145.118.241.241 0 01.275.11.109.109 0 01.35.167a.127.127 0 01.012.059v.049A.213.213 0 00.295.219a.17.17 0 00-.082-.02.22.22 0 00-.084.016.192.192 0 00-.068.047.235.235 0 00-.045.077A.322.322 0 000 .445c0 .04.005.074.016.105.01.03.025.056.044.077.02.021.042.037.068.048.026.01.054.016.085.016A.187.187 0 00.362.617v.062H.49v-.45A.235.235 0 00.466.116a.187.187 0 00-.062-.07A.236.236 0 00.32.01.427.427 0 00.229 0m.024.312a.13.13 0 01.062.016c.02.01.036.024.047.039v.156a.115.115 0 01-.047.039.13.13 0 01-.062.016.117.117 0 01-.088-.035.135.135 0 01-.034-.098C.131.403.142.37.165.347A.117.117 0 01.253.312z"/></symbol><symbol id="ah"><path d="M.168.186A.2.2 0 00.139.081.26.26 0 00.065 0L.01.045c.008.004.016.01.024.017a.18.18 0 01.042.05.1.1 0 01.011.027.067.067 0 00-.019-.003.067.067 0 00-.049.02A.072.072 0 000 .208c0 .022.008.04.023.056a.074.074 0 00.055.024A.084.084 0 00.14.261.11.11 0 00.168.186z"/></symbol><symbol id="ai"><path d="M.015 0v.111c.068.05.125.094.17.129.045.035.081.066.108.092.027.027.047.05.058.07.011.02.017.041.017.062a.076.076 0 01-.033.065A.1.1 0 01.3.545a.132.132 0 01-.04.006A.232.232 0 01.159.53.27.27 0 01.081.474L0 .568a.287.287 0 00.118.083.392.392 0 00.139.026.318.318 0 00.099-.015.228.228 0 00.136-.109A.207.207 0 00.494.38.332.332 0 00.443.299.652.652 0 00.36.215a1.746 1.746 0 00-.115-.09h.272V0H.015z"/></symbol><symbol id="aj"><path d="M.276 0a.25.25 0 00-.124.029.264.264 0 00-.086.079.376.376 0 00-.05.11.506.506 0 000 .253.36.36 0 00.05.11.244.244 0 00.21.108.242.242 0 00.209-.108.332.332 0 00.05-.11.474.474 0 000-.253.344.344 0 00-.05-.11.264.264 0 00-.086-.079A.249.249 0 00.276 0m0 .126C.3.126.32.132.336.143a.13.13 0 01.041.046c.01.02.018.043.023.07a.5.5 0 010 .172A.221.221 0 01.377.5a.13.13 0 01-.041.046.101.101 0 01-.06.017.106.106 0 01-.061-.017A.13.13 0 01.174.5.221.221 0 01.151.431a.5.5 0 010-.172.234.234 0 01.023-.07.13.13 0 01.041-.046.106.106 0 01.061-.017z"/></symbol><symbol id="ak"><path d="M0 0v.108h.24V0H0z"/></symbol><symbol id="al"><path d="M.192 0v.484L.081.371 0 .456l.21.211h.124V0H.192z"/></symbol><symbol id="am"><path d="M.268 0a.415.415 0 00-.101.012.29.29 0 00-.086.034.186.186 0 00-.059.057A.15.15 0 000 .185.162.162 0 00.041.29a.275.275 0 00.102.066.31.31 0 00-.052.024.188.188 0 00-.042.033.138.138 0 00-.038.1.14.14 0 00.022.08.176.176 0 00.06.055.294.294 0 00.082.031.437.437 0 00.185 0A.28.28 0 00.442.648a.176.176 0 00.06-.055.136.136 0 00.023-.08c0-.02-.004-.04-.011-.056A.138.138 0 00.486.413.188.188 0 00.444.38.31.31 0 00.392.356.275.275 0 00.493.29.152.152 0 00.524.242a.15.15 0 00-.01-.139.183.183 0 00-.06-.057A.41.41 0 00.268 0m0 .412c.01.001.021.004.034.007.013.004.026.01.037.016a.103.103 0 01.029.023.05.05 0 01.012.033C.38.515.37.534.348.547a.145.145 0 01-.08.02.152.152 0 01-.082-.02.063.063 0 01-.031-.056.05.05 0 01.012-.033.126.126 0 01.029-.023.168.168 0 01.072-.023m0-.29a.19.19 0 01.048.006.14.14 0 01.039.016C.366.151.375.16.382.17c.007.01.01.021.01.033a.05.05 0 01-.014.036.11.11 0 01-.033.027.171.171 0 01-.041.017.201.201 0 01-.036.009.196.196 0 01-.037-.009A.198.198 0 01.19.266.13.13 0 01.157.239.053.053 0 01.144.203c0-.025.012-.044.035-.059A.168.168 0 01.268.122z"/></symbol><use xlink:href="#I" transform="matrix(14 0 0 -14 66.13 94.565)" fill="#49709c"/><use xlink:href="#J" transform="matrix(14 0 0 -14 74.39 94.733)" fill="#49709c"/><use xlink:href="#K" transform="matrix(14 0 0 -14 82.131 94.733)" fill="#49709c"/><use xlink:href="#L" transform="matrix(14 0 0 -14 90.587 94.565)" fill="#49709c"/><use xlink:href="#K" transform="matrix(14 0 0 -14 93.877 94.733)" fill="#49709c"/><use xlink:href="#M" transform="matrix(14 0 0 -14 102.081 94.733)" fill="#49709c"/><use xlink:href="#N" transform="matrix(14 0 0 -14 109.963 94.733)" fill="#49709c"/><use xlink:href="#O" transform="matrix(14 0 0 -14 116.347 94.565)" fill="#49709c"/><use xlink:href="#P" transform="matrix(14 0 0 -14 119.847 94.565)" fill="#49709c"/><use xlink:href="#L" transform="matrix(14 0 0 -14 127.813 94.565)" fill="#49709c"/><use xlink:href="#Q" transform="matrix(14 0 0 -14 131.103 94.733)" fill="#49709c"/><use xlink:href="#O" transform="matrix(14 0 0 -14 138.257 94.565)" fill="#49709c"/><use xlink:href="#I" transform="matrix(14 0 0 -14 142.765 94.565)" fill="#49709c"/><use xlink:href="#R" transform="matrix(14 0 0 -14 151.053 94.733)" fill="#49709c"/><use xlink:href="#S" transform="matrix(14 0 0 -14 160.545 94.565)" fill="#49709c"/><use xlink:href="#O" transform="matrix(14 0 0 -14 168.343 94.565)" fill="#49709c"/><use xlink:href="#T" transform="matrix(14 0 0 -14 172.501 97.351)" fill="#49709c"/><use xlink:href="#S" transform="matrix(14 0 0 -14 176.435 94.565)" fill="#49709c"/><use xlink:href="#U" transform="matrix(14 0 0 -14 185.115 94.565)" fill="#49709c"/><use xlink:href="#Q" transform="matrix(14 0 0 -14 189.721 94.733)" fill="#49709c"/><use xlink:href="#V" transform="matrix(14 0 0 -14 196.987 94.733)" fill="#49709c"/><use xlink:href="#Q" transform="matrix(14 0 0 -14 202.055 94.733)" fill="#49709c"/><use xlink:href="#K" transform="matrix(14 0 0 -14 209.657 94.733)" fill="#49709c"/><use xlink:href="#M" transform="matrix(14 0 0 -14 217.861 94.733)" fill="#49709c"/><use xlink:href="#O" transform="matrix(14 0 0 -14 225.45 94.565)" fill="#49709c"/><use xlink:href="#K" transform="matrix(14 0 0 -14 229.481 94.733)" fill="#49709c"/><use xlink:href="#J" transform="matrix(14 0 0 -14 237.685 94.733)" fill="#49709c"/><use xlink:href="#O" transform="matrix(14 0 0 -14 244.98 94.565)" fill="#49709c"/><use xlink:href="#R" transform="matrix(14 0 0 -14 249.04 94.733)" fill="#49709c"/><use xlink:href="#M" transform="matrix(14 0 0 -14 258.63 94.733)" fill="#49709c"/><use xlink:href="#M" transform="matrix(14 0 0 -14 266.665 94.733)" fill="#49709c"/><use xlink:href="#W" transform="matrix(14 0 0 -14 275.135 97.141)" fill="#49709c"/><use xlink:href="#J" transform="matrix(14 0 0 -14 282.863 94.733)" fill="#49709c"/><use xlink:href="#U" transform="matrix(14 0 0 -14 291.04 94.565)" fill="#49709c"/><use xlink:href="#Q" transform="matrix(14 0 0 -14 295.645 94.733)" fill="#49709c"/><use xlink:href="#X" transform="matrix(14 0 0 -14 303.247 97.281)" fill="#49709c"/><use xlink:href="#Y" transform="matrix(14 0 0 -14 310.233 94.733)" fill="#49709c"/><use xlink:href="#M" transform="matrix(14 0 0 -14 317.835 94.733)" fill="#49709c"/><use xlink:href="#O" transform="matrix(14 0 0 -14 325.423 94.565)" fill="#49709c"/><use xlink:href="#J" transform="matrix(14 0 0 -14 329.455 94.733)" fill="#49709c"/><use xlink:href="#Z" transform="matrix(14 0 0 -14 337.631 94.565)" fill="#49709c"/><use xlink:href="#O" transform="matrix(14 0 0 -14 348.677 94.565)" fill="#49709c"/><use xlink:href="#aa" transform="matrix(14 0 0 -14 353.185 94.565)" fill="#49709c"/><use xlink:href="#Q" transform="matrix(14 0 0 -14 364.68 94.733)" fill="#49709c"/><use xlink:href="#V" transform="matrix(14 0 0 -14 371.945 94.733)" fill="#49709c"/><use xlink:href="#ab" transform="matrix(14 0 0 -14 377.013 94.733)" fill="#49709c"/><use xlink:href="#U" transform="matrix(14 0 0 -14 385.19 94.565)" fill="#49709c"/><use xlink:href="#L" transform="matrix(14 0 0 -14 390.047 94.565)" fill="#49709c"/><use xlink:href="#Q" transform="matrix(14 0 0 -14 393.337 94.733)" fill="#49709c"/><use xlink:href="#O" transform="matrix(14 0 0 -14 400.491 94.565)" fill="#49709c"/><use xlink:href="#K" transform="matrix(14 0 0 -14 404.523 94.733)" fill="#49709c"/><use xlink:href="#J" transform="matrix(14 0 0 -14 412.727 94.733)" fill="#49709c"/><use xlink:href="#O" transform="matrix(14 0 0 -14 420.021 94.565)" fill="#49709c"/><use xlink:href="#I" transform="matrix(14 0 0 -14 424.53 94.565)" fill="#49709c"/><use xlink:href="#Q" transform="matrix(14 0 0 -14 432.79 94.733)" fill="#49709c"/><use xlink:href="#V" transform="matrix(14 0 0 -14 440.055 94.733)" fill="#49709c"/><use xlink:href="#J" transform="matrix(14 0 0 -14 445.123 94.733)" fill="#49709c"/><use xlink:href="#ac" transform="matrix(14 0 0 -14 453.3 94.565)" fill="#49709c"/><use xlink:href="#V" transform="matrix(14 0 0 -14 460.635 94.733)" fill="#49709c"/><use xlink:href="#J" transform="matrix(14 0 0 -14 465.703 94.733)" fill="#49709c"/><use xlink:href="#N" transform="matrix(14 0 0 -14 473.291 94.733)" fill="#49709c"/><use xlink:href="#ad" transform="matrix(14 0 0 -14 479.913 97.351)" fill="#49709c"/><use xlink:href="#O" transform="matrix(14 0 0 -14 483.833 94.565)" fill="#49709c"/><use xlink:href="#W" transform="matrix(14 0 0 -14 66.087 113.941)" fill="#49709c"/><use xlink:href="#M" transform="matrix(14 0 0 -14 73.815 111.533)" fill="#49709c"/><use xlink:href="#U" transform="matrix(14 0 0 -14 82.285 111.365)" fill="#49709c"/><use xlink:href="#O" transform="matrix(14 0 0 -14 86.443 111.365)" fill="#49709c"/><use xlink:href="#V" transform="matrix(14 0 0 -14 90.14 111.533)" fill="#49709c"/><use xlink:href="#J" transform="matrix(14 0 0 -14 95.207 111.533)" fill="#49709c"/><use xlink:href="#ae" transform="matrix(14 0 0 -14 102.95 111.533)" fill="#49709c"/><use xlink:href="#ac" transform="matrix(14 0 0 -14 110.37 111.365)" fill="#49709c"/><use xlink:href="#M" transform="matrix(14 0 0 -14 118.041 111.533)" fill="#49709c"/><use xlink:href="#af" transform="matrix(14 0 0 -14 126.511 111.365)" fill="#49709c"/><use xlink:href="#M" transform="matrix(14 0 0 -14 129.62 111.533)" fill="#49709c"/><use xlink:href="#ag" transform="matrix(14 0 0 -14 137.655 114.11)" fill="#49709c"/><use xlink:href="#L" transform="matrix(14 0 0 -14 146.097 111.365)" fill="#49709c"/><use xlink:href="#Q" transform="matrix(14 0 0 -14 149.387 111.533)" fill="#49709c"/><use xlink:href="#ah" transform="matrix(14 0 0 -14 157.2 113.283)" fill="#49709c"/><use xlink:href="#O" transform="matrix(14 0 0 -14 160.125 111.365)" fill="#49709c"/><use xlink:href="#ai" transform="matrix(14 0 0 -14 164.157 111.365)" fill="#49709c"/><use xlink:href="#aj" transform="matrix(14 0 0 -14 172.585 111.533)" fill="#49709c"/><use xlink:href="#aj" transform="matrix(14 0 0 -14 181.265 111.533)" fill="#49709c"/><use xlink:href="#aj" transform="matrix(14 0 0 -14 189.945 111.533)" fill="#49709c"/><use xlink:href="#ak" transform="matrix(14 0 0 -14 198.57 108.733)" fill="#49709c"/><use xlink:href="#ai" transform="matrix(14 0 0 -14 202.797 111.365)" fill="#49709c"/><use xlink:href="#aj" transform="matrix(14 0 0 -14 211.225 111.533)" fill="#49709c"/><use xlink:href="#al" transform="matrix(14 0 0 -14 219.583 111.365)" fill="#49709c"/><use xlink:href="#am" transform="matrix(14 0 0 -14 225.673 111.533)" fill="#49709c"/><symbol id="an"><path d="M0 0v.047l.155.128c.047.04.086.078.119.113.033.036.059.07.077.103a.2.2 0 01.028.098.123.123 0 01-.014.061.136.136 0 01-.084.067A.23.23 0 01.117.6.202.202 0 01.044.538L.005.574a.236.236 0 00.093.075.293.293 0 00.203.017.204.204 0 00.068-.034.167.167 0 00.049-.058.18.18 0 00.019-.085A.242.242 0 00.41.38.514.514 0 00.335.273 1.15 1.15 0 00.224.165 4.456 4.456 0 00.089.052H.44V0H0z"/></symbol><symbol id="ao"><path d="M.247 0a.204.204 0 00-.115.031.249.249 0 00-.076.082.397.397 0 00-.043.111.589.589 0 000 .242c.01.04.024.077.043.11a.24.24 0 00.076.081.2.2 0 00.115.032C.292.689.329.679.36.657A.24.24 0 00.436.576a.348.348 0 00.043-.11.54.54 0 000-.242.36.36 0 00-.043-.111A.249.249 0 00.36.031.198.198 0 00.247 0m0 .052c.035 0 .064.009.087.026a.192.192 0 01.057.069c.015.028.025.06.031.094a.56.56 0 01.001.208.318.318 0 01-.031.094.192.192 0 01-.058.068.142.142 0 01-.087.026.148.148 0 01-.089-.026A.192.192 0 01.1.543.362.362 0 01.069.449a.609.609 0 010-.208A.362.362 0 01.1.147.202.202 0 01.158.078.148.148 0 01.247.052z"/></symbol><symbol id="ap"><path d="M.316 0v.182H0v.051l.296.434h.077V.234h.098V.182H.373V0H.316m0 .61L.059.234h.257V.61z"/></symbol><symbol id="aq"><path d="M.245 0A.221.221 0 00.13.028a.23.23 0 00-.075.077.35.35 0 00-.042.11.642.642 0 00.001.256c.01.041.024.078.044.11a.222.222 0 00.197.108.214.214 0 00.18-.085L.401.562a.203.203 0 01-.058.054.162.162 0 01-.088.021.159.159 0 01-.092-.026.207.207 0 01-.061-.068.327.327 0 01-.034-.094.555.555 0 01-.01-.105V.328L.059.313a.267.267 0 00.13.1c.02.007.042.011.065.011.03 0 .058-.004.084-.013A.184.184 0 00.452.305.229.229 0 00.469.213.206.206 0 00.34.018.239.239 0 00.245 0M.243.052A.168.168 0 01.37.105a.15.15 0 01.031.051.178.178 0 01-.003.127.128.128 0 01-.035.05.143.143 0 01-.053.03.208.208 0 01-.066.01A.187.187 0 01.14.341.23.23 0 01.062.259.36.36 0 01.076.188.189.189 0 01.163.071a.158.158 0 01.08-.019z"/></symbol><symbol id="ar"><path d="M.227 0a.326.326 0 00-.09.012.187.187 0 00-.12.093.16.16 0 00.034.188.202.202 0 00.053.038c.02.01.04.019.062.025a.23.23 0 00-.107.055.137.137 0 00-.048.106c0 .03.006.055.019.076.013.022.029.04.049.054a.29.29 0 00.225.031.222.222 0 00.07-.031.162.162 0 00.05-.054.146.146 0 00.019-.076.137.137 0 00-.048-.106.22.22 0 00-.05-.034.323.323 0 00-.057-.021.286.286 0 00.114-.063.176.176 0 00.037-.051.139.139 0 00.014-.063.165.165 0 00-.065-.13.228.228 0 00-.072-.036A.293.293 0 00.227 0m0 .38l.042.011a.225.225 0 01.052.023c.017.01.032.023.045.038a.092.092 0 01.019.059c0 .02-.004.038-.013.053a.11.11 0 01-.034.04.198.198 0 01-.111.033.208.208 0 01-.112-.033.113.113 0 01-.046-.093c0-.023.006-.043.019-.059A.165.165 0 01.133.414.253.253 0 01.185.391.513.513 0 01.227.38m0-.328C.249.052.27.055.29.061a.17.17 0 01.054.026.13.13 0 01.038.041.11.11 0 01.014.055.103.103 0 01-.021.065.216.216 0 01-.105.071.27.27 0 01-.043.011.295.295 0 01-.1-.038.18.18 0 01-.049-.044.106.106 0 01-.02-.065.11.11 0 01.014-.055.136.136 0 01.037-.041.17.17 0 01.054-.026.228.228 0 01.064-.009z"/></symbol><symbol id="as"><path d="M.142 0v.589L.035.475 0 .512l.147.155h.052V0H.142z"/></symbol><use xlink:href="#an" transform="matrix(6.7563 0 0 -7 112.608 559.248)" fill="#231f20"/><use xlink:href="#ao" transform="matrix(6.7563 0 0 -7 116.554 559.332)" fill="#231f20"/><use xlink:href="#ao" transform="matrix(6.7563 0 0 -7 120.661 559.332)" fill="#231f20"/><use xlink:href="#ao" transform="matrix(6.7563 0 0 -7 124.77 559.332)" fill="#231f20"/><use xlink:href="#an" transform="matrix(6.7563 0 0 -7 158.733 559.248)" fill="#231f20"/><use xlink:href="#ao" transform="matrix(6.7563 0 0 -7 162.679 559.332)" fill="#231f20"/><use xlink:href="#ao" transform="matrix(6.7563 0 0 -7 166.787 559.332)" fill="#231f20"/><use xlink:href="#an" transform="matrix(6.7563 0 0 -7 170.881 559.248)" fill="#231f20"/><use xlink:href="#an" transform="matrix(6.7563 0 0 -7 204.581 559.248)" fill="#231f20"/><use xlink:href="#ao" transform="matrix(6.7563 0 0 -7 208.527 559.332)" fill="#231f20"/><use xlink:href="#ao" transform="matrix(6.7563 0 0 -7 212.635 559.332)" fill="#231f20"/><use xlink:href="#ap" transform="matrix(6.7563 0 0 -7 216.587 559.248)" fill="#231f20"/><use xlink:href="#an" transform="matrix(6.7563 0 0 -7 250.038 559.248)" fill="#231f20"/><use xlink:href="#ao" transform="matrix(6.7563 0 0 -7 253.984 559.332)" fill="#231f20"/><use xlink:href="#ao" transform="matrix(6.7563 0 0 -7 258.091 559.332)" fill="#231f20"/><use xlink:href="#aq" transform="matrix(6.7563 0 0 -7 262.2 559.332)" fill="#231f20"/><use xlink:href="#an" transform="matrix(6.7563 0 0 -7 295.271 559.248)" fill="#231f20"/><use xlink:href="#ao" transform="matrix(6.7563 0 0 -7 299.217 559.332)" fill="#231f20"/><use xlink:href="#ao" transform="matrix(6.7563 0 0 -7 303.325 559.332)" fill="#231f20"/><use xlink:href="#ar" transform="matrix(6.7563 0 0 -7 307.44 559.332)" fill="#231f20"/><use xlink:href="#an" transform="matrix(6.7563 0 0 -7 342.2 559.248)" fill="#231f20"/><use xlink:href="#ao" transform="matrix(6.7563 0 0 -7 346.146 559.332)" fill="#231f20"/><use xlink:href="#as" transform="matrix(6.7563 0 0 -7 350.038 559.248)" fill="#231f20"/><use xlink:href="#ao" transform="matrix(6.7563 0 0 -7 352.335 559.332)" fill="#231f20"/><use xlink:href="#an" transform="matrix(6.7563 0 0 -7 388.002 559.248)" fill="#231f20"/><use xlink:href="#ao" transform="matrix(6.7563 0 0 -7 391.947 559.332)" fill="#231f20"/><use xlink:href="#as" transform="matrix(6.7563 0 0 -7 395.839 559.248)" fill="#231f20"/><use xlink:href="#an" transform="matrix(6.7563 0 0 -7 398.122 559.248)" fill="#231f20"/><use xlink:href="#an" transform="matrix(6.7563 0 0 -7 432.742 559.248)" fill="#231f20"/><use xlink:href="#ao" transform="matrix(6.7563 0 0 -7 436.687 559.332)" fill="#231f20"/><use xlink:href="#as" transform="matrix(6.7563 0 0 -7 440.58 559.248)" fill="#231f20"/><use xlink:href="#ap" transform="matrix(6.7563 0 0 -7 442.72 559.248)" fill="#231f20"/><use xlink:href="#an" transform="matrix(6.7563 0 0 -7 477.306 559.248)" fill="#231f20"/><use xlink:href="#ao" transform="matrix(6.7563 0 0 -7 481.252 559.332)" fill="#231f20"/><use xlink:href="#as" transform="matrix(6.7563 0 0 -7 485.144 559.248)" fill="#231f20"/><use xlink:href="#aq" transform="matrix(6.7563 0 0 -7 487.44 559.332)" fill="#231f20"/><use xlink:href="#an" transform="matrix(6.7563 0 0 -7 521.952 559.248)" fill="#231f20"/><use xlink:href="#ao" transform="matrix(6.7563 0 0 -7 525.898 559.332)" fill="#231f20"/><use xlink:href="#as" transform="matrix(6.7563 0 0 -7 529.79 559.248)" fill="#231f20"/><use xlink:href="#ar" transform="matrix(6.7563 0 0 -7 532.093 559.332)" fill="#231f20"/><path stroke-width=".642" stroke-linecap="round" stroke-dasharray="0,2.139" stroke-miterlimit="10" fill="none" stroke="#bcbec0" d="M97.983 472.757H547.97"/><symbol id="at"><path d="M.142 0v.589L.035.475 0 .512l.147.155h.052V0H.142z"/></symbol><symbol id="au"><path d="M.247 0a.204.204 0 00-.115.031.249.249 0 00-.076.082.397.397 0 00-.043.111.589.589 0 000 .242c.01.04.024.077.043.11a.24.24 0 00.076.081.2.2 0 00.115.032C.292.689.329.679.36.657A.24.24 0 00.436.576a.348.348 0 00.043-.11.54.54 0 000-.242.36.36 0 00-.043-.111A.249.249 0 00.36.031.198.198 0 00.247 0m0 .052c.035 0 .064.009.087.026a.192.192 0 01.057.069c.015.028.025.06.031.094a.56.56 0 01.001.208.318.318 0 01-.031.094.192.192 0 01-.058.068.142.142 0 01-.087.026.148.148 0 01-.089-.026A.192.192 0 01.1.543.362.362 0 01.069.449a.609.609 0 010-.208A.362.362 0 01.1.147.202.202 0 01.158.078.148.148 0 01.247.052z"/></symbol><symbol id="av"><path d="M.044 0a.042.042 0 00-.031.013A.046.046 0 000 .045c0 .011.004.021.013.03a.042.042 0 00.031.013.042.042 0 00.031-.013.04.04 0 00.014-.03.044.044 0 00-.014-.032A.042.042 0 00.044 0z"/></symbol><symbol id="aw"><path d="M.225 0a.284.284 0 00-.137.029.266.266 0 00-.088.08l.038.038A.23.23 0 01.115.076.231.231 0 01.291.064c.02.009.038.02.053.034a.16.16 0 01.048.115.17.17 0 01-.047.119.176.176 0 01-.119.044.23.23 0 01-.162-.065L.021.329v.35h.385V.627H.078V.366a.24.24 0 00.159.062.23.23 0 00.148-.054.187.187 0 00.047-.067A.222.222 0 00.45.215a.202.202 0 00-.138-.2A.251.251 0 00.225 0z"/></symbol><use xlink:href="#at" transform="matrix(7 0 0 -8.4851 66.736 419.7)" fill="#231f20"/><use xlink:href="#au" transform="matrix(7 0 0 -8.4851 69.984 419.802)" fill="#231f20"/><use xlink:href="#av" transform="matrix(7 0 0 -8.4851 74.212 419.785)" fill="#231f20"/><use xlink:href="#au" transform="matrix(7 0 0 -8.4851 75.633 419.802)" fill="#231f20"/><use xlink:href="#au" transform="matrix(7 0 0 -8.4851 79.749 419.802)" fill="#231f20"/><use xlink:href="#au" transform="matrix(7 0 0 -8.4851 83.865 419.802)" fill="#231f20"/><use xlink:href="#at" transform="matrix(7 0 0 -8.4851 66.736 362.697)" fill="#231f20"/><use xlink:href="#aw" transform="matrix(7 0 0 -8.4851 70.18 362.799)" fill="#231f20"/><use xlink:href="#av" transform="matrix(7 0 0 -8.4851 74.212 362.782)" fill="#231f20"/><use xlink:href="#au" transform="matrix(7 0 0 -8.4851 75.633 362.799)" fill="#231f20"/><use xlink:href="#au" transform="matrix(7 0 0 -8.4851 79.749 362.799)" fill="#231f20"/><use xlink:href="#au" transform="matrix(7 0 0 -8.4851 83.865 362.799)" fill="#231f20"/><use xlink:href="#aw" transform="matrix(7 0 0 -8.4851 66.064 476.075)" fill="#231f20"/><use xlink:href="#av" transform="matrix(7 0 0 -8.4851 70.096 476.058)" fill="#231f20"/><use xlink:href="#au" transform="matrix(7 0 0 -8.4851 71.517 476.075)" fill="#231f20"/><use xlink:href="#au" transform="matrix(7 0 0 -8.4851 75.633 476.075)" fill="#231f20"/><use xlink:href="#au" transform="matrix(7 0 0 -8.4851 79.749 476.075)" fill="#231f20"/><use xlink:href="#au" transform="matrix(7 0 0 -8.4851 65.868 531.525)" fill="#231f20"/><path stroke-width=".642" stroke-linecap="round" stroke-dasharray="0,2.139" stroke-miterlimit="10" fill="none" stroke="#bcbec0" d="M97.983 529.152H547.97M97.983 359.885H547.97M97.983 416.279H547.97M97.983 303.203H547.97"/><symbol id="ax"><path d="M0 0v.047l.155.128c.047.04.086.078.119.113.033.036.059.07.077.103a.2.2 0 01.028.098.123.123 0 01-.014.061.136.136 0 01-.084.067A.23.23 0 01.117.6.202.202 0 01.044.538L.005.574a.236.236 0 00.093.075.293.293 0 00.203.017.204.204 0 00.068-.034.167.167 0 00.049-.058.18.18 0 00.019-.085A.242.242 0 00.41.38.514.514 0 00.335.273 1.15 1.15 0 00.224.165 4.456 4.456 0 00.089.052H.44V0H0z"/></symbol><symbol id="ay"><path d="M.227 0a.279.279 0 00-.14.033A.244.244 0 000 .111l.039.034A.229.229 0 01.114.078.232.232 0 01.226.052c.052 0 .093.013.123.038s.045.06.045.104A.123.123 0 01.38.255a.115.115 0 01-.038.042.152.152 0 01-.057.024.296.296 0 01-.07.008H.178L.153.328v.054A.223.223 0 01.178.381h.037c.022 0 .043.002.063.007a.18.18 0 01.054.023.111.111 0 01.052.097.114.114 0 01-.048.095.146.146 0 01-.051.025.205.205 0 01-.061.009.217.217 0 01-.1-.022.263.263 0 01-.079-.063L.009.588a.27.27 0 00.218.101.277.277 0 00.082-.012.191.191 0 00.069-.034.16.16 0 00.064-.13A.15.15 0 00.391.4.185.185 0 00.299.357.179.179 0 00.397.313.17.17 0 00.436.262.149.149 0 00.452.191.19.19 0 00.437.115.172.172 0 00.393.054a.222.222 0 00-.071-.04A.3.3 0 00.227 0z"/></symbol><use xlink:href="#ax" transform="matrix(7 0 0 -8.4851 66.008 250.147)" fill="#231f20"/><use xlink:href="#aw" transform="matrix(7 0 0 -8.4851 70.18 250.249)" fill="#231f20"/><use xlink:href="#av" transform="matrix(7 0 0 -8.4851 74.212 250.232)" fill="#231f20"/><use xlink:href="#au" transform="matrix(7 0 0 -8.4851 75.633 250.249)" fill="#231f20"/><use xlink:href="#au" transform="matrix(7 0 0 -8.4851 79.749 250.249)" fill="#231f20"/><use xlink:href="#au" transform="matrix(7 0 0 -8.4851 83.865 250.249)" fill="#231f20"/><use xlink:href="#ay" transform="matrix(7 0 0 -8.4851 65.994 193.246)" fill="#231f20"/><use xlink:href="#au" transform="matrix(7 0 0 -8.4851 69.984 193.246)" fill="#231f20"/><use xlink:href="#av" transform="matrix(7 0 0 -8.4851 74.212 193.229)" fill="#231f20"/><use xlink:href="#au" transform="matrix(7 0 0 -8.4851 75.633 193.246)" fill="#231f20"/><use xlink:href="#au" transform="matrix(7 0 0 -8.4851 79.749 193.246)" fill="#231f20"/><use xlink:href="#au" transform="matrix(7 0 0 -8.4851 83.865 193.246)" fill="#231f20"/><use xlink:href="#ax" transform="matrix(7 0 0 -8.4851 66.008 306.42)" fill="#231f20"/><use xlink:href="#au" transform="matrix(7 0 0 -8.4851 69.984 306.522)" fill="#231f20"/><use xlink:href="#av" transform="matrix(7 0 0 -8.4851 74.212 306.505)" fill="#231f20"/><use xlink:href="#au" transform="matrix(7 0 0 -8.4851 75.633 306.522)" fill="#231f20"/><use xlink:href="#au" transform="matrix(7 0 0 -8.4851 79.749 306.522)" fill="#231f20"/><use xlink:href="#au" transform="matrix(7 0 0 -8.4851 83.865 306.522)" fill="#231f20"/><path stroke-width=".642" stroke-linecap="round" stroke-dasharray="0,2.139" stroke-miterlimit="10" fill="none" stroke="#bcbec0" d="M97.983 190.33H547.97M97.983 246.725H547.97"/><use xlink:href="#ay" transform="matrix(7 0 0 -8.4851 65.994 135.18)" fill="#231f20"/><use xlink:href="#aw" transform="matrix(7 0 0 -8.4851 70.18 135.18)" fill="#231f20"/><use xlink:href="#av" transform="matrix(7 0 0 -8.4851 74.212 135.164)" fill="#231f20"/><use xlink:href="#au" transform="matrix(7 0 0 -8.4851 75.633 135.18)" fill="#231f20"/><use xlink:href="#au" transform="matrix(7 0 0 -8.4851 79.749 135.18)" fill="#231f20"/><use xlink:href="#au" transform="matrix(7 0 0 -8.4851 83.865 135.18)" fill="#231f20"/><path stroke-width=".642" stroke-linecap="round" stroke-dasharray="0,2.139" stroke-miterlimit="10" fill="none" stroke="#bcbec0" d="M97.983 132.262H547.97"/><symbol id="az"><path d="M0 0v.667h.423V.615H.057V.368h.359V.316H.057V0H0z"/></symbol><symbol id="aA"><path d="M.232 0a.225.225 0 00-.169.074.264.264 0 00-.063.18.3.3 0 00.016.099c.011.03.027.057.047.08s.044.041.073.054c.029.013.06.02.096.02a.227.227 0 00.097-.02.203.203 0 00.073-.054.283.283 0 00.063-.179.283.283 0 00-.063-.18A.22.22 0 00.232 0m0 .047A.16.16 0 01.363.11a.251.251 0 010 .287.16.16 0 01-.131.063.161.161 0 01-.131-.063.206.206 0 01-.034-.066.269.269 0 010-.155A.221.221 0 01.101.11.161.161 0 01.232.047z"/></symbol><symbol id="aB"><path d="M.326 0v.327a.16.16 0 01-.009.058.087.087 0 01-.061.057.171.171 0 01-.093-.001.254.254 0 01-.044-.018.208.208 0 01-.067-.058V0H0v.483h.052V.41a.266.266 0 00.122.077.176.176 0 00.052.008c.05 0 .087-.013.113-.038C.365.432.378.393.378.338V0H.326z"/></symbol><symbol id="aC"><path d="M.175 0C.143 0 .119.009.103.027A.12.12 0 00.08.105v.344H0v.046h.08v.132h.053V.495h.098V.449H.133V.113c0-.02.004-.035.012-.048C.153.053.165.047.183.047c.011 0 .022.002.031.007A.07.07 0 01.237.07l.02-.04A.102.102 0 00.224.008.128.128 0 00.175 0z"/></symbol><symbol id="aD"><path d="M.242 0a.226.226 0 00-.174.071.246.246 0 00-.05.08.286.286 0 00.048.282.23.23 0 00.167.074.214.214 0 00.169-.076.243.243 0 00.044-.082.314.314 0 00.015-.098V.237H.057A.21.21 0 01.11.101.184.184 0 01.246.045a.218.218 0 01.158.067L.431.078A.246.246 0 00.242 0m.166.278c0 .02-.004.042-.011.063A.174.174 0 01.31.445a.168.168 0 01-.078.017.158.158 0 01-.129-.061.192.192 0 01-.046-.123h.351z"/></symbol><symbol id="aE"><path d="M.044.413a.042.042 0 00-.031.013.042.042 0 000 .061A.042.042 0 00.044.5.042.042 0 00.075.487.04.04 0 00.089.456a.04.04 0 00-.014-.03.042.042 0 00-.031-.013m0-.413a.042.042 0 00-.031.013A.046.046 0 000 .045c0 .011.004.021.013.03a.042.042 0 00.031.013.042.042 0 00.031-.013.04.04 0 00.014-.03.044.044 0 00-.014-.032A.042.042 0 00.044 0z"/></symbol><symbol id="aG"><path d="M.04.559a.04.04 0 00-.04.04c0 .011.004.02.012.028A.04.04 0 00.04.638C.051.638.06.634.068.627A.036.036 0 00.08.599a.04.04 0 00-.04-.04M.014 0v.483h.052V0H.014z"/></symbol><symbol id="aH"><path d="M.219 0a.49.49 0 00-.056.003.195.195 0 00-.048.012.194.194 0 00-.044.022.252.252 0 00-.042.036l.03.04A.18.18 0 01.128.06.243.243 0 01.282.054.13.13 0 01.37.129C.38.149.384.172.384.2v.076a.233.233 0 00-.07-.064.189.189 0 00-.098-.026.2.2 0 00-.157.068.245.245 0 00-.044.079A.344.344 0 000 .438a.34.34 0 00.015.104C.025.573.04.6.059.622a.2.2 0 00.157.069.192.192 0 00.095-.024.21.21 0 00.073-.066v.078h.053V.201A.219.219 0 00.419.107.163.163 0 00.372.045a.18.18 0 00-.07-.034A.304.304 0 00.219 0m.006.233a.207.207 0 01.131.054c.011.01.02.022.028.034v.235A.165.165 0 01.356.59a.207.207 0 01-.131.054A.159.159 0 01.1.585.219.219 0 01.067.519a.294.294 0 010-.163.166.166 0 01.086-.108.168.168 0 01.072-.015z"/></symbol><symbol id="aI"><path d="M.326.012v.071A.286.286 0 00.25.025.198.198 0 00.152 0C.102 0 .064.012.038.036.013.061 0 .1 0 .155v.34h.052V.167C.052.144.055.124.06.108A.099.099 0 01.084.071.103.103 0 01.121.052a.217.217 0 01.094.001.225.225 0 01.111.074v.368h.052V.012H.326z"/></symbol><symbol id="aJ"><path d="M0 0v.483h.052V.4a.28.28 0 00.071.067.168.168 0 00.092.026V.436a926.39 926.39 0 01-.026.002.183.183 0 01-.137-.086V0H0z"/></symbol><symbol id="aK"><path d="M.333.012v.057A.212.212 0 00.107.011a.165.165 0 00-.054.03.165.165 0 00-.039.051A.161.161 0 000 .161C0 .187.005.21.014.23c.01.02.023.037.039.05a.156.156 0 00.054.031c.02.007.04.01.062.01A.21.21 0 00.333.252V.35a.095.095 0 01-.038.082.147.147 0 01-.092.029.194.194 0 01-.082-.017A.202.202 0 01.052.39L.023.426a.258.258 0 00.082.061.25.25 0 00.104.02.254.254 0 00.069-.009A.158.158 0 00.334.47.124.124 0 00.371.421.157.157 0 00.385.352v-.34H.333M.187.041a.21.21 0 01.082.016.167.167 0 01.064.05v.106a.167.167 0 01-.064.05.198.198 0 01-.082.017.134.134 0 01-.096-.034A.113.113 0 01.055.16c0-.034.012-.062.036-.085A.134.134 0 01.187.041z"/></symbol><symbol id="aL"><path d="M.218 0v.615H0v.052h.494V.615H.276V0H.218z"/></symbol><symbol id="aM"><path d="M0 0v.048h.24V0H0z"/></symbol><symbol id="aN"><path d="M.142 0v.589L.035.475 0 .512l.147.155h.052V0H.142z"/></symbol><symbol id="aO"><path d="M.227 0a.279.279 0 00-.14.033A.244.244 0 000 .111l.039.034A.229.229 0 01.114.078.232.232 0 01.226.052c.052 0 .093.013.123.038s.045.06.045.104A.123.123 0 01.38.255a.115.115 0 01-.038.042.152.152 0 01-.057.024.296.296 0 01-.07.008H.178L.153.328v.054A.223.223 0 01.178.381h.037c.022 0 .043.002.063.007a.18.18 0 01.054.023.111.111 0 01.052.097.114.114 0 01-.048.095.146.146 0 01-.051.025.205.205 0 01-.061.009.217.217 0 01-.1-.022.263.263 0 01-.079-.063L.009.588a.27.27 0 00.218.101.277.277 0 00.082-.012.191.191 0 00.069-.034.16.16 0 00.064-.13A.15.15 0 00.391.4.185.185 0 00.299.357.179.179 0 00.397.313.17.17 0 00.436.262.149.149 0 00.452.191.19.19 0 00.437.115.172.172 0 00.393.054a.222.222 0 00-.071-.04A.3.3 0 00.227 0z"/></symbol><symbol id="aP"><path d="M.244 0a.34.34 0 00-.145.029A.289.289 0 000 .106l.037.043A.302.302 0 01.121.081.268.268 0 01.245.052.24.24 0 01.33.065a.16.16 0 01.054.032.11.11 0 01.029.043.143.143 0 01.008.045c0 .033-.01.058-.03.076a.223.223 0 01-.074.044.708.708 0 01-.096.029.592.592 0 00-.097.033A.224.224 0 00.05.42a.137.137 0 00-.029.092.16.16 0 00.064.13A.273.273 0 00.24.69C.29.69.334.682.371.665A.259.259 0 00.466.596L.428.554a.213.213 0 01-.085.064.278.278 0 01-.168.011.15.15 0 01-.049-.026.116.116 0 01-.033-.039.1.1 0 01-.012-.049c0-.021.006-.039.017-.053A.134.134 0 01.143.427c.02-.01.04-.018.064-.025A4.213 4.213 0 00.354.356.228.228 0 00.418.321.163.163 0 00.464.267.16.16 0 00.481.189.198.198 0 00.469.123.156.156 0 00.43.062.221.221 0 00.356.017.32.32 0 00.244 0z"/></symbol><symbol id="aQ"><path d="M.236 0a.18.18 0 00-.097.029l.016.032a.13.13 0 01.08-.028c.017 0 .032.004.045.012C.293.052.3.063.3.078a.041.041 0 01-.01.029C.283.114.273.117.259.117A.05.05 0 01.219.1L.191.116l.022.06a.23.23 0 00-.089.025.245.245 0 00-.067.055.258.258 0 00-.042.078.298.298 0 00.001.194c.011.03.027.057.048.08a.232.232 0 00.171.074A.2.2 0 00.406.6L.37.568a.15.15 0 01-.059.051.165.165 0 01-.073.016.176.176 0 01-.134-.06A.198.198 0 01.068.51a.27.27 0 010-.163.212.212 0 01.036-.065.172.172 0 01.134-.06c.027 0 .051.005.073.016A.16.16 0 01.37.29L.406.258A.246.246 0 00.342.201.19.19 0 00.25.176L.234.132c.01.008.022.012.037.012A.064.064 0 00.337.078a.065.065 0 00-.03-.056A.114.114 0 00.236 0z"/></symbol><symbol id="aR"><path d="M.333.012v.057A.212.212 0 00.107.011a.165.165 0 00-.054.03.165.165 0 00-.039.051A.161.161 0 000 .161C0 .187.005.21.014.23c.01.02.023.037.039.05a.156.156 0 00.054.031c.02.007.04.01.062.01A.21.21 0 00.333.252V.35a.095.095 0 01-.038.082.147.147 0 01-.092.029.194.194 0 01-.082-.017A.202.202 0 01.052.39L.023.426a.258.258 0 00.082.061.25.25 0 00.104.02.254.254 0 00.069-.009A.158.158 0 00.334.47.124.124 0 00.371.421.157.157 0 00.385.352v-.34H.333M.187.041a.21.21 0 01.082.016.167.167 0 01.064.05v.106a.167.167 0 01-.064.05.198.198 0 01-.082.017.134.134 0 01-.096-.034A.113.113 0 01.055.16c0-.034.012-.062.036-.085A.134.134 0 01.187.041M.27.566a.06.06 0 00-.044.016.202.202 0 00-.028.035.305.305 0 01-.023.036.035.035 0 01-.031.016C.129.669.116.661.105.646A.14.14 0 01.09.572H.055c0 .019.002.036.006.052.004.017.01.031.018.043a.09.09 0 00.029.028.072.072 0 00.04.011C.167.706.181.701.191.69A.17.17 0 00.218.655L.241.62A.038.038 0 01.273.604c.015 0 .028.007.038.022A.14.14 0 01.326.7h.036A.226.226 0 00.356.647.133.133 0 00.338.605.086.086 0 00.309.576.075.075 0 00.27.566z"/></symbol><symbol id="aS"><path d="M.575 0v.338c0 .034-.008.06-.023.08-.015.02-.04.03-.074.03A.158.158 0 01.399.423.176.176 0 01.34.366V0H.287v.338c0 .034-.008.06-.023.08-.015.02-.04.03-.074.03A.118.118 0 01.151.441.183.183 0 01.078.396.221.221 0 01.052.365V0H0v.483h.052V.41a.12.12 0 00.022.026.234.234 0 00.083.05.15.15 0 00.138-.019.129.129 0 00.04-.063A.18.18 0 00.4.466a.213.213 0 00.045.021.157.157 0 00.05.008C.583.495.627.446.627.348V0H.575z"/></symbol><symbol id="aT"><path d="M.333.012v.057A.212.212 0 00.107.011a.165.165 0 00-.054.03.165.165 0 00-.039.051A.161.161 0 000 .161C0 .187.005.21.014.23c.01.02.023.037.039.05a.156.156 0 00.054.031c.02.007.04.01.062.01A.21.21 0 00.333.252V.35a.095.095 0 01-.038.082.147.147 0 01-.092.029.194.194 0 01-.082-.017A.202.202 0 01.052.39L.023.426a.258.258 0 00.082.061.25.25 0 00.104.02.254.254 0 00.069-.009A.158.158 0 00.334.47.124.124 0 00.371.421.157.157 0 00.385.352v-.34H.333M.187.041a.21.21 0 01.082.016.167.167 0 01.064.05v.106a.167.167 0 01-.064.05.198.198 0 01-.082.017.134.134 0 01-.096-.034A.113.113 0 01.055.16c0-.034.012-.062.036-.085A.134.134 0 01.187.041m.012.527H.155l.154.144h.062L.199.568z"/></symbol><symbol id="aU"><path d="M.235 0a.232.232 0 00-.171.074.253.253 0 00-.064.18.3.3 0 00.016.099c.011.03.027.057.048.08a.232.232 0 00.171.074.2.2 0 00.171-.082L.37.393a.15.15 0 01-.059.051.165.165 0 01-.073.016A.176.176 0 01.104.4.198.198 0 01.068.335a.27.27 0 010-.163.212.212 0 01.036-.065.172.172 0 01.134-.06c.027 0 .051.005.073.016A.16.16 0 01.37.115L.406.083A.231.231 0 00.337.022.207.207 0 00.235 0z"/></symbol><use xlink:href="#az" transform="matrix(7 0 0 -7 66.054 770.78)" fill="#231f20"/><use xlink:href="#aA" transform="matrix(7 0 0 -7 69.638 770.863)" fill="#231f20"/><use xlink:href="#aB" transform="matrix(7 0 0 -7 73.83 770.78)" fill="#231f20"/><use xlink:href="#aC" transform="matrix(7 0 0 -7 77.12 770.863)" fill="#231f20"/><use xlink:href="#aD" transform="matrix(7 0 0 -7 79.34 770.863)" fill="#231f20"/><use xlink:href="#aE" transform="matrix(7 0 0 -7 83.393 770.85)" fill="#231f20"/><use xlink:href="#aF" transform="matrix(7 0 0 -7 84.47 770.78)" fill="#231f20"/><use xlink:href="#az" transform="matrix(7 0 0 -7 86.865 770.78)" fill="#231f20"/><use xlink:href="#aG" transform="matrix(7 0 0 -7 90.547 770.78)" fill="#231f20"/><use xlink:href="#aH" transform="matrix(7 0 0 -7 91.947 772.151)" fill="#231f20"/><use xlink:href="#aI" transform="matrix(7 0 0 -7 96.133 770.863)" fill="#231f20"/><use xlink:href="#aJ" transform="matrix(7 0 0 -7 99.913 770.78)" fill="#231f20"/><use xlink:href="#aK" transform="matrix(7 0 0 -7 101.95 770.863)" fill="#231f20"/><use xlink:href="#aF" transform="matrix(7 0 0 -7 105.212 770.78)" fill="#231f20"/><use xlink:href="#aL" transform="matrix(7 0 0 -7 107.27 770.78)" fill="#231f20"/><use xlink:href="#aM" transform="matrix(7 0 0 -7 111.183 769.253)" fill="#231f20"/><use xlink:href="#aN" transform="matrix(7 0 0 -7 113.255 770.78)" fill="#231f20"/><use xlink:href="#av" transform="matrix(7 0 0 -7 115.684 770.85)" fill="#231f20"/><use xlink:href="#aO" transform="matrix(7 0 0 -7 116.986 770.863)" fill="#231f20"/><use xlink:href="#aF" transform="matrix(7 0 0 -7 120.57 770.78)" fill="#231f20"/><use xlink:href="#aB" transform="matrix(7 0 0 -7 122.95 770.78)" fill="#231f20"/><use xlink:href="#aK" transform="matrix(7 0 0 -7 126.548 770.863)" fill="#231f20"/><use xlink:href="#aF" transform="matrix(7 0 0 -7 129.81 770.78)" fill="#231f20"/><use xlink:href="#aP" transform="matrix(7 0 0 -7 131.945 770.863)" fill="#231f20"/><use xlink:href="#aD" transform="matrix(7 0 0 -7 136.06 770.863)" fill="#231f20"/><use xlink:href="#aQ" transform="matrix(7 0 0 -7 140.03 772.088)" fill="#231f20"/><use xlink:href="#aR" transform="matrix(7 0 0 -7 143.502 770.863)" fill="#231f20"/><use xlink:href="#aA" transform="matrix(7 0 0 -7 147.135 770.863)" fill="#231f20"/><use xlink:href="#aF" transform="matrix(7 0 0 -7 150.76 770.78)" fill="#231f20"/><use xlink:href="#aL" transform="matrix(7 0 0 -7 152.819 770.78)" fill="#231f20"/><use xlink:href="#aD" transform="matrix(7 0 0 -7 156.893 770.863)" fill="#231f20"/><use xlink:href="#aS" transform="matrix(7 0 0 -7 161.058 770.78)" fill="#231f20"/><use xlink:href="#aT" transform="matrix(7 0 0 -7 166.399 770.863)" fill="#231f20"/><use xlink:href="#aC" transform="matrix(7 0 0 -7 169.738 770.863)" fill="#231f20"/><use xlink:href="#aG" transform="matrix(7 0 0 -7 172.055 770.78)" fill="#231f20"/><use xlink:href="#aU" transform="matrix(7 0 0 -7 173.455 770.863)" fill="#231f20"/><use xlink:href="#aK" transform="matrix(7 0 0 -7 176.927 770.863)" fill="#231f20"/><use xlink:href="#av" transform="matrix(7 0 0 -7 180.644 770.85)" fill="#231f20"/><symbol id="aV"><path d="M0 .001l.309.535L.619 0 0 .001z"/></symbol><symbol id="aW"><path d="M0 0v.667h.25C.282.667.31.662.335.651A.176.176 0 00.437.546.205.205 0 00.398.335.192.192 0 00.25.277H.057V0H0m.244.329a.138.138 0 01.147.143.145.145 0 01-.041.103.158.158 0 01-.106.04H.057V.329h.187z"/></symbol><symbol id="aX"><path d="M.052.133a.19.19 0 01.23-.071c.021.01.04.025.054.044.015.019.026.04.033.065a.294.294 0 010 .164A.181.181 0 01.336.4a.157.157 0 01-.174.052.207.207 0 01-.083-.047.15.15 0 01-.027-.033V.133M0 .012v.667h.052V.417a.21.21 0 00.073.066.212.212 0 00.183.006A.221.221 0 00.42.357.321.321 0 00.436.253.324.324 0 00.42.148a.234.234 0 00-.045-.08A.19.19 0 00.22 0a.195.195 0 00-.098.025.217.217 0 00-.07.064V.012H0z"/></symbol><symbol id="aY"><path d="M0 0v.667h.052V0H0z"/></symbol><symbol id="aZ"><path d="M.232 0a.225.225 0 00-.169.074.264.264 0 00-.063.18.3.3 0 00.016.099c.011.03.027.057.047.08s.044.041.073.054c.029.013.06.02.096.02a.227.227 0 00.097-.02.203.203 0 00.073-.054.283.283 0 00.063-.179.283.283 0 00-.063-.18A.22.22 0 00.232 0m0 .047A.16.16 0 01.363.11a.251.251 0 010 .287.16.16 0 01-.131.063.161.161 0 01-.131-.063.206.206 0 01-.034-.066.269.269 0 010-.155A.221.221 0 01.101.11.161.161 0 01.232.047m.062.519A.06.06 0 00.25.582a.202.202 0 00-.028.035.305.305 0 01-.023.036.035.035 0 01-.031.016C.153.669.14.661.129.646A.14.14 0 01.114.572H.079c0 .019.002.036.006.052.004.017.01.031.018.043a.09.09 0 00.029.028.072.072 0 00.04.011C.191.706.205.701.215.69A.17.17 0 00.242.655L.265.62A.038.038 0 01.297.604c.015 0 .028.007.038.022A.14.14 0 01.35.7h.036A.226.226 0 00.38.647.133.133 0 00.362.605.086.086 0 00.333.576a.075.075 0 00-.039-.01z"/></symbol><symbol id="ba"><path d="M.186 0a.287.287 0 00-.105.018A.217.217 0 000 .076l.031.039A.199.199 0 01.187.044c.04 0 .072.01.095.028a.087.087 0 01.034.07.061.061 0 01-.023.051.17.17 0 01-.056.029.84.84 0 01-.074.02.468.468 0 00-.073.023.169.169 0 00-.057.04.1.1 0 00-.022.068c0 .019.004.036.011.052.008.017.02.031.034.043A.16.16 0 00.11.496a.224.224 0 00.073.011.234.234 0 00.105-.021.225.225 0 00.068-.05L.327.399a.143.143 0 01-.059.046.192.192 0 01-.085.018.141.141 0 01-.089-.025.077.077 0 01-.032-.063c0-.02.007-.035.022-.046A.216.216 0 01.141.302L.214.283A.358.358 0 00.288.258.157.157 0 00.344.215.109.109 0 00.367.142.13.13 0 00.355.087.125.125 0 00.321.041a.16.16 0 00-.056-.03A.257.257 0 00.186 0z"/></symbol><symbol id="bb"><path d="M.384.012v.077a.217.217 0 00-.07-.064.223.223 0 00-.186-.008.2.2 0 00-.069.051.243.243 0 00-.044.08A.344.344 0 000 .253a.34.34 0 00.015.104c.01.031.025.058.044.08.02.023.042.04.069.052A.212.212 0 00.311.483.21.21 0 00.384.417v.262h.053V.012H.384M.225.047a.183.183 0 01.094.026.196.196 0 01.065.06v.239a.165.165 0 01-.028.034.183.183 0 01-.203.038A.16.16 0 01.1.4.206.206 0 01.067.335a.294.294 0 010-.164A.221.221 0 01.1.106.16.16 0 01.153.062.168.168 0 01.225.047z"/></symbol><symbol id="bc"><path d="M.22.172a.195.195 0 00-.095.024.21.21 0 00-.073.066V0H0v.667h.052V.591a.211.211 0 00.256.07.18.18 0 00.068-.05.221.221 0 00.044-.08.324.324 0 00.016-.105A.324.324 0 00.42.321a.221.221 0 00-.044-.08A.19.19 0 00.308.19.212.212 0 00.22.172M.211.219a.162.162 0 01.158.125.294.294 0 010 .163.192.192 0 01-.033.066.147.147 0 01-.054.043.153.153 0 01-.071.016.184.184 0 01-.095-.026.175.175 0 01-.064-.06V.307A.15.15 0 01.079.274.25.25 0 01.162.226.174.174 0 01.211.219z"/></symbol><symbol id="bd"><path d="M0 0v.618L.535.309 0 0z"/></symbol><use xlink:href="#aV" transform="matrix(9 0 0 -9 106.722 607.519)" fill="#231f20"/><use xlink:href="#aF" transform="matrix(9 0 0 -9 112.284 607.78)" fill="#231f20"/><use xlink:href="#aW" transform="matrix(9 0 0 -9 120.617 607.78)" fill="#231f20"/><use xlink:href="#aI" transform="matrix(9 0 0 -9 125.738 607.888)" fill="#231f20"/><use xlink:href="#aX" transform="matrix(9 0 0 -9 130.598 607.888)" fill="#231f20"/><use xlink:href="#aY" transform="matrix(9 0 0 -9 135.737 607.78)" fill="#231f20"/><use xlink:href="#aG" transform="matrix(9 0 0 -9 137.537 607.78)" fill="#231f20"/><use xlink:href="#aU" transform="matrix(9 0 0 -9 139.337 607.888)" fill="#231f20"/><use xlink:href="#aK" transform="matrix(9 0 0 -9 143.801 607.888)" fill="#231f20"/><use xlink:href="#aQ" transform="matrix(9 0 0 -9 148.472 609.462)" fill="#231f20"/><use xlink:href="#aZ" transform="matrix(9 0 0 -9 152.918 607.888)" fill="#231f20"/><use xlink:href="#aD" transform="matrix(9 0 0 -9 158.057 607.888)" fill="#231f20"/><use xlink:href="#ba" transform="matrix(9 0 0 -9 163.034 607.888)" fill="#231f20"/><use xlink:href="#aF" transform="matrix(9 0 0 -9 166.814 607.78)" fill="#231f20"/><use xlink:href="#bb" transform="matrix(9 0 0 -9 169.622 607.888)" fill="#231f20"/><use xlink:href="#aD" transform="matrix(9 0 0 -9 174.761 607.888)" fill="#231f20"/><use xlink:href="#aF" transform="matrix(9 0 0 -9 179.387 607.78)" fill="#231f20"/><use xlink:href="#bc" transform="matrix(9 0 0 -9 182.447 609.436)" fill="#231f20"/><use xlink:href="#aK" transform="matrix(9 0 0 -9 187.316 607.888)" fill="#231f20"/><use xlink:href="#aC" transform="matrix(9 0 0 -9 191.61 607.888)" fill="#231f20"/><use xlink:href="#aD" transform="matrix(9 0 0 -9 194.462 607.888)" fill="#231f20"/><use xlink:href="#aB" transform="matrix(9 0 0 -9 199.817 607.78)" fill="#231f20"/><use xlink:href="#aC" transform="matrix(9 0 0 -9 204.047 607.888)" fill="#231f20"/><use xlink:href="#aD" transform="matrix(9 0 0 -9 206.9 607.888)" fill="#231f20"/><use xlink:href="#ba" transform="matrix(9 0 0 -9 211.877 607.888)" fill="#231f20"/><use xlink:href="#bd" transform="matrix(9 0 0 -9 107.226 619.983)" fill="#231f20"/><symbol id="be"><path d="M.326 0v.327a.16.16 0 01-.009.058.087.087 0 01-.061.057.171.171 0 01-.093-.001.254.254 0 01-.044-.018.208.208 0 01-.067-.058V0H0v.483h.052V.41a.266.266 0 00.122.077.176.176 0 00.052.008c.05 0 .087-.013.113-.038C.365.432.378.393.378.338V0H.326z"/></symbol><symbol id="bf"><path d="M.232 0a.225.225 0 00-.169.074.264.264 0 00-.063.18.3.3 0 00.016.099c.011.03.027.057.047.08s.044.041.073.054c.029.013.06.02.096.02a.227.227 0 00.097-.02.203.203 0 00.073-.054.283.283 0 00.063-.179.283.283 0 00-.063-.18A.22.22 0 00.232 0m0 .047A.16.16 0 01.363.11a.251.251 0 010 .287.16.16 0 01-.131.063.161.161 0 01-.131-.063.206.206 0 01-.034-.066.269.269 0 010-.155A.221.221 0 01.101.11.161.161 0 01.232.047z"/></symbol><use xlink:href="#G" transform="matrix(9 0 0 -9 112.023 619.777)" fill="#231f20"/><use xlink:href="#G" transform="matrix(9 0 0 -9 114.354 619.777)" fill="#231f20"/><use xlink:href="#G" transform="matrix(9 0 0 -9 116.685 619.777)" fill="#231f20"/><use xlink:href="#F" transform="matrix(9 0 0 -9 120.006 619.777)" fill="#231f20"/><use xlink:href="#be" transform="matrix(9 0 0 -9 126.423 619.777)" fill="#231f20"/><use xlink:href="#bf" transform="matrix(9 0 0 -9 131.031 619.884)" fill="#231f20"/><path stroke-width=".623" stroke-linecap="round" stroke-dasharray="0,2.076" stroke-miterlimit="10" fill="none" stroke="#bcbec0" d="M176.91 529.52v17.955M154.488 529.52v17.955M131.659 529.52v17.955M109.237 529.52v17.955M267.818 529.52v17.955M245.397 529.52v17.955M222.568 529.52v17.955M200.146 529.52v17.955M359.136 529.52v17.955M336.408 529.366v17.954M313.885 529.52v17.955M291.463 529.52v17.955M450.045 529.52v17.955M427.623 529.52v17.955M404.794 529.52v17.955M381.557 529.52v17.955M516.086 529.52v17.955M494.072 529.624v17.954M538.024 529.52v17.955M471.65 529.52v17.955"/><symbol id="bg"><path d="M0 0v.667h.472V.542h-.33V.401h.323V.276H.142V.125h.33V0H0z"/></symbol><symbol id="bh"><path d="M.46 0L.142.435V0H0v.667h.146L.455.248v.419h.142V0H.46z"/></symbol><symbol id="bi"><path d="M.348 0a.34.34 0 00-.25.097.33.33 0 00-.072.109A.366.366 0 000 .345a.358.358 0 00.098.248.366.366 0 00.25.097c.05 0 .097-.009.14-.026A.316.316 0 00.671.483.358.358 0 00.697.345.366.366 0 00.671.206.323.323 0 00.488.025.382.382 0 00.348 0m0 .126a.197.197 0 01.188.132c.01.027.015.056.015.087 0 .031-.005.06-.015.087a.194.194 0 01-.188.132.203.203 0 01-.084-.017.173.173 0 01-.063-.046A.215.215 0 01.16.432.262.262 0 01.146.345c0-.031.005-.06.014-.087A.215.215 0 01.201.189.19.19 0 01.348.126z"/></symbol><symbol id="bj"><path d="M0 0v.667h.142V.125h.282V0H0z"/></symbol><symbol id="bk"><path d="M.355 0a.358.358 0 00-.251.094.327.327 0 00-.076.109A.353.353 0 000 .346c0 .053.01.1.028.143a.327.327 0 00.189.178.395.395 0 00.232.012.298.298 0 00.137-.08.36.36 0 00.045-.057L.513.478a.208.208 0 01-.064.061.169.169 0 01-.094.026.208.208 0 01-.15-.063.21.21 0 01-.059-.156.21.21 0 01.125-.203.22.22 0 01.167 0c.026.01.046.022.059.035v.08H.321v.124h.318V.126A.37.37 0 00.355 0z"/></symbol><symbol id="bl"><path d="M0 0v.667h.142V0H0z"/></symbol><symbol id="bm"><path d="M.531 0L.49.113H.204L.162 0H0l.258.667h.178L.693 0H.531M.347.525L.243.238h.208L.347.525z"/></symbol><symbol id="bn"><path d="M.261.723H.172l.134.144h.117L.261.723M0 0v.667h.472V.542h-.33V.401h.323V.276H.142V.125h.33V0H0z"/></symbol><symbol id="bo"><path d="M0 0v.667h.263A.41.41 0 00.406.643a.316.316 0 00.211-.31.35.35 0 00-.026-.137.307.307 0 00-.185-.172A.41.41 0 00.263 0H0m.263.125a.203.203 0 01.154.061c.018.02.032.042.041.067a.235.235 0 01-.039.229.18.18 0 01-.066.044.236.236 0 01-.09.016H.142V.125h.121z"/></symbol><symbol id="bp"><path d="M0 0v.667h.472V.542h-.33V.401h.323V.276H.142V0H0z"/></symbol><symbol id="bq"><path d="M.531 0L.49.113H.204L.162 0H0l.258.667h.178L.693 0H.531M.347.525L.243.238h.208L.347.525m.026.198H.284l.134.144h.117L.373.723z"/></symbol><symbol id="br"><path d="M.377 0L.246.237H.142V0H0v.667h.312A.254.254 0 00.405.651.191.191 0 00.52.537.222.222 0 00.536.452.217.217 0 00.49.315a.187.187 0 00-.1-.061L.54 0H.377M.291.362C.32.362.343.37.362.386c.02.016.029.038.029.066 0 .028-.01.05-.029.066a.105.105 0 01-.071.024H.142v-.18h.149z"/></symbol><symbol id="bs"><path d="M.282 0C.217 0 .162.01.116.029A.35.35 0 000 .106l.077.108a.28.28 0 01.212-.09c.04 0 .068.007.087.022.02.015.029.033.029.052 0 .02-.01.034-.029.044a.288.288 0 01-.071.027 4.627 4.627 0 01-.092.023.417.417 0 00-.093.034.217.217 0 00-.071.059.166.166 0 00-.028.101.18.18 0 00.017.078.205.205 0 00.05.065.243.243 0 00.08.044c.031.01.067.016.106.016a.369.369 0 00.26-.093L.455.492a.25.25 0 01-.092.055.305.305 0 01-.102.018A.115.115 0 01.19.546.057.057 0 01.166.498c0-.017.01-.031.028-.041A.395.395 0 01.265.432L.357.409A.37.37 0 00.449.374.2.2 0 00.52.314a.16.16 0 00.029-.1.21.21 0 00-.017-.085.181.181 0 00-.049-.068.251.251 0 00-.084-.045A.385.385 0 00.282 0z"/></symbol><symbol id="bt"><path d="M0 0v.667h.351c.032 0 .06-.005.084-.014a.171.171 0 00.06-.038.148.148 0 00.036-.054.176.176 0 00-.022-.168.14.14 0 00-.081-.049.147.147 0 00.09-.055A.174.174 0 00.556.18.192.192 0 00.543.109.159.159 0 00.446.014.231.231 0 00.362 0H0m.32.4a.08.08 0 01.057.02c.014.013.021.03.021.052a.069.069 0 01-.021.052.077.077 0 01-.057.021H.142V.4H.32M.325.123c.027 0 .048.007.063.02A.073.073 0 01.411.2c0 .021-.007.04-.022.055S.353.278.325.278H.142V.123h.183z"/></symbol><use xlink:href="#S" transform="matrix(9 0 0 -9 273.683 495.005)" fill="#fff"/><use xlink:href="#bg" transform="matrix(9 0 0 -9 279.74 495.005)" fill="#fff"/><use xlink:href="#R" transform="matrix(9 0 0 -9 285.15 495.113)" fill="#fff"/><use xlink:href="#bh" transform="matrix(9 0 0 -9 292.07 495.005)" fill="#fff"/><use xlink:href="#bi" transform="matrix(9 0 0 -9 298.793 495.113)" fill="#fff"/><use xlink:href="#bj" transform="matrix(9 0 0 -9 306.416 495.005)" fill="#fff"/><use xlink:href="#bi" transform="matrix(9 0 0 -9 311.285 495.113)" fill="#fff"/><use xlink:href="#bk" transform="matrix(9 0 0 -9 318.62 495.122)" fill="#fff"/><use xlink:href="#bl" transform="matrix(9 0 0 -9 325.838 495.005)" fill="#fff"/><use xlink:href="#bm" transform="matrix(9 0 0 -9 328.115 495.005)" fill="#fff"/><use xlink:href="#O" transform="matrix(9 0 0 -9 334.766 495.005)" fill="#fff"/><use xlink:href="#aa" transform="matrix(9 0 0 -9 338.114 495.005)" fill="#fff"/><use xlink:href="#bn" transform="matrix(9 0 0 -9 346.259 495.005)" fill="#fff"/><use xlink:href="#bo" transform="matrix(9 0 0 -9 351.956 495.005)" fill="#fff"/><use xlink:href="#bl" transform="matrix(9 0 0 -9 358.868 495.005)" fill="#fff"/><use xlink:href="#R" transform="matrix(9 0 0 -9 361.496 495.113)" fill="#fff"/><use xlink:href="#bm" transform="matrix(9 0 0 -9 367.778 495.005)" fill="#fff"/><use xlink:href="#bp" transform="matrix(9 0 0 -9 298.037 323.987)" fill="#fff"/><use xlink:href="#bq" transform="matrix(9 0 0 -9 302.987 323.987)" fill="#fff"/><use xlink:href="#br" transform="matrix(9 0 0 -9 310.232 323.987)" fill="#fff"/><use xlink:href="#aa" transform="matrix(9 0 0 -9 316.47 323.987)" fill="#fff"/><use xlink:href="#bm" transform="matrix(9 0 0 -9 323.975 323.987)" fill="#fff"/><use xlink:href="#R" transform="matrix(9 0 0 -9 330.932 324.095)" fill="#fff"/><use xlink:href="#bi" transform="matrix(9 0 0 -9 337.565 324.095)" fill="#fff"/><use xlink:href="#bs" transform="matrix(9 0 0 -9 344.783 324.095)" fill="#fff"/><use xlink:href="#bt" transform="matrix(9 0 0 -9 285.554 390.65)" fill="#fff"/><use xlink:href="#bl" transform="matrix(9 0 0 -9 291.971 390.65)" fill="#fff"/><use xlink:href="#bi" transform="matrix(9 0 0 -9 294.6 390.758)" fill="#fff"/><use xlink:href="#S" transform="matrix(9 0 0 -9 301.853 390.65)" fill="#fff"/><use xlink:href="#bg" transform="matrix(9 0 0 -9 307.91 390.65)" fill="#fff"/><use xlink:href="#R" transform="matrix(9 0 0 -9 313.32 390.758)" fill="#fff"/><use xlink:href="#bh" transform="matrix(9 0 0 -9 320.24 390.65)" fill="#fff"/><use xlink:href="#bi" transform="matrix(9 0 0 -9 326.963 390.758)" fill="#fff"/><use xlink:href="#bj" transform="matrix(9 0 0 -9 334.586 390.65)" fill="#fff"/><use xlink:href="#bi" transform="matrix(9 0 0 -9 339.455 390.758)" fill="#fff"/><use xlink:href="#bk" transform="matrix(9 0 0 -9 346.79 390.767)" fill="#fff"/><use xlink:href="#bl" transform="matrix(9 0 0 -9 354.008 390.65)" fill="#fff"/><use xlink:href="#bm" transform="matrix(9 0 0 -9 356.285 390.65)" fill="#fff"/></g></svg>