<svg xmlns="http://www.w3.org/2000/svg" xmlns:xlink="http://www.w3.org/1999/xlink" width="793.701" height="1122.52" viewBox="0 0 595.276 841.89"><path d="M0 841.89h595.275V0H0z" fill="#48709c"/><symbol id="a"><path d="M0 0h.202v.214h.154c.156 0 .24.1.24.224 0 .125-.084.229-.24.229H0V0m.391.44C.391.405.364.382.33.382H.202v.117H.33C.364.499.391.476.391.44z"/></symbol><symbol id="b"><path d="M.367 0h.23L.476.236c.053.026.12.087.12.202 0 .125-.084.229-.24.229H0V0h.202v.214h.073L.367 0m.024.441C.391.404.359.382.325.382H.202v.117h.123C.359.499.391.477.391.441z"/></symbol><symbol id="c"><path d="M0 0h.202v.667H0V0z"/></symbol><symbol id="d"><path d="M.448 0h.194v.667H.44V.331L.208.667H0V0h.202v.358L.448 0z"/></symbol><symbol id="e"><path d="M.362 0c.18 0 .269.106.308.195l-.174.08A.143.143 0 00.362.178C.27.178.205.252.205.345c0 .093.065.167.157.167A.143.143 0 00.496.415L.67.496A.313.313 0 01.362.69C.158.69 0 .551 0 .345 0 .14.158 0 .362 0z"/></symbol><symbol id="f"><path d="M.527 0h.219L.5.667H.246L0 0h.219l.026.086h.256L.527 0M.373.489L.449.254H.297l.076.235z"/></symbol><symbol id="g"><path d="M0 .106A.44.44 0 01.31 0c.179 0 .288.085.288.232 0 .154-.163.186-.273.205C.254.449.227.458.227.484c0 .017.011.035.061.035A.332.332 0 00.474.453l.108.143a.44.44 0 01-.283.093C.116.689.022.586.022.473.022.306.19.28.3.26.366.248.394.235.394.209.394.183.358.17.32.17a.31.31 0 00-.215.086L0 .106z"/></symbol><symbol id="i"><path d="M0 0h.506v.168H.202v.085h.297v.168H.202v.078h.304v.168H0V0z"/></symbol><symbol id="j"><path d="M0 .286C0 .121.096 0 .321 0s.32.121.32.287v.392H.436V.293C.436.229.403.178.321.178.238.178.205.229.205.293v.386H0V.286z"/></symbol><symbol id="k"><path d="M0 0h.455v.176H.202v.491H0V0z"/></symbol><symbol id="l"><path d="M.179 0h.202v.491h.178v.176H0V.491h.179V0z"/></symbol><symbol id="m"><path d="M0 0h.299c.209 0 .365.121.365.334 0 .213-.156.333-.366.333H0V0m.202.176v.315h.097c.108 0 .16-.067.16-.157A.154.154 0 00.298.176H.202z"/></symbol><symbol id="n"><path d="M0 .345C0 .14.159 0 .365 0S.73.14.73.345C.73.55.571.69.365.69S0 .55 0 .345m.525 0C.525.252.462.178.365.178s-.16.074-.16.167c0 .093.063.167.16.167s.16-.074.16-.167z"/></symbol><use xlink:href="#a" transform="matrix(50.4538 0 0 -50.4538 163.67 413.218)" fill="#fff"/><use xlink:href="#b" transform="matrix(50.4538 0 0 -50.4538 197.07 413.218)" fill="#fff"/><use xlink:href="#c" transform="matrix(50.4538 0 0 -50.4538 231.278 413.218)" fill="#fff"/><use xlink:href="#d" transform="matrix(50.4538 0 0 -50.4538 246.919 413.218)" fill="#fff"/><use xlink:href="#e" transform="matrix(50.4538 0 0 -50.4538 282.943 413.824)" fill="#fff"/><use xlink:href="#c" transform="matrix(50.4538 0 0 -50.4538 319.926 413.218)" fill="#fff"/><use xlink:href="#a" transform="matrix(50.4538 0 0 -50.4538 335.566 413.218)" fill="#fff"/><use xlink:href="#f" transform="matrix(50.4538 0 0 -50.4538 361.802 413.218)" fill="#fff"/><use xlink:href="#c" transform="matrix(50.4538 0 0 -50.4538 401.257 413.218)" fill="#fff"/><use xlink:href="#g" transform="matrix(50.4538 0 0 -50.4538 414.325 413.824)" fill="#fff"/><use xlink:href="#h" transform="matrix(50.4538 0 0 -50.4538 445.102 413.218)" fill="#fff"/><use xlink:href="#h" transform="matrix(50.4538 0 0 -50.4538 457.964 413.218)" fill="#fff"/><use xlink:href="#b" transform="matrix(50.4538 0 0 -50.4538 143.489 455.263)" fill="#fff"/><use xlink:href="#i" transform="matrix(50.4538 0 0 -50.4538 177.697 455.263)" fill="#fff"/><use xlink:href="#g" transform="matrix(50.4538 0 0 -50.4538 205.194 455.869)" fill="#fff"/><use xlink:href="#j" transform="matrix(50.4538 0 0 -50.4538 238.695 455.869)" fill="#fff"/><use xlink:href="#k" transform="matrix(50.4538 0 0 -50.4538 276.485 455.263)" fill="#fff"/><use xlink:href="#l" transform="matrix(50.4538 0 0 -50.4538 296.667 455.263)" fill="#fff"/><use xlink:href="#f" transform="matrix(50.4538 0 0 -50.4538 321.843 455.263)" fill="#fff"/><use xlink:href="#m" transform="matrix(50.4538 0 0 -50.4538 361.298 455.263)" fill="#fff"/><use xlink:href="#n" transform="matrix(50.4538 0 0 -50.4538 396.616 455.869)" fill="#fff"/><use xlink:href="#g" transform="matrix(50.4538 0 0 -50.4538 434.507 455.869)" fill="#fff"/></svg>