<svg xmlns="http://www.w3.org/2000/svg" xmlns:xlink="http://www.w3.org/1999/xlink" width="793.701" height="1122.52" viewBox="0 0 595.276 841.89"><clipPath id="a"><path transform="matrix(1 0 0 -1 0 841.89)" d="M0 0h595.276v841.89H0z"/></clipPath><g clip-path="url(#a)"><symbol id="c"><path d="M.025 0v.667h.057V0H.025m.019.723H0l.154.144h.062L.044.723z"/></symbol><symbol id="d"><path d="M.326 0v.327a.16.16 0 01-.009.058.087.087 0 01-.061.057.171.171 0 01-.093-.001.254.254 0 01-.044-.018.208.208 0 01-.067-.058V0H0v.483h.052V.41a.266.266 0 00.122.077.176.176 0 00.052.008c.05 0 .087-.013.113-.038C.365.432.378.393.378.338V0H.326z"/></symbol><symbol id="e"><path d="M.384.012v.077a.217.217 0 00-.07-.064.223.223 0 00-.186-.008.2.2 0 00-.069.051.243.243 0 00-.044.08A.344.344 0 000 .253a.34.34 0 00.015.104c.01.031.025.058.044.08.02.023.042.04.069.052A.212.212 0 00.311.483.21.21 0 00.384.417v.262h.053V.012H.384M.225.047a.183.183 0 01.094.026.196.196 0 01.065.06v.239a.165.165 0 01-.028.034.183.183 0 01-.203.038A.16.16 0 01.1.4.206.206 0 01.067.335a.294.294 0 010-.164A.221.221 0 01.1.106.16.16 0 01.153.062.168.168 0 01.225.047z"/></symbol><symbol id="f"><path d="M.04.559a.04.04 0 00-.04.04c0 .011.004.02.012.028A.04.04 0 00.04.638C.051.638.06.634.068.627A.036.036 0 00.08.599a.04.04 0 00-.04-.04M.014 0v.483h.052V0H.014z"/></symbol><symbol id="g"><path d="M.235 0a.232.232 0 00-.171.074.253.253 0 00-.064.18.3.3 0 00.016.099c.011.03.027.057.048.08a.232.232 0 00.171.074.2.2 0 00.171-.082L.37.393a.15.15 0 01-.059.051.165.165 0 01-.073.016A.176.176 0 01.104.4.198.198 0 01.068.335a.27.27 0 010-.163.212.212 0 01.036-.065.172.172 0 01.134-.06c.027 0 .051.005.073.016A.16.16 0 01.37.115L.406.083A.231.231 0 00.337.022.207.207 0 00.235 0z"/></symbol><symbol id="h"><path d="M.242 0a.226.226 0 00-.174.071.246.246 0 00-.05.08.286.286 0 00.048.282.23.23 0 00.167.074.214.214 0 00.169-.076.243.243 0 00.044-.082.314.314 0 00.015-.098V.237H.057A.21.21 0 01.11.101.184.184 0 01.246.045a.218.218 0 01.158.067L.431.078A.246.246 0 00.242 0m.166.278c0 .02-.004.042-.011.063A.174.174 0 01.31.445a.168.168 0 01-.078.017.158.158 0 01-.129-.061.192.192 0 01-.046-.123h.351z"/></symbol><symbol id="i"><path d="M.338 0a.33.33 0 00-.312.205A.371.371 0 000 .346a.33.33 0 00.338.345.314.314 0 00.251-.114L.546.546a.25.25 0 01-.09.067.268.268 0 01-.118.026.275.275 0 01-.257-.174A.326.326 0 01.06.346.295.295 0 01.14.134.278.278 0 01.228.073a.286.286 0 01.306.06v.16H.282v.051h.309V.111A.333.333 0 00.338 0z"/></symbol><symbol id="j"><path d="M0 0v.667h.052V0H0z"/></symbol><symbol id="k"><path d="M.232 0a.225.225 0 00-.169.074.264.264 0 00-.063.18.3.3 0 00.016.099c.011.03.027.057.047.08s.044.041.073.054c.029.013.06.02.096.02a.227.227 0 00.097-.02.203.203 0 00.073-.054.283.283 0 00.063-.179.283.283 0 00-.063-.18A.22.22 0 00.232 0m0 .047A.16.16 0 01.363.11a.251.251 0 010 .287.16.16 0 01-.131.063.161.161 0 01-.131-.063.206.206 0 01-.034-.066.269.269 0 010-.155A.221.221 0 01.101.11.161.161 0 01.232.047z"/></symbol><symbol id="l"><path d="M.052.133a.19.19 0 01.23-.071c.021.01.04.025.054.044.015.019.026.04.033.065a.294.294 0 010 .164A.181.181 0 01.336.4a.157.157 0 01-.174.052.207.207 0 01-.083-.047.15.15 0 01-.027-.033V.133M0 .012v.667h.052V.417a.21.21 0 00.073.066.212.212 0 00.183.006A.221.221 0 00.42.357.321.321 0 00.436.253.324.324 0 00.42.148a.234.234 0 00-.045-.08A.19.19 0 00.22 0a.195.195 0 00-.098.025.217.217 0 00-.07.064V.012H0z"/></symbol><symbol id="m"><path d="M.333.012v.057A.212.212 0 00.107.011a.165.165 0 00-.054.03.165.165 0 00-.039.051A.161.161 0 000 .161C0 .187.005.21.014.23c.01.02.023.037.039.05a.156.156 0 00.054.031c.02.007.04.01.062.01A.21.21 0 00.333.252V.35a.095.095 0 01-.038.082.147.147 0 01-.092.029.194.194 0 01-.082-.017A.202.202 0 01.052.39L.023.426a.258.258 0 00.082.061.25.25 0 00.104.02.254.254 0 00.069-.009A.158.158 0 00.334.47.124.124 0 00.371.421.157.157 0 00.385.352v-.34H.333M.187.041a.21.21 0 01.082.016.167.167 0 01.064.05v.106a.167.167 0 01-.064.05.198.198 0 01-.082.017.134.134 0 01-.096-.034A.113.113 0 01.055.16c0-.034.012-.062.036-.085A.134.134 0 01.187.041z"/></symbol><symbol id="n"><path d="M0 0v.667h.057V0H0z"/></symbol><symbol id="o"><path d="M.204 0L0 .483h.058L.234.061l.174.422h.059L.263 0H.204z"/></symbol><symbol id="p"><path d="M.236 0a.18.18 0 00-.097.029l.016.032a.13.13 0 01.08-.028c.017 0 .032.004.045.012C.293.052.3.063.3.078a.041.041 0 01-.01.029C.283.114.273.117.259.117A.05.05 0 01.219.1L.191.116l.022.06a.23.23 0 00-.089.025.245.245 0 00-.067.055.258.258 0 00-.042.078.298.298 0 00.001.194c.011.03.027.057.048.08a.232.232 0 00.171.074A.2.2 0 00.406.6L.37.568a.15.15 0 01-.059.051.165.165 0 01-.073.016.176.176 0 01-.134-.06A.198.198 0 01.068.51a.27.27 0 010-.163.212.212 0 01.036-.065.172.172 0 01.134-.06c.027 0 .051.005.073.016A.16.16 0 01.37.29L.406.258A.246.246 0 00.342.201.19.19 0 00.25.176L.234.132c.01.008.022.012.037.012A.064.064 0 00.337.078a.065.065 0 00-.03-.056A.114.114 0 00.236 0z"/></symbol><symbol id="q"><path d="M.333.012v.057A.212.212 0 00.107.011a.165.165 0 00-.054.03.165.165 0 00-.039.051A.161.161 0 000 .161C0 .187.005.21.014.23c.01.02.023.037.039.05a.156.156 0 00.054.031c.02.007.04.01.062.01A.21.21 0 00.333.252V.35a.095.095 0 01-.038.082.147.147 0 01-.092.029.194.194 0 01-.082-.017A.202.202 0 01.052.39L.023.426a.258.258 0 00.082.061.25.25 0 00.104.02.254.254 0 00.069-.009A.158.158 0 00.334.47.124.124 0 00.371.421.157.157 0 00.385.352v-.34H.333M.187.041a.21.21 0 01.082.016.167.167 0 01.064.05v.106a.167.167 0 01-.064.05.198.198 0 01-.082.017.134.134 0 01-.096-.034A.113.113 0 01.055.16c0-.034.012-.062.036-.085A.134.134 0 01.187.041M.27.566a.06.06 0 00-.044.016.202.202 0 00-.028.035.305.305 0 01-.023.036.035.035 0 01-.031.016C.129.669.116.661.105.646A.14.14 0 01.09.572H.055c0 .019.002.036.006.052.004.017.01.031.018.043a.09.09 0 00.029.028.072.072 0 00.04.011C.167.706.181.701.191.69A.17.17 0 00.218.655L.241.62A.038.038 0 01.273.604c.015 0 .028.007.038.022A.14.14 0 01.326.7h.036A.226.226 0 00.356.647.133.133 0 00.338.605.086.086 0 00.309.576.075.075 0 00.27.566z"/></symbol><symbol id="r"><path d="M0 0v.047l.155.128c.047.04.086.078.119.113.033.036.059.07.077.103a.2.2 0 01.028.098.123.123 0 01-.014.061.136.136 0 01-.084.067A.23.23 0 01.117.6.202.202 0 01.044.538L.005.574a.236.236 0 00.093.075.293.293 0 00.203.017.204.204 0 00.068-.034.167.167 0 00.049-.058.18.18 0 00.019-.085A.242.242 0 00.41.38.514.514 0 00.335.273 1.15 1.15 0 00.224.165 4.456 4.456 0 00.089.052H.44V0H0z"/></symbol><symbol id="s"><path d="M.247 0a.204.204 0 00-.115.031.249.249 0 00-.076.082.397.397 0 00-.043.111.589.589 0 000 .242c.01.04.024.077.043.11a.24.24 0 00.076.081.2.2 0 00.115.032C.292.689.329.679.36.657A.24.24 0 00.436.576a.348.348 0 00.043-.11.54.54 0 000-.242.36.36 0 00-.043-.111A.249.249 0 00.36.031.198.198 0 00.247 0m0 .052c.035 0 .064.009.087.026a.192.192 0 01.057.069c.015.028.025.06.031.094a.56.56 0 01.001.208.318.318 0 01-.031.094.192.192 0 01-.058.068.142.142 0 01-.087.026.148.148 0 01-.089-.026A.192.192 0 01.1.543.362.362 0 01.069.449a.609.609 0 010-.208A.362.362 0 01.1.147.202.202 0 01.158.078.148.148 0 01.247.052z"/></symbol><symbol id="t"><path d="M.142 0v.589L.035.475 0 .512l.147.155h.052V0H.142z"/></symbol><symbol id="u"><path d="M.214 0a.227.227 0 00-.108.023.235.235 0 00-.071.062l.033.041A.215.215 0 01.125.073.168.168 0 01.214.052c.037 0 .067.009.092.026.025.017.046.04.061.068.016.028.027.06.034.094.007.035.01.07.01.105v.031A.233.233 0 00.38.339.252.252 0 00.279.275.184.184 0 00.215.264a.264.264 0 00-.084.013.201.201 0 00-.069.039.193.193 0 00-.046.067.25.25 0 00-.001.172.2.2 0 00.114.116c.028.012.06.018.095.018a.213.213 0 00.19-.105.35.35 0 00.042-.111.627.627 0 00-.001-.255A.35.35 0 00.41.107.239.239 0 00.331.029.222.222 0 00.214 0m.011.316c.037 0 .071.01.104.031A.239.239 0 01.407.43.343.343 0 01.393.5.217.217 0 01.36.567a.162.162 0 01-.054.05.152.152 0 01-.08.02.175.175 0 01-.075-.015.17.17 0 01-.052-.038.163.163 0 01-.041-.107A.19.19 0 01.07.406a.144.144 0 01.035-.05.154.154 0 01.053-.03.217.217 0 01.067-.01z"/></symbol><use xlink:href="#b" transform="matrix(6 0 0 -6 72 823.13)" fill="#231f20"/><use xlink:href="#c" transform="matrix(6 0 0 -6 73.902 823.13)" fill="#231f20"/><use xlink:href="#d" transform="matrix(6 0 0 -6 75.378 823.13)" fill="#231f20"/><use xlink:href="#e" transform="matrix(6 0 0 -6 78.45 823.202)" fill="#231f20"/><use xlink:href="#f" transform="matrix(6 0 0 -6 81.96 823.13)" fill="#231f20"/><use xlink:href="#g" transform="matrix(6 0 0 -6 83.16 823.202)" fill="#231f20"/><use xlink:href="#h" transform="matrix(6 0 0 -6 86.124 823.202)" fill="#231f20"/><use xlink:href="#b" transform="matrix(6 0 0 -6 89.208 823.13)" fill="#231f20"/><use xlink:href="#i" transform="matrix(6 0 0 -6 91.11 823.208)" fill="#231f20"/><use xlink:href="#j" transform="matrix(6 0 0 -6 95.514 823.13)" fill="#231f20"/><use xlink:href="#k" transform="matrix(6 0 0 -6 96.63 823.202)" fill="#231f20"/><use xlink:href="#l" transform="matrix(6 0 0 -6 100.224 823.202)" fill="#231f20"/><use xlink:href="#m" transform="matrix(6 0 0 -6 103.494 823.202)" fill="#231f20"/><use xlink:href="#j" transform="matrix(6 0 0 -6 106.776 823.13)" fill="#231f20"/><use xlink:href="#b" transform="matrix(6 0 0 -6 107.574 823.13)" fill="#231f20"/><use xlink:href="#e" transform="matrix(6 0 0 -6 109.446 823.202)" fill="#231f20"/><use xlink:href="#h" transform="matrix(6 0 0 -6 112.872 823.202)" fill="#231f20"/><use xlink:href="#b" transform="matrix(6 0 0 -6 115.956 823.13)" fill="#231f20"/><use xlink:href="#n" transform="matrix(6 0 0 -6 118.008 823.13)" fill="#231f20"/><use xlink:href="#d" transform="matrix(6 0 0 -6 119.334 823.13)" fill="#231f20"/><use xlink:href="#k" transform="matrix(6 0 0 -6 122.406 823.202)" fill="#231f20"/><use xlink:href="#o" transform="matrix(6 0 0 -6 125.556 823.13)" fill="#231f20"/><use xlink:href="#m" transform="matrix(6 0 0 -6 128.73 823.202)" fill="#231f20"/><use xlink:href="#p" transform="matrix(6 0 0 -6 131.844 824.252)" fill="#231f20"/><use xlink:href="#q" transform="matrix(6 0 0 -6 134.82 823.202)" fill="#231f20"/><use xlink:href="#k" transform="matrix(6 0 0 -6 137.934 823.202)" fill="#231f20"/><use xlink:href="#b" transform="matrix(6 0 0 -6 141.042 823.13)" fill="#231f20"/><use xlink:href="#r" transform="matrix(6 0 0 -6 142.932 823.13)" fill="#231f20"/><use xlink:href="#s" transform="matrix(6 0 0 -6 146.436 823.202)" fill="#231f20"/><use xlink:href="#t" transform="matrix(6 0 0 -6 149.892 823.13)" fill="#231f20"/><use xlink:href="#u" transform="matrix(6 0 0 -6 151.926 823.196)" fill="#231f20"/></g><symbol id="v"><path d="M.362 0l-.11.163L.141 0H0l.171.248L.01.483h.142l.1-.149.099.149h.142L.331.248.504 0H.362z"/></symbol><symbol id="w"><path d="M.194 0L0 .483h.136L.262.147l.126.336h.137L.331 0H.194z"/></symbol><symbol id="x"><path d="M.076.535a.076.076 0 100 .151C.097.686.116.679.13.664A.07.07 0 00.152.611.073.073 0 00.13.557.073.073 0 00.076.535M.013 0v.483H.14V0H.013z"/></symbol><use xlink:href="#v" transform="matrix(6 0 0 -6 49.5 823.13)" fill="#231f20"/><use xlink:href="#w" transform="matrix(6 0 0 -6 52.488 823.13)" fill="#231f20"/><use xlink:href="#x" transform="matrix(6 0 0 -6 55.902 823.13)" fill="#231f20"/><use xlink:href="#y" transform="matrix(6 0 0 -6 57.12 823.13)" fill="#231f20"/><clipPath id="z"><path transform="matrix(1 0 0 -1 0 841.89)" d="M0 0h595.276v841.89H0z"/></clipPath><g clip-path="url(#z)"><filter id="A"><feBlend mode="multiply" in2="BackgroundImage" in="SourceGraphic"/></filter><g filter="url(#A)"><clipPath id="B"><path transform="matrix(1 0 0 -1 0 841.89)" d="M-17.921-9.646h614.715v864.294H-17.921z"/></clipPath><g clip-path="url(#B)"><path d="M-9.921 850.536h605.716V-9.354H-9.921z" fill="#e6e7e8"/></g></g><clipPath id="C"><path transform="matrix(1 0 0 -1 0 841.89)" d="M0 1.789h595.224V841.89H0z"/></clipPath><path stroke-linecap="round" stroke-dasharray="0,2.5" stroke-linejoin="round" fill="none" stroke="#231f20" d="M49.317 49.244h481.975"/><symbol id="D"><path d="M0 0v.667h.423V.615H.057V.368h.359V.316H.057V0H0z"/></symbol><symbol id="E"><path d="M0 0v.667h.057V0H0z"/></symbol><symbol id="F"><path d="M.338 0a.33.33 0 00-.312.205A.371.371 0 000 .346a.33.33 0 00.338.345.314.314 0 00.251-.114L.546.546a.25.25 0 01-.09.067.268.268 0 01-.118.026.275.275 0 01-.257-.174A.326.326 0 01.06.346.295.295 0 01.14.134.278.278 0 01.228.073a.286.286 0 01.306.06v.16H.282v.051h.309V.111A.333.333 0 00.338 0z"/></symbol><symbol id="G"><path d="M.26 0a.311.311 0 00-.113.019.228.228 0 00-.081.053.231.231 0 00-.05.084A.366.366 0 000 .268v.411h.058v-.41c0-.068.017-.121.051-.16C.144.071.194.052.26.052c.067 0 .117.019.151.057a.234.234 0 01.051.16v.41H.52V.268A.279.279 0 00.454.072C.411.024.346 0 .26 0z"/></symbol><symbol id="H"><path d="M.391 0L.204.276H.057V0H0v.667h.249A.224.224 0 00.393.615.166.166 0 00.436.554.2.2 0 00.452.472.209.209 0 00.437.391.187.187 0 00.267.28L.46 0H.391M.244.328a.138.138 0 01.137.086.147.147 0 01.011.058.145.145 0 01-.042.103.158.158 0 01-.106.04H.057V.328h.187z"/></symbol><symbol id="I"><path d="M.551 0L.485.164H.132L.066 0H0l.273.667h.071L.617 0H.551M.308.606L.151.216h.315l-.158.39z"/></symbol><symbol id="K"><path d="M0 0v.667h.274A.188.188 0 00.408.621a.158.158 0 00.05-.124.16.16 0 00-.036-.104.147.147 0 00-.081-.049.148.148 0 00.091-.057.167.167 0 00.028-.05A.15.15 0 00.471.18C.471.124.454.08.42.048A.194.194 0 00.28 0H0m.267.368C.31.368.343.38.365.403a.125.125 0 01.033.088.124.124 0 01-.033.087C.343.603.31.615.267.615h-.21V.368h.21M.271.052c.044 0 .078.012.103.035a.13.13 0 01.037.097.139.139 0 01-.009.049.117.117 0 01-.027.042.119.119 0 01-.043.03.156.156 0 01-.061.011H.057V.052h.214z"/></symbol><use xlink:href="#D" transform="matrix(10 0 0 -10 49.07 63.87)" fill="#231f20"/><use xlink:href="#E" transform="matrix(10 0 0 -10 55.49 63.87)" fill="#231f20"/><use xlink:href="#F" transform="matrix(10 0 0 -10 58.47 64)" fill="#231f20"/><use xlink:href="#G" transform="matrix(10 0 0 -10 66.83 63.99)" fill="#231f20"/><use xlink:href="#H" transform="matrix(10 0 0 -10 74.69 63.87)" fill="#231f20"/><use xlink:href="#I" transform="matrix(10 0 0 -10 80.95 63.87)" fill="#231f20"/><use xlink:href="#J" transform="matrix(10 0 0 -10 88.27 63.87)" fill="#231f20"/><use xlink:href="#K" transform="matrix(10 0 0 -10 92.69 63.87)" fill="#231f20"/><symbol id="L"><path d="M.355 0a.387.387 0 00-.14.025.344.344 0 00-.113.07.35.35 0 00-.075.109A.36.36 0 000 .345a.334.334 0 00.215.32.387.387 0 00.239.011.301.301 0 00.18-.149L.512.467a.183.183 0 01-.063.069.166.166 0 01-.094.028.208.208 0 01-.15-.063.21.21 0 01-.059-.156.21.21 0 01.125-.203.22.22 0 01.084-.016.17.17 0 01.094.027.18.18 0 01.063.07L.634.164A.443.443 0 00.591.103.297.297 0 00.355 0z"/></symbol><symbol id="M"><path d="M0 0v.483h.127V.417a.23.23 0 00.067.055.179.179 0 00.087.023V.371a.17.17 0 01-.133-.03.093.093 0 01-.021-.022V0H0z"/></symbol><symbol id="N"><path d="M.258 0a.291.291 0 00-.103.018.247.247 0 00-.082.051A.242.242 0 000 .254a.249.249 0 00.149.233.25.25 0 00.199 0A.218.218 0 00.425.433.239.239 0 00.474.349.311.311 0 00.492.241V.213H.133A.129.129 0 01.174.134.14.14 0 01.272.101a.202.202 0 01.129.048L.457.067a.236.236 0 00-.089-.05A.358.358 0 00.258 0m.111.299a.126.126 0 01-.008.036.1.1 0 01-.021.034.102.102 0 01-.037.026.117.117 0 01-.053.011A.107.107 0 01.163.37.133.133 0 01.131.299h.238z"/></symbol><symbol id="O"><path d="M.216 0a.369.369 0 00-.121.02A.27.27 0 000 .075l.055.089A.222.222 0 01.087.14.417.417 0 01.129.118a.23.23 0 01.093-.02C.25.098.27.103.283.112c.013.01.02.023.02.038 0 .013-.007.023-.022.03a.218.218 0 01-.053.016L.159.211A.291.291 0 00.09.235a.16.16 0 00-.053.044.124.124 0 00-.021.076.141.141 0 00.051.106.196.196 0 00.062.033.297.297 0 00.195-.006.298.298 0 00.085-.047L.358.354a.177.177 0 01-.06.039.2.2 0 01-.083.017.1.1 0 01-.056-.014C.146.386.139.376.139.362.139.35.146.341.16.335A.3.3 0 01.213.319L.282.304A.266.266 0 00.351.279.153.153 0 00.404.233.13.13 0 00.425.155.14.14 0 00.411.093.143.143 0 00.37.044.204.204 0 00.305.012.303.303 0 00.216 0z"/></symbol><symbol id="P"><path d="M.256 0a.286.286 0 00-.103.018.24.24 0 00-.134.133A.272.272 0 000 .254a.262.262 0 00.072.182c.023.023.05.04.081.052a.272.272 0 00.103.019A.224.224 0 00.447.42L.364.342a.115.115 0 01-.102.052.125.125 0 01-.095-.039.14.14 0 01-.036-.101c0-.042.012-.076.036-.102A.125.125 0 01.262.113a.122.122 0 01.102.052L.447.088A.217.217 0 00.376.027.235.235 0 00.256 0z"/></symbol><symbol id="Q"><path d="M.076.535a.076.076 0 100 .151C.097.686.116.679.13.664A.07.07 0 00.152.611.073.073 0 00.13.557.073.073 0 00.076.535M.013 0v.483H.14V0H.013z"/></symbol><symbol id="R"><path d="M.599 0v.305A.085.085 0 01.582.36C.572.375.553.382.527.382a.103.103 0 01-.06-.018.157.157 0 01-.04-.038V0H.299v.305A.085.085 0 01.282.36C.272.375.253.382.227.382a.102.102 0 01-.06-.019.157.157 0 01-.04-.038V0H0v.483h.127V.42a.116.116 0 00.022.024c.01.009.023.017.037.024a.202.202 0 00.099.027.15.15 0 00.087-.023.124.124 0 00.047-.065.2.2 0 00.112.08.183.183 0 00.054.008C.63.495.665.483.689.459.714.436.727.399.727.349V0H.599z"/></symbol><symbol id="S"><path d="M.326 0v.292c0 .034-.008.057-.024.07a.098.098 0 01-.065.02.12.12 0 01-.066-.018.149.149 0 01-.044-.039V0H0v.483h.127V.42a.216.216 0 00.066.051.208.208 0 00.103.024C.349.495.389.481.414.453A.156.156 0 00.453.341V0H.326z"/></symbol><symbol id="T"><path d="M.217 0C.172 0 .138.011.115.033.092.056.08.089.08.132v.252H0v.111h.08v.132h.128V.495h.098V.384H.208V.166c0-.015.004-.028.011-.038A.04.04 0 01.252.113c.01 0 .018.001.026.004a.054.054 0 01.018.01L.323.031a.112.112 0 00-.04-.022A.205.205 0 00.217 0z"/></symbol><symbol id="U"><path d="M.255 0a.271.271 0 00-.107.02.255.255 0 00-.08.055A.25.25 0 000 .254C0 .288.006.32.017.351a.238.238 0 00.131.135.26.26 0 00.107.021.26.26 0 00.188-.076.264.264 0 00.05-.275A.236.236 0 00.362.02.271.271 0 00.255 0m0 .113c.02 0 .038.004.053.011A.128.128 0 01.37.199a.167.167 0 01-.024.153.106.106 0 01-.038.03.113.113 0 01-.053.012A.118.118 0 01.14.307a.186.186 0 010-.108.128.128 0 01.062-.075.121.121 0 01.053-.011z"/></symbol><symbol id="W"><path d="M.363.012v.062A.202.202 0 00.296.019.18.18 0 00.214 0a.197.197 0 00-.153.066.245.245 0 00-.045.079A.34.34 0 000 .253c0 .04.005.075.016.106.01.031.025.058.044.08a.207.207 0 00.154.068.179.179 0 00.081-.019.184.184 0 00.068-.055v.246h.128V.012H.363m-.11.101c.021 0 .042.005.063.015.02.01.036.024.047.04v.171a.115.115 0 01-.047.039.136.136 0 01-.063.016.111.111 0 01-.088-.039.15.15 0 01-.034-.102c0-.02.003-.04.009-.057A.14.14 0 01.165.151.113.113 0 01.253.113z"/></symbol><symbol id="X"><path d="M.276.172a.183.183 0 00-.149.074V0H0v.667h.127V.606a.183.183 0 00.149.073.21.21 0 00.085-.017.185.185 0 00.068-.049.222.222 0 00.045-.08A.331.331 0 00.49.426.34.34 0 00.474.318a.234.234 0 00-.045-.08.185.185 0 00-.068-.049.21.21 0 00-.085-.017m-.04.113a.11.11 0 01.088.039.15.15 0 01.034.102.146.146 0 01-.034.101.11.11 0 01-.088.039A.134.134 0 01.174.55.126.126 0 01.127.511V.34A.126.126 0 01.174.301.134.134 0 01.236.285z"/></symbol><symbol id="Y"><path d="M.321.012v.05A.174.174 0 00.256.016.235.235 0 00.168 0a.186.186 0 00-.113.039.166.166 0 00-.04.05A.157.157 0 000 .16a.16.16 0 00.015.072.147.147 0 00.094.075.249.249 0 00.147-.006.148.148 0 00.065-.044v.065a.07.07 0 01-.029.059.124.124 0 01-.077.022.2.2 0 01-.141-.057L.026.431a.29.29 0 00.099.057.34.34 0 00.191.01.177.177 0 00.067-.031A.143.143 0 00.43.411.189.189 0 00.448.324V.012H.321M.219.086c.02 0 .04.003.058.01a.1.1 0 01.044.032v.06a.093.093 0 01-.044.031.152.152 0 01-.058.011.11.11 0 01-.065-.019.063.063 0 01-.026-.054c0-.023.009-.04.026-.053A.114.114 0 01.219.086z"/></symbol><symbol id="Z"><path d="M0 0v.667h.312A.254.254 0 00.408.65a.193.193 0 00.07-.047.182.182 0 00.043-.068.23.23 0 00-.044-.234.212.212 0 00-.07-.047.247.247 0 00-.095-.017h-.17V0H0m.293.362c.028 0 .051.008.07.024a.082.082 0 01.028.066c0 .028-.01.05-.028.066a.104.104 0 01-.07.024H.142v-.18h.151z"/></symbol><symbol id="aa"><path d="M.452.012l-.05.05A.294.294 0 00.22 0C.19 0 .16.004.134.012a.205.205 0 00-.07.036.167.167 0 00-.047.06A.202.202 0 000 .193C0 .218.004.241.011.26.019.28.03.298.043.313a.233.233 0 00.045.04.408.408 0 00.055.032.46.46 0 00-.032.073.23.23 0 00-.012.071.143.143 0 00.053.113.22.22 0 00.138.047.223.223 0 00.123-.037.13.13 0 00.052-.104.146.146 0 00-.014-.066.18.18 0 00-.037-.05.259.259 0 00-.053-.037.839.839 0 00-.06-.03 1.985 1.985 0 01.114-.14.492.492 0 01.061.129L.578.307A.672.672 0 00.485.146 46.421 46.421 0 01.614.012H.452M.238.1c.017 0 .034.003.05.009a.194.194 0 01.046.025L.291.181a3.237 3.237 0 00-.098.126.17.17 0 01-.042-.043.104.104 0 01-.016-.059c0-.016.003-.03.008-.044A.117.117 0 01.166.128.116.116 0 01.198.107.115.115 0 01.238.1M.226.526c0-.013.003-.028.008-.043A.319.319 0 01.255.436.34.34 0 01.326.48c.02.016.029.036.029.061a.052.052 0 01-.017.041.061.061 0 01-.042.015.07.07 0 01-.05-.02.07.07 0 01-.02-.051z"/></symbol><symbol id="ab"><path d="M0 0v.667h.263A.41.41 0 00.406.643a.316.316 0 00.211-.31.35.35 0 00-.026-.137.307.307 0 00-.185-.172A.41.41 0 00.263 0H0m.263.125a.203.203 0 01.154.061c.018.02.032.042.041.067a.235.235 0 01-.039.229.18.18 0 01-.066.044.236.236 0 01-.09.016H.142V.125h.121z"/></symbol><symbol id="ac"><path d="M.168.186A.2.2 0 00.139.081.26.26 0 00.065 0L.01.045c.008.004.016.01.024.017a.18.18 0 01.042.05.1.1 0 01.011.027.067.067 0 00-.019-.003.067.067 0 00-.049.02A.072.072 0 000 .208c0 .022.008.04.023.056a.074.074 0 00.055.024A.084.084 0 00.14.261.11.11 0 00.168.186z"/></symbol><symbol id="ad"><path d="M.015 0v.111c.068.05.125.094.17.129.045.035.081.066.108.092.027.027.047.05.058.07.011.02.017.041.017.062a.076.076 0 01-.033.065A.1.1 0 01.3.545a.132.132 0 01-.04.006A.232.232 0 01.159.53.27.27 0 01.081.474L0 .568a.287.287 0 00.118.083.392.392 0 00.139.026.318.318 0 00.099-.015.228.228 0 00.136-.109A.207.207 0 00.494.38.332.332 0 00.443.299.652.652 0 00.36.215a1.746 1.746 0 00-.115-.09h.272V0H.015z"/></symbol><symbol id="ae"><path d="M.276 0a.25.25 0 00-.124.029.264.264 0 00-.086.079.376.376 0 00-.05.11.506.506 0 000 .253.36.36 0 00.05.11.244.244 0 00.21.108.242.242 0 00.209-.108.332.332 0 00.05-.11.474.474 0 000-.253.344.344 0 00-.05-.11.264.264 0 00-.086-.079A.249.249 0 00.276 0m0 .126C.3.126.32.132.336.143a.13.13 0 01.041.046c.01.02.018.043.023.07a.5.5 0 010 .172A.221.221 0 01.377.5a.13.13 0 01-.041.046.101.101 0 01-.06.017.106.106 0 01-.061-.017A.13.13 0 01.174.5.221.221 0 01.151.431a.5.5 0 010-.172.234.234 0 01.023-.07.13.13 0 01.041-.046.106.106 0 01.061-.017z"/></symbol><symbol id="af"><path d="M0 0v.108h.24V0H0z"/></symbol><symbol id="ag"><path d="M.192 0v.484L.081.371 0 .456l.21.211h.124V0H.192z"/></symbol><symbol id="ah"><path d="M.097 0l.239.542H0v.125h.501V.568L.253 0H.097z"/></symbol><use xlink:href="#L" transform="matrix(14 0 0 -14 49.46 94.038)" fill="#49709c"/><use xlink:href="#M" transform="matrix(14 0 0 -14 59.483 93.87)" fill="#49709c"/><use xlink:href="#N" transform="matrix(14 0 0 -14 64.09 94.038)" fill="#49709c"/><use xlink:href="#O" transform="matrix(14 0 0 -14 71.677 94.038)" fill="#49709c"/><use xlink:href="#P" transform="matrix(14 0 0 -14 78.51 94.038)" fill="#49709c"/><use xlink:href="#Q" transform="matrix(14 0 0 -14 85.747 93.87)" fill="#49709c"/><use xlink:href="#R" transform="matrix(14 0 0 -14 89.471 93.87)" fill="#49709c"/><use xlink:href="#N" transform="matrix(14 0 0 -14 100.965 94.038)" fill="#49709c"/><use xlink:href="#S" transform="matrix(14 0 0 -14 109.141 93.87)" fill="#49709c"/><use xlink:href="#T" transform="matrix(14 0 0 -14 116.477 94.038)" fill="#49709c"/><use xlink:href="#U" transform="matrix(14 0 0 -14 121.545 94.038)" fill="#49709c"/><use xlink:href="#V" transform="matrix(14 0 0 -14 129.133 93.87)" fill="#49709c"/><use xlink:href="#W" transform="matrix(14 0 0 -14 133.165 94.038)" fill="#49709c"/><use xlink:href="#N" transform="matrix(14 0 0 -14 141.37 94.038)" fill="#49709c"/><use xlink:href="#V" transform="matrix(14 0 0 -14 148.663 93.87)" fill="#49709c"/><use xlink:href="#W" transform="matrix(14 0 0 -14 152.695 94.038)" fill="#49709c"/><use xlink:href="#N" transform="matrix(14 0 0 -14 160.9 94.038)" fill="#49709c"/><use xlink:href="#O" transform="matrix(14 0 0 -14 168.487 94.038)" fill="#49709c"/><use xlink:href="#X" transform="matrix(14 0 0 -14 175.753 96.446)" fill="#49709c"/><use xlink:href="#N" transform="matrix(14 0 0 -14 183.481 94.038)" fill="#49709c"/><use xlink:href="#O" transform="matrix(14 0 0 -14 191.07 94.038)" fill="#49709c"/><use xlink:href="#Y" transform="matrix(14 0 0 -14 197.901 94.038)" fill="#49709c"/><use xlink:href="#O" transform="matrix(14 0 0 -14 205.35 94.038)" fill="#49709c"/><use xlink:href="#V" transform="matrix(14 0 0 -14 211.733 93.87)" fill="#49709c"/><use xlink:href="#N" transform="matrix(14 0 0 -14 215.765 94.038)" fill="#49709c"/><use xlink:href="#R" transform="matrix(14 0 0 -14 223.941 93.87)" fill="#49709c"/><use xlink:href="#V" transform="matrix(14 0 0 -14 234.987 93.87)" fill="#49709c"/><use xlink:href="#Z" transform="matrix(14 0 0 -14 239.495 93.87)" fill="#49709c"/><use xlink:href="#aa" transform="matrix(14 0 0 -14 247.643 94.038)" fill="#49709c"/><use xlink:href="#ab" transform="matrix(14 0 0 -14 257.275 93.87)" fill="#49709c"/><use xlink:href="#ac" transform="matrix(14 0 0 -14 267.061 95.788)" fill="#49709c"/><use xlink:href="#V" transform="matrix(14 0 0 -14 269.987 93.87)" fill="#49709c"/><use xlink:href="#ad" transform="matrix(14 0 0 -14 274.02 93.87)" fill="#49709c"/><use xlink:href="#ae" transform="matrix(14 0 0 -14 282.447 94.038)" fill="#49709c"/><use xlink:href="#ae" transform="matrix(14 0 0 -14 291.127 94.038)" fill="#49709c"/><use xlink:href="#ae" transform="matrix(14 0 0 -14 299.807 94.038)" fill="#49709c"/><use xlink:href="#af" transform="matrix(14 0 0 -14 308.431 91.238)" fill="#49709c"/><use xlink:href="#ad" transform="matrix(14 0 0 -14 312.66 93.87)" fill="#49709c"/><use xlink:href="#ae" transform="matrix(14 0 0 -14 321.087 94.038)" fill="#49709c"/><use xlink:href="#ag" transform="matrix(14 0 0 -14 329.445 93.87)" fill="#49709c"/><use xlink:href="#ah" transform="matrix(14 0 0 -14 335.381 93.87)" fill="#49709c"/><symbol id="ai"><path d="M0 0v.047l.155.128c.047.04.086.078.119.113.033.036.059.07.077.103a.2.2 0 01.028.098.123.123 0 01-.014.061.136.136 0 01-.084.067A.23.23 0 01.117.6.202.202 0 01.044.538L.005.574a.236.236 0 00.093.075.293.293 0 00.203.017.204.204 0 00.068-.034.167.167 0 00.049-.058.18.18 0 00.019-.085A.242.242 0 00.41.38.514.514 0 00.335.273 1.15 1.15 0 00.224.165 4.456 4.456 0 00.089.052H.44V0H0z"/></symbol><symbol id="aj"><path d="M.247 0a.204.204 0 00-.115.031.249.249 0 00-.076.082.397.397 0 00-.043.111.589.589 0 000 .242c.01.04.024.077.043.11a.24.24 0 00.076.081.2.2 0 00.115.032C.292.689.329.679.36.657A.24.24 0 00.436.576a.348.348 0 00.043-.11.54.54 0 000-.242.36.36 0 00-.043-.111A.249.249 0 00.36.031.198.198 0 00.247 0m0 .052c.035 0 .064.009.087.026a.192.192 0 01.057.069c.015.028.025.06.031.094a.56.56 0 01.001.208.318.318 0 01-.031.094.192.192 0 01-.058.068.142.142 0 01-.087.026.148.148 0 01-.089-.026A.192.192 0 01.1.543.362.362 0 01.069.449a.609.609 0 010-.208A.362.362 0 01.1.147.202.202 0 01.158.078.148.148 0 01.247.052z"/></symbol><use xlink:href="#ai" transform="matrix(7 0 0 -7 75.803 493.578)" fill="#231f20"/><use xlink:href="#aj" transform="matrix(7 0 0 -7 79.891 493.662)" fill="#231f20"/><use xlink:href="#aj" transform="matrix(7 0 0 -7 84.147 493.662)" fill="#231f20"/><use xlink:href="#aj" transform="matrix(7 0 0 -7 88.403 493.662)" fill="#231f20"/><use xlink:href="#ai" transform="matrix(7 0 0 -7 120.673 493.578)" fill="#231f20"/><use xlink:href="#aj" transform="matrix(7 0 0 -7 124.761 493.662)" fill="#231f20"/><use xlink:href="#aj" transform="matrix(7 0 0 -7 129.017 493.662)" fill="#231f20"/><use xlink:href="#ai" transform="matrix(7 0 0 -7 133.26 493.578)" fill="#231f20"/><path stroke-width=".592" stroke-linecap="round" stroke-dasharray="0,1.974" stroke-miterlimit="10" fill="none" stroke="#bcbec0" d="M67.25 373.234h464.5M67.25 404.44h464.5"/><symbol id="ak"><path d="M.142 0v.589L.035.475 0 .512l.147.155h.052V0H.142z"/></symbol><symbol id="al"><path d="M0 0v.047l.155.128c.047.04.086.078.119.113.033.036.059.07.077.103a.2.2 0 01.028.098.123.123 0 01-.014.061.136.136 0 01-.084.067A.23.23 0 01.117.6.202.202 0 01.044.538L.005.574a.236.236 0 00.093.075.293.293 0 00.203.017.204.204 0 00.068-.034.167.167 0 00.049-.058.18.18 0 00.019-.085A.242.242 0 00.41.38.514.514 0 00.335.273 1.15 1.15 0 00.224.165 4.456 4.456 0 00.089.052H.44V0H0z"/></symbol><symbol id="am"><path d="M.247 0a.204.204 0 00-.115.031.249.249 0 00-.076.082.397.397 0 00-.043.111.589.589 0 000 .242c.01.04.024.077.043.11a.24.24 0 00.076.081.2.2 0 00.115.032C.292.689.329.679.36.657A.24.24 0 00.436.576a.348.348 0 00.043-.11.54.54 0 000-.242.36.36 0 00-.043-.111A.249.249 0 00.36.031.198.198 0 00.247 0m0 .052c.035 0 .064.009.087.026a.192.192 0 01.057.069c.015.028.025.06.031.094a.56.56 0 01.001.208.318.318 0 01-.031.094.192.192 0 01-.058.068.142.142 0 01-.087.026.148.148 0 01-.089-.026A.192.192 0 01.1.543.362.362 0 01.069.449a.609.609 0 010-.208A.362.362 0 01.1.147.202.202 0 01.158.078.148.148 0 01.247.052z"/></symbol><use xlink:href="#ak" transform="matrix(7 0 0 -7 50.514 407.098)" fill="#231f20"/><use xlink:href="#al" transform="matrix(7 0 0 -7 49.786 375.255)" fill="#231f20"/><use xlink:href="#am" transform="matrix(7 0 0 -7 49.646 437.45)" fill="#231f20"/><path stroke-width=".592" stroke-linecap="round" stroke-dasharray="0,1.974" stroke-miterlimit="10" fill="none" stroke="#bcbec0" d="M67.25 435.533h464.5"/><symbol id="an"><path d="M0 0v.048h.24V0H0z"/></symbol><use xlink:href="#an" transform="matrix(7 0 0 -7 49.513 466.373)" fill="#231f20"/><use xlink:href="#ak" transform="matrix(7 0 0 -7 52.614 467.9)" fill="#231f20"/><path stroke-width=".592" stroke-linecap="round" stroke-dasharray="0,1.974" stroke-miterlimit="10" fill="none" stroke="#bcbec0" d="M67.25 465.965h464.5M67.25 249.57h464.5M67.25 216.57h464.5M67.25 185.57h464.5M67.25 154.57h464.5M67.25 280.117h464.5M67.25 311.324h464.5"/><symbol id="ao"><path d="M.316 0v.182H0v.051l.296.434h.077V.234h.098V.182H.373V0H.316m0 .61L.059.234h.257V.61z"/></symbol><symbol id="ap"><path d="M.225 0a.284.284 0 00-.137.029.266.266 0 00-.088.08l.038.038A.23.23 0 01.115.076.231.231 0 01.291.064c.02.009.038.02.053.034a.16.16 0 01.048.115.17.17 0 01-.047.119.176.176 0 01-.119.044.23.23 0 01-.162-.065L.021.329v.35h.385V.627H.078V.366a.24.24 0 00.159.062.23.23 0 00.148-.054.187.187 0 00.047-.067A.222.222 0 00.45.215a.202.202 0 00-.138-.2A.251.251 0 00.225 0z"/></symbol><symbol id="aq"><path d="M.089 0l.28.615H0v.052h.437v-.04L.152 0H.089z"/></symbol><symbol id="ar"><path d="M.245 0A.221.221 0 00.13.028a.23.23 0 00-.075.077.35.35 0 00-.042.11.642.642 0 00.001.256c.01.041.024.078.044.11a.222.222 0 00.197.108.214.214 0 00.18-.085L.401.562a.203.203 0 01-.058.054.162.162 0 01-.088.021.159.159 0 01-.092-.026.207.207 0 01-.061-.068.327.327 0 01-.034-.094.555.555 0 01-.009-.136.267.267 0 00.13.1c.02.007.042.011.065.011.03 0 .058-.004.084-.013A.184.184 0 00.452.305.229.229 0 00.469.213.206.206 0 00.34.018.239.239 0 00.245 0M.243.052A.168.168 0 01.37.105a.15.15 0 01.031.051.178.178 0 01-.003.127.128.128 0 01-.035.05.143.143 0 01-.053.03.208.208 0 01-.066.01A.187.187 0 01.14.341.23.23 0 01.062.259.36.36 0 01.076.188.189.189 0 01.163.071a.158.158 0 01.08-.019z"/></symbol><symbol id="as"><path d="M.227 0a.326.326 0 00-.09.012.187.187 0 00-.12.093.16.16 0 00.034.188.202.202 0 00.053.038c.02.01.04.019.062.025a.23.23 0 00-.107.055.137.137 0 00-.048.106c0 .03.006.055.019.076.013.022.029.04.049.054a.29.29 0 00.225.031.222.222 0 00.07-.031.162.162 0 00.05-.054.146.146 0 00.019-.076.137.137 0 00-.048-.106.22.22 0 00-.05-.034.323.323 0 00-.057-.021.286.286 0 00.114-.063.176.176 0 00.037-.051.139.139 0 00.014-.063.165.165 0 00-.065-.13.228.228 0 00-.072-.036A.293.293 0 00.227 0m0 .38l.042.011a.225.225 0 01.052.023c.017.01.032.023.045.038a.092.092 0 01.019.059c0 .02-.004.038-.013.053a.11.11 0 01-.034.04.198.198 0 01-.111.033.208.208 0 01-.112-.033.113.113 0 01-.046-.093c0-.023.006-.043.019-.059A.165.165 0 01.133.414.253.253 0 01.185.391.513.513 0 01.227.38m0-.328C.249.052.27.055.29.061a.17.17 0 01.054.026.13.13 0 01.038.041.11.11 0 01.014.055.103.103 0 01-.021.065.216.216 0 01-.105.071.27.27 0 01-.043.011.295.295 0 01-.1-.038.18.18 0 01-.049-.044.106.106 0 01-.02-.065.11.11 0 01.014-.055.136.136 0 01.037-.041.17.17 0 01.054-.026.228.228 0 01.064-.009z"/></symbol><symbol id="at"><path d="M.214 0a.227.227 0 00-.108.023.235.235 0 00-.071.062l.033.041A.215.215 0 01.125.073.168.168 0 01.214.052c.037 0 .067.009.092.026.025.017.046.04.061.068.016.028.027.06.034.094.007.035.01.07.01.105v.031A.233.233 0 00.38.339.252.252 0 00.279.275.184.184 0 00.215.264a.264.264 0 00-.084.013.201.201 0 00-.069.039.193.193 0 00-.046.067.25.25 0 00-.001.172.2.2 0 00.114.116c.028.012.06.018.095.018a.213.213 0 00.19-.105.35.35 0 00.042-.111.627.627 0 00-.001-.255A.35.35 0 00.41.107.239.239 0 00.331.029.222.222 0 00.214 0m.011.316c.037 0 .071.01.104.031A.239.239 0 01.407.43.343.343 0 01.393.5.217.217 0 01.36.567a.162.162 0 01-.054.05.152.152 0 01-.08.02.175.175 0 01-.075-.015.17.17 0 01-.052-.038.163.163 0 01-.041-.107A.19.19 0 01.07.406a.144.144 0 01.035-.05.154.154 0 01.053-.03.217.217 0 01.067-.01z"/></symbol><symbol id="au"><path d="M.227 0a.279.279 0 00-.14.033A.244.244 0 000 .111l.039.034A.229.229 0 01.114.078.232.232 0 01.226.052c.052 0 .093.013.123.038s.045.06.045.104A.123.123 0 01.38.255a.115.115 0 01-.038.042.152.152 0 01-.057.024.296.296 0 01-.07.008H.178L.153.328v.054A.223.223 0 01.178.381h.037c.022 0 .043.002.063.007a.18.18 0 01.054.023.111.111 0 01.052.097.114.114 0 01-.048.095.146.146 0 01-.051.025.205.205 0 01-.061.009.217.217 0 01-.1-.022.263.263 0 01-.079-.063L.009.588a.27.27 0 00.218.101.277.277 0 00.082-.012.191.191 0 00.069-.034.16.16 0 00.064-.13A.15.15 0 00.391.4.185.185 0 00.299.357.179.179 0 00.397.313.17.17 0 00.436.262.149.149 0 00.452.191.19.19 0 00.437.115.172.172 0 00.393.054a.222.222 0 00-.071-.04A.3.3 0 00.227 0z"/></symbol><use xlink:href="#ao" transform="matrix(7 0 0 -7 49.702 313.98)" fill="#231f20"/><use xlink:href="#ap" transform="matrix(7 0 0 -7 49.842 282.221)" fill="#231f20"/><use xlink:href="#aq" transform="matrix(7 0 0 -7 49.835 217.842)" fill="#231f20"/><use xlink:href="#ar" transform="matrix(7 0 0 -7 49.75 251.533)" fill="#231f20"/><use xlink:href="#as" transform="matrix(7 0 0 -7 49.772 188.358)" fill="#231f20"/><use xlink:href="#at" transform="matrix(7 0 0 -7 49.695 156.578)" fill="#231f20"/><use xlink:href="#au" transform="matrix(7 0 0 -7 49.772 344.325)" fill="#231f20"/><path stroke-width=".592" stroke-linecap="round" stroke-dasharray="0,1.974" stroke-miterlimit="10" fill="none" stroke="#bcbec0" d="M67.25 342.416h464.5"/><symbol id="av"><path d="M.232 0a.225.225 0 00-.169.074.264.264 0 00-.063.18.3.3 0 00.016.099c.011.03.027.057.047.08s.044.041.073.054c.029.013.06.02.096.02a.227.227 0 00.097-.02.203.203 0 00.073-.054.283.283 0 00.063-.179.283.283 0 00-.063-.18A.22.22 0 00.232 0m0 .047A.16.16 0 01.363.11a.251.251 0 010 .287.16.16 0 01-.131.063.161.161 0 01-.131-.063.206.206 0 01-.034-.066.269.269 0 010-.155A.221.221 0 01.101.11.161.161 0 01.232.047z"/></symbol><symbol id="aw"><path d="M.326 0v.327a.16.16 0 01-.009.058.087.087 0 01-.061.057.171.171 0 01-.093-.001.254.254 0 01-.044-.018.208.208 0 01-.067-.058V0H0v.483h.052V.41a.266.266 0 00.122.077.176.176 0 00.052.008c.05 0 .087-.013.113-.038C.365.432.378.393.378.338V0H.326z"/></symbol><symbol id="ax"><path d="M.175 0C.143 0 .119.009.103.027A.12.12 0 00.08.105v.344H0v.046h.08v.132h.053V.495h.098V.449H.133V.113c0-.02.004-.035.012-.048C.153.053.165.047.183.047c.011 0 .022.002.031.007A.07.07 0 01.237.07l.02-.04A.102.102 0 00.224.008.128.128 0 00.175 0z"/></symbol><symbol id="ay"><path d="M.242 0a.226.226 0 00-.174.071.246.246 0 00-.05.08.286.286 0 00.048.282.23.23 0 00.167.074.214.214 0 00.169-.076.243.243 0 00.044-.082.314.314 0 00.015-.098V.237H.057A.21.21 0 01.11.101.184.184 0 01.246.045a.218.218 0 01.158.067L.431.078A.246.246 0 00.242 0m.166.278c0 .02-.004.042-.011.063A.174.174 0 01.31.445a.168.168 0 01-.078.017.158.158 0 01-.129-.061.192.192 0 01-.046-.123h.351z"/></symbol><symbol id="az"><path d="M.044.413a.042.042 0 00-.031.013.042.042 0 000 .061A.042.042 0 00.044.5.042.042 0 00.075.487.04.04 0 00.089.456a.04.04 0 00-.014-.03.042.042 0 00-.031-.013m0-.413a.042.042 0 00-.031.013A.046.046 0 000 .045c0 .011.004.021.013.03a.042.042 0 00.031.013.042.042 0 00.031-.013.04.04 0 00.014-.03.044.044 0 00-.014-.032A.042.042 0 00.044 0z"/></symbol><symbol id="aA"><path d="M.04.559a.04.04 0 00-.04.04c0 .011.004.02.012.028A.04.04 0 00.04.638C.051.638.06.634.068.627A.036.036 0 00.08.599a.04.04 0 00-.04-.04M.014 0v.483h.052V0H.014z"/></symbol><symbol id="aB"><path d="M.219 0a.49.49 0 00-.056.003.195.195 0 00-.048.012.194.194 0 00-.044.022.252.252 0 00-.042.036l.03.04A.18.18 0 01.128.06.243.243 0 01.282.054.13.13 0 01.37.129C.38.149.384.172.384.2v.076a.233.233 0 00-.07-.064.189.189 0 00-.098-.026.2.2 0 00-.157.068.245.245 0 00-.044.079A.344.344 0 000 .438a.34.34 0 00.015.104C.025.573.04.6.059.622a.2.2 0 00.157.069.192.192 0 00.095-.024.21.21 0 00.073-.066v.078h.053V.201A.219.219 0 00.419.107.163.163 0 00.372.045a.18.18 0 00-.07-.034A.304.304 0 00.219 0m.006.233a.207.207 0 01.131.054c.011.01.02.022.028.034v.235A.165.165 0 01.356.59a.207.207 0 01-.131.054A.159.159 0 01.1.585.219.219 0 01.067.519a.294.294 0 010-.163.166.166 0 01.086-.108.168.168 0 01.072-.015z"/></symbol><symbol id="aC"><path d="M.326.012v.071A.286.286 0 00.25.025.198.198 0 00.152 0C.102 0 .064.012.038.036.013.061 0 .1 0 .155v.34h.052V.167C.052.144.055.124.06.108A.099.099 0 01.084.071.103.103 0 01.121.052a.217.217 0 01.094.001.225.225 0 01.111.074v.368h.052V.012H.326z"/></symbol><symbol id="aD"><path d="M0 0v.483h.052V.4a.28.28 0 00.071.067.168.168 0 00.092.026V.436a926.39 926.39 0 01-.026.002.183.183 0 01-.137-.086V0H0z"/></symbol><symbol id="aE"><path d="M.333.012v.057A.212.212 0 00.107.011a.165.165 0 00-.054.03.165.165 0 00-.039.051A.161.161 0 000 .161C0 .187.005.21.014.23c.01.02.023.037.039.05a.156.156 0 00.054.031c.02.007.04.01.062.01A.21.21 0 00.333.252V.35a.095.095 0 01-.038.082.147.147 0 01-.092.029.194.194 0 01-.082-.017A.202.202 0 01.052.39L.023.426a.258.258 0 00.082.061.25.25 0 00.104.02.254.254 0 00.069-.009A.158.158 0 00.334.47.124.124 0 00.371.421.157.157 0 00.385.352v-.34H.333M.187.041a.21.21 0 01.082.016.167.167 0 01.064.05v.106a.167.167 0 01-.064.05.198.198 0 01-.082.017.134.134 0 01-.096-.034A.113.113 0 01.055.16c0-.034.012-.062.036-.085A.134.134 0 01.187.041z"/></symbol><symbol id="aF"><path d="M.142 0v.589L.035.475 0 .512l.147.155h.052V0H.142z"/></symbol><symbol id="aG"><path d="M.044 0a.042.042 0 00-.031.013A.046.046 0 000 .045c0 .011.004.021.013.03a.042.042 0 00.031.013.042.042 0 00.031-.013.04.04 0 00.014-.03.044.044 0 00-.014-.032A.042.042 0 00.044 0z"/></symbol><symbol id="aH"><path d="M.227 0a.279.279 0 00-.14.033A.244.244 0 000 .111l.039.034A.229.229 0 01.114.078.232.232 0 01.226.052c.052 0 .093.013.123.038s.045.06.045.104A.123.123 0 01.38.255a.115.115 0 01-.038.042.152.152 0 01-.057.024.296.296 0 01-.07.008H.178L.153.328v.054A.223.223 0 01.178.381h.037c.022 0 .043.002.063.007a.18.18 0 01.054.023.111.111 0 01.052.097.114.114 0 01-.048.095.146.146 0 01-.051.025.205.205 0 01-.061.009.217.217 0 01-.1-.022.263.263 0 01-.079-.063L.009.588a.27.27 0 00.218.101.277.277 0 00.082-.012.191.191 0 00.069-.034.16.16 0 00.064-.13A.15.15 0 00.391.4.185.185 0 00.299.357.179.179 0 00.397.313.17.17 0 00.436.262.149.149 0 00.452.191.19.19 0 00.437.115.172.172 0 00.393.054a.222.222 0 00-.071-.04A.3.3 0 00.227 0z"/></symbol><symbol id="aI"><path d="M.338 0a.33.33 0 00-.24.095.33.33 0 00-.072.109A.371.371 0 000 .345c0 .051.009.098.026.14a.317.317 0 00.179.18.352.352 0 00.273-.007.327.327 0 00.103-.086L.533.541a.228.228 0 01-.084.07.234.234 0 01-.111.027.275.275 0 01-.257-.174A.326.326 0 01.06.345.298.298 0 01.14.134.278.278 0 01.228.073a.286.286 0 01.11-.021.24.24 0 01.195.097l.048-.03A.349.349 0 00.477.032.287.287 0 00.338 0z"/></symbol><symbol id="aJ"><path d="M.22.172a.195.195 0 00-.095.024.21.21 0 00-.073.066V0H0v.667h.052V.591a.211.211 0 00.256.07.18.18 0 00.068-.05.221.221 0 00.044-.08.324.324 0 00.016-.105A.324.324 0 00.42.321a.221.221 0 00-.044-.08A.19.19 0 00.308.19.212.212 0 00.22.172M.211.219a.162.162 0 01.158.125.294.294 0 010 .163.192.192 0 01-.033.066.147.147 0 01-.054.043.153.153 0 01-.071.016.184.184 0 01-.095-.026.175.175 0 01-.064-.06V.307A.15.15 0 01.079.274.25.25 0 01.162.226.174.174 0 01.211.219z"/></symbol><symbol id="aK"><path d="M.044.556H0L.154.7h.062L.044.556M.028 0v.483H.08V0H.028z"/></symbol><symbol id="aL"><path d="M0 0v.667h.052V0H0z"/></symbol><use xlink:href="#D" transform="matrix(7 0 0 -7 49.832 758.597)" fill="#231f20"/><use xlink:href="#av" transform="matrix(7 0 0 -7 53.416 758.681)" fill="#231f20"/><use xlink:href="#aw" transform="matrix(7 0 0 -7 57.609 758.597)" fill="#231f20"/><use xlink:href="#ax" transform="matrix(7 0 0 -7 60.899 758.681)" fill="#231f20"/><use xlink:href="#ay" transform="matrix(7 0 0 -7 63.118 758.681)" fill="#231f20"/><use xlink:href="#az" transform="matrix(7 0 0 -7 67.171 758.667)" fill="#231f20"/><use xlink:href="#J" transform="matrix(7 0 0 -7 68.249 758.597)" fill="#231f20"/><use xlink:href="#D" transform="matrix(7 0 0 -7 70.643 758.597)" fill="#231f20"/><use xlink:href="#aA" transform="matrix(7 0 0 -7 74.325 758.597)" fill="#231f20"/><use xlink:href="#aB" transform="matrix(7 0 0 -7 75.725 759.97)" fill="#231f20"/><use xlink:href="#aC" transform="matrix(7 0 0 -7 79.911 758.681)" fill="#231f20"/><use xlink:href="#aD" transform="matrix(7 0 0 -7 83.691 758.597)" fill="#231f20"/><use xlink:href="#aE" transform="matrix(7 0 0 -7 85.728 758.681)" fill="#231f20"/><use xlink:href="#J" transform="matrix(7 0 0 -7 88.99 758.597)" fill="#231f20"/><use xlink:href="#aF" transform="matrix(7 0 0 -7 90.985 758.597)" fill="#231f20"/><use xlink:href="#aG" transform="matrix(7 0 0 -7 93.414 758.667)" fill="#231f20"/><use xlink:href="#aH" transform="matrix(7 0 0 -7 94.716 758.681)" fill="#231f20"/><use xlink:href="#J" transform="matrix(7 0 0 -7 98.3 758.597)" fill="#231f20"/><use xlink:href="#aw" transform="matrix(7 0 0 -7 100.68 758.597)" fill="#231f20"/><use xlink:href="#av" transform="matrix(7 0 0 -7 104.264 758.681)" fill="#231f20"/><use xlink:href="#J" transform="matrix(7 0 0 -7 107.89 758.597)" fill="#231f20"/><use xlink:href="#aI" transform="matrix(7 0 0 -7 110.109 758.681)" fill="#231f20"/><use xlink:href="#aE" transform="matrix(7 0 0 -7 114.792 758.681)" fill="#231f20"/><use xlink:href="#aJ" transform="matrix(7 0 0 -7 118.621 759.885)" fill="#231f20"/><use xlink:href="#aK" transform="matrix(7 0 0 -7 122.394 758.597)" fill="#231f20"/><use xlink:href="#ax" transform="matrix(7 0 0 -7 123.598 758.681)" fill="#231f20"/><use xlink:href="#aC" transform="matrix(7 0 0 -7 126.013 758.681)" fill="#231f20"/><use xlink:href="#aL" transform="matrix(7 0 0 -7 129.793 758.597)" fill="#231f20"/><use xlink:href="#av" transform="matrix(7 0 0 -7 131.095 758.681)" fill="#231f20"/><use xlink:href="#J" transform="matrix(7 0 0 -7 134.721 758.597)" fill="#231f20"/><use xlink:href="#aF" transform="matrix(7 0 0 -7 136.716 758.597)" fill="#231f20"/><use xlink:href="#aG" transform="matrix(7 0 0 -7 139.145 758.667)" fill="#231f20"/><symbol id="aM"><path d="M0 .001l.309.535L.619 0 0 .001z"/></symbol><use xlink:href="#aM" transform="matrix(9 0 0 -9 76.45 535.454)" fill="#231f20"/><symbol id="aN"><path d="M.156.362a.147.147 0 00-.145.097A.187.187 0 000 .524a.168.168 0 00.043.118.155.155 0 00.113.047.155.155 0 00.113-.047.147.147 0 00.032-.053.173.173 0 00.012-.065.173.173 0 00-.044-.116A.135.135 0 00.22.374.166.166 0 00.156.362M.094.012L.52.679h.046L.139.012H.094M.496 0a.166.166 0 00-.064.012.17.17 0 00-.049.034.161.161 0 00-.044.117c0 .023.004.045.011.065a.147.147 0 00.082.087c.02.009.04.013.064.013A.152.152 0 00.559.315.145.145 0 00.641.228.173.173 0 00.653.163.173.173 0 00.609.046a.166.166 0 00-.05-.034A.163.163 0 00.496 0m-.34.4a.1.1 0 01.045.01.12.12 0 01.058.066.145.145 0 010 .097.119.119 0 01-.058.067.1.1 0 01-.045.01.103.103 0 01-.08-.037.129.129 0 01-.022-.04.148.148 0 010-.097A.115.115 0 01.111.41.103.103 0 01.156.4m.34-.361a.1.1 0 01.045.01.11.11 0 01.034.026.12.12 0 01.023.039.148.148 0 01-.023.138.1.1 0 01-.079.037.106.106 0 01-.103-.077.148.148 0 01.022-.137.106.106 0 01.081-.036z"/></symbol><use xlink:href="#J" transform="matrix(9 0 0 -9 82.013 535.715)" fill="#231f20"/><use xlink:href="#aN" transform="matrix(9 0 0 -9 89.906 535.823)" fill="#231f20"/><use xlink:href="#J" transform="matrix(9 0 0 -9 96.08 535.715)" fill="#231f20"/><symbol id="aO"><path d="M0 0v.618L.535.309 0 0z"/></symbol><use xlink:href="#aO" transform="matrix(9 0 0 -9 76.955 547.92)" fill="#231f20"/><use xlink:href="#J" transform="matrix(9 0 0 -9 81.752 547.712)" fill="#231f20"/><use xlink:href="#J" transform="matrix(9 0 0 -9 84.083 547.712)" fill="#231f20"/><use xlink:href="#J" transform="matrix(9 0 0 -9 86.414 547.712)" fill="#231f20"/><use xlink:href="#I" transform="matrix(9 0 0 -9 89.735 547.712)" fill="#231f20"/><use xlink:href="#aw" transform="matrix(9 0 0 -9 96.152 547.712)" fill="#231f20"/><use xlink:href="#av" transform="matrix(9 0 0 -9 100.76 547.82)" fill="#231f20"/><path stroke-width=".677" stroke-linecap="round" stroke-dasharray="0,2.258" stroke-miterlimit="10" fill="none" stroke="#bcbec0" d="M72.551 482.45V149.285M95.517 466.64v16.684M117.798 466.64v16.684M141.39 466.64v16.684M163.67 466.64v16.684"/><symbol id="aP"><path d="M.316 0v.182H0v.051l.296.434h.077V.234h.098V.182H.373V0H.316m0 .61L.059.234h.257V.61z"/></symbol><symbol id="aQ"><path d="M.245 0A.221.221 0 00.13.028a.23.23 0 00-.075.077.35.35 0 00-.042.11.642.642 0 00.001.256c.01.041.024.078.044.11a.222.222 0 00.197.108.214.214 0 00.18-.085L.401.562a.203.203 0 01-.058.054.162.162 0 01-.088.021.159.159 0 01-.092-.026.207.207 0 01-.061-.068.327.327 0 01-.034-.094.555.555 0 01-.01-.105V.328L.059.313a.267.267 0 00.13.1c.02.007.042.011.065.011.03 0 .058-.004.084-.013A.184.184 0 00.452.305.229.229 0 00.469.213.206.206 0 00.34.018.239.239 0 00.245 0M.243.052A.168.168 0 01.37.105a.15.15 0 01.031.051.178.178 0 01-.003.127.128.128 0 01-.035.05.143.143 0 01-.053.03.208.208 0 01-.066.01A.187.187 0 01.14.341.23.23 0 01.062.259.36.36 0 01.076.188.189.189 0 01.163.071a.158.158 0 01.08-.019z"/></symbol><use xlink:href="#ai" transform="matrix(7 0 0 -7 167.783 493.578)" fill="#231f20"/><use xlink:href="#aj" transform="matrix(7 0 0 -7 171.87 493.662)" fill="#231f20"/><use xlink:href="#aj" transform="matrix(7 0 0 -7 176.127 493.662)" fill="#231f20"/><use xlink:href="#aP" transform="matrix(7 0 0 -7 180.222 493.578)" fill="#231f20"/><use xlink:href="#ai" transform="matrix(7 0 0 -7 212.415 493.578)" fill="#231f20"/><use xlink:href="#aj" transform="matrix(7 0 0 -7 216.503 493.662)" fill="#231f20"/><use xlink:href="#aj" transform="matrix(7 0 0 -7 220.759 493.662)" fill="#231f20"/><use xlink:href="#aQ" transform="matrix(7 0 0 -7 225.015 493.662)" fill="#231f20"/><path stroke-width=".677" stroke-linecap="round" stroke-dasharray="0,2.258" stroke-miterlimit="10" fill="none" stroke="#bcbec0" d="M187.262 466.64v16.684M209.543 466.64v16.684M233.135 466.64v16.684M255.416 466.64v16.684"/><symbol id="aR"><path d="M.227 0a.326.326 0 00-.09.012.187.187 0 00-.12.093.16.16 0 00.034.188.202.202 0 00.053.038c.02.01.04.019.062.025a.23.23 0 00-.107.055.137.137 0 00-.048.106c0 .03.006.055.019.076.013.022.029.04.049.054a.29.29 0 00.225.031.222.222 0 00.07-.031.162.162 0 00.05-.054.146.146 0 00.019-.076.137.137 0 00-.048-.106.22.22 0 00-.05-.034.323.323 0 00-.057-.021.286.286 0 00.114-.063.176.176 0 00.037-.051.139.139 0 00.014-.063.165.165 0 00-.065-.13.228.228 0 00-.072-.036A.293.293 0 00.227 0m0 .38l.042.011a.225.225 0 01.052.023c.017.01.032.023.045.038a.092.092 0 01.019.059c0 .02-.004.038-.013.053a.11.11 0 01-.034.04.198.198 0 01-.111.033.208.208 0 01-.112-.033.113.113 0 01-.046-.093c0-.023.006-.043.019-.059A.165.165 0 01.133.414.253.253 0 01.185.391.513.513 0 01.227.38m0-.328C.249.052.27.055.29.061a.17.17 0 01.054.026.13.13 0 01.038.041.11.11 0 01.014.055.103.103 0 01-.021.065.216.216 0 01-.105.071.27.27 0 01-.043.011.295.295 0 01-.1-.038.18.18 0 01-.049-.044.106.106 0 01-.02-.065.11.11 0 01.014-.055.136.136 0 01.037-.041.17.17 0 01.054-.026.228.228 0 01.064-.009z"/></symbol><use xlink:href="#ai" transform="matrix(7 0 0 -7 259.422 493.578)" fill="#231f20"/><use xlink:href="#aj" transform="matrix(7 0 0 -7 263.51 493.662)" fill="#231f20"/><use xlink:href="#aj" transform="matrix(7 0 0 -7 267.766 493.662)" fill="#231f20"/><use xlink:href="#aR" transform="matrix(7 0 0 -7 272.03 493.662)" fill="#231f20"/><use xlink:href="#ai" transform="matrix(7 0 0 -7 305.125 493.578)" fill="#231f20"/><use xlink:href="#aj" transform="matrix(7 0 0 -7 309.213 493.662)" fill="#231f20"/><use xlink:href="#aF" transform="matrix(7 0 0 -7 313.245 493.578)" fill="#231f20"/><use xlink:href="#aj" transform="matrix(7 0 0 -7 315.625 493.662)" fill="#231f20"/><path stroke-width=".677" stroke-linecap="round" stroke-dasharray="0,2.258" stroke-miterlimit="10" fill="none" stroke="#bcbec0" d="M279.007 466.64v16.684M301.288 466.64v16.684M324.88 466.64v16.684M347.161 466.64v16.684"/><use xlink:href="#ai" transform="matrix(7 0 0 -7 351.743 493.578)" fill="#231f20"/><use xlink:href="#aj" transform="matrix(7 0 0 -7 355.83 493.662)" fill="#231f20"/><use xlink:href="#aF" transform="matrix(7 0 0 -7 359.863 493.578)" fill="#231f20"/><use xlink:href="#ai" transform="matrix(7 0 0 -7 362.229 493.578)" fill="#231f20"/><path stroke-width=".677" stroke-linecap="round" stroke-dasharray="0,2.258" stroke-miterlimit="10" fill="none" stroke="#bcbec0" d="M347.379 466.64v16.684M369.66 466.64v16.684M393.252 466.64v16.684M415.532 466.64v16.684"/><use xlink:href="#ai" transform="matrix(7 0 0 -7 398.85 493.578)" fill="#231f20"/><use xlink:href="#aj" transform="matrix(7 0 0 -7 402.938 493.662)" fill="#231f20"/><use xlink:href="#aF" transform="matrix(7 0 0 -7 406.97 493.578)" fill="#231f20"/><use xlink:href="#aP" transform="matrix(7 0 0 -7 409.19 493.578)" fill="#231f20"/><use xlink:href="#ai" transform="matrix(7 0 0 -7 443.482 493.578)" fill="#231f20"/><use xlink:href="#aj" transform="matrix(7 0 0 -7 447.57 493.662)" fill="#231f20"/><use xlink:href="#aF" transform="matrix(7 0 0 -7 451.603 493.578)" fill="#231f20"/><use xlink:href="#aQ" transform="matrix(7 0 0 -7 453.983 493.662)" fill="#231f20"/><path stroke-width=".677" stroke-linecap="round" stroke-dasharray="0,2.258" stroke-miterlimit="10" fill="none" stroke="#bcbec0" d="M439.124 466.64v16.684M461.405 466.64v16.684M484.997 466.64v16.684M507.277 466.64v16.684"/><symbol id="aS"><path d="M.214 0a.227.227 0 00-.108.023.235.235 0 00-.071.062l.033.041A.215.215 0 01.125.073.168.168 0 01.214.052c.037 0 .067.009.092.026.025.017.046.04.061.068.016.028.027.06.034.094.007.035.01.07.01.105v.031A.233.233 0 00.38.339.252.252 0 00.279.275.184.184 0 00.215.264a.264.264 0 00-.084.013.201.201 0 00-.069.039.193.193 0 00-.046.067.25.25 0 00-.001.172.2.2 0 00.114.116c.028.012.06.018.095.018a.213.213 0 00.19-.105.35.35 0 00.042-.111.627.627 0 00-.001-.255A.35.35 0 00.41.107.239.239 0 00.331.029.222.222 0 00.214 0m.011.316c.037 0 .071.01.104.031A.239.239 0 01.407.43.343.343 0 01.393.5.217.217 0 01.36.567a.162.162 0 01-.054.05.152.152 0 01-.08.02.175.175 0 01-.075-.015.17.17 0 01-.052-.038.163.163 0 01-.041-.107A.19.19 0 01.07.406a.144.144 0 01.035-.05.154.154 0 01.053-.03.217.217 0 01.067-.01z"/></symbol><use xlink:href="#ai" transform="matrix(7 0 0 -7 489.921 493.578)" fill="#231f20"/><use xlink:href="#aj" transform="matrix(7 0 0 -7 494.01 493.662)" fill="#231f20"/><use xlink:href="#aF" transform="matrix(7 0 0 -7 498.041 493.578)" fill="#231f20"/><use xlink:href="#aR" transform="matrix(7 0 0 -7 500.428 493.662)" fill="#231f20"/><use xlink:href="#ai" transform="matrix(7 0 0 -7 513.371 493.578)" fill="#231f20"/><use xlink:href="#aj" transform="matrix(7 0 0 -7 517.46 493.662)" fill="#231f20"/><use xlink:href="#aF" transform="matrix(7 0 0 -7 521.491 493.578)" fill="#231f20"/><use xlink:href="#aS" transform="matrix(7 0 0 -7 523.864 493.655)" fill="#231f20"/><path stroke-width=".677" stroke-linecap="round" stroke-dasharray="0,2.258" stroke-miterlimit="10" fill="none" stroke="#bcbec0" d="M531.743 466.64v16.684"/><path stroke-width="2" stroke-linecap="round" stroke-miterlimit="10" fill="none" stroke="#b9568f" d="M84.293 172.518L105.5 312.08l24.75 122.25 23.314-100.94 22.38-31.04 22.9-83.299 22.275-36.514 24.044 22.9 22.9 60.97L291.25 435.83l22.898-94.713 22.614-126.234 22.899 60.684 23.473-21.469 22.041 4.008 22.899 56.39 22.9-2.576 23.472-86.16"/><path stroke-width="2" stroke-linecap="round" stroke-miterlimit="10" fill="none" stroke="#6050a1" d="M83.148 205.723l24.903 106.77 22.327 54.959 22.9-50.379 23.473 7.442 22.613-77.572 22.899-11.164 22.328-6.011 22.613 34.636 23.758 100.758L313 301.205l23.459-30.468 23.166 44.718 23.5-30.25 22.05 7.823 23.758 32.632 22.327 22.327 23.365-74.532"/><path stroke-width="2" stroke-linecap="round" stroke-miterlimit="10" fill="none" stroke="#48709c" d="M83.148 288.734l24.044 72.134 23.186-9.446 22.04-32.632 23.76-52.383 22.327 20.896 22.04-18.033 23.473-3.149 24.903 83.87 22.204 90.34 22.737-169.916 22.614 36.353 23.185 22.613 27.767-2.576 17.747-3.435 23.758 2.29 22.327 6.011 22.9-14.599 22.9 5.725"/><path stroke-width="2" stroke-linecap="round" stroke-dasharray="1,3" stroke-miterlimit="10" fill="none" stroke="#48709c" d="M520 331.455l-21-7.875"/><symbol id="aT"><path d="M0 0v.667h.127V0H0z"/></symbol><use xlink:href="#L" transform="matrix(9 0 0 -9 477.713 227.568)" fill="#bb558f"/><use xlink:href="#M" transform="matrix(9 0 0 -9 484.157 227.46)" fill="#bb558f"/><use xlink:href="#N" transform="matrix(9 0 0 -9 487.118 227.568)" fill="#bb558f"/><use xlink:href="#O" transform="matrix(9 0 0 -9 491.996 227.568)" fill="#bb558f"/><use xlink:href="#P" transform="matrix(9 0 0 -9 496.388 227.568)" fill="#bb558f"/><use xlink:href="#Q" transform="matrix(9 0 0 -9 501.04 227.46)" fill="#bb558f"/><use xlink:href="#R" transform="matrix(9 0 0 -9 503.435 227.46)" fill="#bb558f"/><use xlink:href="#N" transform="matrix(9 0 0 -9 510.824 227.568)" fill="#bb558f"/><use xlink:href="#S" transform="matrix(9 0 0 -9 516.08 227.46)" fill="#bb558f"/><use xlink:href="#T" transform="matrix(9 0 0 -9 520.796 227.568)" fill="#bb558f"/><use xlink:href="#U" transform="matrix(9 0 0 -9 524.054 227.568)" fill="#bb558f"/><use xlink:href="#V" transform="matrix(9 0 0 -9 528.932 227.46)" fill="#bb558f"/><use xlink:href="#W" transform="matrix(9 0 0 -9 477.695 236.568)" fill="#bb558f"/><use xlink:href="#N" transform="matrix(9 0 0 -9 482.969 236.568)" fill="#bb558f"/><use xlink:href="#V" transform="matrix(9 0 0 -9 487.658 236.46)" fill="#bb558f"/><use xlink:href="#Z" transform="matrix(9 0 0 -9 490.556 236.46)" fill="#bb558f"/><use xlink:href="#aa" transform="matrix(9 0 0 -9 495.794 236.568)" fill="#bb558f"/><use xlink:href="#ab" transform="matrix(9 0 0 -9 501.986 236.46)" fill="#bb558f"/><use xlink:href="#V" transform="matrix(9 0 0 -9 507.854 236.46)" fill="#bb558f"/><use xlink:href="#N" transform="matrix(9 0 0 -9 477.695 245.568)" fill="#bb558f"/><use xlink:href="#R" transform="matrix(9 0 0 -9 482.95 245.46)" fill="#bb558f"/><use xlink:href="#X" transform="matrix(9 0 0 -9 490.619 247.116)" fill="#bb558f"/><use xlink:href="#M" transform="matrix(9 0 0 -9 495.866 245.46)" fill="#bb558f"/><use xlink:href="#N" transform="matrix(9 0 0 -9 498.827 245.568)" fill="#bb558f"/><use xlink:href="#O" transform="matrix(9 0 0 -9 503.705 245.568)" fill="#bb558f"/><use xlink:href="#Y" transform="matrix(9 0 0 -9 508.097 245.568)" fill="#bb558f"/><use xlink:href="#M" transform="matrix(9 0 0 -9 513.263 245.46)" fill="#bb558f"/><use xlink:href="#Q" transform="matrix(9 0 0 -9 516.386 245.46)" fill="#bb558f"/><use xlink:href="#Y" transform="matrix(9 0 0 -9 518.5 245.568)" fill="#bb558f"/><use xlink:href="#aT" transform="matrix(9 0 0 -9 523.667 245.46)" fill="#bb558f"/><use xlink:href="#L" transform="matrix(9 0 0 -9 477.82 278.742)" fill="#5f51a2"/><use xlink:href="#M" transform="matrix(9 0 0 -9 484.265 278.634)" fill="#5f51a2"/><use xlink:href="#N" transform="matrix(9 0 0 -9 487.226 278.742)" fill="#5f51a2"/><use xlink:href="#O" transform="matrix(9 0 0 -9 492.104 278.742)" fill="#5f51a2"/><use xlink:href="#P" transform="matrix(9 0 0 -9 496.496 278.742)" fill="#5f51a2"/><use xlink:href="#Q" transform="matrix(9 0 0 -9 501.149 278.634)" fill="#5f51a2"/><use xlink:href="#R" transform="matrix(9 0 0 -9 503.543 278.634)" fill="#5f51a2"/><use xlink:href="#N" transform="matrix(9 0 0 -9 510.932 278.742)" fill="#5f51a2"/><use xlink:href="#S" transform="matrix(9 0 0 -9 516.188 278.634)" fill="#5f51a2"/><use xlink:href="#T" transform="matrix(9 0 0 -9 520.904 278.742)" fill="#5f51a2"/><use xlink:href="#U" transform="matrix(9 0 0 -9 524.162 278.742)" fill="#5f51a2"/><use xlink:href="#V" transform="matrix(9 0 0 -9 529.04 278.634)" fill="#5f51a2"/><use xlink:href="#T" transform="matrix(9 0 0 -9 477.587 287.742)" fill="#5f51a2"/><use xlink:href="#U" transform="matrix(9 0 0 -9 480.845 287.742)" fill="#5f51a2"/><use xlink:href="#T" transform="matrix(9 0 0 -9 485.795 287.742)" fill="#5f51a2"/><use xlink:href="#Y" transform="matrix(9 0 0 -9 489.053 287.742)" fill="#5f51a2"/><use xlink:href="#aT" transform="matrix(9 0 0 -9 494.219 287.634)" fill="#5f51a2"/><use xlink:href="#V" transform="matrix(9 0 0 -9 495.929 287.634)" fill="#5f51a2"/><use xlink:href="#W" transform="matrix(9 0 0 -9 498.52 287.742)" fill="#5f51a2"/><use xlink:href="#N" transform="matrix(9 0 0 -9 503.795 287.742)" fill="#5f51a2"/><use xlink:href="#V" transform="matrix(9 0 0 -9 508.484 287.634)" fill="#5f51a2"/><use xlink:href="#Z" transform="matrix(9 0 0 -9 511.382 287.634)" fill="#5f51a2"/><use xlink:href="#aa" transform="matrix(9 0 0 -9 516.62 287.742)" fill="#5f51a2"/><use xlink:href="#ab" transform="matrix(9 0 0 -9 522.812 287.634)" fill="#5f51a2"/><symbol id="aU"><path d="M0 0v.667h.142V0H0z"/></symbol><symbol id="aV"><path d="M0 0v.667h.351c.032 0 .06-.005.084-.014a.171.171 0 00.06-.038.148.148 0 00.036-.054.176.176 0 00-.022-.168.14.14 0 00-.081-.049.147.147 0 00.09-.055A.174.174 0 00.556.18.192.192 0 00.543.109.159.159 0 00.446.014.231.231 0 00.362 0H0m.32.4a.08.08 0 01.057.02c.014.013.021.03.021.052a.069.069 0 01-.021.052.077.077 0 01-.057.021H.142V.4H.32M.325.123c.027 0 .048.007.063.02A.073.073 0 01.411.2c0 .021-.007.04-.022.055S.353.278.325.278H.142V.123h.183z"/></symbol><use xlink:href="#L" transform="matrix(9 0 0 -9 477.82 341.436)" fill="#46719f"/><use xlink:href="#M" transform="matrix(9 0 0 -9 484.175 341.328)" fill="#46719f"/><use xlink:href="#N" transform="matrix(9 0 0 -9 487.046 341.436)" fill="#46719f"/><use xlink:href="#O" transform="matrix(9 0 0 -9 491.834 341.436)" fill="#46719f"/><use xlink:href="#P" transform="matrix(9 0 0 -9 496.136 341.436)" fill="#46719f"/><use xlink:href="#Q" transform="matrix(9 0 0 -9 500.699 341.328)" fill="#46719f"/><use xlink:href="#R" transform="matrix(9 0 0 -9 503.003 341.328)" fill="#46719f"/><use xlink:href="#N" transform="matrix(9 0 0 -9 510.302 341.436)" fill="#46719f"/><use xlink:href="#S" transform="matrix(9 0 0 -9 515.468 341.328)" fill="#46719f"/><use xlink:href="#T" transform="matrix(9 0 0 -9 520.094 341.436)" fill="#46719f"/><use xlink:href="#U" transform="matrix(9 0 0 -9 523.262 341.436)" fill="#46719f"/><use xlink:href="#V" transform="matrix(9 0 0 -9 528.05 341.328)" fill="#46719f"/><use xlink:href="#W" transform="matrix(9 0 0 -9 477.803 350.436)" fill="#46719f"/><use xlink:href="#U" transform="matrix(9 0 0 -9 482.987 350.436)" fill="#46719f"/><use xlink:href="#V" transform="matrix(9 0 0 -9 487.775 350.328)" fill="#46719f"/><use xlink:href="#Z" transform="matrix(9 0 0 -9 490.583 350.328)" fill="#46719f"/><use xlink:href="#aU" transform="matrix(9 0 0 -9 496.109 350.328)" fill="#46719f"/><use xlink:href="#aV" transform="matrix(9 0 0 -9 498.485 350.328)" fill="#46719f"/><path stroke-width="2" stroke-miterlimit="10" fill="none" stroke="#48709c" d="M166.01 533.964h-1.68v.329h1.68zM171.734 533.964h-1.68v.329h1.68zM177.459 533.964h-1.68v.329h1.68zM183.184 533.964h-1.68v.329h1.68z"/><symbol id="aW"><path d="M0 0v.667h.25C.282.667.31.662.335.651A.176.176 0 00.437.546.205.205 0 00.398.335.192.192 0 00.25.277H.057V0H0m.244.329a.138.138 0 01.147.143.145.145 0 01-.041.103.158.158 0 01-.106.04H.057V.329h.187z"/></symbol><symbol id="aX"><path d="M.204 0L0 .483h.058L.234.061l.174.422h.059L.263 0H.204z"/></symbol><symbol id="aY"><path d="M.186 0a.287.287 0 00-.105.018A.217.217 0 000 .076l.031.039A.199.199 0 01.187.044c.04 0 .072.01.095.028a.087.087 0 01.034.07.061.061 0 01-.023.051.17.17 0 01-.056.029.84.84 0 01-.074.02.468.468 0 00-.073.023.169.169 0 00-.057.04.1.1 0 00-.022.068c0 .019.004.036.011.052.008.017.02.031.034.043A.16.16 0 00.11.496a.224.224 0 00.073.011.234.234 0 00.105-.021.225.225 0 00.068-.05L.327.399a.143.143 0 01-.059.046.192.192 0 01-.085.018.141.141 0 01-.089-.025.077.077 0 01-.032-.063c0-.02.007-.035.022-.046A.216.216 0 01.141.302L.214.283A.358.358 0 00.288.258.157.157 0 00.344.215.109.109 0 00.367.142.13.13 0 00.355.087.125.125 0 00.321.041a.16.16 0 00-.056-.03A.257.257 0 00.186 0z"/></symbol><symbol id="aZ"><path d="M.333.012v.057A.212.212 0 00.107.011a.165.165 0 00-.054.03.165.165 0 00-.039.051A.161.161 0 000 .161C0 .187.005.21.014.23c.01.02.023.037.039.05a.156.156 0 00.054.031c.02.007.04.01.062.01A.21.21 0 00.333.252V.35a.095.095 0 01-.038.082.147.147 0 01-.092.029.194.194 0 01-.082-.017A.202.202 0 01.052.39L.023.426a.258.258 0 00.082.061.25.25 0 00.104.02.254.254 0 00.069-.009A.158.158 0 00.334.47.124.124 0 00.371.421.157.157 0 00.385.352v-.34H.333M.187.041a.21.21 0 01.082.016.167.167 0 01.064.05v.106a.167.167 0 01-.064.05.198.198 0 01-.082.017.134.134 0 01-.096-.034A.113.113 0 01.055.16c0-.034.012-.062.036-.085A.134.134 0 01.187.041M.27.566a.06.06 0 00-.044.016.202.202 0 00-.028.035.305.305 0 01-.023.036.035.035 0 01-.031.016C.129.669.116.661.105.646A.14.14 0 01.09.572H.055c0 .019.002.036.006.052.004.017.01.031.018.043a.09.09 0 00.029.028.072.072 0 00.04.011C.167.706.181.701.191.69A.17.17 0 00.218.655L.241.62A.038.038 0 01.273.604c.015 0 .028.007.038.022A.14.14 0 01.326.7h.036A.226.226 0 00.356.647.133.133 0 00.338.605.086.086 0 00.309.576.075.075 0 00.27.566z"/></symbol><symbol id="ba"><path d="M.384.012v.077a.217.217 0 00-.07-.064.223.223 0 00-.186-.008.2.2 0 00-.069.051.243.243 0 00-.044.08A.344.344 0 000 .253a.34.34 0 00.015.104c.01.031.025.058.044.08.02.023.042.04.069.052A.212.212 0 00.311.483.21.21 0 00.384.417v.262h.053V.012H.384M.225.047a.183.183 0 01.094.026.196.196 0 01.065.06v.239a.165.165 0 01-.028.034.183.183 0 01-.203.038A.16.16 0 01.1.4.206.206 0 01.067.335a.294.294 0 010-.164A.221.221 0 01.1.106.16.16 0 01.153.062.168.168 0 01.225.047z"/></symbol><symbol id="bb"><path d="M.235 0a.232.232 0 00-.171.074.253.253 0 00-.064.18.3.3 0 00.016.099c.011.03.027.057.048.08a.232.232 0 00.171.074.2.2 0 00.171-.082L.37.393a.15.15 0 01-.059.051.165.165 0 01-.073.016A.176.176 0 01.104.4.198.198 0 01.068.335a.27.27 0 010-.163.212.212 0 01.036-.065.172.172 0 01.134-.06c.027 0 .051.005.073.016A.16.16 0 01.37.115L.406.083A.231.231 0 00.337.022.207.207 0 00.235 0z"/></symbol><symbol id="bc"><path d="M.575 0v.338c0 .034-.008.06-.023.08-.015.02-.04.03-.074.03A.158.158 0 01.399.423.176.176 0 01.34.366V0H.287v.338c0 .034-.008.06-.023.08-.015.02-.04.03-.074.03A.118.118 0 01.151.441.183.183 0 01.078.396.221.221 0 01.052.365V0H0v.483h.052V.41a.12.12 0 00.022.026.234.234 0 00.083.05.15.15 0 00.138-.019.129.129 0 00.04-.063A.18.18 0 00.4.466a.213.213 0 00.045.021.157.157 0 00.05.008C.583.495.627.446.627.348V0H.575z"/></symbol><use xlink:href="#aW" transform="matrix(9 0 0 -9 199.05 535.82)" fill="#231f20"/><use xlink:href="#aD" transform="matrix(9 0 0 -9 204.17 535.82)" fill="#231f20"/><use xlink:href="#ay" transform="matrix(9 0 0 -9 206.772 535.927)" fill="#231f20"/><use xlink:href="#aX" transform="matrix(9 0 0 -9 211.46 535.82)" fill="#231f20"/><use xlink:href="#aA" transform="matrix(9 0 0 -9 216.33 535.82)" fill="#231f20"/><use xlink:href="#aY" transform="matrix(9 0 0 -9 218.004 535.927)" fill="#231f20"/><use xlink:href="#aZ" transform="matrix(9 0 0 -9 222.279 535.927)" fill="#231f20"/><use xlink:href="#av" transform="matrix(9 0 0 -9 226.95 535.927)" fill="#231f20"/><use xlink:href="#J" transform="matrix(9 0 0 -9 231.612 535.82)" fill="#231f20"/><use xlink:href="#ba" transform="matrix(9 0 0 -9 234.42 535.927)" fill="#231f20"/><use xlink:href="#ay" transform="matrix(9 0 0 -9 239.559 535.927)" fill="#231f20"/><use xlink:href="#J" transform="matrix(9 0 0 -9 244.185 535.82)" fill="#231f20"/><use xlink:href="#bb" transform="matrix(9 0 0 -9 246.993 535.927)" fill="#231f20"/><use xlink:href="#aD" transform="matrix(9 0 0 -9 251.69 535.82)" fill="#231f20"/><use xlink:href="#ay" transform="matrix(9 0 0 -9 254.292 535.927)" fill="#231f20"/><use xlink:href="#aY" transform="matrix(9 0 0 -9 259.269 535.927)" fill="#231f20"/><use xlink:href="#bb" transform="matrix(9 0 0 -9 263.526 535.927)" fill="#231f20"/><use xlink:href="#aA" transform="matrix(9 0 0 -9 268.098 535.82)" fill="#231f20"/><use xlink:href="#bc" transform="matrix(9 0 0 -9 270.15 535.82)" fill="#231f20"/><use xlink:href="#ay" transform="matrix(9 0 0 -9 276.999 535.927)" fill="#231f20"/><use xlink:href="#aw" transform="matrix(9 0 0 -9 282.354 535.82)" fill="#231f20"/><use xlink:href="#ax" transform="matrix(9 0 0 -9 286.584 535.927)" fill="#231f20"/><use xlink:href="#av" transform="matrix(9 0 0 -9 289.437 535.927)" fill="#231f20"/><use xlink:href="#J" transform="matrix(9 0 0 -9 294.099 535.82)" fill="#231f20"/><use xlink:href="#ba" transform="matrix(9 0 0 -9 296.907 535.927)" fill="#231f20"/><use xlink:href="#av" transform="matrix(9 0 0 -9 302.046 535.927)" fill="#231f20"/><use xlink:href="#J" transform="matrix(9 0 0 -9 306.708 535.82)" fill="#231f20"/><use xlink:href="#aW" transform="matrix(9 0 0 -9 309.786 535.82)" fill="#231f20"/><use xlink:href="#E" transform="matrix(9 0 0 -9 314.925 535.82)" fill="#231f20"/><use xlink:href="#K" transform="matrix(9 0 0 -9 316.932 535.82)" fill="#231f20"/></g></svg>