<svg xmlns="http://www.w3.org/2000/svg" xmlns:xlink="http://www.w3.org/1999/xlink" width="793.701" height="1122.52" viewBox="0 0 595.276 841.89"><clipPath id="a"><path transform="matrix(1 0 0 -1 0 841.89)" d="M0 0h595.276v841.89H0z"/></clipPath><g clip-path="url(#a)"><symbol id="c"><path d="M.025 0v.667h.057V0H.025m.019.723H0l.154.144h.062L.044.723z"/></symbol><symbol id="d"><path d="M.326 0v.327a.16.16 0 01-.009.058.087.087 0 01-.061.057.171.171 0 01-.093-.001.254.254 0 01-.044-.018.208.208 0 01-.067-.058V0H0v.483h.052V.41a.266.266 0 00.122.077.176.176 0 00.052.008c.05 0 .087-.013.113-.038C.365.432.378.393.378.338V0H.326z"/></symbol><symbol id="e"><path d="M.384.012v.077a.217.217 0 00-.07-.064.223.223 0 00-.186-.008.2.2 0 00-.069.051.243.243 0 00-.044.08A.344.344 0 000 .253a.34.34 0 00.015.104c.01.031.025.058.044.08.02.023.042.04.069.052A.212.212 0 00.311.483.21.21 0 00.384.417v.262h.053V.012H.384M.225.047a.183.183 0 01.094.026.196.196 0 01.065.06v.239a.165.165 0 01-.028.034.183.183 0 01-.203.038A.16.16 0 01.1.4.206.206 0 01.067.335a.294.294 0 010-.164A.221.221 0 01.1.106.16.16 0 01.153.062.168.168 0 01.225.047z"/></symbol><symbol id="f"><path d="M.04.559a.04.04 0 00-.04.04c0 .011.004.02.012.028A.04.04 0 00.04.638C.051.638.06.634.068.627A.036.036 0 00.08.599a.04.04 0 00-.04-.04M.014 0v.483h.052V0H.014z"/></symbol><symbol id="g"><path d="M.235 0a.232.232 0 00-.171.074.253.253 0 00-.064.18.3.3 0 00.016.099c.011.03.027.057.048.08a.232.232 0 00.171.074.2.2 0 00.171-.082L.37.393a.15.15 0 01-.059.051.165.165 0 01-.073.016A.176.176 0 01.104.4.198.198 0 01.068.335a.27.27 0 010-.163.212.212 0 01.036-.065.172.172 0 01.134-.06c.027 0 .051.005.073.016A.16.16 0 01.37.115L.406.083A.231.231 0 00.337.022.207.207 0 00.235 0z"/></symbol><symbol id="h"><path d="M.242 0a.226.226 0 00-.174.071.246.246 0 00-.05.08.286.286 0 00.048.282.23.23 0 00.167.074.214.214 0 00.169-.076.243.243 0 00.044-.082.314.314 0 00.015-.098V.237H.057A.21.21 0 01.11.101.184.184 0 01.246.045a.218.218 0 01.158.067L.431.078A.246.246 0 00.242 0m.166.278c0 .02-.004.042-.011.063A.174.174 0 01.31.445a.168.168 0 01-.078.017.158.158 0 01-.129-.061.192.192 0 01-.046-.123h.351z"/></symbol><symbol id="i"><path d="M.338 0a.33.33 0 00-.312.205A.371.371 0 000 .346a.33.33 0 00.338.345.314.314 0 00.251-.114L.546.546a.25.25 0 01-.09.067.268.268 0 01-.118.026.275.275 0 01-.257-.174A.326.326 0 01.06.346.295.295 0 01.14.134.278.278 0 01.228.073a.286.286 0 01.306.06v.16H.282v.051h.309V.111A.333.333 0 00.338 0z"/></symbol><symbol id="j"><path d="M0 0v.667h.052V0H0z"/></symbol><symbol id="k"><path d="M.232 0a.225.225 0 00-.169.074.264.264 0 00-.063.18.3.3 0 00.016.099c.011.03.027.057.047.08s.044.041.073.054c.029.013.06.02.096.02a.227.227 0 00.097-.02.203.203 0 00.073-.054.283.283 0 00.063-.179.283.283 0 00-.063-.18A.22.22 0 00.232 0m0 .047A.16.16 0 01.363.11a.251.251 0 010 .287.16.16 0 01-.131.063.161.161 0 01-.131-.063.206.206 0 01-.034-.066.269.269 0 010-.155A.221.221 0 01.101.11.161.161 0 01.232.047z"/></symbol><symbol id="l"><path d="M.052.133a.19.19 0 01.23-.071c.021.01.04.025.054.044.015.019.026.04.033.065a.294.294 0 010 .164A.181.181 0 01.336.4a.157.157 0 01-.174.052.207.207 0 01-.083-.047.15.15 0 01-.027-.033V.133M0 .012v.667h.052V.417a.21.21 0 00.073.066.212.212 0 00.183.006A.221.221 0 00.42.357.321.321 0 00.436.253.324.324 0 00.42.148a.234.234 0 00-.045-.08A.19.19 0 00.22 0a.195.195 0 00-.098.025.217.217 0 00-.07.064V.012H0z"/></symbol><symbol id="m"><path d="M.333.012v.057A.212.212 0 00.107.011a.165.165 0 00-.054.03.165.165 0 00-.039.051A.161.161 0 000 .161C0 .187.005.21.014.23c.01.02.023.037.039.05a.156.156 0 00.054.031c.02.007.04.01.062.01A.21.21 0 00.333.252V.35a.095.095 0 01-.038.082.147.147 0 01-.092.029.194.194 0 01-.082-.017A.202.202 0 01.052.39L.023.426a.258.258 0 00.082.061.25.25 0 00.104.02.254.254 0 00.069-.009A.158.158 0 00.334.47.124.124 0 00.371.421.157.157 0 00.385.352v-.34H.333M.187.041a.21.21 0 01.082.016.167.167 0 01.064.05v.106a.167.167 0 01-.064.05.198.198 0 01-.082.017.134.134 0 01-.096-.034A.113.113 0 01.055.16c0-.034.012-.062.036-.085A.134.134 0 01.187.041z"/></symbol><symbol id="n"><path d="M0 0v.667h.057V0H0z"/></symbol><symbol id="o"><path d="M.204 0L0 .483h.058L.234.061l.174.422h.059L.263 0H.204z"/></symbol><symbol id="p"><path d="M.236 0a.18.18 0 00-.097.029l.016.032a.13.13 0 01.08-.028c.017 0 .032.004.045.012C.293.052.3.063.3.078a.041.041 0 01-.01.029C.283.114.273.117.259.117A.05.05 0 01.219.1L.191.116l.022.06a.23.23 0 00-.089.025.245.245 0 00-.067.055.258.258 0 00-.042.078.298.298 0 00.001.194c.011.03.027.057.048.08a.232.232 0 00.171.074A.2.2 0 00.406.6L.37.568a.15.15 0 01-.059.051.165.165 0 01-.073.016.176.176 0 01-.134-.06A.198.198 0 01.068.51a.27.27 0 010-.163.212.212 0 01.036-.065.172.172 0 01.134-.06c.027 0 .051.005.073.016A.16.16 0 01.37.29L.406.258A.246.246 0 00.342.201.19.19 0 00.25.176L.234.132c.01.008.022.012.037.012A.064.064 0 00.337.078a.065.065 0 00-.03-.056A.114.114 0 00.236 0z"/></symbol><symbol id="q"><path d="M.333.012v.057A.212.212 0 00.107.011a.165.165 0 00-.054.03.165.165 0 00-.039.051A.161.161 0 000 .161C0 .187.005.21.014.23c.01.02.023.037.039.05a.156.156 0 00.054.031c.02.007.04.01.062.01A.21.21 0 00.333.252V.35a.095.095 0 01-.038.082.147.147 0 01-.092.029.194.194 0 01-.082-.017A.202.202 0 01.052.39L.023.426a.258.258 0 00.082.061.25.25 0 00.104.02.254.254 0 00.069-.009A.158.158 0 00.334.47.124.124 0 00.371.421.157.157 0 00.385.352v-.34H.333M.187.041a.21.21 0 01.082.016.167.167 0 01.064.05v.106a.167.167 0 01-.064.05.198.198 0 01-.082.017.134.134 0 01-.096-.034A.113.113 0 01.055.16c0-.034.012-.062.036-.085A.134.134 0 01.187.041M.27.566a.06.06 0 00-.044.016.202.202 0 00-.028.035.305.305 0 01-.023.036.035.035 0 01-.031.016C.129.669.116.661.105.646A.14.14 0 01.09.572H.055c0 .019.002.036.006.052.004.017.01.031.018.043a.09.09 0 00.029.028.072.072 0 00.04.011C.167.706.181.701.191.69A.17.17 0 00.218.655L.241.62A.038.038 0 01.273.604c.015 0 .028.007.038.022A.14.14 0 01.326.7h.036A.226.226 0 00.356.647.133.133 0 00.338.605.086.086 0 00.309.576.075.075 0 00.27.566z"/></symbol><symbol id="r"><path d="M0 0v.047l.155.128c.047.04.086.078.119.113.033.036.059.07.077.103a.2.2 0 01.028.098.123.123 0 01-.014.061.136.136 0 01-.084.067A.23.23 0 01.117.6.202.202 0 01.044.538L.005.574a.236.236 0 00.093.075.293.293 0 00.203.017.204.204 0 00.068-.034.167.167 0 00.049-.058.18.18 0 00.019-.085A.242.242 0 00.41.38.514.514 0 00.335.273 1.15 1.15 0 00.224.165 4.456 4.456 0 00.089.052H.44V0H0z"/></symbol><symbol id="s"><path d="M.247 0a.204.204 0 00-.115.031.249.249 0 00-.076.082.397.397 0 00-.043.111.589.589 0 000 .242c.01.04.024.077.043.11a.24.24 0 00.076.081.2.2 0 00.115.032C.292.689.329.679.36.657A.24.24 0 00.436.576a.348.348 0 00.043-.11.54.54 0 000-.242.36.36 0 00-.043-.111A.249.249 0 00.36.031.198.198 0 00.247 0m0 .052c.035 0 .064.009.087.026a.192.192 0 01.057.069c.015.028.025.06.031.094a.56.56 0 01.001.208.318.318 0 01-.031.094.192.192 0 01-.058.068.142.142 0 01-.087.026.148.148 0 01-.089-.026A.192.192 0 01.1.543.362.362 0 01.069.449a.609.609 0 010-.208A.362.362 0 01.1.147.202.202 0 01.158.078.148.148 0 01.247.052z"/></symbol><symbol id="t"><path d="M.142 0v.589L.035.475 0 .512l.147.155h.052V0H.142z"/></symbol><symbol id="u"><path d="M.214 0a.227.227 0 00-.108.023.235.235 0 00-.071.062l.033.041A.215.215 0 01.125.073.168.168 0 01.214.052c.037 0 .067.009.092.026.025.017.046.04.061.068.016.028.027.06.034.094.007.035.01.07.01.105v.031A.233.233 0 00.38.339.252.252 0 00.279.275.184.184 0 00.215.264a.264.264 0 00-.084.013.201.201 0 00-.069.039.193.193 0 00-.046.067.25.25 0 00-.001.172.2.2 0 00.114.116c.028.012.06.018.095.018a.213.213 0 00.19-.105.35.35 0 00.042-.111.627.627 0 00-.001-.255A.35.35 0 00.41.107.239.239 0 00.331.029.222.222 0 00.214 0m.011.316c.037 0 .071.01.104.031A.239.239 0 01.407.43.343.343 0 01.393.5.217.217 0 01.36.567a.162.162 0 01-.054.05.152.152 0 01-.08.02.175.175 0 01-.075-.015.17.17 0 01-.052-.038.163.163 0 01-.041-.107A.19.19 0 01.07.406a.144.144 0 01.035-.05.154.154 0 01.053-.03.217.217 0 01.067-.01z"/></symbol><use xlink:href="#b" transform="matrix(6 0 0 -6 72 823.13)" fill="#231f20"/><use xlink:href="#c" transform="matrix(6 0 0 -6 73.902 823.13)" fill="#231f20"/><use xlink:href="#d" transform="matrix(6 0 0 -6 75.378 823.13)" fill="#231f20"/><use xlink:href="#e" transform="matrix(6 0 0 -6 78.45 823.202)" fill="#231f20"/><use xlink:href="#f" transform="matrix(6 0 0 -6 81.96 823.13)" fill="#231f20"/><use xlink:href="#g" transform="matrix(6 0 0 -6 83.16 823.202)" fill="#231f20"/><use xlink:href="#h" transform="matrix(6 0 0 -6 86.124 823.202)" fill="#231f20"/><use xlink:href="#b" transform="matrix(6 0 0 -6 89.208 823.13)" fill="#231f20"/><use xlink:href="#i" transform="matrix(6 0 0 -6 91.11 823.208)" fill="#231f20"/><use xlink:href="#j" transform="matrix(6 0 0 -6 95.514 823.13)" fill="#231f20"/><use xlink:href="#k" transform="matrix(6 0 0 -6 96.63 823.202)" fill="#231f20"/><use xlink:href="#l" transform="matrix(6 0 0 -6 100.224 823.202)" fill="#231f20"/><use xlink:href="#m" transform="matrix(6 0 0 -6 103.494 823.202)" fill="#231f20"/><use xlink:href="#j" transform="matrix(6 0 0 -6 106.776 823.13)" fill="#231f20"/><use xlink:href="#b" transform="matrix(6 0 0 -6 107.574 823.13)" fill="#231f20"/><use xlink:href="#e" transform="matrix(6 0 0 -6 109.446 823.202)" fill="#231f20"/><use xlink:href="#h" transform="matrix(6 0 0 -6 112.872 823.202)" fill="#231f20"/><use xlink:href="#b" transform="matrix(6 0 0 -6 115.956 823.13)" fill="#231f20"/><use xlink:href="#n" transform="matrix(6 0 0 -6 118.008 823.13)" fill="#231f20"/><use xlink:href="#d" transform="matrix(6 0 0 -6 119.334 823.13)" fill="#231f20"/><use xlink:href="#k" transform="matrix(6 0 0 -6 122.406 823.202)" fill="#231f20"/><use xlink:href="#o" transform="matrix(6 0 0 -6 125.556 823.13)" fill="#231f20"/><use xlink:href="#m" transform="matrix(6 0 0 -6 128.73 823.202)" fill="#231f20"/><use xlink:href="#p" transform="matrix(6 0 0 -6 131.844 824.252)" fill="#231f20"/><use xlink:href="#q" transform="matrix(6 0 0 -6 134.82 823.202)" fill="#231f20"/><use xlink:href="#k" transform="matrix(6 0 0 -6 137.934 823.202)" fill="#231f20"/><use xlink:href="#b" transform="matrix(6 0 0 -6 141.042 823.13)" fill="#231f20"/><use xlink:href="#r" transform="matrix(6 0 0 -6 142.932 823.13)" fill="#231f20"/><use xlink:href="#s" transform="matrix(6 0 0 -6 146.436 823.202)" fill="#231f20"/><use xlink:href="#t" transform="matrix(6 0 0 -6 149.892 823.13)" fill="#231f20"/><use xlink:href="#u" transform="matrix(6 0 0 -6 151.926 823.196)" fill="#231f20"/></g><symbol id="v"><path d="M.362 0l-.11.163L.141 0H0l.171.248L.01.483h.142l.1-.149.099.149h.142L.331.248.504 0H.362z"/></symbol><use xlink:href="#v" transform="matrix(6 0 0 -6 49.5 823.13)" fill="#231f20"/><use xlink:href="#v" transform="matrix(6 0 0 -6 52.524 823.13)" fill="#231f20"/><use xlink:href="#v" transform="matrix(6 0 0 -6 55.548 823.13)" fill="#231f20"/><use xlink:href="#w" transform="matrix(6 0 0 -6 58.572 823.13)" fill="#231f20"/><path d="M0 841.89h595.275V0H0z" fill="#48709c"/></svg>