<svg xmlns="http://www.w3.org/2000/svg" xmlns:xlink="http://www.w3.org/1999/xlink" width="793.701" height="1122.52" viewBox="0 0 595.276 841.89"><clipPath id="a"><path transform="matrix(1 0 0 -1 0 841.89)" d="M0 0h595.276v841.89H0z"/></clipPath><g clip-path="url(#a)"><symbol id="b"><path d="M.338 0a.33.33 0 00-.24.095.33.33 0 00-.072.109A.371.371 0 000 .345c0 .051.009.098.026.14a.317.317 0 00.179.18.352.352 0 00.273-.007.327.327 0 00.103-.086L.533.541a.228.228 0 01-.084.07.234.234 0 01-.111.027.275.275 0 01-.257-.174A.326.326 0 01.06.345.298.298 0 01.14.134.278.278 0 01.228.073a.286.286 0 01.11-.021.24.24 0 01.195.097l.048-.03A.349.349 0 00.477.032.287.287 0 00.338 0z"/></symbol><symbol id="c"><path d="M.232 0a.225.225 0 00-.169.074.264.264 0 00-.063.18.3.3 0 00.016.099c.011.03.027.057.047.08s.044.041.073.054c.029.013.06.02.096.02a.227.227 0 00.097-.02.203.203 0 00.073-.054.283.283 0 00.063-.179.283.283 0 00-.063-.18A.22.22 0 00.232 0m0 .047A.16.16 0 01.363.11a.251.251 0 010 .287.16.16 0 01-.131.063.161.161 0 01-.131-.063.206.206 0 01-.034-.066.269.269 0 010-.155A.221.221 0 01.101.11.161.161 0 01.232.047z"/></symbol><symbol id="d"><path d="M.326 0v.327a.16.16 0 01-.009.058.087.087 0 01-.061.057.171.171 0 01-.093-.001.254.254 0 01-.044-.018.208.208 0 01-.067-.058V0H0v.483h.052V.41a.266.266 0 00.122.077.176.176 0 00.052.008c.05 0 .087-.013.113-.038C.365.432.378.393.378.338V0H.326z"/></symbol><symbol id="e"><path d="M.186 0a.287.287 0 00-.105.018A.217.217 0 000 .076l.031.039A.199.199 0 01.187.044c.04 0 .072.01.095.028a.087.087 0 01.034.07.061.061 0 01-.023.051.17.17 0 01-.056.029.84.84 0 01-.074.02.468.468 0 00-.073.023.169.169 0 00-.057.04.1.1 0 00-.022.068c0 .019.004.036.011.052.008.017.02.031.034.043A.16.16 0 00.11.496a.224.224 0 00.073.011.234.234 0 00.105-.021.225.225 0 00.068-.05L.327.399a.143.143 0 01-.059.046.192.192 0 01-.085.018.141.141 0 01-.089-.025.077.077 0 01-.032-.063c0-.02.007-.035.022-.046A.216.216 0 01.141.302L.214.283A.358.358 0 00.288.258.157.157 0 00.344.215.109.109 0 00.367.142.13.13 0 00.355.087.125.125 0 00.321.041a.16.16 0 00-.056-.03A.257.257 0 00.186 0z"/></symbol><symbol id="f"><path d="M.242 0a.226.226 0 00-.174.071.246.246 0 00-.05.08.286.286 0 00.048.282.23.23 0 00.167.074.214.214 0 00.169-.076.243.243 0 00.044-.082.314.314 0 00.015-.098V.237H.057A.21.21 0 01.11.101.184.184 0 01.246.045a.218.218 0 01.158.067L.431.078A.246.246 0 00.242 0m.166.278c0 .02-.004.042-.011.063A.174.174 0 01.31.445a.168.168 0 01-.078.017.158.158 0 01-.129-.061.192.192 0 01-.046-.123h.351z"/></symbol><symbol id="g"><path d="M0 0v.667h.052V0H0z"/></symbol><symbol id="h"><path d="M.326 0v.329a.16.16 0 01-.009.058.078.078 0 01-.024.036.079.079 0 01-.037.019.171.171 0 01-.093-.001.254.254 0 01-.044-.018.208.208 0 01-.067-.058V0H0v.667h.052V.41a.266.266 0 00.122.077.176.176 0 00.052.008c.05 0 .087-.012.113-.037C.365.434.378.395.378.34V0H.326z"/></symbol><symbol id="j"><path d="M.326.012v.071A.286.286 0 00.25.025.198.198 0 00.152 0C.102 0 .064.012.038.036.013.061 0 .1 0 .155v.34h.052V.167C.052.144.055.124.06.108A.099.099 0 01.084.071.103.103 0 01.121.052a.217.217 0 01.094.001.225.225 0 01.111.074v.368h.052V.012H.326z"/></symbol><symbol id="k"><path d="M.175 0C.143 0 .119.009.103.027A.12.12 0 00.08.105v.344H0v.046h.08v.132h.053V.495h.098V.449H.133V.113c0-.02.004-.035.012-.048C.153.053.165.047.183.047c.011 0 .022.002.031.007A.07.07 0 01.237.07l.02-.04A.102.102 0 00.224.008.128.128 0 00.175 0z"/></symbol><symbol id="l"><path d="M.04.559a.04.04 0 00-.04.04c0 .011.004.02.012.028A.04.04 0 00.04.638C.051.638.06.634.068.627A.036.036 0 00.08.599a.04.04 0 00-.04-.04M.014 0v.483h.052V0H.014z"/></symbol><symbol id="m"><path d="M.204 0L0 .483h.058L.234.061l.174.422h.059L.263 0H.204z"/></symbol><use xlink:href="#b" transform="matrix(6 0 0 -6 470.107 823.202)" fill="#231f20"/><use xlink:href="#c" transform="matrix(6 0 0 -6 474.109 823.202)" fill="#231f20"/><use xlink:href="#d" transform="matrix(6 0 0 -6 477.703 823.13)" fill="#231f20"/><use xlink:href="#e" transform="matrix(6 0 0 -6 480.69 823.202)" fill="#231f20"/><use xlink:href="#f" transform="matrix(6 0 0 -6 483.529 823.202)" fill="#231f20"/><use xlink:href="#g" transform="matrix(6 0 0 -6 487.099 823.13)" fill="#231f20"/><use xlink:href="#h" transform="matrix(6 0 0 -6 488.383 823.13)" fill="#231f20"/><use xlink:href="#c" transform="matrix(6 0 0 -6 491.455 823.202)" fill="#231f20"/><use xlink:href="#i" transform="matrix(6 0 0 -6 494.563 823.13)" fill="#231f20"/><use xlink:href="#b" transform="matrix(6 0 0 -6 496.465 823.202)" fill="#231f20"/><use xlink:href="#c" transform="matrix(6 0 0 -6 500.467 823.202)" fill="#231f20"/><use xlink:href="#d" transform="matrix(6 0 0 -6 504.06 823.13)" fill="#231f20"/><use xlink:href="#e" transform="matrix(6 0 0 -6 507.049 823.202)" fill="#231f20"/><use xlink:href="#j" transform="matrix(6 0 0 -6 510.055 823.202)" fill="#231f20"/><use xlink:href="#g" transform="matrix(6 0 0 -6 513.295 823.13)" fill="#231f20"/><use xlink:href="#k" transform="matrix(6 0 0 -6 514.159 823.202)" fill="#231f20"/><use xlink:href="#l" transform="matrix(6 0 0 -6 516.145 823.13)" fill="#231f20"/><use xlink:href="#m" transform="matrix(6 0 0 -6 517.069 823.13)" fill="#231f20"/><use xlink:href="#c" transform="matrix(6 0 0 -6 520.23 823.202)" fill="#231f20"/></g><symbol id="n"><path d="M.362 0l-.11.163L.141 0H0l.171.248L.01.483h.142l.1-.149.099.149h.142L.331.248.504 0H.362z"/></symbol><symbol id="o"><path d="M.076.535a.076.076 0 100 .151C.097.686.116.679.13.664A.07.07 0 00.152.611.073.073 0 00.13.557.073.073 0 00.076.535M.013 0v.483H.14V0H.013z"/></symbol><use xlink:href="#n" transform="matrix(6 0 0 -6 535.186 823.13)" fill="#231f20"/><use xlink:href="#n" transform="matrix(6 0 0 -6 538.21 823.13)" fill="#231f20"/><use xlink:href="#n" transform="matrix(6 0 0 -6 541.234 823.13)" fill="#231f20"/><use xlink:href="#o" transform="matrix(6 0 0 -6 544.558 823.13)" fill="#231f20"/><path d="M0 841.89h595.275V0H0z" fill="#48709c"/><symbol id="p"><path d="M.367 0h.23L.476.236c.053.026.12.087.12.202 0 .125-.084.229-.24.229H0V0h.202v.214h.073L.367 0m.024.441C.391.404.359.382.325.382H.202v.117h.123C.359.499.391.477.391.441z"/></symbol><symbol id="q"><path d="M.527 0h.219L.5.667H.246L0 0h.219l.026.086h.256L.527 0M.373.489L.449.254H.297l.076.235z"/></symbol><symbol id="r"><path d="M.448 0h.194v.667H.44V.331L.208.667H0V0h.202v.358L.448 0z"/></symbol><symbol id="s"><path d="M.389 0h.246L.372.357l.252.31H.377L.202.417v.25H0V0h.202v.185l.037.05L.389 0z"/></symbol><symbol id="t"><path d="M0 0h.202v.667H0V0z"/></symbol><symbol id="u"><path d="M0 .345C0 .132.165 0 .367 0c.131 0 .231.053.305.135v.268H.347V.237h.129V.208a.19.19 0 00-.109-.03C.27.178.205.252.205.345c0 .093.065.167.162.167A.138.138 0 00.49.439l.17.087A.314.314 0 01.367.69C.165.69 0 .559 0 .345z"/></symbol><symbol id="v"><path d="M0 .106A.44.44 0 01.31 0c.179 0 .288.085.288.232 0 .154-.163.186-.273.205C.254.449.227.458.227.484c0 .017.011.035.061.035A.332.332 0 00.474.453l.108.143a.44.44 0 01-.283.093C.116.689.022.586.022.473.022.306.19.28.3.26.366.248.394.235.394.209.394.183.358.17.32.17a.31.31 0 00-.215.086L0 .106z"/></symbol><use xlink:href="#p" transform="matrix(50.4538 0 0 -50.4538 175.708 440.425)" fill="#fff"/><use xlink:href="#q" transform="matrix(50.4538 0 0 -50.4538 206.283 440.425)" fill="#fff"/><use xlink:href="#r" transform="matrix(50.4538 0 0 -50.4538 245.737 440.425)" fill="#fff"/><use xlink:href="#s" transform="matrix(50.4538 0 0 -50.4538 283.578 440.425)" fill="#fff"/><use xlink:href="#t" transform="matrix(50.4538 0 0 -50.4538 317.432 440.425)" fill="#fff"/><use xlink:href="#r" transform="matrix(50.4538 0 0 -50.4538 333.073 440.425)" fill="#fff"/><use xlink:href="#u" transform="matrix(50.4538 0 0 -50.4538 369.097 441.03)" fill="#fff"/><use xlink:href="#v" transform="matrix(50.4538 0 0 -50.4538 404.97 441.03)" fill="#fff"/></svg>