<svg xmlns="http://www.w3.org/2000/svg" xmlns:xlink="http://www.w3.org/1999/xlink" width="793.701" height="1122.52" viewBox="0 0 595.276 841.89"><clipPath id="a"><path transform="matrix(1 0 0 -1 0 841.89)" d="M0 0h595.276v841.89H0z"/></clipPath><g clip-path="url(#a)"><symbol id="b"><path d="M.338 0a.33.33 0 00-.24.095.33.33 0 00-.072.109A.371.371 0 000 .345c0 .051.009.098.026.14a.317.317 0 00.179.18.352.352 0 00.273-.007.327.327 0 00.103-.086L.533.541a.228.228 0 01-.084.07.234.234 0 01-.111.027.275.275 0 01-.257-.174A.326.326 0 01.06.345.298.298 0 01.14.134.278.278 0 01.228.073a.286.286 0 01.11-.021.24.24 0 01.195.097l.048-.03A.349.349 0 00.477.032.287.287 0 00.338 0z"/></symbol><symbol id="c"><path d="M.333.012v.057A.212.212 0 00.107.011a.165.165 0 00-.054.03.165.165 0 00-.039.051A.161.161 0 000 .161C0 .187.005.21.014.23c.01.02.023.037.039.05a.156.156 0 00.054.031c.02.007.04.01.062.01A.21.21 0 00.333.252V.35a.095.095 0 01-.038.082.147.147 0 01-.092.029.194.194 0 01-.082-.017A.202.202 0 01.052.39L.023.426a.258.258 0 00.082.061.25.25 0 00.104.02.254.254 0 00.069-.009A.158.158 0 00.334.47.124.124 0 00.371.421.157.157 0 00.385.352v-.34H.333M.187.041a.21.21 0 01.082.016.167.167 0 01.064.05v.106a.167.167 0 01-.064.05.198.198 0 01-.082.017.134.134 0 01-.096-.034A.113.113 0 01.055.16c0-.034.012-.062.036-.085A.134.134 0 01.187.041z"/></symbol><symbol id="d"><path d="M.22.172a.195.195 0 00-.095.024.21.21 0 00-.073.066V0H0v.667h.052V.591a.211.211 0 00.256.07.18.18 0 00.068-.05.221.221 0 00.044-.08.324.324 0 00.016-.105A.324.324 0 00.42.321a.221.221 0 00-.044-.08A.19.19 0 00.308.19.212.212 0 00.22.172M.211.219a.162.162 0 01.158.125.294.294 0 010 .163.192.192 0 01-.033.066.147.147 0 01-.054.043.153.153 0 01-.071.016.184.184 0 01-.095-.026.175.175 0 01-.064-.06V.307A.15.15 0 01.079.274.25.25 0 01.162.226.174.174 0 01.211.219z"/></symbol><symbol id="e"><path d="M.044.556H0L.154.7h.062L.044.556M.028 0v.483H.08V0H.028z"/></symbol><symbol id="f"><path d="M.175 0C.143 0 .119.009.103.027A.12.12 0 00.08.105v.344H0v.046h.08v.132h.053V.495h.098V.449H.133V.113c0-.02.004-.035.012-.048C.153.053.165.047.183.047c.011 0 .022.002.031.007A.07.07 0 01.237.07l.02-.04A.102.102 0 00.224.008.128.128 0 00.175 0z"/></symbol><symbol id="g"><path d="M.326.012v.071A.286.286 0 00.25.025.198.198 0 00.152 0C.102 0 .064.012.038.036.013.061 0 .1 0 .155v.34h.052V.167C.052.144.055.124.06.108A.099.099 0 01.084.071.103.103 0 01.121.052a.217.217 0 01.094.001.225.225 0 01.111.074v.368h.052V.012H.326z"/></symbol><symbol id="h"><path d="M0 0v.667h.052V0H0z"/></symbol><symbol id="i"><path d="M.232 0a.225.225 0 00-.169.074.264.264 0 00-.063.18.3.3 0 00.016.099c.011.03.027.057.047.08s.044.041.073.054c.029.013.06.02.096.02a.227.227 0 00.097-.02.203.203 0 00.073-.054.283.283 0 00.063-.179.283.283 0 00-.063-.18A.22.22 0 00.232 0m0 .047A.16.16 0 01.363.11a.251.251 0 010 .287.16.16 0 01-.131.063.161.161 0 01-.131-.063.206.206 0 01-.034-.066.269.269 0 010-.155A.221.221 0 01.101.11.161.161 0 01.232.047z"/></symbol><symbol id="k"><path d="M0 0v.047l.155.128c.047.04.086.078.119.113.033.036.059.07.077.103a.2.2 0 01.028.098.123.123 0 01-.014.061.136.136 0 01-.084.067A.23.23 0 01.117.6.202.202 0 01.044.538L.005.574a.236.236 0 00.093.075.293.293 0 00.203.017.204.204 0 00.068-.034.167.167 0 00.049-.058.18.18 0 00.019-.085A.242.242 0 00.41.38.514.514 0 00.335.273 1.15 1.15 0 00.224.165 4.456 4.456 0 00.089.052H.44V0H0z"/></symbol><use xlink:href="#b" transform="matrix(6 0 0 -6 497.197 823.202)" fill="#231f20"/><use xlink:href="#c" transform="matrix(6 0 0 -6 501.21 823.202)" fill="#231f20"/><use xlink:href="#d" transform="matrix(6 0 0 -6 504.493 824.234)" fill="#231f20"/><use xlink:href="#e" transform="matrix(6 0 0 -6 507.727 823.13)" fill="#231f20"/><use xlink:href="#f" transform="matrix(6 0 0 -6 508.759 823.202)" fill="#231f20"/><use xlink:href="#g" transform="matrix(6 0 0 -6 510.829 823.202)" fill="#231f20"/><use xlink:href="#h" transform="matrix(6 0 0 -6 514.069 823.13)" fill="#231f20"/><use xlink:href="#i" transform="matrix(6 0 0 -6 515.184 823.202)" fill="#231f20"/><use xlink:href="#j" transform="matrix(6 0 0 -6 518.293 823.13)" fill="#231f20"/><use xlink:href="#k" transform="matrix(6 0 0 -6 520.183 823.13)" fill="#231f20"/></g><symbol id="l"><path d="M.268 0a.415.415 0 00-.101.012.29.29 0 00-.086.034.186.186 0 00-.059.057A.15.15 0 000 .185.162.162 0 00.041.29a.275.275 0 00.102.066.31.31 0 00-.052.024.188.188 0 00-.042.033.138.138 0 00-.038.1.14.14 0 00.022.08.176.176 0 00.06.055.294.294 0 00.082.031.437.437 0 00.185 0A.28.28 0 00.442.648a.176.176 0 00.06-.055.136.136 0 00.023-.08c0-.02-.004-.04-.011-.056A.138.138 0 00.486.413.188.188 0 00.444.38.31.31 0 00.392.356.275.275 0 00.493.29.152.152 0 00.524.242a.15.15 0 00-.01-.139.183.183 0 00-.06-.057A.41.41 0 00.268 0m0 .412c.01.001.021.004.034.007.013.004.026.01.037.016a.103.103 0 01.029.023.05.05 0 01.012.033C.38.515.37.534.348.547a.145.145 0 01-.08.02.152.152 0 01-.082-.02.063.063 0 01-.031-.056.05.05 0 01.012-.033.126.126 0 01.029-.023.168.168 0 01.072-.023m0-.29a.19.19 0 01.048.006.14.14 0 01.039.016C.366.151.375.16.382.17c.007.01.01.021.01.033a.05.05 0 01-.014.036.11.11 0 01-.033.027.171.171 0 01-.041.017.201.201 0 01-.036.009.196.196 0 01-.037-.009A.198.198 0 01.19.266.13.13 0 01.157.239.053.053 0 01.144.203c0-.025.012-.044.035-.059A.168.168 0 01.268.122z"/></symbol><symbol id="m"><path d="M.263 0a.378.378 0 00-.16.031A.29.29 0 000 .107l.074.095A.265.265 0 01.258.126c.04 0 .072.008.093.023a.074.074 0 01.033.062c0 .027-.01.046-.032.058A.208.208 0 01.25.288H.226L.202.287.18.286H.167v.128L.181.413H.25c.037 0 .067.006.089.017.023.011.034.03.034.054a.063.063 0 01-.036.059.175.175 0 01-.088.02A.236.236 0 01.08.494L.009.583a.323.323 0 00.255.106.394.394 0 00.105-.013A.221.221 0 00.448.64a.151.151 0 00.05-.057A.154.154 0 00.503.45.154.154 0 00.47.405a.189.189 0 00-.1-.049.216.216 0 00.053-.014.161.161 0 00.05-.031.164.164 0 00.038-.049.167.167 0 00-.004-.145.174.174 0 00-.053-.062.261.261 0 00-.083-.041A.386.386 0 00.263 0z"/></symbol><use xlink:href="#l" transform="matrix(6 0 0 -6 538.828 823.202)" fill="#231f20"/><use xlink:href="#m" transform="matrix(6 0 0 -6 542.374 823.202)" fill="#231f20"/><clipPath id="n"><path transform="matrix(1 0 0 -1 0 841.89)" d="M0 0h595.276v841.89H0z"/></clipPath><g clip-path="url(#n)"><filter id="o"><feBlend mode="multiply" in2="BackgroundImage" in="SourceGraphic"/></filter><g filter="url(#o)"><clipPath id="p"><path transform="matrix(1 0 0 -1 0 841.89)" d="M-8-10h613.276v864.293H-8z"/></clipPath><g clip-path="url(#p)"><path d="M0 850.89h604.276V-9.001H0z" fill="#e6e7e8"/></g></g><clipPath id="q"><path transform="matrix(1 0 0 -1 0 841.89)" d="M15.844 0h579.431v841.89H15.844z"/></clipPath><path stroke-linecap="round" stroke-dasharray="0,2.5" stroke-linejoin="round" fill="none" stroke="#231f20" d="M65.161 51.039h481.971"/><symbol id="r"><path d="M0 0v.667h.423V.615H.057V.368h.359V.316H.057V0H0z"/></symbol><symbol id="s"><path d="M0 0v.667h.057V0H0z"/></symbol><symbol id="t"><path d="M.338 0a.33.33 0 00-.312.205A.371.371 0 000 .346a.33.33 0 00.338.345.314.314 0 00.251-.114L.546.546a.25.25 0 01-.09.067.268.268 0 01-.118.026.275.275 0 01-.257-.174A.326.326 0 01.06.346.295.295 0 01.14.134.278.278 0 01.228.073a.286.286 0 01.306.06v.16H.282v.051h.309V.111A.333.333 0 00.338 0z"/></symbol><symbol id="u"><path d="M.26 0a.311.311 0 00-.113.019.228.228 0 00-.081.053.231.231 0 00-.05.084A.366.366 0 000 .268v.411h.058v-.41c0-.068.017-.121.051-.16C.144.071.194.052.26.052c.067 0 .117.019.151.057a.234.234 0 01.051.16v.41H.52V.268A.279.279 0 00.454.072C.411.024.346 0 .26 0z"/></symbol><symbol id="v"><path d="M.391 0L.204.276H.057V0H0v.667h.249A.224.224 0 00.393.615.166.166 0 00.436.554.2.2 0 00.452.472.209.209 0 00.437.391.187.187 0 00.267.28L.46 0H.391M.244.328a.138.138 0 01.137.086.147.147 0 01.011.058.145.145 0 01-.042.103.158.158 0 01-.106.04H.057V.328h.187z"/></symbol><symbol id="w"><path d="M.551 0L.485.164H.132L.066 0H0l.273.667h.071L.617 0H.551M.308.606L.151.216h.315l-.158.39z"/></symbol><symbol id="y"><path d="M0 0v.047l.155.128c.047.04.086.078.119.113.033.036.059.07.077.103a.2.2 0 01.028.098.123.123 0 01-.014.061.136.136 0 01-.084.067A.23.23 0 01.117.6.202.202 0 01.044.538L.005.574a.236.236 0 00.093.075.293.293 0 00.203.017.204.204 0 00.068-.034.167.167 0 00.049-.058.18.18 0 00.019-.085A.242.242 0 00.41.38.514.514 0 00.335.273 1.15 1.15 0 00.224.165 4.456 4.456 0 00.089.052H.44V0H0z"/></symbol><symbol id="z"><path d="M.044 0a.042.042 0 00-.031.013A.046.046 0 000 .045c0 .011.004.021.013.03a.042.042 0 00.031.013.042.042 0 00.031-.013.04.04 0 00.014-.03.044.044 0 00-.014-.032A.042.042 0 00.044 0z"/></symbol><symbol id="A"><path d="M.142 0v.589L.035.475 0 .512l.147.155h.052V0H.142z"/></symbol><use xlink:href="#r" transform="matrix(9.9999 0 0 -9.9999 64.914 65.665)" fill="#231f20"/><use xlink:href="#s" transform="matrix(9.9999 0 0 -9.9999 71.334 65.665)" fill="#231f20"/><use xlink:href="#t" transform="matrix(9.9999 0 0 -9.9999 74.314 65.795)" fill="#231f20"/><use xlink:href="#u" transform="matrix(9.9999 0 0 -9.9999 82.674 65.785)" fill="#231f20"/><use xlink:href="#v" transform="matrix(9.9999 0 0 -9.9999 90.534 65.665)" fill="#231f20"/><use xlink:href="#w" transform="matrix(9.9999 0 0 -9.9999 96.794 65.665)" fill="#231f20"/><use xlink:href="#x" transform="matrix(9.9999 0 0 -9.9999 104.114 65.665)" fill="#231f20"/><use xlink:href="#y" transform="matrix(9.9999 0 0 -9.9999 108.264 65.665)" fill="#231f20"/><use xlink:href="#z" transform="matrix(9.9999 0 0 -9.9999 114.174 65.765)" fill="#231f20"/><use xlink:href="#A" transform="matrix(9.9999 0 0 -9.9999 115.974 65.665)" fill="#231f20"/><symbol id="B"><path d="M0 0v.667h.312A.254.254 0 00.408.65a.193.193 0 00.07-.047.182.182 0 00.043-.068.23.23 0 00-.044-.234.212.212 0 00-.07-.047.247.247 0 00-.095-.017h-.17V0H0m.293.362c.028 0 .051.008.07.024a.082.082 0 01.028.066c0 .028-.01.05-.028.066a.104.104 0 01-.07.024H.142v-.18h.151z"/></symbol><symbol id="C"><path d="M.321.012v.05A.174.174 0 00.256.016.235.235 0 00.168 0a.186.186 0 00-.113.039.166.166 0 00-.04.05A.157.157 0 000 .16a.16.16 0 00.015.072.147.147 0 00.094.075.249.249 0 00.147-.006.148.148 0 00.065-.044v.065a.07.07 0 01-.029.059.124.124 0 01-.077.022.2.2 0 01-.141-.057L.026.431a.29.29 0 00.099.057.34.34 0 00.191.01.177.177 0 00.067-.031A.143.143 0 00.43.411.189.189 0 00.448.324V.012H.321M.219.086c.02 0 .04.003.058.01a.1.1 0 01.044.032v.06a.093.093 0 01-.044.031.152.152 0 01-.058.011.11.11 0 01-.065-.019.063.063 0 01-.026-.054c0-.023.009-.04.026-.053A.114.114 0 01.219.086z"/></symbol><symbol id="D"><path d="M0 0v.483h.127V.417a.23.23 0 00.067.055.179.179 0 00.087.023V.371a.17.17 0 01-.133-.03.093.093 0 01-.021-.022V0H0z"/></symbol><symbol id="E"><path d="M.217 0C.172 0 .138.011.115.033.092.056.08.089.08.132v.252H0v.111h.08v.132h.128V.495h.098V.384H.208V.166c0-.015.004-.028.011-.038A.04.04 0 01.252.113c.01 0 .018.001.026.004a.054.054 0 01.018.01L.323.031a.112.112 0 00-.04-.022A.205.205 0 00.217 0z"/></symbol><symbol id="F"><path d="M.076.535a.076.076 0 100 .151C.097.686.116.679.13.664A.07.07 0 00.152.611.073.073 0 00.13.557.073.073 0 00.076.535M.013 0v.483H.14V0H.013z"/></symbol><symbol id="G"><path d="M.256 0a.286.286 0 00-.103.018.24.24 0 00-.134.133A.272.272 0 000 .254a.262.262 0 00.072.182c.023.023.05.04.081.052a.272.272 0 00.103.019A.224.224 0 00.447.42L.364.342a.115.115 0 01-.102.052.125.125 0 01-.095-.039.14.14 0 01-.036-.101c0-.042.012-.076.036-.102A.125.125 0 01.262.113a.122.122 0 01.102.052L.447.088A.217.217 0 00.376.027.235.235 0 00.256 0z"/></symbol><symbol id="H"><path d="M.276.172a.183.183 0 00-.149.074V0H0v.667h.127V.606a.183.183 0 00.149.073.21.21 0 00.085-.017.185.185 0 00.068-.049.222.222 0 00.045-.08A.331.331 0 00.49.426.34.34 0 00.474.318a.234.234 0 00-.045-.08.185.185 0 00-.068-.049.21.21 0 00-.085-.017m-.04.113a.11.11 0 01.088.039.15.15 0 01.034.102.146.146 0 01-.034.101.11.11 0 01-.088.039A.134.134 0 01.174.55.126.126 0 01.127.511V.34A.126.126 0 01.174.301.134.134 0 01.236.285z"/></symbol><symbol id="I"><path d="M.259 0a.199.199 0 00-.11.032l.025.051A.131.131 0 01.255.054a.08.08 0 01.036.008c.01.005.016.014.016.025 0 .017-.01.026-.029.026A.044.044 0 01.246.099L.2.125l.021.059a.265.265 0 00-.09.025.24.24 0 00-.115.131.279.279 0 00.003.197.229.229 0 00.134.133.272.272 0 00.103.019.224.224 0 00.191-.087L.364.524a.115.115 0 01-.102.052.125.125 0 01-.095-.039.14.14 0 01-.036-.101C.131.394.143.36.167.334A.125.125 0 01.262.295a.122.122 0 01.102.052L.447.27A.225.225 0 00.385.213a.22.22 0 00-.102-.03L.267.145a.07.07 0 00.036.01.067.067 0 00.067-.07.07.07 0 00-.033-.062A.133.133 0 00.259 0z"/></symbol><symbol id="J"><path d="M.321.012v.05A.174.174 0 00.256.016.235.235 0 00.168 0a.186.186 0 00-.113.039.166.166 0 00-.04.05A.157.157 0 000 .16a.16.16 0 00.015.072.147.147 0 00.094.075.249.249 0 00.147-.006.148.148 0 00.065-.044v.065a.07.07 0 01-.029.059.124.124 0 01-.077.022.2.2 0 01-.141-.057L.026.431a.29.29 0 00.099.057.34.34 0 00.191.01.177.177 0 00.067-.031A.143.143 0 00.43.411.189.189 0 00.448.324V.012H.321M.219.086c.02 0 .04.003.058.01a.1.1 0 01.044.032v.06a.093.093 0 01-.044.031.152.152 0 01-.058.011.11.11 0 01-.065-.019.063.063 0 01-.026-.054c0-.023.009-.04.026-.053A.114.114 0 01.219.086m.075.48a.078.078 0 00-.042.01A.165.165 0 00.224.6a.374.374 0 01-.023.023.031.031 0 01-.024.011C.167.634.158.629.151.619a.086.086 0 01-.01-.047H.074c0 .043.009.076.027.099.019.023.046.035.081.035.017 0 .03-.004.04-.011A.136.136 0 00.25.672L.273.649a.036.036 0 01.025-.01c.01 0 .018.005.025.014C.33.663.334.679.334.7h.067A.159.159 0 00.374.601C.356.578.329.566.294.566z"/></symbol><symbol id="K"><path d="M.255 0a.271.271 0 00-.107.02.255.255 0 00-.08.055A.25.25 0 000 .254C0 .288.006.32.017.351a.238.238 0 00.131.135.26.26 0 00.107.021.26.26 0 00.188-.076.264.264 0 00.05-.275A.236.236 0 00.362.02.271.271 0 00.255 0m0 .113c.02 0 .038.004.053.011A.128.128 0 01.37.199a.167.167 0 01-.024.153.106.106 0 01-.038.03.113.113 0 01-.053.012A.118.118 0 01.14.307a.186.186 0 010-.108.128.128 0 01.062-.075.121.121 0 01.053-.011z"/></symbol><symbol id="M"><path d="M.363.012v.062A.202.202 0 00.296.019.18.18 0 00.214 0a.197.197 0 00-.153.066.245.245 0 00-.045.079A.34.34 0 000 .253c0 .04.005.075.016.106.01.031.025.058.044.08a.207.207 0 00.154.068.179.179 0 00.081-.019.184.184 0 00.068-.055v.246h.128V.012H.363m-.11.101c.021 0 .042.005.063.015.02.01.036.024.047.04v.171a.115.115 0 01-.047.039.136.136 0 01-.063.016.111.111 0 01-.088-.039.15.15 0 01-.034-.102c0-.02.003-.04.009-.057A.14.14 0 01.165.151.113.113 0 01.253.113z"/></symbol><symbol id="N"><path d="M.531 0L.49.113H.204L.162 0H0l.258.667h.178L.693 0H.531M.347.525L.243.238h.208L.347.525z"/></symbol><symbol id="O"><path d="M.599 0v.305A.085.085 0 01.582.36C.572.375.553.382.527.382a.103.103 0 01-.06-.018.157.157 0 01-.04-.038V0H.299v.305A.085.085 0 01.282.36C.272.375.253.382.227.382a.102.102 0 01-.06-.019.157.157 0 01-.04-.038V0H0v.483h.127V.42a.116.116 0 00.022.024c.01.009.023.017.037.024a.202.202 0 00.099.027.15.15 0 00.087-.023.124.124 0 00.047-.065.2.2 0 00.112.08.183.183 0 00.054.008C.63.495.665.483.689.459.714.436.727.399.727.349V0H.599z"/></symbol><symbol id="P"><path d="M.276.568H.187l.134.144h.117L.276.568M.258 0a.291.291 0 00-.103.018.247.247 0 00-.082.051A.242.242 0 000 .254a.249.249 0 00.149.233.25.25 0 00.199 0A.218.218 0 00.425.433.239.239 0 00.474.349.311.311 0 00.492.241V.213H.133A.129.129 0 01.174.134.14.14 0 01.272.101a.202.202 0 01.129.048L.457.067a.236.236 0 00-.089-.05A.358.358 0 00.258 0m.111.299a.126.126 0 01-.008.036.1.1 0 01-.021.034.102.102 0 01-.037.026.117.117 0 01-.053.011A.107.107 0 01.163.37.133.133 0 01.131.299h.238z"/></symbol><symbol id="Q"><path d="M.282 0C.217 0 .162.01.116.029A.35.35 0 000 .106l.077.108a.28.28 0 01.212-.09c.04 0 .068.007.087.022.02.015.029.033.029.052 0 .02-.01.034-.029.044a.288.288 0 01-.071.027 4.627 4.627 0 01-.092.023.417.417 0 00-.093.034.217.217 0 00-.071.059.166.166 0 00-.028.101.18.18 0 00.017.078.205.205 0 00.05.065.243.243 0 00.08.044c.031.01.067.016.106.016a.369.369 0 00.26-.093L.455.492a.25.25 0 01-.092.055.305.305 0 01-.102.018A.115.115 0 01.19.546.057.057 0 01.166.498c0-.017.01-.031.028-.041A.395.395 0 01.265.432L.357.409A.37.37 0 00.449.374.2.2 0 00.52.314a.16.16 0 00.029-.1.21.21 0 00-.017-.085.181.181 0 00-.049-.068.251.251 0 00-.084-.045A.385.385 0 00.282 0z"/></symbol><symbol id="R"><path d="M.326.012v.061A.218.218 0 00.156 0C.103 0 .063.013.038.04A.158.158 0 000 .152v.343h.127V.202c0-.033.008-.057.024-.07A.102.102 0 01.216.113c.025 0 .046.006.065.017a.172.172 0 01.045.038v.327h.127V.012H.326z"/></symbol><symbol id="S"><path d="M0 0v.667h.127V0H0z"/></symbol><symbol id="T"><path d="M.258 0a.291.291 0 00-.103.018.247.247 0 00-.082.051A.242.242 0 000 .254a.249.249 0 00.149.233.25.25 0 00.199 0A.218.218 0 00.425.433.239.239 0 00.474.349.311.311 0 00.492.241V.213H.133A.129.129 0 01.174.134.14.14 0 01.272.101a.202.202 0 01.129.048L.457.067a.236.236 0 00-.089-.05A.358.358 0 00.258 0m.111.299a.126.126 0 01-.008.036.1.1 0 01-.021.034.102.102 0 01-.037.026.117.117 0 01-.053.011A.107.107 0 01.163.37.133.133 0 01.131.299h.238z"/></symbol><symbol id="U"><path d="M0 0v.667h.351c.032 0 .06-.005.084-.014a.171.171 0 00.06-.038.148.148 0 00.036-.054.176.176 0 00-.022-.168.14.14 0 00-.081-.049.147.147 0 00.09-.055A.174.174 0 00.556.18.192.192 0 00.543.109.159.159 0 00.446.014.231.231 0 00.362 0H0m.32.4a.08.08 0 01.057.02c.014.013.021.03.021.052a.069.069 0 01-.021.052.077.077 0 01-.057.021H.142V.4H.32M.325.123c.027 0 .048.007.063.02A.073.073 0 01.411.2c0 .021-.007.04-.022.055S.353.278.325.278H.142V.123h.183z"/></symbol><symbol id="V"><path d="M.216 0a.369.369 0 00-.121.02A.27.27 0 000 .075l.055.089A.222.222 0 01.087.14.417.417 0 01.129.118a.23.23 0 01.093-.02C.25.098.27.103.283.112c.013.01.02.023.02.038 0 .013-.007.023-.022.03a.218.218 0 01-.053.016L.159.211A.291.291 0 00.09.235a.16.16 0 00-.053.044.124.124 0 00-.021.076.141.141 0 00.051.106.196.196 0 00.062.033.297.297 0 00.195-.006.298.298 0 00.085-.047L.358.354a.177.177 0 01-.06.039.2.2 0 01-.083.017.1.1 0 01-.056-.014C.146.386.139.376.139.362.139.35.146.341.16.335A.3.3 0 01.213.319L.282.304A.266.266 0 00.351.279.153.153 0 00.404.233.13.13 0 00.425.155.14.14 0 00.411.093.143.143 0 00.37.044.204.204 0 00.305.012.303.303 0 00.216 0z"/></symbol><symbol id="W"><path d="M.326 0v.292c0 .034-.008.057-.024.07a.098.098 0 01-.065.02.12.12 0 01-.066-.018.149.149 0 01-.044-.039V0H0v.483h.127V.42a.216.216 0 00.066.051.208.208 0 00.103.024C.349.495.389.481.414.453A.156.156 0 00.453.341V0H.326z"/></symbol><symbol id="X"><path d="M.089.556H0L.134.7h.117L.089.556M0 0v.483h.127V0H0z"/></symbol><symbol id="Y"><path d="M.158 0a.579.579 0 00-.116.201A.8.8 0 000 .442a.68.68 0 00.042.24.707.707 0 00.116.202l.08-.06A.7.7 0 01.137.442.855.855 0 01.162.241.722.722 0 01.238.062L.158 0z"/></symbol><symbol id="Z"><path d="M.08 0v.372H0v.111h.08v.026c0 .052.015.093.045.123s.07.045.118.045a.243.243 0 00.069-.01.123.123 0 00.057-.035L.321.557a.072.072 0 01-.053.02A.058.058 0 01.225.56C.214.549.208.532.208.509V.483h.098V.372H.208V0H.08z"/></symbol><symbol id="aa"><path d="M.276 0a.25.25 0 00-.124.029.264.264 0 00-.086.079.376.376 0 00-.05.11.506.506 0 000 .253.36.36 0 00.05.11.244.244 0 00.21.108.242.242 0 00.209-.108.332.332 0 00.05-.11.474.474 0 000-.253.344.344 0 00-.05-.11.264.264 0 00-.086-.079A.249.249 0 00.276 0m0 .126C.3.126.32.132.336.143a.13.13 0 01.041.046c.01.02.018.043.023.07a.5.5 0 010 .172A.221.221 0 01.377.5a.13.13 0 01-.041.046.101.101 0 01-.06.017.106.106 0 01-.061-.017A.13.13 0 01.174.5.221.221 0 01.151.431a.5.5 0 010-.172.234.234 0 01.023-.07.13.13 0 01.041-.046.106.106 0 01.061-.017z"/></symbol><symbol id="ab"><path d="M0 0v.667h.142V0H0z"/></symbol><symbol id="ac"><path d="M.258 0L0 .667h.162L.347.154l.184.513h.162L.436 0H.258z"/></symbol><symbol id="ad"><path d="M0 .062a.858.858 0 01.077.179.63.63 0 01.025.201.865.865 0 01-.025.201A.7.7 0 010 .824l.08.06A.653.653 0 00.229.563.68.68 0 00.08 0L0 .062z"/></symbol><symbol id="ae"><path d="M.229.731a.076.076 0 100 .151C.25.882.269.875.283.86A.07.07 0 00.305.807.073.073 0 00.283.753.073.073 0 00.229.731M.121 0a.348.348 0 00-.07.008A.206.206 0 000 .034l.035.095A.104.104 0 01.064.111.08.08 0 01.1.104c.02 0 .035.006.047.019.013.013.019.033.019.06v.496h.127V.183C.293.128.279.083.25.05.222.017.179 0 .121 0z"/></symbol><symbol id="af"><path d="M.015 0v.111c.068.05.125.094.17.129.045.035.081.066.108.092.027.027.047.05.058.07.011.02.017.041.017.062a.076.076 0 01-.033.065A.1.1 0 01.3.545a.132.132 0 01-.04.006A.232.232 0 01.159.53.27.27 0 01.081.474L0 .568a.287.287 0 00.118.083.392.392 0 00.139.026.318.318 0 00.099-.015.228.228 0 00.136-.109A.207.207 0 00.494.38.332.332 0 00.443.299.652.652 0 00.36.215a1.746 1.746 0 00-.115-.09h.272V0H.015z"/></symbol><symbol id="ag"><path d="M.192 0v.484L.081.371 0 .456l.21.211h.124V0H.192z"/></symbol><symbol id="ah"><path d="M.268 0a.415.415 0 00-.101.012.29.29 0 00-.086.034.186.186 0 00-.059.057A.15.15 0 000 .185.162.162 0 00.041.29a.275.275 0 00.102.066.31.31 0 00-.052.024.188.188 0 00-.042.033.138.138 0 00-.038.1.14.14 0 00.022.08.176.176 0 00.06.055.294.294 0 00.082.031.437.437 0 00.185 0A.28.28 0 00.442.648a.176.176 0 00.06-.055.136.136 0 00.023-.08c0-.02-.004-.04-.011-.056A.138.138 0 00.486.413.188.188 0 00.444.38.31.31 0 00.392.356.275.275 0 00.493.29.152.152 0 00.524.242a.15.15 0 00-.01-.139.183.183 0 00-.06-.057A.41.41 0 00.268 0m0 .412c.01.001.021.004.034.007.013.004.026.01.037.016a.103.103 0 01.029.023.05.05 0 01.012.033C.38.515.37.534.348.547a.145.145 0 01-.08.02.152.152 0 01-.082-.02.063.063 0 01-.031-.056.05.05 0 01.012-.033.126.126 0 01.029-.023.168.168 0 01.072-.023m0-.29a.19.19 0 01.048.006.14.14 0 01.039.016C.366.151.375.16.382.17c.007.01.01.021.01.033a.05.05 0 01-.014.036.11.11 0 01-.033.027.171.171 0 01-.041.017.201.201 0 01-.036.009.196.196 0 01-.037-.009A.198.198 0 01.19.266.13.13 0 01.157.239.053.053 0 01.144.203c0-.025.012-.044.035-.059A.168.168 0 01.268.122z"/></symbol><use xlink:href="#B" transform="matrix(13.9999 0 0 -13.9999 65.751 95.665)" fill="#49709c"/><use xlink:href="#C" transform="matrix(13.9999 0 0 -13.9999 74.011 95.833)" fill="#49709c"/><use xlink:href="#D" transform="matrix(13.9999 0 0 -13.9999 82.047 95.665)" fill="#49709c"/><use xlink:href="#E" transform="matrix(13.9999 0 0 -13.9999 86.317 95.833)" fill="#49709c"/><use xlink:href="#F" transform="matrix(13.9999 0 0 -13.9999 91.637 95.665)" fill="#49709c"/><use xlink:href="#G" transform="matrix(13.9999 0 0 -13.9999 94.927 95.833)" fill="#49709c"/><use xlink:href="#F" transform="matrix(13.9999 0 0 -13.9999 102.165 95.665)" fill="#49709c"/><use xlink:href="#H" transform="matrix(13.9999 0 0 -13.9999 105.89 98.241)" fill="#49709c"/><use xlink:href="#C" transform="matrix(13.9999 0 0 -13.9999 113.617 95.833)" fill="#49709c"/><use xlink:href="#I" transform="matrix(13.9999 0 0 -13.9999 121.219 98.381)" fill="#49709c"/><use xlink:href="#J" transform="matrix(13.9999 0 0 -13.9999 128.205 95.833)" fill="#49709c"/><use xlink:href="#K" transform="matrix(13.9999 0 0 -13.9999 135.807 95.833)" fill="#49709c"/><use xlink:href="#L" transform="matrix(13.9999 0 0 -13.9999 143.395 95.665)" fill="#49709c"/><use xlink:href="#M" transform="matrix(13.9999 0 0 -13.9999 147.427 95.833)" fill="#49709c"/><use xlink:href="#C" transform="matrix(13.9999 0 0 -13.9999 155.63 95.833)" fill="#49709c"/><use xlink:href="#L" transform="matrix(13.9999 0 0 -13.9999 162.785 95.665)" fill="#49709c"/><use xlink:href="#N" transform="matrix(13.9999 0 0 -13.9999 166.299 95.665)" fill="#49709c"/><use xlink:href="#O" transform="matrix(13.9999 0 0 -13.9999 176.827 95.665)" fill="#49709c"/><use xlink:href="#P" transform="matrix(13.9999 0 0 -13.9999 188.32 95.833)" fill="#49709c"/><use xlink:href="#D" transform="matrix(13.9999 0 0 -13.9999 196.496 95.665)" fill="#49709c"/><use xlink:href="#F" transform="matrix(13.9999 0 0 -13.9999 201.354 95.665)" fill="#49709c"/><use xlink:href="#G" transform="matrix(13.9999 0 0 -13.9999 204.644 95.833)" fill="#49709c"/><use xlink:href="#C" transform="matrix(13.9999 0 0 -13.9999 211.63 95.833)" fill="#49709c"/><use xlink:href="#L" transform="matrix(13.9999 0 0 -13.9999 218.784 95.665)" fill="#49709c"/><use xlink:href="#M" transform="matrix(13.9999 0 0 -13.9999 222.816 95.833)" fill="#49709c"/><use xlink:href="#K" transform="matrix(13.9999 0 0 -13.9999 231.02 95.833)" fill="#49709c"/><use xlink:href="#L" transform="matrix(13.9999 0 0 -13.9999 238.608 95.665)" fill="#49709c"/><use xlink:href="#Q" transform="matrix(13.9999 0 0 -13.9999 242.486 95.833)" fill="#49709c"/><use xlink:href="#R" transform="matrix(13.9999 0 0 -13.9999 251.474 95.833)" fill="#49709c"/><use xlink:href="#S" transform="matrix(13.9999 0 0 -13.9999 259.58 95.665)" fill="#49709c"/><use xlink:href="#L" transform="matrix(13.9999 0 0 -13.9999 262.24 95.665)" fill="#49709c"/><use xlink:href="#T" transform="matrix(13.9999 0 0 -13.9999 266.272 95.833)" fill="#49709c"/><use xlink:href="#L" transform="matrix(13.9999 0 0 -13.9999 273.566 95.665)" fill="#49709c"/><use xlink:href="#M" transform="matrix(13.9999 0 0 -13.9999 277.598 95.833)" fill="#49709c"/><use xlink:href="#K" transform="matrix(13.9999 0 0 -13.9999 285.802 95.833)" fill="#49709c"/><use xlink:href="#L" transform="matrix(13.9999 0 0 -13.9999 293.39 95.665)" fill="#49709c"/><use xlink:href="#U" transform="matrix(13.9999 0 0 -13.9999 297.898 95.665)" fill="#49709c"/><use xlink:href="#D" transform="matrix(13.9999 0 0 -13.9999 307.138 95.665)" fill="#49709c"/><use xlink:href="#C" transform="matrix(13.9999 0 0 -13.9999 311.744 95.833)" fill="#49709c"/><use xlink:href="#V" transform="matrix(13.9999 0 0 -13.9999 319.192 95.833)" fill="#49709c"/><use xlink:href="#F" transform="matrix(13.9999 0 0 -13.9999 326.276 95.665)" fill="#49709c"/><use xlink:href="#S" transform="matrix(13.9999 0 0 -13.9999 330 95.665)" fill="#49709c"/><use xlink:href="#L" transform="matrix(13.9999 0 0 -13.9999 332.66 95.665)" fill="#49709c"/><use xlink:href="#T" transform="matrix(13.9999 0 0 -13.9999 336.691 95.833)" fill="#49709c"/><use xlink:href="#O" transform="matrix(13.9999 0 0 -13.9999 344.867 95.665)" fill="#49709c"/><use xlink:href="#L" transform="matrix(13.9999 0 0 -13.9999 355.913 95.665)" fill="#49709c"/><use xlink:href="#T" transform="matrix(13.9999 0 0 -13.9999 359.945 95.833)" fill="#49709c"/><use xlink:href="#W" transform="matrix(13.9999 0 0 -13.9999 368.121 95.665)" fill="#49709c"/><use xlink:href="#V" transform="matrix(13.9999 0 0 -13.9999 375.64 95.833)" fill="#49709c"/><use xlink:href="#C" transform="matrix(13.9999 0 0 -13.9999 382.471 95.833)" fill="#49709c"/><use xlink:href="#F" transform="matrix(13.9999 0 0 -13.9999 390.325 95.665)" fill="#49709c"/><use xlink:href="#K" transform="matrix(13.9999 0 0 -13.9999 393.615 95.833)" fill="#49709c"/><use xlink:href="#V" transform="matrix(13.9999 0 0 -13.9999 401.497 95.833)" fill="#49709c"/><use xlink:href="#L" transform="matrix(13.9999 0 0 -13.9999 407.881 95.665)" fill="#49709c"/><use xlink:href="#G" transform="matrix(13.9999 0 0 -13.9999 411.913 95.833)" fill="#49709c"/><use xlink:href="#S" transform="matrix(13.9999 0 0 -13.9999 419.333 95.665)" fill="#49709c"/><use xlink:href="#X" transform="matrix(13.9999 0 0 -13.9999 422.875 95.665)" fill="#49709c"/><use xlink:href="#W" transform="matrix(13.9999 0 0 -13.9999 426.417 95.665)" fill="#49709c"/><use xlink:href="#F" transform="matrix(13.9999 0 0 -13.9999 434.34 95.665)" fill="#49709c"/><use xlink:href="#G" transform="matrix(13.9999 0 0 -13.9999 437.63 95.833)" fill="#49709c"/><use xlink:href="#K" transform="matrix(13.9999 0 0 -13.9999 444.617 95.833)" fill="#49709c"/><use xlink:href="#V" transform="matrix(13.9999 0 0 -13.9999 452.499 95.833)" fill="#49709c"/><use xlink:href="#L" transform="matrix(13.9999 0 0 -13.9999 458.883 95.665)" fill="#49709c"/><use xlink:href="#O" transform="matrix(13.9999 0 0 -13.9999 463.349 95.665)" fill="#49709c"/><use xlink:href="#R" transform="matrix(13.9999 0 0 -13.9999 475.277 95.833)" fill="#49709c"/><use xlink:href="#W" transform="matrix(13.9999 0 0 -13.9999 483.382 95.665)" fill="#49709c"/><use xlink:href="#M" transform="matrix(13.9999 0 0 -13.9999 491.054 95.833)" fill="#49709c"/><use xlink:href="#F" transform="matrix(13.9999 0 0 -13.9999 499.51 95.665)" fill="#49709c"/><use xlink:href="#C" transform="matrix(13.9999 0 0 -13.9999 502.8 95.833)" fill="#49709c"/><use xlink:href="#F" transform="matrix(13.9999 0 0 -13.9999 510.654 95.665)" fill="#49709c"/><use xlink:href="#V" transform="matrix(13.9999 0 0 -13.9999 513.79 95.833)" fill="#49709c"/><use xlink:href="#L" transform="matrix(13.9999 0 0 -13.9999 520.174 95.665)" fill="#49709c"/><use xlink:href="#Y" transform="matrix(13.9999 0 0 -13.9999 65.401 115.25)" fill="#49709c"/><use xlink:href="#Z" transform="matrix(13.9999 0 0 -13.9999 69.14 112.465)" fill="#49709c"/><use xlink:href="#C" transform="matrix(13.9999 0 0 -13.9999 74.011 112.633)" fill="#49709c"/><use xlink:href="#V" transform="matrix(13.9999 0 0 -13.9999 81.46 112.633)" fill="#49709c"/><use xlink:href="#T" transform="matrix(13.9999 0 0 -13.9999 88.291 112.633)" fill="#49709c"/><use xlink:href="#V" transform="matrix(13.9999 0 0 -13.9999 95.88 112.633)" fill="#49709c"/><use xlink:href="#L" transform="matrix(13.9999 0 0 -13.9999 102.263 112.465)" fill="#49709c"/><use xlink:href="#aa" transform="matrix(13.9999 0 0 -13.9999 106.323 112.633)" fill="#49709c"/><use xlink:href="#L" transform="matrix(13.9999 0 0 -13.9999 114.527 112.465)" fill="#49709c"/><use xlink:href="#C" transform="matrix(13.9999 0 0 -13.9999 118.559 112.633)" fill="#49709c"/><use xlink:href="#L" transform="matrix(13.9999 0 0 -13.9999 125.713 112.465)" fill="#49709c"/><use xlink:href="#ab" transform="matrix(13.9999 0 0 -13.9999 130.22 112.465)" fill="#49709c"/><use xlink:href="#ac" transform="matrix(13.9999 0 0 -13.9999 133.063 112.465)" fill="#49709c"/><use xlink:href="#ad" transform="matrix(13.9999 0 0 -13.9999 142.947 115.25)" fill="#49709c"/><use xlink:href="#L" transform="matrix(13.9999 0 0 -13.9999 146.867 112.465)" fill="#49709c"/><use xlink:href="#F" transform="matrix(13.9999 0 0 -13.9999 151.15 112.465)" fill="#49709c"/><use xlink:href="#W" transform="matrix(13.9999 0 0 -13.9999 154.875 112.465)" fill="#49709c"/><use xlink:href="#F" transform="matrix(13.9999 0 0 -13.9999 162.799 112.465)" fill="#49709c"/><use xlink:href="#G" transform="matrix(13.9999 0 0 -13.9999 166.089 112.633)" fill="#49709c"/><use xlink:href="#F" transform="matrix(13.9999 0 0 -13.9999 173.327 112.465)" fill="#49709c"/><use xlink:href="#C" transform="matrix(13.9999 0 0 -13.9999 176.617 112.633)" fill="#49709c"/><use xlink:href="#M" transform="matrix(13.9999 0 0 -13.9999 184.219 112.633)" fill="#49709c"/><use xlink:href="#K" transform="matrix(13.9999 0 0 -13.9999 192.422 112.633)" fill="#49709c"/><use xlink:href="#V" transform="matrix(13.9999 0 0 -13.9999 200.304 112.633)" fill="#49709c"/><use xlink:href="#L" transform="matrix(13.9999 0 0 -13.9999 206.688 112.465)" fill="#49709c"/><use xlink:href="#T" transform="matrix(13.9999 0 0 -13.9999 210.72 112.633)" fill="#49709c"/><use xlink:href="#W" transform="matrix(13.9999 0 0 -13.9999 218.896 112.465)" fill="#49709c"/><use xlink:href="#E" transform="matrix(13.9999 0 0 -13.9999 226.232 112.633)" fill="#49709c"/><use xlink:href="#D" transform="matrix(13.9999 0 0 -13.9999 231.734 112.465)" fill="#49709c"/><use xlink:href="#T" transform="matrix(13.9999 0 0 -13.9999 236.34 112.633)" fill="#49709c"/><use xlink:href="#L" transform="matrix(13.9999 0 0 -13.9999 243.634 112.465)" fill="#49709c"/><use xlink:href="#ae" transform="matrix(13.9999 0 0 -13.9999 245.776 115.209)" fill="#49709c"/><use xlink:href="#C" transform="matrix(13.9999 0 0 -13.9999 251.208 112.633)" fill="#49709c"/><use xlink:href="#W" transform="matrix(13.9999 0 0 -13.9999 259.244 112.465)" fill="#49709c"/><use xlink:href="#T" transform="matrix(13.9999 0 0 -13.9999 266.916 112.633)" fill="#49709c"/><use xlink:href="#F" transform="matrix(13.9999 0 0 -13.9999 274.91 112.465)" fill="#49709c"/><use xlink:href="#D" transform="matrix(13.9999 0 0 -13.9999 278.634 112.465)" fill="#49709c"/><use xlink:href="#K" transform="matrix(13.9999 0 0 -13.9999 283.24 112.633)" fill="#49709c"/><use xlink:href="#L" transform="matrix(13.9999 0 0 -13.9999 290.828 112.465)" fill="#49709c"/><use xlink:href="#M" transform="matrix(13.9999 0 0 -13.9999 294.86 112.633)" fill="#49709c"/><use xlink:href="#T" transform="matrix(13.9999 0 0 -13.9999 303.064 112.633)" fill="#49709c"/><use xlink:href="#L" transform="matrix(13.9999 0 0 -13.9999 310.358 112.465)" fill="#49709c"/><use xlink:href="#af" transform="matrix(13.9999 0 0 -13.9999 314.39 112.465)" fill="#49709c"/><use xlink:href="#aa" transform="matrix(13.9999 0 0 -13.9999 322.818 112.633)" fill="#49709c"/><use xlink:href="#aa" transform="matrix(13.9999 0 0 -13.9999 331.498 112.633)" fill="#49709c"/><use xlink:href="#aa" transform="matrix(13.9999 0 0 -13.9999 340.177 112.633)" fill="#49709c"/><use xlink:href="#L" transform="matrix(13.9999 0 0 -13.9999 348.381 112.465)" fill="#49709c"/><use xlink:href="#T" transform="matrix(13.9999 0 0 -13.9999 352.413 112.633)" fill="#49709c"/><use xlink:href="#L" transform="matrix(13.9999 0 0 -13.9999 359.707 112.465)" fill="#49709c"/><use xlink:href="#ae" transform="matrix(13.9999 0 0 -13.9999 361.85 115.209)" fill="#49709c"/><use xlink:href="#C" transform="matrix(13.9999 0 0 -13.9999 367.281 112.633)" fill="#49709c"/><use xlink:href="#W" transform="matrix(13.9999 0 0 -13.9999 375.317 112.465)" fill="#49709c"/><use xlink:href="#T" transform="matrix(13.9999 0 0 -13.9999 382.99 112.633)" fill="#49709c"/><use xlink:href="#F" transform="matrix(13.9999 0 0 -13.9999 390.983 112.465)" fill="#49709c"/><use xlink:href="#D" transform="matrix(13.9999 0 0 -13.9999 394.707 112.465)" fill="#49709c"/><use xlink:href="#K" transform="matrix(13.9999 0 0 -13.9999 399.313 112.633)" fill="#49709c"/><use xlink:href="#L" transform="matrix(13.9999 0 0 -13.9999 406.901 112.465)" fill="#49709c"/><use xlink:href="#M" transform="matrix(13.9999 0 0 -13.9999 410.933 112.633)" fill="#49709c"/><use xlink:href="#T" transform="matrix(13.9999 0 0 -13.9999 419.137 112.633)" fill="#49709c"/><use xlink:href="#L" transform="matrix(13.9999 0 0 -13.9999 426.43 112.465)" fill="#49709c"/><use xlink:href="#af" transform="matrix(13.9999 0 0 -13.9999 430.463 112.465)" fill="#49709c"/><use xlink:href="#aa" transform="matrix(13.9999 0 0 -13.9999 438.89 112.633)" fill="#49709c"/><use xlink:href="#ag" transform="matrix(13.9999 0 0 -13.9999 447.249 112.465)" fill="#49709c"/><use xlink:href="#ah" transform="matrix(13.9999 0 0 -13.9999 453.339 112.633)" fill="#49709c"/><symbol id="ai"><path d="M.227 0a.326.326 0 00-.09.012.187.187 0 00-.12.093.16.16 0 00.034.188.202.202 0 00.053.038c.02.01.04.019.062.025a.23.23 0 00-.107.055.137.137 0 00-.048.106c0 .03.006.055.019.076.013.022.029.04.049.054a.29.29 0 00.225.031.222.222 0 00.07-.031.162.162 0 00.05-.054.146.146 0 00.019-.076.137.137 0 00-.048-.106.22.22 0 00-.05-.034.323.323 0 00-.057-.021.286.286 0 00.114-.063.176.176 0 00.037-.051.139.139 0 00.014-.063.165.165 0 00-.065-.13.228.228 0 00-.072-.036A.293.293 0 00.227 0m0 .38l.042.011a.225.225 0 01.052.023c.017.01.032.023.045.038a.092.092 0 01.019.059c0 .02-.004.038-.013.053a.11.11 0 01-.034.04.198.198 0 01-.111.033.208.208 0 01-.112-.033.113.113 0 01-.046-.093c0-.023.006-.043.019-.059A.165.165 0 01.133.414.253.253 0 01.185.391.513.513 0 01.227.38m0-.328C.249.052.27.055.29.061a.17.17 0 01.054.026.13.13 0 01.038.041.11.11 0 01.014.055.103.103 0 01-.021.065.216.216 0 01-.105.071.27.27 0 01-.043.011.295.295 0 01-.1-.038.18.18 0 01-.049-.044.106.106 0 01-.02-.065.11.11 0 01.014-.055.136.136 0 01.037-.041.17.17 0 01.054-.026.228.228 0 01.064-.009z"/></symbol><symbol id="aj"><path d="M.101.137A.152.152 0 00.079.058.18.18 0 00.029 0L0 .025a.145.145 0 01.058.092.009.009 0 00-.004-.001H.048a.04.04 0 00-.03.012.043.043 0 00-.011.03.043.043 0 00.043.043.045.045 0 00.035-.017C.095.174.101.158.101.137z"/></symbol><symbol id="ak"><path d="M.247 0a.204.204 0 00-.115.031.249.249 0 00-.076.082.397.397 0 00-.043.111.589.589 0 000 .242c.01.04.024.077.043.11a.24.24 0 00.076.081.2.2 0 00.115.032C.292.689.329.679.36.657A.24.24 0 00.436.576a.348.348 0 00.043-.11.54.54 0 000-.242.36.36 0 00-.043-.111A.249.249 0 00.36.031.198.198 0 00.247 0m0 .052c.035 0 .064.009.087.026a.192.192 0 01.057.069c.015.028.025.06.031.094a.56.56 0 01.001.208.318.318 0 01-.031.094.192.192 0 01-.058.068.142.142 0 01-.087.026.148.148 0 01-.089-.026A.192.192 0 01.1.543.362.362 0 01.069.449a.609.609 0 010-.208A.362.362 0 01.1.147.202.202 0 01.158.078.148.148 0 01.247.052z"/></symbol><symbol id="al"><path d="M.156.362a.147.147 0 00-.145.097A.187.187 0 000 .524a.168.168 0 00.043.118.155.155 0 00.113.047.155.155 0 00.113-.047.147.147 0 00.032-.053.173.173 0 00.012-.065.173.173 0 00-.044-.116A.135.135 0 00.22.374.166.166 0 00.156.362M.094.012L.52.679h.046L.139.012H.094M.496 0a.166.166 0 00-.064.012.17.17 0 00-.049.034.161.161 0 00-.044.117c0 .023.004.045.011.065a.147.147 0 00.082.087c.02.009.04.013.064.013A.152.152 0 00.559.315.145.145 0 00.641.228.173.173 0 00.653.163.173.173 0 00.609.046a.166.166 0 00-.05-.034A.163.163 0 00.496 0m-.34.4a.1.1 0 01.045.01.12.12 0 01.058.066.145.145 0 010 .097.119.119 0 01-.058.067.1.1 0 01-.045.01.103.103 0 01-.08-.037.129.129 0 01-.022-.04.148.148 0 010-.097A.115.115 0 01.111.41.103.103 0 01.156.4m.34-.361a.1.1 0 01.045.01.11.11 0 01.034.026.12.12 0 01.023.039.148.148 0 01-.023.138.1.1 0 01-.079.037.106.106 0 01-.103-.077.148.148 0 01.022-.137.106.106 0 01.081-.036z"/></symbol><symbol id="am"><path d="M.089 0l.28.615H0v.052h.437v-.04L.152 0H.089z"/></symbol><symbol id="an"><path d="M.245 0A.221.221 0 00.13.028a.23.23 0 00-.075.077.35.35 0 00-.042.11.642.642 0 00.001.256c.01.041.024.078.044.11a.222.222 0 00.197.108.214.214 0 00.18-.085L.401.562a.203.203 0 01-.058.054.162.162 0 01-.088.021.159.159 0 01-.092-.026.207.207 0 01-.061-.068.327.327 0 01-.034-.094.555.555 0 01-.01-.105V.328L.059.313a.267.267 0 00.13.1c.02.007.042.011.065.011.03 0 .058-.004.084-.013A.184.184 0 00.452.305.229.229 0 00.469.213.206.206 0 00.34.018.239.239 0 00.245 0M.243.052A.168.168 0 01.37.105a.15.15 0 01.031.051.178.178 0 01-.003.127.128.128 0 01-.035.05.143.143 0 01-.053.03.208.208 0 01-.066.01A.187.187 0 01.14.341.23.23 0 01.062.259.36.36 0 01.076.188.189.189 0 01.163.071a.158.158 0 01.08-.019z"/></symbol><symbol id="ao"><path d="M.225 0a.284.284 0 00-.137.029.266.266 0 00-.088.08l.038.038A.23.23 0 01.115.076.231.231 0 01.291.064c.02.009.038.02.053.034a.16.16 0 01.048.115.17.17 0 01-.047.119.176.176 0 01-.119.044.23.23 0 01-.162-.065L.021.329v.35h.385V.627H.078V.366a.24.24 0 00.159.062.23.23 0 00.148-.054.187.187 0 00.047-.067A.222.222 0 00.45.215a.202.202 0 00-.138-.2A.251.251 0 00.225 0z"/></symbol><symbol id="ap"><path d="M.316 0v.182H0v.051l.296.434h.077V.234h.098V.182H.373V0H.316m0 .61L.059.234h.257V.61z"/></symbol><symbol id="aq"><path d="M.227 0a.279.279 0 00-.14.033A.244.244 0 000 .111l.039.034A.229.229 0 01.114.078.232.232 0 01.226.052c.052 0 .093.013.123.038s.045.06.045.104A.123.123 0 01.38.255a.115.115 0 01-.038.042.152.152 0 01-.057.024.296.296 0 01-.07.008H.178L.153.328v.054A.223.223 0 01.178.381h.037c.022 0 .043.002.063.007a.18.18 0 01.054.023.111.111 0 01.052.097.114.114 0 01-.048.095.146.146 0 01-.051.025.205.205 0 01-.061.009.217.217 0 01-.1-.022.263.263 0 01-.079-.063L.009.588a.27.27 0 00.218.101.277.277 0 00.082-.012.191.191 0 00.069-.034.16.16 0 00.064-.13A.15.15 0 00.391.4.185.185 0 00.299.357.179.179 0 00.397.313.17.17 0 00.436.262.149.149 0 00.452.191.19.19 0 00.437.115.172.172 0 00.393.054a.222.222 0 00-.071-.04A.3.3 0 00.227 0z"/></symbol><use xlink:href="#ai" transform="matrix(6.9999 0 0 -6.9999 65.502 204.127)" fill="#231f20"/><use xlink:href="#aj" transform="matrix(6.9999 0 0 -6.9999 69.492 204.904)" fill="#231f20"/><use xlink:href="#ak" transform="matrix(6.9999 0 0 -6.9999 71.025 204.127)" fill="#231f20"/><use xlink:href="#al" transform="matrix(6.9999 0 0 -6.9999 75.113 204.127)" fill="#231f20"/><use xlink:href="#am" transform="matrix(6.9999 0 0 -6.9999 65.32 241.366)" fill="#231f20"/><use xlink:href="#aj" transform="matrix(6.9999 0 0 -6.9999 69.009 242.227)" fill="#231f20"/><use xlink:href="#ak" transform="matrix(6.9999 0 0 -6.9999 70.542 241.45)" fill="#231f20"/><use xlink:href="#al" transform="matrix(6.9999 0 0 -6.9999 74.63 241.45)" fill="#231f20"/><use xlink:href="#an" transform="matrix(6.9999 0 0 -6.9999 65.495 278.494)" fill="#231f20"/><use xlink:href="#aj" transform="matrix(6.9999 0 0 -6.9999 69.583 279.27)" fill="#231f20"/><use xlink:href="#ak" transform="matrix(6.9999 0 0 -6.9999 71.116 278.494)" fill="#231f20"/><use xlink:href="#al" transform="matrix(6.9999 0 0 -6.9999 75.204 278.494)" fill="#231f20"/><use xlink:href="#ao" transform="matrix(6.9999 0 0 -6.9999 65.607 315.817)" fill="#231f20"/><use xlink:href="#aj" transform="matrix(6.9999 0 0 -6.9999 69.569 316.594)" fill="#231f20"/><use xlink:href="#ak" transform="matrix(6.9999 0 0 -6.9999 71.102 315.817)" fill="#231f20"/><use xlink:href="#al" transform="matrix(6.9999 0 0 -6.9999 75.19 315.817)" fill="#231f20"/><use xlink:href="#ap" transform="matrix(6.9999 0 0 -6.9999 65.334 352.776)" fill="#231f20"/><use xlink:href="#aj" transform="matrix(6.9999 0 0 -6.9999 69.282 353.637)" fill="#231f20"/><use xlink:href="#ak" transform="matrix(6.9999 0 0 -6.9999 70.815 352.86)" fill="#231f20"/><use xlink:href="#al" transform="matrix(6.9999 0 0 -6.9999 74.903 352.86)" fill="#231f20"/><use xlink:href="#aq" transform="matrix(6.9999 0 0 -6.9999 65.313 390.184)" fill="#231f20"/><use xlink:href="#aj" transform="matrix(6.9999 0 0 -6.9999 69.303 390.961)" fill="#231f20"/><use xlink:href="#ak" transform="matrix(6.9999 0 0 -6.9999 70.836 390.184)" fill="#231f20"/><use xlink:href="#al" transform="matrix(6.9999 0 0 -6.9999 74.924 390.184)" fill="#231f20"/><use xlink:href="#y" transform="matrix(6.9999 0 0 -6.9999 65.481 428.256)" fill="#231f20"/><use xlink:href="#aj" transform="matrix(6.9999 0 0 -6.9999 69.569 429.117)" fill="#231f20"/><use xlink:href="#ak" transform="matrix(6.9999 0 0 -6.9999 71.102 428.34)" fill="#231f20"/><use xlink:href="#al" transform="matrix(6.9999 0 0 -6.9999 75.19 428.34)" fill="#231f20"/><use xlink:href="#A" transform="matrix(6.9999 0 0 -6.9999 65.271 465.58)" fill="#231f20"/><use xlink:href="#aj" transform="matrix(6.9999 0 0 -6.9999 67.651 466.44)" fill="#231f20"/><use xlink:href="#ak" transform="matrix(6.9999 0 0 -6.9999 69.184 465.664)" fill="#231f20"/><use xlink:href="#al" transform="matrix(6.9999 0 0 -6.9999 73.272 465.664)" fill="#231f20"/><use xlink:href="#ak" transform="matrix(6.9999 0 0 -6.9999 65.495 500.754)" fill="#231f20"/><use xlink:href="#aj" transform="matrix(6.9999 0 0 -6.9999 69.751 501.531)" fill="#231f20"/><use xlink:href="#ak" transform="matrix(6.9999 0 0 -6.9999 71.284 500.754)" fill="#231f20"/><use xlink:href="#al" transform="matrix(6.9999 0 0 -6.9999 75.372 500.754)" fill="#231f20"/><path stroke-width=".748" stroke-linecap="round" stroke-dasharray="0,2.511" stroke-miterlimit="10" fill="none" stroke="#bcbec0" d="M93.106 199.82h453.282M93.106 237.104h453.282M93.106 274.109h453.282M93.106 311.292h453.282M93.106 348.206h453.282M93.106 386.009h453.282M93.106 423.013h453.282M93.106 460.196h453.282M93.106 497.11h453.282"/><symbol id="ar"><path d="M.232 0a.225.225 0 00-.169.074.264.264 0 00-.063.18.3.3 0 00.016.099c.011.03.027.057.047.08s.044.041.073.054c.029.013.06.02.096.02a.227.227 0 00.097-.02.203.203 0 00.073-.054.283.283 0 00.063-.179.283.283 0 00-.063-.18A.22.22 0 00.232 0m0 .047A.16.16 0 01.363.11a.251.251 0 010 .287.16.16 0 01-.131.063.161.161 0 01-.131-.063.206.206 0 01-.034-.066.269.269 0 010-.155A.221.221 0 01.101.11.161.161 0 01.232.047z"/></symbol><symbol id="as"><path d="M.326 0v.327a.16.16 0 01-.009.058.087.087 0 01-.061.057.171.171 0 01-.093-.001.254.254 0 01-.044-.018.208.208 0 01-.067-.058V0H0v.483h.052V.41a.266.266 0 00.122.077.176.176 0 00.052.008c.05 0 .087-.013.113-.038C.365.432.378.393.378.338V0H.326z"/></symbol><symbol id="at"><path d="M.175 0C.143 0 .119.009.103.027A.12.12 0 00.08.105v.344H0v.046h.08v.132h.053V.495h.098V.449H.133V.113c0-.02.004-.035.012-.048C.153.053.165.047.183.047c.011 0 .022.002.031.007A.07.07 0 01.237.07l.02-.04A.102.102 0 00.224.008.128.128 0 00.175 0z"/></symbol><symbol id="au"><path d="M.242 0a.226.226 0 00-.174.071.246.246 0 00-.05.08.286.286 0 00.048.282.23.23 0 00.167.074.214.214 0 00.169-.076.243.243 0 00.044-.082.314.314 0 00.015-.098V.237H.057A.21.21 0 01.11.101.184.184 0 01.246.045a.218.218 0 01.158.067L.431.078A.246.246 0 00.242 0m.166.278c0 .02-.004.042-.011.063A.174.174 0 01.31.445a.168.168 0 01-.078.017.158.158 0 01-.129-.061.192.192 0 01-.046-.123h.351z"/></symbol><symbol id="av"><path d="M.044.413a.042.042 0 00-.031.013.042.042 0 000 .061A.042.042 0 00.044.5.042.042 0 00.075.487.04.04 0 00.089.456a.04.04 0 00-.014-.03.042.042 0 00-.031-.013m0-.413a.042.042 0 00-.031.013A.046.046 0 000 .045c0 .011.004.021.013.03a.042.042 0 00.031.013.042.042 0 00.031-.013.04.04 0 00.014-.03.044.044 0 00-.014-.032A.042.042 0 00.044 0z"/></symbol><symbol id="aw"><path d="M0 0v.667h.213A.347.347 0 00.353.64.311.311 0 00.526.462.352.352 0 00.459.097.319.319 0 00.353.026.359.359 0 00.213 0H0m.213.052c.044 0 .083.007.117.022a.247.247 0 01.141.149.313.313 0 010 .219.253.253 0 01-.258.173H.057V.052h.156z"/></symbol><symbol id="ax"><path d="M.477 0l-.42.573V0H0v.667h.058L.476.102v.565h.057V0H.477z"/></symbol><symbol id="ay"><path d="M.219 0a.49.49 0 00-.056.003.195.195 0 00-.048.012.194.194 0 00-.044.022.252.252 0 00-.042.036l.03.04A.18.18 0 01.128.06.243.243 0 01.282.054.13.13 0 01.37.129C.38.149.384.172.384.2v.076a.233.233 0 00-.07-.064.189.189 0 00-.098-.026.2.2 0 00-.157.068.245.245 0 00-.044.079A.344.344 0 000 .438a.34.34 0 00.015.104C.025.573.04.6.059.622a.2.2 0 00.157.069.192.192 0 00.095-.024.21.21 0 00.073-.066v.078h.053V.201A.219.219 0 00.419.107.163.163 0 00.372.045a.18.18 0 00-.07-.034A.304.304 0 00.219 0m.006.233a.207.207 0 01.131.054c.011.01.02.022.028.034v.235A.165.165 0 01.356.59a.207.207 0 01-.131.054A.159.159 0 01.1.585.219.219 0 01.067.519a.294.294 0 010-.163.166.166 0 01.086-.108.168.168 0 01.072-.015z"/></symbol><symbol id="az"><path d="M0 0v.483h.052V.4a.28.28 0 00.071.067.168.168 0 00.092.026V.436a926.39 926.39 0 01-.026.002.183.183 0 01-.137-.086V0H0z"/></symbol><symbol id="aA"><path d="M.04.559a.04.04 0 00-.04.04c0 .011.004.02.012.028A.04.04 0 00.04.638C.051.638.06.634.068.627A.036.036 0 00.08.599a.04.04 0 00-.04-.04M.014 0v.483h.052V0H.014z"/></symbol><use xlink:href="#r" transform="matrix(6.9999 0 0 -6.9999 66.528 770.331)" fill="#231f20"/><use xlink:href="#ar" transform="matrix(6.9999 0 0 -6.9999 70.112 770.415)" fill="#231f20"/><use xlink:href="#as" transform="matrix(6.9999 0 0 -6.9999 74.305 770.331)" fill="#231f20"/><use xlink:href="#at" transform="matrix(6.9999 0 0 -6.9999 77.595 770.415)" fill="#231f20"/><use xlink:href="#au" transform="matrix(6.9999 0 0 -6.9999 79.814 770.415)" fill="#231f20"/><use xlink:href="#av" transform="matrix(6.9999 0 0 -6.9999 83.867 770.401)" fill="#231f20"/><use xlink:href="#x" transform="matrix(6.9999 0 0 -6.9999 84.945 770.331)" fill="#231f20"/><use xlink:href="#aw" transform="matrix(6.9999 0 0 -6.9999 87.34 770.331)" fill="#231f20"/><use xlink:href="#au" transform="matrix(6.9999 0 0 -6.9999 91.973 770.415)" fill="#231f20"/><use xlink:href="#x" transform="matrix(6.9999 0 0 -6.9999 95.571 770.331)" fill="#231f20"/><use xlink:href="#ax" transform="matrix(6.9999 0 0 -6.9999 97.965 770.331)" fill="#231f20"/><use xlink:href="#au" transform="matrix(6.9999 0 0 -6.9999 102.648 770.415)" fill="#231f20"/><use xlink:href="#ay" transform="matrix(6.9999 0 0 -6.9999 106.617 771.703)" fill="#231f20"/><use xlink:href="#az" transform="matrix(6.9999 0 0 -6.9999 110.803 770.331)" fill="#231f20"/><use xlink:href="#aA" transform="matrix(6.9999 0 0 -6.9999 112.924 770.331)" fill="#231f20"/><use xlink:href="#aj" transform="matrix(6.9999 0 0 -6.9999 114.359 771.192)" fill="#231f20"/><use xlink:href="#x" transform="matrix(6.9999 0 0 -6.9999 115.486 770.331)" fill="#231f20"/><use xlink:href="#y" transform="matrix(6.9999 0 0 -6.9999 117.69 770.331)" fill="#231f20"/><use xlink:href="#ak" transform="matrix(6.9999 0 0 -6.9999 121.779 770.415)" fill="#231f20"/><use xlink:href="#A" transform="matrix(6.9999 0 0 -6.9999 125.81 770.331)" fill="#231f20"/><use xlink:href="#ai" transform="matrix(6.9999 0 0 -6.9999 128.198 770.415)" fill="#231f20"/><use xlink:href="#z" transform="matrix(6.9999 0 0 -6.9999 132.237 770.401)" fill="#231f20"/><path stroke-miterlimit="10" fill="none" stroke="#49709c" d="M75.684 571.546H67.18v.517h8.503z"/><use xlink:href="#x" transform="matrix(6.9999 0 0 -6.9999 77.826 574.46)" fill="#231f20"/><use xlink:href="#x" transform="matrix(6.9999 0 0 -6.9999 79.64 574.46)" fill="#231f20"/><use xlink:href="#x" transform="matrix(6.9999 0 0 -6.9999 81.452 574.46)" fill="#231f20"/><use xlink:href="#x" transform="matrix(6.9999 0 0 -6.9999 83.265 574.46)" fill="#231f20"/><use xlink:href="#x" transform="matrix(6.9999 0 0 -6.9999 85.078 574.46)" fill="#231f20"/><symbol id="aB"><path d="M.575 0v.338c0 .034-.008.06-.023.08-.015.02-.04.03-.074.03A.158.158 0 01.399.423.176.176 0 01.34.366V0H.287v.338c0 .034-.008.06-.023.08-.015.02-.04.03-.074.03A.118.118 0 01.151.441.183.183 0 01.078.396.221.221 0 01.052.365V0H0v.483h.052V.41a.12.12 0 00.022.026.234.234 0 00.083.05.15.15 0 00.138-.019.129.129 0 00.04-.063A.18.18 0 00.4.466a.213.213 0 00.045.021.157.157 0 00.05.008C.583.495.627.446.627.348V0H.575z"/></symbol><symbol id="aC"><path d="M.223.568H.179l.154.144h.062L.223.568M.242 0a.226.226 0 00-.174.071.246.246 0 00-.05.08.286.286 0 00.048.282.23.23 0 00.167.074.214.214 0 00.169-.076.243.243 0 00.044-.082.314.314 0 00.015-.098V.237H.057A.21.21 0 01.11.101.184.184 0 01.246.045a.218.218 0 01.158.067L.431.078A.246.246 0 00.242 0m.166.278c0 .02-.004.042-.011.063A.174.174 0 01.31.445a.168.168 0 01-.078.017.158.158 0 01-.129-.061.192.192 0 01-.046-.123h.351z"/></symbol><symbol id="aD"><path d="M.235 0a.232.232 0 00-.171.074.253.253 0 00-.064.18.3.3 0 00.016.099c.011.03.027.057.048.08a.232.232 0 00.171.074.2.2 0 00.171-.082L.37.393a.15.15 0 01-.059.051.165.165 0 01-.073.016A.176.176 0 01.104.4.198.198 0 01.068.335a.27.27 0 010-.163.212.212 0 01.036-.065.172.172 0 01.134-.06c.027 0 .051.005.073.016A.16.16 0 01.37.115L.406.083A.231.231 0 00.337.022.207.207 0 00.235 0z"/></symbol><symbol id="aE"><path d="M.333.012v.057A.212.212 0 00.107.011a.165.165 0 00-.054.03.165.165 0 00-.039.051A.161.161 0 000 .161C0 .187.005.21.014.23c.01.02.023.037.039.05a.156.156 0 00.054.031c.02.007.04.01.062.01A.21.21 0 00.333.252V.35a.095.095 0 01-.038.082.147.147 0 01-.092.029.194.194 0 01-.082-.017A.202.202 0 01.052.39L.023.426a.258.258 0 00.082.061.25.25 0 00.104.02.254.254 0 00.069-.009A.158.158 0 00.334.47.124.124 0 00.371.421.157.157 0 00.385.352v-.34H.333M.187.041a.21.21 0 01.082.016.167.167 0 01.064.05v.106a.167.167 0 01-.064.05.198.198 0 01-.082.017.134.134 0 01-.096-.034A.113.113 0 01.055.16c0-.034.012-.062.036-.085A.134.134 0 01.187.041z"/></symbol><symbol id="aF"><path d="M.384.012v.077a.217.217 0 00-.07-.064.223.223 0 00-.186-.008.2.2 0 00-.069.051.243.243 0 00-.044.08A.344.344 0 000 .253a.34.34 0 00.015.104c.01.031.025.058.044.08.02.023.042.04.069.052A.212.212 0 00.311.483.21.21 0 00.384.417v.262h.053V.012H.384M.225.047a.183.183 0 01.094.026.196.196 0 01.065.06v.239a.165.165 0 01-.028.034.183.183 0 01-.203.038A.16.16 0 01.1.4.206.206 0 01.067.335a.294.294 0 010-.164A.221.221 0 01.1.106.16.16 0 01.153.062.168.168 0 01.225.047z"/></symbol><symbol id="aG"><path d="M.244 0a.34.34 0 00-.145.029A.289.289 0 000 .106l.037.043A.302.302 0 01.121.081.268.268 0 01.245.052.24.24 0 01.33.065a.16.16 0 01.054.032.11.11 0 01.029.043.143.143 0 01.008.045c0 .033-.01.058-.03.076a.223.223 0 01-.074.044.708.708 0 01-.096.029.592.592 0 00-.097.033A.224.224 0 00.05.42a.137.137 0 00-.029.092.16.16 0 00.064.13A.273.273 0 00.24.69C.29.69.334.682.371.665A.259.259 0 00.466.596L.428.554a.213.213 0 01-.085.064.278.278 0 01-.168.011.15.15 0 01-.049-.026.116.116 0 01-.033-.039.1.1 0 01-.012-.049c0-.021.006-.039.017-.053A.134.134 0 01.143.427c.02-.01.04-.018.064-.025A4.213 4.213 0 00.354.356.228.228 0 00.418.321.163.163 0 00.464.267.16.16 0 00.481.189.198.198 0 00.469.123.156.156 0 00.43.062.221.221 0 00.356.017.32.32 0 00.244 0z"/></symbol><symbol id="aH"><path d="M.326.012v.071A.286.286 0 00.25.025.198.198 0 00.152 0C.102 0 .064.012.038.036.013.061 0 .1 0 .155v.34h.052V.167C.052.144.055.124.06.108A.099.099 0 01.084.071.103.103 0 01.121.052a.217.217 0 01.094.001.225.225 0 01.111.074v.368h.052V.012H.326z"/></symbol><symbol id="aI"><path d="M0 0v.667h.052V0H0z"/></symbol><use xlink:href="#w" transform="matrix(8.9999 0 0 -8.9999 87.024 574.46)" fill="#231f20"/><use xlink:href="#aB" transform="matrix(8.9999 0 0 -8.9999 93.44 574.46)" fill="#231f20"/><use xlink:href="#aC" transform="matrix(8.9999 0 0 -8.9999 100.29 574.569)" fill="#231f20"/><use xlink:href="#az" transform="matrix(8.9999 0 0 -8.9999 105.645 574.46)" fill="#231f20"/><use xlink:href="#aA" transform="matrix(8.9999 0 0 -8.9999 108.372 574.46)" fill="#231f20"/><use xlink:href="#aD" transform="matrix(8.9999 0 0 -8.9999 110.172 574.569)" fill="#231f20"/><use xlink:href="#aE" transform="matrix(8.9999 0 0 -8.9999 114.635 574.569)" fill="#231f20"/><use xlink:href="#x" transform="matrix(8.9999 0 0 -8.9999 118.83 574.46)" fill="#231f20"/><use xlink:href="#aF" transform="matrix(8.9999 0 0 -8.9999 121.637 574.569)" fill="#231f20"/><use xlink:href="#ar" transform="matrix(8.9999 0 0 -8.9999 126.776 574.569)" fill="#231f20"/><use xlink:href="#x" transform="matrix(8.9999 0 0 -8.9999 131.438 574.46)" fill="#231f20"/><use xlink:href="#aG" transform="matrix(8.9999 0 0 -8.9999 134.183 574.569)" fill="#231f20"/><use xlink:href="#aH" transform="matrix(8.9999 0 0 -8.9999 139.727 574.569)" fill="#231f20"/><use xlink:href="#aI" transform="matrix(8.9999 0 0 -8.9999 144.587 574.46)" fill="#231f20"/><use xlink:href="#x" transform="matrix(8.9999 0 0 -8.9999 145.784 574.46)" fill="#231f20"/><use xlink:href="#x" transform="matrix(8.9999 0 0 -8.9999 148.115 574.46)" fill="#231f20"/><use xlink:href="#x" transform="matrix(8.9999 0 0 -8.9999 150.446 574.46)" fill="#231f20"/><use xlink:href="#x" transform="matrix(6.9999 0 0 -6.9999 152.775 574.46)" fill="#231f20"/><use xlink:href="#x" transform="matrix(6.9999 0 0 -6.9999 154.588 574.46)" fill="#231f20"/><use xlink:href="#x" transform="matrix(6.9999 0 0 -6.9999 156.4 574.46)" fill="#231f20"/><use xlink:href="#x" transform="matrix(6.9999 0 0 -6.9999 158.214 574.46)" fill="#231f20"/><path stroke-miterlimit="10" fill="none" stroke="#b9568f" d="M171.706 571.546h-8.503v.517h8.503z"/><use xlink:href="#x" transform="matrix(6.9999 0 0 -6.9999 172.037 574.46)" fill="#231f20"/><use xlink:href="#x" transform="matrix(6.9999 0 0 -6.9999 173.85 574.46)" fill="#231f20"/><use xlink:href="#x" transform="matrix(6.9999 0 0 -6.9999 175.663 574.46)" fill="#231f20"/><use xlink:href="#x" transform="matrix(6.9999 0 0 -6.9999 177.476 574.46)" fill="#231f20"/><use xlink:href="#x" transform="matrix(6.9999 0 0 -6.9999 179.288 574.46)" fill="#231f20"/><symbol id="aJ"><path d="M0 0v.667h.274A.188.188 0 00.408.621a.158.158 0 00.05-.124.16.16 0 00-.036-.104.147.147 0 00-.081-.049.148.148 0 00.091-.057.167.167 0 00.028-.05A.15.15 0 00.471.18C.471.124.454.08.42.048A.194.194 0 00.28 0H0m.267.368C.31.368.343.38.365.403a.125.125 0 01.033.088.124.124 0 01-.033.087C.343.603.31.615.267.615h-.21V.368h.21M.271.052c.044 0 .078.012.103.035a.13.13 0 01.037.097.139.139 0 01-.009.049.117.117 0 01-.027.042.119.119 0 01-.043.03.156.156 0 01-.061.011H.057V.052h.214z"/></symbol><symbol id="aK"><path d="M.186 0a.287.287 0 00-.105.018A.217.217 0 000 .076l.031.039A.199.199 0 01.187.044c.04 0 .072.01.095.028a.087.087 0 01.034.07.061.061 0 01-.023.051.17.17 0 01-.056.029.84.84 0 01-.074.02.468.468 0 00-.073.023.169.169 0 00-.057.04.1.1 0 00-.022.068c0 .019.004.036.011.052.008.017.02.031.034.043A.16.16 0 00.11.496a.224.224 0 00.073.011.234.234 0 00.105-.021.225.225 0 00.068-.05L.327.399a.143.143 0 01-.059.046.192.192 0 01-.085.018.141.141 0 01-.089-.025.077.077 0 01-.032-.063c0-.02.007-.035.022-.046A.216.216 0 01.141.302L.214.283A.358.358 0 00.288.258.157.157 0 00.344.215.109.109 0 00.367.142.13.13 0 00.355.087.125.125 0 00.321.041a.16.16 0 00-.056-.03A.257.257 0 00.186 0z"/></symbol><use xlink:href="#aJ" transform="matrix(8.9999 0 0 -8.9999 181.846 574.46)" fill="#231f20"/><use xlink:href="#az" transform="matrix(8.9999 0 0 -8.9999 187.354 574.46)" fill="#231f20"/><use xlink:href="#aE" transform="matrix(8.9999 0 0 -8.9999 189.973 574.569)" fill="#231f20"/><use xlink:href="#aK" transform="matrix(8.9999 0 0 -8.9999 194.518 574.569)" fill="#231f20"/><use xlink:href="#aA" transform="matrix(8.9999 0 0 -8.9999 198.9 574.46)" fill="#231f20"/><use xlink:href="#aI" transform="matrix(8.9999 0 0 -8.9999 200.953 574.46)" fill="#231f20"/><path d="M163.966 417.358H134.89v80.236h29.076z" fill="#49709c"/><path d="M201.466 446.073H172.39v51.522h29.076z" fill="#b9568f"/><path d="M316.465 230.757h-29.076v266.839h29.076z" fill="#49709c"/><path d="M353.965 317.846H324.89v179.75h29.075z" fill="#b9568f"/><path d="M461.964 343.146h-29.075v154.449h29.075z" fill="#49709c"/><path d="M499.464 393.204h-29.075v104.391h29.075z" fill="#b9568f"/><path stroke-width=".766" stroke-linecap="round" stroke-dasharray="0,2.571" stroke-miterlimit="10" fill="none" stroke="#bcbec0" d="M242.2 514.14v-16.948M94.025 514.14v-16.948M392.15 514.14v-16.948M544.198 514.14v-16.948"/><symbol id="aL"><path d="M.218 0v.615H0v.052h.494V.615H.276V0H.218z"/></symbol><symbol id="aM"><path d="M.273 0L0 .667h.066L.308.064l.243.603h.066L.344 0H.273z"/></symbol><use xlink:href="#r" transform="matrix(8.9999 0 0 -8.9999 145.66 518.499)" fill="#231f20"/><use xlink:href="#aE" transform="matrix(8.9999 0 0 -8.9999 150.287 518.607)" fill="#231f20"/><use xlink:href="#aK" transform="matrix(8.9999 0 0 -8.9999 154.832 518.607)" fill="#231f20"/><use xlink:href="#au" transform="matrix(8.9999 0 0 -8.9999 159.089 518.607)" fill="#231f20"/><use xlink:href="#aK" transform="matrix(8.9999 0 0 -8.9999 164.065 518.607)" fill="#231f20"/><use xlink:href="#x" transform="matrix(8.9999 0 0 -8.9999 167.845 518.499)" fill="#231f20"/><use xlink:href="#ak" transform="matrix(8.9999 0 0 -8.9999 170.698 518.607)" fill="#231f20"/><use xlink:href="#aj" transform="matrix(8.9999 0 0 -8.9999 176.17 519.606)" fill="#231f20"/><use xlink:href="#x" transform="matrix(8.9999 0 0 -8.9999 177.62 518.499)" fill="#231f20"/><use xlink:href="#s" transform="matrix(8.9999 0 0 -8.9999 180.697 518.499)" fill="#231f20"/><use xlink:href="#aj" transform="matrix(8.9999 0 0 -8.9999 182.48 519.606)" fill="#231f20"/><use xlink:href="#x" transform="matrix(8.9999 0 0 -8.9999 183.928 518.499)" fill="#231f20"/><use xlink:href="#s" transform="matrix(8.9999 0 0 -8.9999 187.006 518.499)" fill="#231f20"/><use xlink:href="#s" transform="matrix(8.9999 0 0 -8.9999 189.013 518.499)" fill="#231f20"/><use xlink:href="#x" transform="matrix(8.9999 0 0 -8.9999 190.273 518.499)" fill="#231f20"/><use xlink:href="#aL" transform="matrix(8.9999 0 0 -8.9999 454.753 518.499)" fill="#231f20"/><use xlink:href="#ar" transform="matrix(8.9999 0 0 -8.9999 459.991 518.607)" fill="#231f20"/><use xlink:href="#at" transform="matrix(8.9999 0 0 -8.9999 464.752 518.607)" fill="#231f20"/><use xlink:href="#aE" transform="matrix(8.9999 0 0 -8.9999 467.623 518.607)" fill="#231f20"/><use xlink:href="#aI" transform="matrix(8.9999 0 0 -8.9999 472.546 518.499)" fill="#231f20"/><use xlink:href="#r" transform="matrix(8.9999 0 0 -8.9999 296.13 518.499)" fill="#231f20"/><use xlink:href="#aE" transform="matrix(8.9999 0 0 -8.9999 300.756 518.607)" fill="#231f20"/><use xlink:href="#aK" transform="matrix(8.9999 0 0 -8.9999 305.3 518.607)" fill="#231f20"/><use xlink:href="#au" transform="matrix(8.9999 0 0 -8.9999 309.558 518.607)" fill="#231f20"/><use xlink:href="#aK" transform="matrix(8.9999 0 0 -8.9999 314.535 518.607)" fill="#231f20"/><use xlink:href="#x" transform="matrix(8.9999 0 0 -8.9999 318.315 518.499)" fill="#231f20"/><use xlink:href="#s" transform="matrix(8.9999 0 0 -8.9999 321.393 518.499)" fill="#231f20"/><use xlink:href="#s" transform="matrix(8.9999 0 0 -8.9999 323.4 518.499)" fill="#231f20"/><use xlink:href="#s" transform="matrix(8.9999 0 0 -8.9999 325.407 518.499)" fill="#231f20"/><use xlink:href="#aj" transform="matrix(8.9999 0 0 -8.9999 327.189 519.606)" fill="#231f20"/><use xlink:href="#x" transform="matrix(8.9999 0 0 -8.9999 328.638 518.499)" fill="#231f20"/><use xlink:href="#s" transform="matrix(8.9999 0 0 -8.9999 331.716 518.499)" fill="#231f20"/><use xlink:href="#aM" transform="matrix(8.9999 0 0 -8.9999 333.11 518.499)" fill="#231f20"/><use xlink:href="#x" transform="matrix(8.9999 0 0 -8.9999 338.799 518.499)" fill="#231f20"/><symbol id="aN"><path d="M.168.186A.2.2 0 00.139.081.26.26 0 00.065 0L.01.045c.008.004.016.01.024.017a.18.18 0 01.042.05.1.1 0 01.011.027.067.067 0 00-.019-.003.067.067 0 00-.049.02A.072.072 0 000 .208c0 .022.008.04.023.056a.074.074 0 00.055.024A.084.084 0 00.14.261.11.11 0 00.168.186z"/></symbol><symbol id="aO"><path d="M.319 0v.138H0V.25l.265.417h.196V.263h.086V.138H.461V0H.319m0 .541L.139.263h.18v.278z"/></symbol><symbol id="aP"><path d="M.097 0l.239.542H0v.125h.501V.568L.253 0H.097z"/></symbol><use xlink:href="#af" transform="matrix(10.9999 0 0 -10.9999 141.244 432.413)" fill="#fff"/><use xlink:href="#aN" transform="matrix(10.9999 0 0 -10.9999 148.01 433.92)" fill="#fff"/><use xlink:href="#af" transform="matrix(10.9999 0 0 -10.9999 150.66 432.413)" fill="#fff"/><use xlink:href="#ag" transform="matrix(10.9999 0 0 -10.9999 179.733 459.747)" fill="#fff"/><use xlink:href="#aN" transform="matrix(10.9999 0 0 -10.9999 184.65 461.254)" fill="#fff"/><use xlink:href="#aO" transform="matrix(10.9999 0 0 -10.9999 187.224 459.747)" fill="#fff"/><use xlink:href="#aO" transform="matrix(10.9999 0 0 -10.9999 331.477 331.081)" fill="#fff"/><use xlink:href="#aN" transform="matrix(10.9999 0 0 -10.9999 338.286 332.588)" fill="#fff"/><use xlink:href="#ah" transform="matrix(10.9999 0 0 -10.9999 340.97 331.213)" fill="#fff"/><use xlink:href="#aP" transform="matrix(10.9999 0 0 -10.9999 294.12 244.413)" fill="#fff"/><use xlink:href="#aN" transform="matrix(10.9999 0 0 -10.9999 300.369 245.92)" fill="#fff"/><use xlink:href="#af" transform="matrix(10.9999 0 0 -10.9999 303.02 244.413)" fill="#fff"/><use xlink:href="#aO" transform="matrix(10.9999 0 0 -10.9999 439.177 357.074)" fill="#fff"/><use xlink:href="#aN" transform="matrix(10.9999 0 0 -10.9999 445.986 358.581)" fill="#fff"/><use xlink:href="#af" transform="matrix(10.9999 0 0 -10.9999 448.636 357.074)" fill="#fff"/><use xlink:href="#af" transform="matrix(10.9999 0 0 -10.9999 477.874 407.069)" fill="#fff"/><use xlink:href="#aN" transform="matrix(10.9999 0 0 -10.9999 484.64 408.576)" fill="#fff"/><use xlink:href="#ah" transform="matrix(10.9999 0 0 -10.9999 487.323 407.2)" fill="#fff"/></g></svg>