<svg xmlns="http://www.w3.org/2000/svg" xmlns:xlink="http://www.w3.org/1999/xlink" width="793.701" height="1122.52" viewBox="0 0 595.276 841.89"><symbol id="a"><path d="M.362 0l-.11.163L.141 0H0l.171.248L.01.483h.142l.1-.149.099.149h.142L.331.248.504 0H.362z"/></symbol><symbol id="b"><path d="M.076.535a.076.076 0 100 .151C.097.686.116.679.13.664A.07.07 0 00.152.611.073.073 0 00.13.557.073.073 0 00.076.535M.013 0v.483H.14V0H.013z"/></symbol><use xlink:href="#a" transform="matrix(6 0 0 -6 49.5 823.13)" fill="#231f20"/><use xlink:href="#b" transform="matrix(6 0 0 -6 52.824 823.13)" fill="#231f20"/><use xlink:href="#b" transform="matrix(6 0 0 -6 54.342 823.13)" fill="#231f20"/><use xlink:href="#c" transform="matrix(6 0 0 -6 55.56 823.13)" fill="#231f20"/><path d="M0 841.89h595.275V0H0z" fill="#48709c"/></svg>