<svg xmlns="http://www.w3.org/2000/svg" xmlns:xlink="http://www.w3.org/1999/xlink" width="793.701" height="1122.52" viewBox="0 0 595.276 841.89"><clipPath id="a"><path transform="matrix(1 0 0 -1 0 841.89)" d="M0 0h595.276v841.89H0z"/></clipPath><g clip-path="url(#a)"><symbol id="b"><path d="M.021 0A2.748 2.748 0 000 .214c0 .01.003.018.01.025A.034.034 0 00.036.25C.046.25.054.246.061.239A.032.032 0 00.072.214L.071.2A1.105 1.105 0 00.065.14L.061.102A5.163 5.163 0 00.051 0h-.03M.15 0a2.748 2.748 0 00-.021.214c0 .01.003.018.01.025A.036.036 0 00.165.25C.175.25.183.246.19.239A.032.032 0 00.201.214L.2.2A1.106 1.106 0 00.194.14L.19.102A5.163 5.163 0 00.18 0H.15z"/></symbol><symbol id="c"><path d="M0 0v.667h.25C.282.667.31.662.335.651A.176.176 0 00.437.546.205.205 0 00.398.335.192.192 0 00.25.277H.057V0H0m.244.329a.138.138 0 01.147.143.145.145 0 01-.041.103.158.158 0 01-.106.04H.057V.329h.187z"/></symbol><symbol id="d"><path d="M0 0v.483h.052V.4a.28.28 0 00.071.067.168.168 0 00.092.026V.436a926.39 926.39 0 01-.026.002.183.183 0 01-.137-.086V0H0z"/></symbol><symbol id="e"><path d="M.04.559a.04.04 0 00-.04.04c0 .011.004.02.012.028A.04.04 0 00.04.638C.051.638.06.634.068.627A.036.036 0 00.08.599a.04.04 0 00-.04-.04M.014 0v.483h.052V0H.014z"/></symbol><symbol id="f"><path d="M.326 0v.327a.16.16 0 01-.009.058.087.087 0 01-.061.057.171.171 0 01-.093-.001.254.254 0 01-.044-.018.208.208 0 01-.067-.058V0H0v.483h.052V.41a.266.266 0 00.122.077.176.176 0 00.052.008c.05 0 .087-.013.113-.038C.365.432.378.393.378.338V0H.326z"/></symbol><symbol id="g"><path d="M.235 0a.232.232 0 00-.171.074.253.253 0 00-.064.18.3.3 0 00.016.099c.011.03.027.057.048.08a.232.232 0 00.171.074.2.2 0 00.171-.082L.37.393a.15.15 0 01-.059.051.165.165 0 01-.073.016A.176.176 0 01.104.4.198.198 0 01.068.335a.27.27 0 010-.163.212.212 0 01.036-.065.172.172 0 01.134-.06c.027 0 .051.005.073.016A.16.16 0 01.37.115L.406.083A.231.231 0 00.337.022.207.207 0 00.235 0z"/></symbol><symbol id="h"><path d="M.22.172a.195.195 0 00-.095.024.21.21 0 00-.073.066V0H0v.667h.052V.591a.211.211 0 00.256.07.18.18 0 00.068-.05.221.221 0 00.044-.08.324.324 0 00.016-.105A.324.324 0 00.42.321a.221.221 0 00-.044-.08A.19.19 0 00.308.19.212.212 0 00.22.172M.211.219a.162.162 0 01.158.125.294.294 0 010 .163.192.192 0 01-.033.066.147.147 0 01-.054.043.153.153 0 01-.071.016.184.184 0 01-.095-.026.175.175 0 01-.064-.06V.307A.15.15 0 01.079.274.25.25 0 01.162.226.174.174 0 01.211.219z"/></symbol><symbol id="i"><path d="M.333.012v.057A.212.212 0 00.107.011a.165.165 0 00-.054.03.165.165 0 00-.039.051A.161.161 0 000 .161C0 .187.005.21.014.23c.01.02.023.037.039.05a.156.156 0 00.054.031c.02.007.04.01.062.01A.21.21 0 00.333.252V.35a.095.095 0 01-.038.082.147.147 0 01-.092.029.194.194 0 01-.082-.017A.202.202 0 01.052.39L.023.426a.258.258 0 00.082.061.25.25 0 00.104.02.254.254 0 00.069-.009A.158.158 0 00.334.47.124.124 0 00.371.421.157.157 0 00.385.352v-.34H.333M.187.041a.21.21 0 01.082.016.167.167 0 01.064.05v.106a.167.167 0 01-.064.05.198.198 0 01-.082.017.134.134 0 01-.096-.034A.113.113 0 01.055.16c0-.034.012-.062.036-.085A.134.134 0 01.187.041z"/></symbol><symbol id="j"><path d="M.186 0a.287.287 0 00-.105.018A.217.217 0 000 .076l.031.039A.199.199 0 01.187.044c.04 0 .072.01.095.028a.087.087 0 01.034.07.061.061 0 01-.023.051.17.17 0 01-.056.029.84.84 0 01-.074.02.468.468 0 00-.073.023.169.169 0 00-.057.04.1.1 0 00-.022.068c0 .019.004.036.011.052.008.017.02.031.034.043A.16.16 0 00.11.496a.224.224 0 00.073.011.234.234 0 00.105-.021.225.225 0 00.068-.05L.327.399a.143.143 0 01-.059.046.192.192 0 01-.085.018.141.141 0 01-.089-.025.077.077 0 01-.032-.063c0-.02.007-.035.022-.046A.216.216 0 01.141.302L.214.283A.358.358 0 00.288.258.157.157 0 00.344.215.109.109 0 00.367.142.13.13 0 00.355.087.125.125 0 00.321.041a.16.16 0 00-.056-.03A.257.257 0 00.186 0z"/></symbol><symbol id="l"><path d="M.391 0L.204.276H.057V0H0v.667h.249A.224.224 0 00.393.615.166.166 0 00.436.554.2.2 0 00.452.472.209.209 0 00.437.391.187.187 0 00.267.28L.46 0H.391M.244.328a.138.138 0 01.137.086.147.147 0 01.011.058.145.145 0 01-.042.103.158.158 0 01-.106.04H.057V.328h.187z"/></symbol><symbol id="m"><path d="M.242 0a.226.226 0 00-.174.071.246.246 0 00-.05.08.286.286 0 00.048.282.23.23 0 00.167.074.214.214 0 00.169-.076.243.243 0 00.044-.082.314.314 0 00.015-.098V.237H.057A.21.21 0 01.11.101.184.184 0 01.246.045a.218.218 0 01.158.067L.431.078A.246.246 0 00.242 0m.166.278c0 .02-.004.042-.011.063A.174.174 0 01.31.445a.168.168 0 01-.078.017.158.158 0 01-.129-.061.192.192 0 01-.046-.123h.351z"/></symbol><symbol id="n"><path d="M.326.012v.071A.286.286 0 00.25.025.198.198 0 00.152 0C.102 0 .064.012.038.036.013.061 0 .1 0 .155v.34h.052V.167C.052.144.055.124.06.108A.099.099 0 01.084.071.103.103 0 01.121.052a.217.217 0 01.094.001.225.225 0 01.111.074v.368h.052V.012H.326z"/></symbol><symbol id="o"><path d="M0 0v.667h.052V0H0z"/></symbol><symbol id="p"><path d="M.175 0C.143 0 .119.009.103.027A.12.12 0 00.08.105v.344H0v.046h.08v.132h.053V.495h.098V.449H.133V.113c0-.02.004-.035.012-.048C.153.053.165.047.183.047c.011 0 .022.002.031.007A.07.07 0 01.237.07l.02-.04A.102.102 0 00.224.008.128.128 0 00.175 0z"/></symbol><symbol id="q"><path d="M.384.012v.077a.217.217 0 00-.07-.064.223.223 0 00-.186-.008.2.2 0 00-.069.051.243.243 0 00-.044.08A.344.344 0 000 .253a.34.34 0 00.015.104c.01.031.025.058.044.08.02.023.042.04.069.052A.212.212 0 00.311.483.21.21 0 00.384.417v.262h.053V.012H.384M.225.047a.183.183 0 01.094.026.196.196 0 01.065.06v.239a.165.165 0 01-.028.034.183.183 0 01-.203.038A.16.16 0 01.1.4.206.206 0 01.067.335a.294.294 0 010-.164A.221.221 0 01.1.106.16.16 0 01.153.062.168.168 0 01.225.047z"/></symbol><symbol id="r"><path d="M.232 0a.225.225 0 00-.169.074.264.264 0 00-.063.18.3.3 0 00.016.099c.011.03.027.057.047.08s.044.041.073.054c.029.013.06.02.096.02a.227.227 0 00.097-.02.203.203 0 00.073-.054.283.283 0 00.063-.179.283.283 0 00-.063-.18A.22.22 0 00.232 0m0 .047A.16.16 0 01.363.11a.251.251 0 010 .287.16.16 0 01-.131.063.161.161 0 01-.131-.063.206.206 0 01-.034-.066.269.269 0 010-.155A.221.221 0 01.101.11.161.161 0 01.232.047z"/></symbol><use xlink:href="#b" transform="matrix(6 0 0 -6 467.119 820.568)" fill="#231f20"/><use xlink:href="#c" transform="matrix(6 0 0 -6 469.17 823.13)" fill="#231f20"/><use xlink:href="#d" transform="matrix(6 0 0 -6 472.585 823.13)" fill="#231f20"/><use xlink:href="#e" transform="matrix(6 0 0 -6 474.403 823.13)" fill="#231f20"/><use xlink:href="#f" transform="matrix(6 0 0 -6 475.77 823.13)" fill="#231f20"/><use xlink:href="#g" transform="matrix(6 0 0 -6 478.843 823.202)" fill="#231f20"/><use xlink:href="#e" transform="matrix(6 0 0 -6 481.89 823.13)" fill="#231f20"/><use xlink:href="#h" transform="matrix(6 0 0 -6 483.259 824.234)" fill="#231f20"/><use xlink:href="#i" transform="matrix(6 0 0 -6 486.505 823.202)" fill="#231f20"/><use xlink:href="#e" transform="matrix(6 0 0 -6 489.703 823.13)" fill="#231f20"/><use xlink:href="#j" transform="matrix(6 0 0 -6 490.819 823.202)" fill="#231f20"/><use xlink:href="#k" transform="matrix(6 0 0 -6 493.339 823.13)" fill="#231f20"/><use xlink:href="#l" transform="matrix(6 0 0 -6 495.39 823.13)" fill="#231f20"/><use xlink:href="#m" transform="matrix(6 0 0 -6 498.594 823.202)" fill="#231f20"/><use xlink:href="#j" transform="matrix(6 0 0 -6 501.912 823.202)" fill="#231f20"/><use xlink:href="#n" transform="matrix(6 0 0 -6 504.918 823.202)" fill="#231f20"/><use xlink:href="#o" transform="matrix(6 0 0 -6 508.158 823.13)" fill="#231f20"/><use xlink:href="#p" transform="matrix(6 0 0 -6 509.022 823.202)" fill="#231f20"/><use xlink:href="#i" transform="matrix(6 0 0 -6 510.936 823.202)" fill="#231f20"/><use xlink:href="#q" transform="matrix(6 0 0 -6 514.05 823.202)" fill="#231f20"/><use xlink:href="#r" transform="matrix(6 0 0 -6 517.476 823.202)" fill="#231f20"/><use xlink:href="#j" transform="matrix(6 0 0 -6 520.818 823.202)" fill="#231f20"/></g><symbol id="s"><path d="M.362 0l-.11.163L.141 0H0l.171.248L.01.483h.142l.1-.149.099.149h.142L.331.248.504 0H.362z"/></symbol><symbol id="t"><path d="M0 0v.667h.127V0H0z"/></symbol><symbol id="u"><path d="M.194 0L0 .483h.136L.262.147l.126.336h.137L.331 0H.194z"/></symbol><symbol id="v"><path d="M.076.535a.076.076 0 100 .151C.097.686.116.679.13.664A.07.07 0 00.152.611.073.073 0 00.13.557.073.073 0 00.076.535M.013 0v.483H.14V0H.013z"/></symbol><use xlink:href="#s" transform="matrix(6 0 0 -6 535.12 823.13)" fill="#231f20"/><use xlink:href="#t" transform="matrix(6 0 0 -6 538.522 823.13)" fill="#231f20"/><use xlink:href="#u" transform="matrix(6 0 0 -6 539.626 823.13)" fill="#231f20"/><use xlink:href="#v" transform="matrix(6 0 0 -6 543.04 823.13)" fill="#231f20"/><use xlink:href="#v" transform="matrix(6 0 0 -6 544.558 823.13)" fill="#231f20"/><path d="M0 841.89h595.275V0H0z" fill="#48709c"/><symbol id="w"><path d="M.362 0c.18 0 .269.106.308.195l-.174.08A.143.143 0 00.362.178C.27.178.205.252.205.345c0 .093.065.167.157.167A.143.143 0 00.496.415L.67.496A.313.313 0 01.362.69C.158.69 0 .551 0 .345 0 .14.158 0 .362 0z"/></symbol><symbol id="x"><path d="M.527 0h.219L.5.667H.246L0 0h.219l.026.086h.256L.527 0M.373.489L.449.254H.297l.076.235z"/></symbol><symbol id="y"><path d="M0 0h.202v.214h.154c.156 0 .24.1.24.224 0 .125-.084.229-.24.229H0V0m.391.44C.391.405.364.382.33.382H.202v.117H.33C.364.499.391.476.391.44z"/></symbol><symbol id="z"><path d="M.157.723l.155.144H.157L.037.723h.12M0 0h.202v.667H0V0z"/></symbol><symbol id="A"><path d="M.179 0h.202v.491h.178v.176H0V.491h.179V0z"/></symbol><symbol id="B"><path d="M0 .286C0 .121.096 0 .321 0s.32.121.32.287v.392H.436V.293C.436.229.403.178.321.178.238.178.205.229.205.293v.386H0V.286z"/></symbol><symbol id="C"><path d="M0 0h.455v.176H.202v.491H0V0z"/></symbol><symbol id="D"><path d="M0 .345C0 .14.159 0 .365 0S.73.14.73.345C.73.55.571.69.365.69S0 .55 0 .345m.525 0C.525.252.462.178.365.178s-.16.074-.16.167c0 .093.063.167.16.167s.16-.074.16-.167z"/></symbol><symbol id="E"><path d="M0 .106A.44.44 0 01.31 0c.179 0 .288.085.288.232 0 .154-.163.186-.273.205C.254.449.227.458.227.484c0 .017.011.035.061.035A.332.332 0 00.474.453l.108.143a.44.44 0 01-.283.093C.116.689.022.586.022.473.022.306.19.28.3.26.366.248.394.235.394.209.394.183.358.17.32.17a.31.31 0 00-.215.086L0 .106z"/></symbol><use xlink:href="#w" transform="matrix(50.4538 0 0 -50.4538 162.022 441.866)" fill="#fff"/><use xlink:href="#x" transform="matrix(50.4538 0 0 -50.4538 194.868 441.26)" fill="#fff"/><use xlink:href="#y" transform="matrix(50.4538 0 0 -50.4538 234.322 441.26)" fill="#fff"/><use xlink:href="#z" transform="matrix(50.4538 0 0 -50.4538 267.723 441.26)" fill="#fff"/><use xlink:href="#A" transform="matrix(50.4538 0 0 -50.4538 281.547 441.26)" fill="#fff"/><use xlink:href="#B" transform="matrix(50.4538 0 0 -50.4538 313.384 441.866)" fill="#fff"/><use xlink:href="#C" transform="matrix(50.4538 0 0 -50.4538 351.173 441.26)" fill="#fff"/><use xlink:href="#D" transform="matrix(50.4538 0 0 -50.4538 375.391 441.866)" fill="#fff"/><use xlink:href="#E" transform="matrix(50.4538 0 0 -50.4538 413.282 441.866)" fill="#fff"/></svg>