<svg xmlns="http://www.w3.org/2000/svg" xmlns:xlink="http://www.w3.org/1999/xlink" width="793.701" height="1122.52" viewBox="0 0 595.276 841.89"><clipPath id="a"><path transform="matrix(1 0 0 -1 0 841.89)" d="M0 0h595.276v841.89H0z"/></clipPath><g clip-path="url(#a)"><symbol id="b"><path d="M.338 0a.33.33 0 00-.24.095.33.33 0 00-.072.109A.371.371 0 000 .345c0 .051.009.098.026.14a.317.317 0 00.179.18.352.352 0 00.273-.007.327.327 0 00.103-.086L.533.541a.228.228 0 01-.084.07.234.234 0 01-.111.027.275.275 0 01-.257-.174A.326.326 0 01.06.345.298.298 0 01.14.134.278.278 0 01.228.073a.286.286 0 01.11-.021.24.24 0 01.195.097l.048-.03A.349.349 0 00.477.032.287.287 0 00.338 0z"/></symbol><symbol id="c"><path d="M.333.012v.057A.212.212 0 00.107.011a.165.165 0 00-.054.03.165.165 0 00-.039.051A.161.161 0 000 .161C0 .187.005.21.014.23c.01.02.023.037.039.05a.156.156 0 00.054.031c.02.007.04.01.062.01A.21.21 0 00.333.252V.35a.095.095 0 01-.038.082.147.147 0 01-.092.029.194.194 0 01-.082-.017A.202.202 0 01.052.39L.023.426a.258.258 0 00.082.061.25.25 0 00.104.02.254.254 0 00.069-.009A.158.158 0 00.334.47.124.124 0 00.371.421.157.157 0 00.385.352v-.34H.333M.187.041a.21.21 0 01.082.016.167.167 0 01.064.05v.106a.167.167 0 01-.064.05.198.198 0 01-.082.017.134.134 0 01-.096-.034A.113.113 0 01.055.16c0-.034.012-.062.036-.085A.134.134 0 01.187.041z"/></symbol><symbol id="d"><path d="M.22.172a.195.195 0 00-.095.024.21.21 0 00-.073.066V0H0v.667h.052V.591a.211.211 0 00.256.07.18.18 0 00.068-.05.221.221 0 00.044-.08.324.324 0 00.016-.105A.324.324 0 00.42.321a.221.221 0 00-.044-.08A.19.19 0 00.308.19.212.212 0 00.22.172M.211.219a.162.162 0 01.158.125.294.294 0 010 .163.192.192 0 01-.033.066.147.147 0 01-.054.043.153.153 0 01-.071.016.184.184 0 01-.095-.026.175.175 0 01-.064-.06V.307A.15.15 0 01.079.274.25.25 0 01.162.226.174.174 0 01.211.219z"/></symbol><symbol id="e"><path d="M.044.556H0L.154.7h.062L.044.556M.028 0v.483H.08V0H.028z"/></symbol><symbol id="f"><path d="M.175 0C.143 0 .119.009.103.027A.12.12 0 00.08.105v.344H0v.046h.08v.132h.053V.495h.098V.449H.133V.113c0-.02.004-.035.012-.048C.153.053.165.047.183.047c.011 0 .022.002.031.007A.07.07 0 01.237.07l.02-.04A.102.102 0 00.224.008.128.128 0 00.175 0z"/></symbol><symbol id="g"><path d="M.326.012v.071A.286.286 0 00.25.025.198.198 0 00.152 0C.102 0 .064.012.038.036.013.061 0 .1 0 .155v.34h.052V.167C.052.144.055.124.06.108A.099.099 0 01.084.071.103.103 0 01.121.052a.217.217 0 01.094.001.225.225 0 01.111.074v.368h.052V.012H.326z"/></symbol><symbol id="h"><path d="M0 0v.667h.052V0H0z"/></symbol><symbol id="i"><path d="M.232 0a.225.225 0 00-.169.074.264.264 0 00-.063.18.3.3 0 00.016.099c.011.03.027.057.047.08s.044.041.073.054c.029.013.06.02.096.02a.227.227 0 00.097-.02.203.203 0 00.073-.054.283.283 0 00.063-.179.283.283 0 00-.063-.18A.22.22 0 00.232 0m0 .047A.16.16 0 01.363.11a.251.251 0 010 .287.16.16 0 01-.131.063.161.161 0 01-.131-.063.206.206 0 01-.034-.066.269.269 0 010-.155A.221.221 0 01.101.11.161.161 0 01.232.047z"/></symbol><symbol id="k"><path d="M.142 0v.589L.035.475 0 .512l.147.155h.052V0H.142z"/></symbol><use xlink:href="#b" transform="matrix(6 0 0 -6 498.84 823.202)" fill="#231f20"/><use xlink:href="#c" transform="matrix(6 0 0 -6 502.854 823.202)" fill="#231f20"/><use xlink:href="#d" transform="matrix(6 0 0 -6 506.136 824.234)" fill="#231f20"/><use xlink:href="#e" transform="matrix(6 0 0 -6 509.37 823.13)" fill="#231f20"/><use xlink:href="#f" transform="matrix(6 0 0 -6 510.402 823.202)" fill="#231f20"/><use xlink:href="#g" transform="matrix(6 0 0 -6 512.472 823.202)" fill="#231f20"/><use xlink:href="#h" transform="matrix(6 0 0 -6 515.712 823.13)" fill="#231f20"/><use xlink:href="#i" transform="matrix(6 0 0 -6 516.828 823.202)" fill="#231f20"/><use xlink:href="#j" transform="matrix(6 0 0 -6 519.936 823.13)" fill="#231f20"/><use xlink:href="#k" transform="matrix(6 0 0 -6 521.646 823.13)" fill="#231f20"/></g><symbol id="l"><path d="M.097 0l.239.542H0v.125h.501V.568L.253 0H.097z"/></symbol><use xlink:href="#l" transform="matrix(6 0 0 -6 542.65 823.13)" fill="#231f20"/><clipPath id="m"><path transform="matrix(1 0 0 -1 0 841.89)" d="M0 0h595.276v841.89H0z"/></clipPath><g clip-path="url(#m)"><filter id="n"><feBlend mode="multiply" in2="BackgroundImage" in="SourceGraphic"/></filter><g filter="url(#n)"><clipPath id="o"><path transform="matrix(1 0 0 -1 0 841.89)" d="M-1-10h607.716v861.89H-1z"/></clipPath><g clip-path="url(#o)"><path d="M0 850.89h605.716V-9H0z" fill="#e6e7e8"/></g></g><clipPath id="p"><path transform="matrix(1 0 0 -1 0 841.89)" d="M13.875 1.234h581.4V841.89h-581.4z"/></clipPath><path stroke-linecap="round" stroke-dasharray="0,2.5" stroke-linejoin="round" fill="none" stroke="#231f20" d="M63.193 49.8h481.975"/><symbol id="q"><path d="M0 0v.667h.423V.615H.057V.368h.359V.316H.057V0H0z"/></symbol><symbol id="r"><path d="M0 0v.667h.057V0H0z"/></symbol><symbol id="s"><path d="M.338 0a.33.33 0 00-.312.205A.371.371 0 000 .346a.33.33 0 00.338.345.314.314 0 00.251-.114L.546.546a.25.25 0 01-.09.067.268.268 0 01-.118.026.275.275 0 01-.257-.174A.326.326 0 01.06.346.295.295 0 01.14.134.278.278 0 01.228.073a.286.286 0 01.306.06v.16H.282v.051h.309V.111A.333.333 0 00.338 0z"/></symbol><symbol id="t"><path d="M.26 0a.311.311 0 00-.113.019.228.228 0 00-.081.053.231.231 0 00-.05.084A.366.366 0 000 .268v.411h.058v-.41c0-.068.017-.121.051-.16C.144.071.194.052.26.052c.067 0 .117.019.151.057a.234.234 0 01.051.16v.41H.52V.268A.279.279 0 00.454.072C.411.024.346 0 .26 0z"/></symbol><symbol id="u"><path d="M.391 0L.204.276H.057V0H0v.667h.249A.224.224 0 00.393.615.166.166 0 00.436.554.2.2 0 00.452.472.209.209 0 00.437.391.187.187 0 00.267.28L.46 0H.391M.244.328a.138.138 0 01.137.086.147.147 0 01.011.058.145.145 0 01-.042.103.158.158 0 01-.106.04H.057V.328h.187z"/></symbol><symbol id="v"><path d="M.551 0L.485.164H.132L.066 0H0l.273.667h.071L.617 0H.551M.308.606L.151.216h.315l-.158.39z"/></symbol><symbol id="x"><path d="M.142 0v.589L.035.475 0 .512l.147.155h.052V0H.142z"/></symbol><symbol id="y"><path d="M.044 0a.042.042 0 00-.031.013A.046.046 0 000 .045c0 .011.004.021.013.03a.042.042 0 00.031.013.042.042 0 00.031-.013.04.04 0 00.014-.03.044.044 0 00-.014-.032A.042.042 0 00.044 0z"/></symbol><symbol id="z"><path d="M.227 0a.279.279 0 00-.14.033A.244.244 0 000 .111l.039.034A.229.229 0 01.114.078.232.232 0 01.226.052c.052 0 .093.013.123.038s.045.06.045.104A.123.123 0 01.38.255a.115.115 0 01-.038.042.152.152 0 01-.057.024.296.296 0 01-.07.008H.178L.153.328v.054A.223.223 0 01.178.381h.037c.022 0 .043.002.063.007a.18.18 0 01.054.023.111.111 0 01.052.097.114.114 0 01-.048.095.146.146 0 01-.051.025.205.205 0 01-.061.009.217.217 0 01-.1-.022.263.263 0 01-.079-.063L.009.588a.27.27 0 00.218.101.277.277 0 00.082-.012.191.191 0 00.069-.034.16.16 0 00.064-.13A.15.15 0 00.391.4.185.185 0 00.299.357.179.179 0 00.397.313.17.17 0 00.436.262.149.149 0 00.452.191.19.19 0 00.437.115.172.172 0 00.393.054a.222.222 0 00-.071-.04A.3.3 0 00.227 0z"/></symbol><use xlink:href="#q" transform="matrix(10 0 0 -10 62.946 64.426)" fill="#231f20"/><use xlink:href="#r" transform="matrix(10 0 0 -10 69.366 64.426)" fill="#231f20"/><use xlink:href="#s" transform="matrix(10 0 0 -10 72.346 64.556)" fill="#231f20"/><use xlink:href="#t" transform="matrix(10 0 0 -10 80.706 64.546)" fill="#231f20"/><use xlink:href="#u" transform="matrix(10 0 0 -10 88.566 64.426)" fill="#231f20"/><use xlink:href="#v" transform="matrix(10 0 0 -10 94.826 64.426)" fill="#231f20"/><use xlink:href="#w" transform="matrix(10 0 0 -10 102.146 64.426)" fill="#231f20"/><use xlink:href="#x" transform="matrix(10 0 0 -10 105.996 64.426)" fill="#231f20"/><use xlink:href="#y" transform="matrix(10 0 0 -10 109.466 64.526)" fill="#231f20"/><use xlink:href="#z" transform="matrix(10 0 0 -10 111.326 64.546)" fill="#231f20"/><symbol id="A"><path d="M.355 0a.387.387 0 00-.14.025.344.344 0 00-.113.07.35.35 0 00-.075.109A.36.36 0 000 .345a.334.334 0 00.215.32.387.387 0 00.239.011.301.301 0 00.18-.149L.512.467a.183.183 0 01-.063.069.166.166 0 01-.094.028.208.208 0 01-.15-.063.21.21 0 01-.059-.156.21.21 0 01.125-.203.22.22 0 01.084-.016.17.17 0 01.094.027.18.18 0 01.063.07L.634.164A.443.443 0 00.591.103.297.297 0 00.355 0z"/></symbol><symbol id="B"><path d="M0 0v.483h.127V.417a.23.23 0 00.067.055.179.179 0 00.087.023V.371a.17.17 0 01-.133-.03.093.093 0 01-.021-.022V0H0z"/></symbol><symbol id="C"><path d="M.258 0a.291.291 0 00-.103.018.247.247 0 00-.082.051A.242.242 0 000 .254a.249.249 0 00.149.233.25.25 0 00.199 0A.218.218 0 00.425.433.239.239 0 00.474.349.311.311 0 00.492.241V.213H.133A.129.129 0 01.174.134.14.14 0 01.272.101a.202.202 0 01.129.048L.457.067a.236.236 0 00-.089-.05A.358.358 0 00.258 0m.111.299a.126.126 0 01-.008.036.1.1 0 01-.021.034.102.102 0 01-.037.026.117.117 0 01-.053.011A.107.107 0 01.163.37.133.133 0 01.131.299h.238z"/></symbol><symbol id="D"><path d="M.216 0a.369.369 0 00-.121.02A.27.27 0 000 .075l.055.089A.222.222 0 01.087.14.417.417 0 01.129.118a.23.23 0 01.093-.02C.25.098.27.103.283.112c.013.01.02.023.02.038 0 .013-.007.023-.022.03a.218.218 0 01-.053.016L.159.211A.291.291 0 00.09.235a.16.16 0 00-.053.044.124.124 0 00-.021.076.141.141 0 00.051.106.196.196 0 00.062.033.297.297 0 00.195-.006.298.298 0 00.085-.047L.358.354a.177.177 0 01-.06.039.2.2 0 01-.083.017.1.1 0 01-.056-.014C.146.386.139.376.139.362.139.35.146.341.16.335A.3.3 0 01.213.319L.282.304A.266.266 0 00.351.279.153.153 0 00.404.233.13.13 0 00.425.155.14.14 0 00.411.093.143.143 0 00.37.044.204.204 0 00.305.012.303.303 0 00.216 0z"/></symbol><symbol id="E"><path d="M.256 0a.286.286 0 00-.103.018.24.24 0 00-.134.133A.272.272 0 000 .254a.262.262 0 00.072.182c.023.023.05.04.081.052a.272.272 0 00.103.019A.224.224 0 00.447.42L.364.342a.115.115 0 01-.102.052.125.125 0 01-.095-.039.14.14 0 01-.036-.101c0-.042.012-.076.036-.102A.125.125 0 01.262.113a.122.122 0 01.102.052L.447.088A.217.217 0 00.376.027.235.235 0 00.256 0z"/></symbol><symbol id="F"><path d="M.076.535a.076.076 0 100 .151C.097.686.116.679.13.664A.07.07 0 00.152.611.073.073 0 00.13.557.073.073 0 00.076.535M.013 0v.483H.14V0H.013z"/></symbol><symbol id="G"><path d="M.599 0v.305A.085.085 0 01.582.36C.572.375.553.382.527.382a.103.103 0 01-.06-.018.157.157 0 01-.04-.038V0H.299v.305A.085.085 0 01.282.36C.272.375.253.382.227.382a.102.102 0 01-.06-.019.157.157 0 01-.04-.038V0H0v.483h.127V.42a.116.116 0 00.022.024c.01.009.023.017.037.024a.202.202 0 00.099.027.15.15 0 00.087-.023.124.124 0 00.047-.065.2.2 0 00.112.08.183.183 0 00.054.008C.63.495.665.483.689.459.714.436.727.399.727.349V0H.599z"/></symbol><symbol id="H"><path d="M.326 0v.292c0 .034-.008.057-.024.07a.098.098 0 01-.065.02.12.12 0 01-.066-.018.149.149 0 01-.044-.039V0H0v.483h.127V.42a.216.216 0 00.066.051.208.208 0 00.103.024C.349.495.389.481.414.453A.156.156 0 00.453.341V0H.326z"/></symbol><symbol id="I"><path d="M.217 0C.172 0 .138.011.115.033.092.056.08.089.08.132v.252H0v.111h.08v.132h.128V.495h.098V.384H.208V.166c0-.015.004-.028.011-.038A.04.04 0 01.252.113c.01 0 .018.001.026.004a.054.054 0 01.018.01L.323.031a.112.112 0 00-.04-.022A.205.205 0 00.217 0z"/></symbol><symbol id="J"><path d="M.255 0a.271.271 0 00-.107.02.255.255 0 00-.08.055A.25.25 0 000 .254C0 .288.006.32.017.351a.238.238 0 00.131.135.26.26 0 00.107.021.26.26 0 00.188-.076.264.264 0 00.05-.275A.236.236 0 00.362.02.271.271 0 00.255 0m0 .113c.02 0 .038.004.053.011A.128.128 0 01.37.199a.167.167 0 01-.024.153.106.106 0 01-.038.03.113.113 0 01-.053.012A.118.118 0 01.14.307a.186.186 0 010-.108.128.128 0 01.062-.075.121.121 0 01.053-.011z"/></symbol><symbol id="L"><path d="M.363.012v.062A.202.202 0 00.296.019.18.18 0 00.214 0a.197.197 0 00-.153.066.245.245 0 00-.045.079A.34.34 0 000 .253c0 .04.005.075.016.106.01.031.025.058.044.08a.207.207 0 00.154.068.179.179 0 00.081-.019.184.184 0 00.068-.055v.246h.128V.012H.363m-.11.101c.021 0 .042.005.063.015.02.01.036.024.047.04v.171a.115.115 0 01-.047.039.136.136 0 01-.063.016.111.111 0 01-.088-.039.15.15 0 01-.034-.102c0-.02.003-.04.009-.057A.14.14 0 01.165.151.113.113 0 01.253.113z"/></symbol><symbol id="M"><path d="M.276.172a.183.183 0 00-.149.074V0H0v.667h.127V.606a.183.183 0 00.149.073.21.21 0 00.085-.017.185.185 0 00.068-.049.222.222 0 00.045-.08A.331.331 0 00.49.426.34.34 0 00.474.318a.234.234 0 00-.045-.08.185.185 0 00-.068-.049.21.21 0 00-.085-.017m-.04.113a.11.11 0 01.088.039.15.15 0 01.034.102.146.146 0 01-.034.101.11.11 0 01-.088.039A.134.134 0 01.174.55.126.126 0 01.127.511V.34A.126.126 0 01.174.301.134.134 0 01.236.285z"/></symbol><symbol id="N"><path d="M.321.012v.05A.174.174 0 00.256.016.235.235 0 00.168 0a.186.186 0 00-.113.039.166.166 0 00-.04.05A.157.157 0 000 .16a.16.16 0 00.015.072.147.147 0 00.094.075.249.249 0 00.147-.006.148.148 0 00.065-.044v.065a.07.07 0 01-.029.059.124.124 0 01-.077.022.2.2 0 01-.141-.057L.026.431a.29.29 0 00.099.057.34.34 0 00.191.01.177.177 0 00.067-.031A.143.143 0 00.43.411.189.189 0 00.448.324V.012H.321M.219.086c.02 0 .04.003.058.01a.1.1 0 01.044.032v.06a.093.093 0 01-.044.031.152.152 0 01-.058.011.11.11 0 01-.065-.019.063.063 0 01-.026-.054c0-.023.009-.04.026-.053A.114.114 0 01.219.086z"/></symbol><symbol id="O"><path d="M0 0v.667h.312A.254.254 0 00.408.65a.193.193 0 00.07-.047.182.182 0 00.043-.068.23.23 0 00-.044-.234.212.212 0 00-.07-.047.247.247 0 00-.095-.017h-.17V0H0m.293.362c.028 0 .051.008.07.024a.082.082 0 01.028.066c0 .028-.01.05-.028.066a.104.104 0 01-.07.024H.142v-.18h.151z"/></symbol><symbol id="P"><path d="M.452.012l-.05.05A.294.294 0 00.22 0C.19 0 .16.004.134.012a.205.205 0 00-.07.036.167.167 0 00-.047.06A.202.202 0 000 .193C0 .218.004.241.011.26.019.28.03.298.043.313a.233.233 0 00.045.04.408.408 0 00.055.032.46.46 0 00-.032.073.23.23 0 00-.012.071.143.143 0 00.053.113.22.22 0 00.138.047.223.223 0 00.123-.037.13.13 0 00.052-.104.146.146 0 00-.014-.066.18.18 0 00-.037-.05.259.259 0 00-.053-.037.839.839 0 00-.06-.03 1.985 1.985 0 01.114-.14.492.492 0 01.061.129L.578.307A.672.672 0 00.485.146 46.421 46.421 0 01.614.012H.452M.238.1c.017 0 .034.003.05.009a.194.194 0 01.046.025L.291.181a3.237 3.237 0 00-.098.126.17.17 0 01-.042-.043.104.104 0 01-.016-.059c0-.016.003-.03.008-.044A.117.117 0 01.166.128.116.116 0 01.198.107.115.115 0 01.238.1M.226.526c0-.013.003-.028.008-.043A.319.319 0 01.255.436.34.34 0 01.326.48c.02.016.029.036.029.061a.052.052 0 01-.017.041.061.061 0 01-.042.015.07.07 0 01-.05-.02.07.07 0 01-.02-.051z"/></symbol><symbol id="Q"><path d="M0 0v.667h.263A.41.41 0 00.406.643a.316.316 0 00.211-.31.35.35 0 00-.026-.137.307.307 0 00-.185-.172A.41.41 0 00.263 0H0m.263.125a.203.203 0 01.154.061c.018.02.032.042.041.067a.235.235 0 01-.039.229.18.18 0 01-.066.044.236.236 0 01-.09.016H.142V.125h.121z"/></symbol><symbol id="R"><path d="M.168.186A.2.2 0 00.139.081.26.26 0 00.065 0L.01.045c.008.004.016.01.024.017a.18.18 0 01.042.05.1.1 0 01.011.027.067.067 0 00-.019-.003.067.067 0 00-.049.02A.072.072 0 000 .208c0 .022.008.04.023.056a.074.074 0 00.055.024A.084.084 0 00.14.261.11.11 0 00.168.186z"/></symbol><symbol id="S"><path d="M.015 0v.111c.068.05.125.094.17.129.045.035.081.066.108.092.027.027.047.05.058.07.011.02.017.041.017.062a.076.076 0 01-.033.065A.1.1 0 01.3.545a.132.132 0 01-.04.006A.232.232 0 01.159.53.27.27 0 01.081.474L0 .568a.287.287 0 00.118.083.392.392 0 00.139.026.318.318 0 00.099-.015.228.228 0 00.136-.109A.207.207 0 00.494.38.332.332 0 00.443.299.652.652 0 00.36.215a1.746 1.746 0 00-.115-.09h.272V0H.015z"/></symbol><symbol id="T"><path d="M.276 0a.25.25 0 00-.124.029.264.264 0 00-.086.079.376.376 0 00-.05.11.506.506 0 000 .253.36.36 0 00.05.11.244.244 0 00.21.108.242.242 0 00.209-.108.332.332 0 00.05-.11.474.474 0 000-.253.344.344 0 00-.05-.11.264.264 0 00-.086-.079A.249.249 0 00.276 0m0 .126C.3.126.32.132.336.143a.13.13 0 01.041.046c.01.02.018.043.023.07a.5.5 0 010 .172A.221.221 0 01.377.5a.13.13 0 01-.041.046.101.101 0 01-.06.017.106.106 0 01-.061-.017A.13.13 0 01.174.5.221.221 0 01.151.431a.5.5 0 010-.172.234.234 0 01.023-.07.13.13 0 01.041-.046.106.106 0 01.061-.017z"/></symbol><symbol id="U"><path d="M0 0v.108h.24V0H0z"/></symbol><symbol id="V"><path d="M.192 0v.484L.081.371 0 .456l.21.211h.124V0H.192z"/></symbol><symbol id="W"><path d="M.097 0l.239.542H0v.125h.501V.568L.253 0H.097z"/></symbol><use xlink:href="#A" transform="matrix(14 0 0 -14 63.335 94.594)" fill="#49709c"/><use xlink:href="#B" transform="matrix(14 0 0 -14 73.359 94.426)" fill="#49709c"/><use xlink:href="#C" transform="matrix(14 0 0 -14 77.965 94.594)" fill="#49709c"/><use xlink:href="#D" transform="matrix(14 0 0 -14 85.553 94.594)" fill="#49709c"/><use xlink:href="#E" transform="matrix(14 0 0 -14 92.385 94.594)" fill="#49709c"/><use xlink:href="#F" transform="matrix(14 0 0 -14 99.623 94.426)" fill="#49709c"/><use xlink:href="#G" transform="matrix(14 0 0 -14 103.347 94.426)" fill="#49709c"/><use xlink:href="#C" transform="matrix(14 0 0 -14 114.841 94.594)" fill="#49709c"/><use xlink:href="#H" transform="matrix(14 0 0 -14 123.017 94.426)" fill="#49709c"/><use xlink:href="#I" transform="matrix(14 0 0 -14 130.353 94.594)" fill="#49709c"/><use xlink:href="#J" transform="matrix(14 0 0 -14 135.421 94.594)" fill="#49709c"/><use xlink:href="#K" transform="matrix(14 0 0 -14 143.009 94.426)" fill="#49709c"/><use xlink:href="#L" transform="matrix(14 0 0 -14 147.041 94.594)" fill="#49709c"/><use xlink:href="#C" transform="matrix(14 0 0 -14 155.245 94.594)" fill="#49709c"/><use xlink:href="#K" transform="matrix(14 0 0 -14 162.539 94.426)" fill="#49709c"/><use xlink:href="#L" transform="matrix(14 0 0 -14 166.571 94.594)" fill="#49709c"/><use xlink:href="#C" transform="matrix(14 0 0 -14 174.775 94.594)" fill="#49709c"/><use xlink:href="#D" transform="matrix(14 0 0 -14 182.363 94.594)" fill="#49709c"/><use xlink:href="#M" transform="matrix(14 0 0 -14 189.629 97.002)" fill="#49709c"/><use xlink:href="#C" transform="matrix(14 0 0 -14 197.357 94.594)" fill="#49709c"/><use xlink:href="#D" transform="matrix(14 0 0 -14 204.945 94.594)" fill="#49709c"/><use xlink:href="#N" transform="matrix(14 0 0 -14 211.777 94.594)" fill="#49709c"/><use xlink:href="#D" transform="matrix(14 0 0 -14 219.225 94.594)" fill="#49709c"/><use xlink:href="#K" transform="matrix(14 0 0 -14 225.609 94.426)" fill="#49709c"/><use xlink:href="#C" transform="matrix(14 0 0 -14 229.641 94.594)" fill="#49709c"/><use xlink:href="#G" transform="matrix(14 0 0 -14 237.817 94.426)" fill="#49709c"/><use xlink:href="#K" transform="matrix(14 0 0 -14 248.863 94.426)" fill="#49709c"/><use xlink:href="#O" transform="matrix(14 0 0 -14 253.371 94.426)" fill="#49709c"/><use xlink:href="#P" transform="matrix(14 0 0 -14 261.519 94.594)" fill="#49709c"/><use xlink:href="#Q" transform="matrix(14 0 0 -14 271.151 94.426)" fill="#49709c"/><use xlink:href="#R" transform="matrix(14 0 0 -14 280.937 96.344)" fill="#49709c"/><use xlink:href="#K" transform="matrix(14 0 0 -14 283.863 94.426)" fill="#49709c"/><use xlink:href="#S" transform="matrix(14 0 0 -14 287.895 94.426)" fill="#49709c"/><use xlink:href="#T" transform="matrix(14 0 0 -14 296.323 94.594)" fill="#49709c"/><use xlink:href="#T" transform="matrix(14 0 0 -14 305.003 94.594)" fill="#49709c"/><use xlink:href="#T" transform="matrix(14 0 0 -14 313.683 94.594)" fill="#49709c"/><use xlink:href="#U" transform="matrix(14 0 0 -14 322.307 91.794)" fill="#49709c"/><use xlink:href="#S" transform="matrix(14 0 0 -14 326.535 94.426)" fill="#49709c"/><use xlink:href="#T" transform="matrix(14 0 0 -14 334.963 94.594)" fill="#49709c"/><use xlink:href="#V" transform="matrix(14 0 0 -14 343.321 94.426)" fill="#49709c"/><use xlink:href="#W" transform="matrix(14 0 0 -14 349.257 94.426)" fill="#49709c"/><symbol id="X"><path d="M0 0v.047l.155.128c.047.04.086.078.119.113.033.036.059.07.077.103a.2.2 0 01.028.098.123.123 0 01-.014.061.136.136 0 01-.084.067A.23.23 0 01.117.6.202.202 0 01.044.538L.005.574a.236.236 0 00.093.075.293.293 0 00.203.017.204.204 0 00.068-.034.167.167 0 00.049-.058.18.18 0 00.019-.085A.242.242 0 00.41.38.514.514 0 00.335.273 1.15 1.15 0 00.224.165 4.456 4.456 0 00.089.052H.44V0H0z"/></symbol><symbol id="Y"><path d="M.247 0a.204.204 0 00-.115.031.249.249 0 00-.076.082.397.397 0 00-.043.111.589.589 0 000 .242c.01.04.024.077.043.11a.24.24 0 00.076.081.2.2 0 00.115.032C.292.689.329.679.36.657A.24.24 0 00.436.576a.348.348 0 00.043-.11.54.54 0 000-.242.36.36 0 00-.043-.111A.249.249 0 00.36.031.198.198 0 00.247 0m0 .052c.035 0 .064.009.087.026a.192.192 0 01.057.069c.015.028.025.06.031.094a.56.56 0 01.001.208.318.318 0 01-.031.094.192.192 0 01-.058.068.142.142 0 01-.087.026.148.148 0 01-.089-.026A.192.192 0 01.1.543.362.362 0 01.069.449a.609.609 0 010-.208A.362.362 0 01.1.147.202.202 0 01.158.078.148.148 0 01.247.052z"/></symbol><use xlink:href="#X" transform="matrix(7 0 0 -7 89.679 494.133)" fill="#231f20"/><use xlink:href="#Y" transform="matrix(7 0 0 -7 93.767 494.217)" fill="#231f20"/><use xlink:href="#Y" transform="matrix(7 0 0 -7 98.023 494.217)" fill="#231f20"/><use xlink:href="#Y" transform="matrix(7 0 0 -7 102.279 494.217)" fill="#231f20"/><use xlink:href="#X" transform="matrix(7 0 0 -7 134.549 494.133)" fill="#231f20"/><use xlink:href="#Y" transform="matrix(7 0 0 -7 138.637 494.217)" fill="#231f20"/><use xlink:href="#Y" transform="matrix(7 0 0 -7 142.893 494.217)" fill="#231f20"/><use xlink:href="#X" transform="matrix(7 0 0 -7 147.135 494.133)" fill="#231f20"/><path stroke-width=".592" stroke-linecap="round" stroke-dasharray="0,1.974" stroke-miterlimit="10" fill="none" stroke="#bcbec0" d="M81.126 373.789h464.5M81.126 404.996h464.5"/><symbol id="Z"><path d="M.142 0v.589L.035.475 0 .512l.147.155h.052V0H.142z"/></symbol><symbol id="aa"><path d="M0 0v.047l.155.128c.047.04.086.078.119.113.033.036.059.07.077.103a.2.2 0 01.028.098.123.123 0 01-.014.061.136.136 0 01-.084.067A.23.23 0 01.117.6.202.202 0 01.044.538L.005.574a.236.236 0 00.093.075.293.293 0 00.203.017.204.204 0 00.068-.034.167.167 0 00.049-.058.18.18 0 00.019-.085A.242.242 0 00.41.38.514.514 0 00.335.273 1.15 1.15 0 00.224.165 4.456 4.456 0 00.089.052H.44V0H0z"/></symbol><symbol id="ab"><path d="M.247 0a.204.204 0 00-.115.031.249.249 0 00-.076.082.397.397 0 00-.043.111.589.589 0 000 .242c.01.04.024.077.043.11a.24.24 0 00.076.081.2.2 0 00.115.032C.292.689.329.679.36.657A.24.24 0 00.436.576a.348.348 0 00.043-.11.54.54 0 000-.242.36.36 0 00-.043-.111A.249.249 0 00.36.031.198.198 0 00.247 0m0 .052c.035 0 .064.009.087.026a.192.192 0 01.057.069c.015.028.025.06.031.094a.56.56 0 01.001.208.318.318 0 01-.031.094.192.192 0 01-.058.068.142.142 0 01-.087.026.148.148 0 01-.089-.026A.192.192 0 01.1.543.362.362 0 01.069.449a.609.609 0 010-.208A.362.362 0 01.1.147.202.202 0 01.158.078.148.148 0 01.247.052z"/></symbol><use xlink:href="#Z" transform="matrix(7 0 0 -7 64.39 407.653)" fill="#231f20"/><use xlink:href="#aa" transform="matrix(7 0 0 -7 63.661 375.81)" fill="#231f20"/><use xlink:href="#ab" transform="matrix(7 0 0 -7 63.521 438.005)" fill="#231f20"/><path stroke-width=".592" stroke-linecap="round" stroke-dasharray="0,1.974" stroke-miterlimit="10" fill="none" stroke="#bcbec0" d="M81.126 436.088h464.5"/><symbol id="ac"><path d="M0 0v.048h.24V0H0z"/></symbol><use xlink:href="#ac" transform="matrix(7 0 0 -7 63.388 466.929)" fill="#231f20"/><use xlink:href="#Z" transform="matrix(7 0 0 -7 66.49 468.455)" fill="#231f20"/><path stroke-width=".592" stroke-linecap="round" stroke-dasharray="0,1.974" stroke-miterlimit="10" fill="none" stroke="#bcbec0" d="M81.126 466.52h464.5M81.126 250.126h464.5M81.126 217.126h464.5M81.126 186.126h464.5M81.126 155.126h464.5M81.126 280.672h464.5M81.126 311.879h464.5"/><symbol id="ad"><path d="M.316 0v.182H0v.051l.296.434h.077V.234h.098V.182H.373V0H.316m0 .61L.059.234h.257V.61z"/></symbol><symbol id="ae"><path d="M.225 0a.284.284 0 00-.137.029.266.266 0 00-.088.08l.038.038A.23.23 0 01.115.076.231.231 0 01.291.064c.02.009.038.02.053.034a.16.16 0 01.048.115.17.17 0 01-.047.119.176.176 0 01-.119.044.23.23 0 01-.162-.065L.021.329v.35h.385V.627H.078V.366a.24.24 0 00.159.062.23.23 0 00.148-.054.187.187 0 00.047-.067A.222.222 0 00.45.215a.202.202 0 00-.138-.2A.251.251 0 00.225 0z"/></symbol><symbol id="af"><path d="M.089 0l.28.615H0v.052h.437v-.04L.152 0H.089z"/></symbol><symbol id="ag"><path d="M.245 0A.221.221 0 00.13.028a.23.23 0 00-.075.077.35.35 0 00-.042.11.642.642 0 00.001.256c.01.041.024.078.044.11a.222.222 0 00.197.108.214.214 0 00.18-.085L.401.562a.203.203 0 01-.058.054.162.162 0 01-.088.021.159.159 0 01-.092-.026.207.207 0 01-.061-.068.327.327 0 01-.034-.094.555.555 0 01-.009-.136.267.267 0 00.13.1c.02.007.042.011.065.011.03 0 .058-.004.084-.013A.184.184 0 00.452.305.229.229 0 00.469.213.206.206 0 00.34.018.239.239 0 00.245 0M.243.052A.168.168 0 01.37.105a.15.15 0 01.031.051.178.178 0 01-.003.127.128.128 0 01-.035.05.143.143 0 01-.053.03.208.208 0 01-.066.01A.187.187 0 01.14.341.23.23 0 01.062.259.36.36 0 01.076.188.189.189 0 01.163.071a.158.158 0 01.08-.019z"/></symbol><symbol id="ah"><path d="M.227 0a.326.326 0 00-.09.012.187.187 0 00-.12.093.16.16 0 00.034.188.202.202 0 00.053.038c.02.01.04.019.062.025a.23.23 0 00-.107.055.137.137 0 00-.048.106c0 .03.006.055.019.076.013.022.029.04.049.054a.29.29 0 00.225.031.222.222 0 00.07-.031.162.162 0 00.05-.054.146.146 0 00.019-.076.137.137 0 00-.048-.106.22.22 0 00-.05-.034.323.323 0 00-.057-.021.286.286 0 00.114-.063.176.176 0 00.037-.051.139.139 0 00.014-.063.165.165 0 00-.065-.13.228.228 0 00-.072-.036A.293.293 0 00.227 0m0 .38l.042.011a.225.225 0 01.052.023c.017.01.032.023.045.038a.092.092 0 01.019.059c0 .02-.004.038-.013.053a.11.11 0 01-.034.04.198.198 0 01-.111.033.208.208 0 01-.112-.033.113.113 0 01-.046-.093c0-.023.006-.043.019-.059A.165.165 0 01.133.414.253.253 0 01.185.391.513.513 0 01.227.38m0-.328C.249.052.27.055.29.061a.17.17 0 01.054.026.13.13 0 01.038.041.11.11 0 01.014.055.103.103 0 01-.021.065.216.216 0 01-.105.071.27.27 0 01-.043.011.295.295 0 01-.1-.038.18.18 0 01-.049-.044.106.106 0 01-.02-.065.11.11 0 01.014-.055.136.136 0 01.037-.041.17.17 0 01.054-.026.228.228 0 01.064-.009z"/></symbol><symbol id="ai"><path d="M.214 0a.227.227 0 00-.108.023.235.235 0 00-.071.062l.033.041A.215.215 0 01.125.073.168.168 0 01.214.052c.037 0 .067.009.092.026.025.017.046.04.061.068.016.028.027.06.034.094.007.035.01.07.01.105v.031A.233.233 0 00.38.339.252.252 0 00.279.275.184.184 0 00.215.264a.264.264 0 00-.084.013.201.201 0 00-.069.039.193.193 0 00-.046.067.25.25 0 00-.001.172.2.2 0 00.114.116c.028.012.06.018.095.018a.213.213 0 00.19-.105.35.35 0 00.042-.111.627.627 0 00-.001-.255A.35.35 0 00.41.107.239.239 0 00.331.029.222.222 0 00.214 0m.011.316c.037 0 .071.01.104.031A.239.239 0 01.407.43.343.343 0 01.393.5.217.217 0 01.36.567a.162.162 0 01-.054.05.152.152 0 01-.08.02.175.175 0 01-.075-.015.17.17 0 01-.052-.038.163.163 0 01-.041-.107A.19.19 0 01.07.406a.144.144 0 01.035-.05.154.154 0 01.053-.03.217.217 0 01.067-.01z"/></symbol><symbol id="aj"><path d="M.227 0a.279.279 0 00-.14.033A.244.244 0 000 .111l.039.034A.229.229 0 01.114.078.232.232 0 01.226.052c.052 0 .093.013.123.038s.045.06.045.104A.123.123 0 01.38.255a.115.115 0 01-.038.042.152.152 0 01-.057.024.296.296 0 01-.07.008H.178L.153.328v.054A.223.223 0 01.178.381h.037c.022 0 .043.002.063.007a.18.18 0 01.054.023.111.111 0 01.052.097.114.114 0 01-.048.095.146.146 0 01-.051.025.205.205 0 01-.061.009.217.217 0 01-.1-.022.263.263 0 01-.079-.063L.009.588a.27.27 0 00.218.101.277.277 0 00.082-.012.191.191 0 00.069-.034.16.16 0 00.064-.13A.15.15 0 00.391.4.185.185 0 00.299.357.179.179 0 00.397.313.17.17 0 00.436.262.149.149 0 00.452.191.19.19 0 00.437.115.172.172 0 00.393.054a.222.222 0 00-.071-.04A.3.3 0 00.227 0z"/></symbol><use xlink:href="#ad" transform="matrix(7 0 0 -7 63.577 314.536)" fill="#231f20"/><use xlink:href="#ae" transform="matrix(7 0 0 -7 63.717 282.777)" fill="#231f20"/><use xlink:href="#af" transform="matrix(7 0 0 -7 63.71 218.398)" fill="#231f20"/><use xlink:href="#ag" transform="matrix(7 0 0 -7 63.626 252.089)" fill="#231f20"/><use xlink:href="#ah" transform="matrix(7 0 0 -7 63.647 188.914)" fill="#231f20"/><use xlink:href="#ai" transform="matrix(7 0 0 -7 63.57 157.134)" fill="#231f20"/><use xlink:href="#aj" transform="matrix(7 0 0 -7 63.647 344.88)" fill="#231f20"/><path stroke-width=".592" stroke-linecap="round" stroke-dasharray="0,1.974" stroke-miterlimit="10" fill="none" stroke="#bcbec0" d="M81.126 342.971h464.5"/><symbol id="ak"><path d="M.232 0a.225.225 0 00-.169.074.264.264 0 00-.063.18.3.3 0 00.016.099c.011.03.027.057.047.08s.044.041.073.054c.029.013.06.02.096.02a.227.227 0 00.097-.02.203.203 0 00.073-.054.283.283 0 00.063-.179.283.283 0 00-.063-.18A.22.22 0 00.232 0m0 .047A.16.16 0 01.363.11a.251.251 0 010 .287.16.16 0 01-.131.063.161.161 0 01-.131-.063.206.206 0 01-.034-.066.269.269 0 010-.155A.221.221 0 01.101.11.161.161 0 01.232.047z"/></symbol><symbol id="al"><path d="M.326 0v.327a.16.16 0 01-.009.058.087.087 0 01-.061.057.171.171 0 01-.093-.001.254.254 0 01-.044-.018.208.208 0 01-.067-.058V0H0v.483h.052V.41a.266.266 0 00.122.077.176.176 0 00.052.008c.05 0 .087-.013.113-.038C.365.432.378.393.378.338V0H.326z"/></symbol><symbol id="am"><path d="M.175 0C.143 0 .119.009.103.027A.12.12 0 00.08.105v.344H0v.046h.08v.132h.053V.495h.098V.449H.133V.113c0-.02.004-.035.012-.048C.153.053.165.047.183.047c.011 0 .022.002.031.007A.07.07 0 01.237.07l.02-.04A.102.102 0 00.224.008.128.128 0 00.175 0z"/></symbol><symbol id="an"><path d="M.242 0a.226.226 0 00-.174.071.246.246 0 00-.05.08.286.286 0 00.048.282.23.23 0 00.167.074.214.214 0 00.169-.076.243.243 0 00.044-.082.314.314 0 00.015-.098V.237H.057A.21.21 0 01.11.101.184.184 0 01.246.045a.218.218 0 01.158.067L.431.078A.246.246 0 00.242 0m.166.278c0 .02-.004.042-.011.063A.174.174 0 01.31.445a.168.168 0 01-.078.017.158.158 0 01-.129-.061.192.192 0 01-.046-.123h.351z"/></symbol><symbol id="ao"><path d="M.044.413a.042.042 0 00-.031.013.042.042 0 000 .061A.042.042 0 00.044.5.042.042 0 00.075.487.04.04 0 00.089.456a.04.04 0 00-.014-.03.042.042 0 00-.031-.013m0-.413a.042.042 0 00-.031.013A.046.046 0 000 .045c0 .011.004.021.013.03a.042.042 0 00.031.013.042.042 0 00.031-.013.04.04 0 00.014-.03.044.044 0 00-.014-.032A.042.042 0 00.044 0z"/></symbol><symbol id="ap"><path d="M0 0v.667h.423V.615H.057V.368h.359V.316H.057V.052h.366V0H0z"/></symbol><symbol id="aq"><path d="M.186 0a.287.287 0 00-.105.018A.217.217 0 000 .076l.031.039A.199.199 0 01.187.044c.04 0 .072.01.095.028a.087.087 0 01.034.07.061.061 0 01-.023.051.17.17 0 01-.056.029.84.84 0 01-.074.02.468.468 0 00-.073.023.169.169 0 00-.057.04.1.1 0 00-.022.068c0 .019.004.036.011.052.008.017.02.031.034.043A.16.16 0 00.11.496a.224.224 0 00.073.011.234.234 0 00.105-.021.225.225 0 00.068-.05L.327.399a.143.143 0 01-.059.046.192.192 0 01-.085.018.141.141 0 01-.089-.025.077.077 0 01-.032-.063c0-.02.007-.035.022-.046A.216.216 0 01.141.302L.214.283A.358.358 0 00.288.258.157.157 0 00.344.215.109.109 0 00.367.142.13.13 0 00.355.087.125.125 0 00.321.041a.16.16 0 00-.056-.03A.257.257 0 00.186 0z"/></symbol><symbol id="ar"><path d="M.04.559a.04.04 0 00-.04.04c0 .011.004.02.012.028A.04.04 0 00.04.638C.051.638.06.634.068.627A.036.036 0 00.08.599a.04.04 0 00-.04-.04M.014 0v.483h.052V0H.014z"/></symbol><symbol id="as"><path d="M.575 0v.338c0 .034-.008.06-.023.08-.015.02-.04.03-.074.03A.158.158 0 01.399.423.176.176 0 01.34.366V0H.287v.338c0 .034-.008.06-.023.08-.015.02-.04.03-.074.03A.118.118 0 01.151.441.183.183 0 01.078.396.221.221 0 01.052.365V0H0v.483h.052V.41a.12.12 0 00.022.026.234.234 0 00.083.05.15.15 0 00.138-.019.129.129 0 00.04-.063A.18.18 0 00.4.466a.213.213 0 00.045.021.157.157 0 00.05.008C.583.495.627.446.627.348V0H.575z"/></symbol><symbol id="at"><path d="M.333.012v.057A.212.212 0 00.107.011a.165.165 0 00-.054.03.165.165 0 00-.039.051A.161.161 0 000 .161C0 .187.005.21.014.23c.01.02.023.037.039.05a.156.156 0 00.054.031c.02.007.04.01.062.01A.21.21 0 00.333.252V.35a.095.095 0 01-.038.082.147.147 0 01-.092.029.194.194 0 01-.082-.017A.202.202 0 01.052.39L.023.426a.258.258 0 00.082.061.25.25 0 00.104.02.254.254 0 00.069-.009A.158.158 0 00.334.47.124.124 0 00.371.421.157.157 0 00.385.352v-.34H.333M.187.041a.21.21 0 01.082.016.167.167 0 01.064.05v.106a.167.167 0 01-.064.05.198.198 0 01-.082.017.134.134 0 01-.096-.034A.113.113 0 01.055.16c0-.034.012-.062.036-.085A.134.134 0 01.187.041z"/></symbol><symbol id="au"><path d="M.204 0L0 .483h.058L.234.061l.174.422h.059L.263 0H.204z"/></symbol><symbol id="av"><path d="M.384.012v.077a.217.217 0 00-.07-.064.223.223 0 00-.186-.008.2.2 0 00-.069.051.243.243 0 00-.044.08A.344.344 0 000 .253a.34.34 0 00.015.104c.01.031.025.058.044.08.02.023.042.04.069.052A.212.212 0 00.311.483.21.21 0 00.384.417v.262h.053V.012H.384M.225.047a.183.183 0 01.094.026.196.196 0 01.065.06v.239a.165.165 0 01-.028.034.183.183 0 01-.203.038A.16.16 0 01.1.4.206.206 0 01.067.335a.294.294 0 010-.164A.221.221 0 01.1.106.16.16 0 01.153.062.168.168 0 01.225.047z"/></symbol><symbol id="aw"><path d="M.326.012v.071A.286.286 0 00.25.025.198.198 0 00.152 0C.102 0 .064.012.038.036.013.061 0 .1 0 .155v.34h.052V.167C.052.144.055.124.06.108A.099.099 0 01.084.071.103.103 0 01.121.052a.217.217 0 01.094.001.225.225 0 01.111.074v.368h.052V.012H.326z"/></symbol><symbol id="ax"><path d="M0 0v.483h.052V.4a.28.28 0 00.071.067.168.168 0 00.092.026V.436a926.39 926.39 0 01-.026.002.183.183 0 01-.137-.086V0H0z"/></symbol><symbol id="ay"><path d="M.101.137A.152.152 0 00.079.058.18.18 0 00.029 0L0 .025a.145.145 0 01.058.092.009.009 0 00-.004-.001H.048a.04.04 0 00-.03.012.043.043 0 00-.011.03.043.043 0 00.043.043.045.045 0 00.035-.017C.095.174.101.158.101.137z"/></symbol><symbol id="az"><path d="M.219 0a.49.49 0 00-.056.003.195.195 0 00-.048.012.194.194 0 00-.044.022.252.252 0 00-.042.036l.03.04A.18.18 0 01.128.06.243.243 0 01.282.054.13.13 0 01.37.129C.38.149.384.172.384.2v.076a.233.233 0 00-.07-.064.189.189 0 00-.098-.026.2.2 0 00-.157.068.245.245 0 00-.044.079A.344.344 0 000 .438a.34.34 0 00.015.104C.025.573.04.6.059.622a.2.2 0 00.157.069.192.192 0 00.095-.024.21.21 0 00.073-.066v.078h.053V.201A.219.219 0 00.419.107.163.163 0 00.372.045a.18.18 0 00-.07-.034A.304.304 0 00.219 0m.006.233a.207.207 0 01.131.054c.011.01.02.022.028.034v.235A.165.165 0 01.356.59a.207.207 0 01-.131.054A.159.159 0 01.1.585.219.219 0 01.067.519a.294.294 0 010-.163.166.166 0 01.086-.108.168.168 0 01.072-.015z"/></symbol><symbol id="aA"><path d="M.052.133a.19.19 0 01.23-.071c.021.01.04.025.054.044.015.019.026.04.033.065a.294.294 0 010 .164A.181.181 0 01.336.4a.157.157 0 01-.174.052.207.207 0 01-.083-.047.15.15 0 01-.027-.033V.133M0 .012v.667h.052V.417a.21.21 0 00.073.066.212.212 0 00.183.006A.221.221 0 00.42.357.321.321 0 00.436.253.324.324 0 00.42.148a.234.234 0 00-.045-.08A.19.19 0 00.22 0a.195.195 0 00-.098.025.217.217 0 00-.07.064V.012H0z"/></symbol><symbol id="aB"><path d="M.22.172a.195.195 0 00-.095.024.21.21 0 00-.073.066V0H0v.667h.052V.591a.211.211 0 00.256.07.18.18 0 00.068-.05.221.221 0 00.044-.08.324.324 0 00.016-.105A.324.324 0 00.42.321a.221.221 0 00-.044-.08A.19.19 0 00.308.19.212.212 0 00.22.172M.211.219a.162.162 0 01.158.125.294.294 0 010 .163.192.192 0 01-.033.066.147.147 0 01-.054.043.153.153 0 01-.071.016.184.184 0 01-.095-.026.175.175 0 01-.064-.06V.307A.15.15 0 01.079.274.25.25 0 01.162.226.174.174 0 01.211.219z"/></symbol><symbol id="aC"><path d="M.044.556H0L.154.7h.062L.044.556M.028 0v.483H.08V0H.028z"/></symbol><symbol id="aD"><path d="M.235 0a.232.232 0 00-.171.074.253.253 0 00-.064.18.3.3 0 00.016.099c.011.03.027.057.048.08a.232.232 0 00.171.074.2.2 0 00.171-.082L.37.393a.15.15 0 01-.059.051.165.165 0 01-.073.016A.176.176 0 01.104.4.198.198 0 01.068.335a.27.27 0 010-.163.212.212 0 01.036-.065.172.172 0 01.134-.06c.027 0 .051.005.073.016A.16.16 0 01.37.115L.406.083A.231.231 0 00.337.022.207.207 0 00.235 0z"/></symbol><symbol id="aE"><path d="M.133 0a.8.8 0 000 .884L.164.862A.922.922 0 01.065.563.978.978 0 01.087.215.922.922 0 01.164.023L.133 0z"/></symbol><symbol id="aF"><path d="M.244 0a.34.34 0 00-.145.029A.289.289 0 000 .106l.037.043A.302.302 0 01.121.081.268.268 0 01.245.052.24.24 0 01.33.065a.16.16 0 01.054.032.11.11 0 01.029.043.143.143 0 01.008.045c0 .033-.01.058-.03.076a.223.223 0 01-.074.044.708.708 0 01-.096.029.592.592 0 00-.097.033A.224.224 0 00.05.42a.137.137 0 00-.029.092.16.16 0 00.064.13A.273.273 0 00.24.69C.29.69.334.682.371.665A.259.259 0 00.466.596L.428.554a.213.213 0 01-.085.064.278.278 0 01-.168.011.15.15 0 01-.049-.026.116.116 0 01-.033-.039.1.1 0 01-.012-.049c0-.021.006-.039.017-.053A.134.134 0 01.143.427c.02-.01.04-.018.064-.025A4.213 4.213 0 00.354.356.228.228 0 00.418.321.163.163 0 00.464.267.16.16 0 00.481.189.198.198 0 00.469.123.156.156 0 00.43.062.221.221 0 00.356.017.32.32 0 00.244 0z"/></symbol><symbol id="aG"><path d="M0 .023a1.313 1.313 0 01.077.192.765.765 0 01.029.227.857.857 0 01-.106.42l.031.022a.797.797 0 000-.884L0 .023z"/></symbol><symbol id="aH"><path d="M0 0v.667h.25C.282.667.31.662.335.651A.176.176 0 00.437.546.205.205 0 00.398.335.192.192 0 00.25.277H.057V0H0m.244.329a.138.138 0 01.147.143.145.145 0 01-.041.103.158.158 0 01-.106.04H.057V.329h.187z"/></symbol><symbol id="aI"><path d="M.338 0a.33.33 0 00-.24.095.33.33 0 00-.072.109A.371.371 0 000 .345c0 .051.009.098.026.14a.317.317 0 00.179.18.352.352 0 00.273-.007.327.327 0 00.103-.086L.533.541a.228.228 0 01-.084.07.234.234 0 01-.111.027.275.275 0 01-.257-.174A.326.326 0 01.06.345.298.298 0 01.14.134.278.278 0 01.228.073a.286.286 0 01.11-.021.24.24 0 01.195.097l.048-.03A.349.349 0 00.477.032.287.287 0 00.338 0z"/></symbol><symbol id="aJ"><path d="M.32.568L.234.681.149.568H.11l.097.144h.054L.36.568H.32M.242 0a.226.226 0 00-.174.071.246.246 0 00-.05.08.286.286 0 00.048.282.23.23 0 00.167.074.214.214 0 00.169-.076.243.243 0 00.044-.082.314.314 0 00.015-.098V.237H.057A.21.21 0 01.11.101.184.184 0 01.246.045a.218.218 0 01.158.067L.431.078A.246.246 0 00.242 0m.166.278c0 .02-.004.042-.011.063A.174.174 0 01.31.445a.168.168 0 01-.078.017.158.158 0 01-.129-.061.192.192 0 01-.046-.123h.351z"/></symbol><symbol id="aK"><path d="M.218 0v.615H0v.052h.494V.615H.276V0H.218z"/></symbol><symbol id="aL"><path d="M0 0v.667h.052V0H0z"/></symbol><symbol id="aM"><path d="M.566 0v.589L.323 0H.301L.057.589V0H0v.667h.085l.227-.55.226.55h.086V0H.566z"/></symbol><symbol id="aN"><path d="M.324 0A.334.334 0 00.19.026a.32.32 0 00-.102.073.336.336 0 00-.065.11A.394.394 0 000 .345c0 .049.008.094.023.136A.301.301 0 00.19.663C.23.681.275.69.324.69a.32.32 0 00.235-.1.316.316 0 00.066-.109.394.394 0 00.023-.136.394.394 0 00-.023-.136A.307.307 0 00.324 0m0 .052c.04 0 .076.007.108.022.033.015.06.035.083.061a.286.286 0 01.054.093.35.35 0 01.019.117.345.345 0 01-.019.117.273.273 0 01-.054.093.238.238 0 01-.083.061.256.256 0 01-.108.022.25.25 0 01-.246-.176A.362.362 0 01.06.345C.06.303.066.264.078.228A.25.25 0 01.324.052z"/></symbol><symbol id="aO"><path d="M0 0v.667h.213A.347.347 0 00.353.64.311.311 0 00.526.462.352.352 0 00.459.097.319.319 0 00.353.026.359.359 0 00.213 0H0m.213.052c.044 0 .083.007.117.022a.247.247 0 01.141.149.313.313 0 010 .219.253.253 0 01-.258.173H.057V.052h.156z"/></symbol><symbol id="aP"><path d="M.319.568L.233.681.148.568H.109l.097.144H.26L.359.568h-.04M.232 0a.225.225 0 00-.169.074.264.264 0 00-.063.18.3.3 0 00.016.099c.011.03.027.057.047.08s.044.041.073.054c.029.013.06.02.096.02a.227.227 0 00.097-.02.203.203 0 00.073-.054.283.283 0 00.063-.179.283.283 0 00-.063-.18A.22.22 0 00.232 0m0 .047A.16.16 0 01.363.11a.251.251 0 010 .287.16.16 0 01-.131.063.161.161 0 01-.131-.063.206.206 0 01-.034-.066.269.269 0 010-.155A.221.221 0 01.101.11.161.161 0 01.232.047z"/></symbol><use xlink:href="#q" transform="matrix(7 0 0 -7 63.708 759.152)" fill="#231f20"/><use xlink:href="#ak" transform="matrix(7 0 0 -7 67.292 759.236)" fill="#231f20"/><use xlink:href="#al" transform="matrix(7 0 0 -7 71.485 759.152)" fill="#231f20"/><use xlink:href="#am" transform="matrix(7 0 0 -7 74.775 759.236)" fill="#231f20"/><use xlink:href="#an" transform="matrix(7 0 0 -7 76.994 759.236)" fill="#231f20"/><use xlink:href="#ao" transform="matrix(7 0 0 -7 81.047 759.222)" fill="#231f20"/><use xlink:href="#w" transform="matrix(7 0 0 -7 82.125 759.152)" fill="#231f20"/><use xlink:href="#ap" transform="matrix(7 0 0 -7 84.519 759.152)" fill="#231f20"/><use xlink:href="#aq" transform="matrix(7 0 0 -7 88.159 759.236)" fill="#231f20"/><use xlink:href="#am" transform="matrix(7 0 0 -7 91.176 759.236)" fill="#231f20"/><use xlink:href="#ar" transform="matrix(7 0 0 -7 93.493 759.152)" fill="#231f20"/><use xlink:href="#as" transform="matrix(7 0 0 -7 95.089 759.152)" fill="#231f20"/><use xlink:href="#at" transform="matrix(7 0 0 -7 100.43 759.236)" fill="#231f20"/><use xlink:href="#am" transform="matrix(7 0 0 -7 103.769 759.236)" fill="#231f20"/><use xlink:href="#ar" transform="matrix(7 0 0 -7 106.086 759.152)" fill="#231f20"/><use xlink:href="#au" transform="matrix(7 0 0 -7 107.164 759.152)" fill="#231f20"/><use xlink:href="#at" transform="matrix(7 0 0 -7 110.867 759.236)" fill="#231f20"/><use xlink:href="#w" transform="matrix(7 0 0 -7 114.129 759.152)" fill="#231f20"/><use xlink:href="#av" transform="matrix(7 0 0 -7 116.313 759.236)" fill="#231f20"/><use xlink:href="#ak" transform="matrix(7 0 0 -7 120.31 759.236)" fill="#231f20"/><use xlink:href="#w" transform="matrix(7 0 0 -7 123.936 759.152)" fill="#231f20"/><use xlink:href="#v" transform="matrix(7 0 0 -7 125.854 759.152)" fill="#231f20"/><use xlink:href="#aw" transform="matrix(7 0 0 -7 130.845 759.236)" fill="#231f20"/><use xlink:href="#am" transform="matrix(7 0 0 -7 134.135 759.236)" fill="#231f20"/><use xlink:href="#ak" transform="matrix(7 0 0 -7 136.354 759.236)" fill="#231f20"/><use xlink:href="#ax" transform="matrix(7 0 0 -7 140.547 759.152)" fill="#231f20"/><use xlink:href="#ay" transform="matrix(7 0 0 -7 142.605 760.013)" fill="#231f20"/><use xlink:href="#w" transform="matrix(7 0 0 -7 143.732 759.152)" fill="#231f20"/><use xlink:href="#aq" transform="matrix(7 0 0 -7 145.818 759.236)" fill="#231f20"/><use xlink:href="#an" transform="matrix(7 0 0 -7 149.129 759.236)" fill="#231f20"/><use xlink:href="#az" transform="matrix(7 0 0 -7 153.098 760.524)" fill="#231f20"/><use xlink:href="#aw" transform="matrix(7 0 0 -7 157.284 759.236)" fill="#231f20"/><use xlink:href="#al" transform="matrix(7 0 0 -7 161.064 759.152)" fill="#231f20"/><use xlink:href="#av" transform="matrix(7 0 0 -7 164.648 759.236)" fill="#231f20"/><use xlink:href="#ak" transform="matrix(7 0 0 -7 168.645 759.236)" fill="#231f20"/><use xlink:href="#w" transform="matrix(7 0 0 -7 172.27 759.152)" fill="#231f20"/><use xlink:href="#at" transform="matrix(7 0 0 -7 174.469 759.236)" fill="#231f20"/><use xlink:href="#w" transform="matrix(7 0 0 -7 177.73 759.152)" fill="#231f20"/><use xlink:href="#aA" transform="matrix(7 0 0 -7 180.11 759.236)" fill="#231f20"/><use xlink:href="#at" transform="matrix(7 0 0 -7 183.926 759.236)" fill="#231f20"/><use xlink:href="#aq" transform="matrix(7 0 0 -7 187.46 759.236)" fill="#231f20"/><use xlink:href="#an" transform="matrix(7 0 0 -7 190.772 759.236)" fill="#231f20"/><use xlink:href="#w" transform="matrix(7 0 0 -7 194.37 759.152)" fill="#231f20"/><use xlink:href="#av" transform="matrix(7 0 0 -7 196.554 759.236)" fill="#231f20"/><use xlink:href="#an" transform="matrix(7 0 0 -7 200.55 759.236)" fill="#231f20"/><use xlink:href="#w" transform="matrix(7 0 0 -7 204.149 759.152)" fill="#231f20"/><use xlink:href="#av" transform="matrix(7 0 0 -7 206.333 759.236)" fill="#231f20"/><use xlink:href="#at" transform="matrix(7 0 0 -7 210.344 759.236)" fill="#231f20"/><use xlink:href="#av" transform="matrix(7 0 0 -7 213.977 759.236)" fill="#231f20"/><use xlink:href="#ak" transform="matrix(7 0 0 -7 217.974 759.236)" fill="#231f20"/><use xlink:href="#aq" transform="matrix(7 0 0 -7 221.873 759.236)" fill="#231f20"/><use xlink:href="#w" transform="matrix(7 0 0 -7 224.813 759.152)" fill="#231f20"/><use xlink:href="#av" transform="matrix(7 0 0 -7 226.997 759.236)" fill="#231f20"/><use xlink:href="#ak" transform="matrix(7 0 0 -7 230.994 759.236)" fill="#231f20"/><use xlink:href="#w" transform="matrix(7 0 0 -7 234.62 759.152)" fill="#231f20"/><use xlink:href="#r" transform="matrix(7 0 0 -7 237.014 759.152)" fill="#231f20"/><use xlink:href="#al" transform="matrix(7 0 0 -7 238.56 759.152)" fill="#231f20"/><use xlink:href="#aq" transform="matrix(7 0 0 -7 242.047 759.236)" fill="#231f20"/><use xlink:href="#am" transform="matrix(7 0 0 -7 245.064 759.236)" fill="#231f20"/><use xlink:href="#ar" transform="matrix(7 0 0 -7 247.38 759.152)" fill="#231f20"/><use xlink:href="#am" transform="matrix(7 0 0 -7 248.487 759.236)" fill="#231f20"/><use xlink:href="#aw" transform="matrix(7 0 0 -7 250.902 759.236)" fill="#231f20"/><use xlink:href="#am" transform="matrix(7 0 0 -7 254.192 759.236)" fill="#231f20"/><use xlink:href="#ak" transform="matrix(7 0 0 -7 256.41 759.236)" fill="#231f20"/><use xlink:href="#w" transform="matrix(7 0 0 -7 260.037 759.152)" fill="#231f20"/><use xlink:href="#aB" transform="matrix(7 0 0 -7 262.417 760.44)" fill="#231f20"/><use xlink:href="#at" transform="matrix(7 0 0 -7 266.204 759.236)" fill="#231f20"/><use xlink:href="#ax" transform="matrix(7 0 0 -7 270.033 759.152)" fill="#231f20"/><use xlink:href="#at" transform="matrix(7 0 0 -7 272.07 759.236)" fill="#231f20"/><use xlink:href="#w" transform="matrix(7 0 0 -7 275.332 759.152)" fill="#231f20"/><use xlink:href="#ap" transform="matrix(7 0 0 -7 277.726 759.152)" fill="#231f20"/><use xlink:href="#aq" transform="matrix(7 0 0 -7 281.366 759.236)" fill="#231f20"/><use xlink:href="#am" transform="matrix(7 0 0 -7 284.383 759.236)" fill="#231f20"/><use xlink:href="#at" transform="matrix(7 0 0 -7 286.616 759.236)" fill="#231f20"/><use xlink:href="#am" transform="matrix(7 0 0 -7 289.955 759.236)" fill="#231f20"/><use xlink:href="#aC" transform="matrix(7 0 0 -7 292.174 759.152)" fill="#231f20"/><use xlink:href="#aq" transform="matrix(7 0 0 -7 293.574 759.236)" fill="#231f20"/><use xlink:href="#am" transform="matrix(7 0 0 -7 296.59 759.236)" fill="#231f20"/><use xlink:href="#ar" transform="matrix(7 0 0 -7 298.908 759.152)" fill="#231f20"/><use xlink:href="#aD" transform="matrix(7 0 0 -7 300.308 759.236)" fill="#231f20"/><use xlink:href="#at" transform="matrix(7 0 0 -7 303.78 759.236)" fill="#231f20"/><use xlink:href="#aq" transform="matrix(7 0 0 -7 307.315 759.236)" fill="#231f20"/><use xlink:href="#w" transform="matrix(7 0 0 -7 310.255 759.152)" fill="#231f20"/><use xlink:href="#av" transform="matrix(7 0 0 -7 312.439 759.236)" fill="#231f20"/><use xlink:href="#at" transform="matrix(7 0 0 -7 316.45 759.236)" fill="#231f20"/><use xlink:href="#w" transform="matrix(7 0 0 -7 319.712 759.152)" fill="#231f20"/><use xlink:href="#t" transform="matrix(7 0 0 -7 322.106 759.236)" fill="#231f20"/><use xlink:href="#al" transform="matrix(7 0 0 -7 326.894 759.152)" fill="#231f20"/><use xlink:href="#an" transform="matrix(7 0 0 -7 330.478 759.236)" fill="#231f20"/><use xlink:href="#aq" transform="matrix(7 0 0 -7 334.349 759.236)" fill="#231f20"/><use xlink:href="#aD" transform="matrix(7 0 0 -7 337.66 759.236)" fill="#231f20"/><use xlink:href="#ak" transform="matrix(7 0 0 -7 341.118 759.236)" fill="#231f20"/><use xlink:href="#w" transform="matrix(7 0 0 -7 344.744 759.152)" fill="#231f20"/><use xlink:href="#aE" transform="matrix(7 0 0 -7 346.879 760.545)" fill="#231f20"/><use xlink:href="#t" transform="matrix(7 0 0 -7 348.727 759.236)" fill="#231f20"/><use xlink:href="#r" transform="matrix(7 0 0 -7 353.529 759.152)" fill="#231f20"/><use xlink:href="#aF" transform="matrix(7 0 0 -7 354.83 759.236)" fill="#231f20"/><use xlink:href="#aG" transform="matrix(7 0 0 -7 358.695 760.545)" fill="#231f20"/><use xlink:href="#ay" transform="matrix(7 0 0 -7 360.57 760.013)" fill="#231f20"/><use xlink:href="#w" transform="matrix(7 0 0 -7 361.697 759.152)" fill="#231f20"/><use xlink:href="#ak" transform="matrix(7 0 0 -7 363.882 759.236)" fill="#231f20"/><use xlink:href="#aq" transform="matrix(7 0 0 -7 367.78 759.236)" fill="#231f20"/><use xlink:href="#w" transform="matrix(7 0 0 -7 370.72 759.152)" fill="#231f20"/><use xlink:href="#r" transform="matrix(7 0 0 -7 373.115 759.152)" fill="#231f20"/><use xlink:href="#al" transform="matrix(7 0 0 -7 374.661 759.152)" fill="#231f20"/><use xlink:href="#av" transform="matrix(7 0 0 -7 378.245 759.236)" fill="#231f20"/><use xlink:href="#ar" transform="matrix(7 0 0 -7 382.34 759.152)" fill="#231f20"/><use xlink:href="#aD" transform="matrix(7 0 0 -7 383.74 759.236)" fill="#231f20"/><use xlink:href="#at" transform="matrix(7 0 0 -7 387.213 759.236)" fill="#231f20"/><use xlink:href="#av" transform="matrix(7 0 0 -7 390.846 759.236)" fill="#231f20"/><use xlink:href="#ak" transform="matrix(7 0 0 -7 394.843 759.236)" fill="#231f20"/><use xlink:href="#ax" transform="matrix(7 0 0 -7 399.036 759.152)" fill="#231f20"/><use xlink:href="#an" transform="matrix(7 0 0 -7 401.059 759.236)" fill="#231f20"/><use xlink:href="#aq" transform="matrix(7 0 0 -7 404.93 759.236)" fill="#231f20"/><use xlink:href="#w" transform="matrix(7 0 0 -7 407.87 759.152)" fill="#231f20"/><use xlink:href="#aH" transform="matrix(7 0 0 -7 410.264 759.152)" fill="#231f20"/><use xlink:href="#ax" transform="matrix(7 0 0 -7 414.247 759.152)" fill="#231f20"/><use xlink:href="#ar" transform="matrix(7 0 0 -7 416.368 759.152)" fill="#231f20"/><use xlink:href="#al" transform="matrix(7 0 0 -7 417.964 759.152)" fill="#231f20"/><use xlink:href="#aD" transform="matrix(7 0 0 -7 421.548 759.236)" fill="#231f20"/><use xlink:href="#ar" transform="matrix(7 0 0 -7 425.104 759.152)" fill="#231f20"/><use xlink:href="#aB" transform="matrix(7 0 0 -7 426.7 760.44)" fill="#231f20"/><use xlink:href="#at" transform="matrix(7 0 0 -7 430.486 759.236)" fill="#231f20"/><use xlink:href="#ar" transform="matrix(7 0 0 -7 434.217 759.152)" fill="#231f20"/><use xlink:href="#aq" transform="matrix(7 0 0 -7 435.52 759.236)" fill="#231f20"/><use xlink:href="#w" transform="matrix(7 0 0 -7 438.46 759.152)" fill="#231f20"/><use xlink:href="#av" transform="matrix(7 0 0 -7 440.644 759.236)" fill="#231f20"/><use xlink:href="#an" transform="matrix(7 0 0 -7 444.64 759.236)" fill="#231f20"/><use xlink:href="#w" transform="matrix(7 0 0 -7 448.238 759.152)" fill="#231f20"/><use xlink:href="#aI" transform="matrix(7 0 0 -7 450.457 759.236)" fill="#231f20"/><use xlink:href="#ar" transform="matrix(7 0 0 -7 455.224 759.152)" fill="#231f20"/><use xlink:href="#aJ" transform="matrix(7 0 0 -7 456.624 759.236)" fill="#231f20"/><use xlink:href="#al" transform="matrix(7 0 0 -7 460.79 759.152)" fill="#231f20"/><use xlink:href="#aD" transform="matrix(7 0 0 -7 464.373 759.236)" fill="#231f20"/><use xlink:href="#ar" transform="matrix(7 0 0 -7 467.93 759.152)" fill="#231f20"/><use xlink:href="#at" transform="matrix(7 0 0 -7 469.343 759.236)" fill="#231f20"/><use xlink:href="#w" transform="matrix(7 0 0 -7 472.605 759.152)" fill="#231f20"/><use xlink:href="#an" transform="matrix(7 0 0 -7 474.79 759.236)" fill="#231f20"/><use xlink:href="#w" transform="matrix(7 0 0 -7 478.387 759.152)" fill="#231f20"/><use xlink:href="#aK" transform="matrix(7 0 0 -7 480.445 759.152)" fill="#231f20"/><use xlink:href="#an" transform="matrix(7 0 0 -7 484.52 759.236)" fill="#231f20"/><use xlink:href="#aD" transform="matrix(7 0 0 -7 488.488 759.236)" fill="#231f20"/><use xlink:href="#al" transform="matrix(7 0 0 -7 492.142 759.152)" fill="#231f20"/><use xlink:href="#ak" transform="matrix(7 0 0 -7 495.726 759.236)" fill="#231f20"/><use xlink:href="#aL" transform="matrix(7 0 0 -7 499.92 759.152)" fill="#231f20"/><use xlink:href="#ak" transform="matrix(7 0 0 -7 501.221 759.236)" fill="#231f20"/><use xlink:href="#az" transform="matrix(7 0 0 -7 505.218 760.524)" fill="#231f20"/><use xlink:href="#ar" transform="matrix(7 0 0 -7 509.306 759.152)" fill="#231f20"/><use xlink:href="#at" transform="matrix(7 0 0 -7 510.72 759.236)" fill="#231f20"/><use xlink:href="#w" transform="matrix(7 0 0 -7 513.982 759.152)" fill="#231f20"/><use xlink:href="#aE" transform="matrix(7 0 0 -7 516.117 760.545)" fill="#231f20"/><use xlink:href="#aM" transform="matrix(7 0 0 -7 517.965 759.152)" fill="#231f20"/><use xlink:href="#aF" transform="matrix(7 0 0 -7 523.236 759.236)" fill="#231f20"/><use xlink:href="#aK" transform="matrix(7 0 0 -7 527.226 759.152)" fill="#231f20"/><use xlink:href="#r" transform="matrix(7 0 0 -7 531.51 759.152)" fill="#231f20"/><use xlink:href="#aG" transform="matrix(7 0 0 -7 532.61 760.545)" fill="#231f20"/><use xlink:href="#w" transform="matrix(7 0 0 -7 534.08 759.152)" fill="#231f20"/><use xlink:href="#av" transform="matrix(7 0 0 -7 536.263 759.236)" fill="#231f20"/><use xlink:href="#at" transform="matrix(7 0 0 -7 540.274 759.236)" fill="#231f20"/><use xlink:href="#w" transform="matrix(7 0 0 -7 543.536 759.152)" fill="#231f20"/><use xlink:href="#aN" transform="matrix(7 0 0 -7 63.533 767.636)" fill="#231f20"/><use xlink:href="#aI" transform="matrix(7 0 0 -7 68.88 767.636)" fill="#231f20"/><use xlink:href="#aO" transform="matrix(7 0 0 -7 73.76 767.552)" fill="#231f20"/><use xlink:href="#ap" transform="matrix(7 0 0 -7 78.604 767.552)" fill="#231f20"/><use xlink:href="#ay" transform="matrix(7 0 0 -7 82.377 768.413)" fill="#231f20"/><use xlink:href="#w" transform="matrix(7 0 0 -7 83.504 767.552)" fill="#231f20"/><use xlink:href="#ap" transform="matrix(7 0 0 -7 85.898 767.552)" fill="#231f20"/><use xlink:href="#aw" transform="matrix(7 0 0 -7 89.832 767.636)" fill="#231f20"/><use xlink:href="#ax" transform="matrix(7 0 0 -7 93.612 767.552)" fill="#231f20"/><use xlink:href="#ak" transform="matrix(7 0 0 -7 95.635 767.636)" fill="#231f20"/><use xlink:href="#aq" transform="matrix(7 0 0 -7 99.534 767.636)" fill="#231f20"/><use xlink:href="#am" transform="matrix(7 0 0 -7 102.55 767.636)" fill="#231f20"/><use xlink:href="#at" transform="matrix(7 0 0 -7 104.784 767.636)" fill="#231f20"/><use xlink:href="#am" transform="matrix(7 0 0 -7 108.123 767.636)" fill="#231f20"/><use xlink:href="#ay" transform="matrix(7 0 0 -7 110.377 768.413)" fill="#231f20"/><use xlink:href="#w" transform="matrix(7 0 0 -7 111.504 767.552)" fill="#231f20"/><use xlink:href="#an" transform="matrix(7 0 0 -7 113.688 767.636)" fill="#231f20"/><use xlink:href="#w" transform="matrix(7 0 0 -7 117.286 767.552)" fill="#231f20"/><use xlink:href="#at" transform="matrix(7 0 0 -7 119.484 767.636)" fill="#231f20"/><use xlink:href="#w" transform="matrix(7 0 0 -7 122.746 767.552)" fill="#231f20"/><use xlink:href="#aA" transform="matrix(7 0 0 -7 125.126 767.636)" fill="#231f20"/><use xlink:href="#at" transform="matrix(7 0 0 -7 128.94 767.636)" fill="#231f20"/><use xlink:href="#aq" transform="matrix(7 0 0 -7 132.476 767.636)" fill="#231f20"/><use xlink:href="#an" transform="matrix(7 0 0 -7 135.787 767.636)" fill="#231f20"/><use xlink:href="#w" transform="matrix(7 0 0 -7 139.385 767.552)" fill="#231f20"/><use xlink:href="#av" transform="matrix(7 0 0 -7 141.569 767.636)" fill="#231f20"/><use xlink:href="#an" transform="matrix(7 0 0 -7 145.566 767.636)" fill="#231f20"/><use xlink:href="#w" transform="matrix(7 0 0 -7 149.164 767.552)" fill="#231f20"/><use xlink:href="#av" transform="matrix(7 0 0 -7 151.348 767.636)" fill="#231f20"/><use xlink:href="#at" transform="matrix(7 0 0 -7 155.359 767.636)" fill="#231f20"/><use xlink:href="#av" transform="matrix(7 0 0 -7 158.992 767.636)" fill="#231f20"/><use xlink:href="#ak" transform="matrix(7 0 0 -7 162.989 767.636)" fill="#231f20"/><use xlink:href="#aq" transform="matrix(7 0 0 -7 166.888 767.636)" fill="#231f20"/><use xlink:href="#w" transform="matrix(7 0 0 -7 169.828 767.552)" fill="#231f20"/><use xlink:href="#aH" transform="matrix(7 0 0 -7 172.222 767.552)" fill="#231f20"/><use xlink:href="#at" transform="matrix(7 0 0 -7 176.023 767.636)" fill="#231f20"/><use xlink:href="#al" transform="matrix(7 0 0 -7 179.852 767.552)" fill="#231f20"/><use xlink:href="#ak" transform="matrix(7 0 0 -7 183.436 767.636)" fill="#231f20"/><use xlink:href="#ax" transform="matrix(7 0 0 -7 187.629 767.552)" fill="#231f20"/><use xlink:href="#at" transform="matrix(7 0 0 -7 189.666 767.636)" fill="#231f20"/><use xlink:href="#as" transform="matrix(7 0 0 -7 193.495 767.552)" fill="#231f20"/><use xlink:href="#at" transform="matrix(7 0 0 -7 198.836 767.636)" fill="#231f20"/><use xlink:href="#w" transform="matrix(7 0 0 -7 202.098 767.552)" fill="#231f20"/><use xlink:href="#ap" transform="matrix(7 0 0 -7 204.492 767.552)" fill="#231f20"/><use xlink:href="#aD" transform="matrix(7 0 0 -7 208.23 767.636)" fill="#231f20"/><use xlink:href="#ak" transform="matrix(7 0 0 -7 211.688 767.636)" fill="#231f20"/><use xlink:href="#al" transform="matrix(7 0 0 -7 215.88 767.552)" fill="#231f20"/><use xlink:href="#aP" transform="matrix(7 0 0 -7 219.465 767.636)" fill="#231f20"/><use xlink:href="#as" transform="matrix(7 0 0 -7 223.658 767.552)" fill="#231f20"/><use xlink:href="#ar" transform="matrix(7 0 0 -7 229.083 767.552)" fill="#231f20"/><use xlink:href="#aD" transform="matrix(7 0 0 -7 230.483 767.636)" fill="#231f20"/><use xlink:href="#ak" transform="matrix(7 0 0 -7 233.94 767.636)" fill="#231f20"/><use xlink:href="#w" transform="matrix(7 0 0 -7 237.567 767.552)" fill="#231f20"/><use xlink:href="#aM" transform="matrix(7 0 0 -7 239.96 767.552)" fill="#231f20"/><use xlink:href="#aw" transform="matrix(7 0 0 -7 245.477 767.636)" fill="#231f20"/><use xlink:href="#al" transform="matrix(7 0 0 -7 249.257 767.552)" fill="#231f20"/><use xlink:href="#av" transform="matrix(7 0 0 -7 252.84 767.636)" fill="#231f20"/><use xlink:href="#ar" transform="matrix(7 0 0 -7 256.936 767.552)" fill="#231f20"/><use xlink:href="#at" transform="matrix(7 0 0 -7 258.35 767.636)" fill="#231f20"/><use xlink:href="#aL" transform="matrix(7 0 0 -7 262.179 767.552)" fill="#231f20"/><use xlink:href="#w" transform="matrix(7 0 0 -7 263.11 767.552)" fill="#231f20"/><use xlink:href="#av" transform="matrix(7 0 0 -7 265.294 767.636)" fill="#231f20"/><use xlink:href="#ak" transform="matrix(7 0 0 -7 269.29 767.636)" fill="#231f20"/><use xlink:href="#w" transform="matrix(7 0 0 -7 272.917 767.552)" fill="#231f20"/><use xlink:href="#q" transform="matrix(7 0 0 -7 275.31 767.552)" fill="#231f20"/><use xlink:href="#aM" transform="matrix(7 0 0 -7 279.105 767.552)" fill="#231f20"/><use xlink:href="#r" transform="matrix(7 0 0 -7 284.635 767.552)" fill="#231f20"/><use xlink:href="#y" transform="matrix(7 0 0 -7 286.07 767.622)" fill="#231f20"/><symbol id="aQ"><path d="M0 .001l.309.535L.619 0 0 .001z"/></symbol><use xlink:href="#aQ" transform="matrix(9 0 0 -9 90.326 536.01)" fill="#231f20"/><symbol id="aR"><path d="M.156.362a.147.147 0 00-.145.097A.187.187 0 000 .524a.168.168 0 00.043.118.155.155 0 00.113.047.155.155 0 00.113-.047.147.147 0 00.032-.053.173.173 0 00.012-.065.173.173 0 00-.044-.116A.135.135 0 00.22.374.166.166 0 00.156.362M.094.012L.52.679h.046L.139.012H.094M.496 0a.166.166 0 00-.064.012.17.17 0 00-.049.034.161.161 0 00-.044.117c0 .023.004.045.011.065a.147.147 0 00.082.087c.02.009.04.013.064.013A.152.152 0 00.559.315.145.145 0 00.641.228.173.173 0 00.653.163.173.173 0 00.609.046a.166.166 0 00-.05-.034A.163.163 0 00.496 0m-.34.4a.1.1 0 01.045.01.12.12 0 01.058.066.145.145 0 010 .097.119.119 0 01-.058.067.1.1 0 01-.045.01.103.103 0 01-.08-.037.129.129 0 01-.022-.04.148.148 0 010-.097A.115.115 0 01.111.41.103.103 0 01.156.4m.34-.361a.1.1 0 01.045.01.11.11 0 01.034.026.12.12 0 01.023.039.148.148 0 01-.023.138.1.1 0 01-.079.037.106.106 0 01-.103-.077.148.148 0 01.022-.137.106.106 0 01.081-.036z"/></symbol><use xlink:href="#w" transform="matrix(9 0 0 -9 95.888 536.27)" fill="#231f20"/><use xlink:href="#aR" transform="matrix(9 0 0 -9 103.781 536.379)" fill="#231f20"/><use xlink:href="#w" transform="matrix(9 0 0 -9 109.955 536.27)" fill="#231f20"/><symbol id="aS"><path d="M0 0v.618L.535.309 0 0z"/></symbol><use xlink:href="#aS" transform="matrix(9 0 0 -9 90.83 548.475)" fill="#231f20"/><use xlink:href="#w" transform="matrix(9 0 0 -9 95.627 548.268)" fill="#231f20"/><use xlink:href="#w" transform="matrix(9 0 0 -9 97.958 548.268)" fill="#231f20"/><use xlink:href="#w" transform="matrix(9 0 0 -9 100.29 548.268)" fill="#231f20"/><use xlink:href="#v" transform="matrix(9 0 0 -9 103.61 548.268)" fill="#231f20"/><use xlink:href="#al" transform="matrix(9 0 0 -9 110.027 548.268)" fill="#231f20"/><use xlink:href="#ak" transform="matrix(9 0 0 -9 114.635 548.375)" fill="#231f20"/><path stroke-width=".677" stroke-linecap="round" stroke-dasharray="0,2.258" stroke-miterlimit="10" fill="none" stroke="#bcbec0" d="M86.427 483.005V149.84M109.393 467.195v16.684M131.673 467.195v16.684M155.265 467.195v16.684M177.546 467.195v16.684"/><symbol id="aT"><path d="M.316 0v.182H0v.051l.296.434h.077V.234h.098V.182H.373V0H.316m0 .61L.059.234h.257V.61z"/></symbol><symbol id="aU"><path d="M.245 0A.221.221 0 00.13.028a.23.23 0 00-.075.077.35.35 0 00-.042.11.642.642 0 00.001.256c.01.041.024.078.044.11a.222.222 0 00.197.108.214.214 0 00.18-.085L.401.562a.203.203 0 01-.058.054.162.162 0 01-.088.021.159.159 0 01-.092-.026.207.207 0 01-.061-.068.327.327 0 01-.034-.094.555.555 0 01-.01-.105V.328L.059.313a.267.267 0 00.13.1c.02.007.042.011.065.011.03 0 .058-.004.084-.013A.184.184 0 00.452.305.229.229 0 00.469.213.206.206 0 00.34.018.239.239 0 00.245 0M.243.052A.168.168 0 01.37.105a.15.15 0 01.031.051.178.178 0 01-.003.127.128.128 0 01-.035.05.143.143 0 01-.053.03.208.208 0 01-.066.01A.187.187 0 01.14.341.23.23 0 01.062.259.36.36 0 01.076.188.189.189 0 01.163.071a.158.158 0 01.08-.019z"/></symbol><use xlink:href="#X" transform="matrix(7 0 0 -7 181.658 494.133)" fill="#231f20"/><use xlink:href="#Y" transform="matrix(7 0 0 -7 185.746 494.217)" fill="#231f20"/><use xlink:href="#Y" transform="matrix(7 0 0 -7 190.002 494.217)" fill="#231f20"/><use xlink:href="#aT" transform="matrix(7 0 0 -7 194.097 494.133)" fill="#231f20"/><use xlink:href="#X" transform="matrix(7 0 0 -7 226.29 494.133)" fill="#231f20"/><use xlink:href="#Y" transform="matrix(7 0 0 -7 230.378 494.217)" fill="#231f20"/><use xlink:href="#Y" transform="matrix(7 0 0 -7 234.634 494.217)" fill="#231f20"/><use xlink:href="#aU" transform="matrix(7 0 0 -7 238.89 494.217)" fill="#231f20"/><path stroke-width=".677" stroke-linecap="round" stroke-dasharray="0,2.258" stroke-miterlimit="10" fill="none" stroke="#bcbec0" d="M201.138 467.195v16.684M223.419 467.195v16.684M247.01 467.195v16.684M269.291 467.195v16.684"/><symbol id="aV"><path d="M.227 0a.326.326 0 00-.09.012.187.187 0 00-.12.093.16.16 0 00.034.188.202.202 0 00.053.038c.02.01.04.019.062.025a.23.23 0 00-.107.055.137.137 0 00-.048.106c0 .03.006.055.019.076.013.022.029.04.049.054a.29.29 0 00.225.031.222.222 0 00.07-.031.162.162 0 00.05-.054.146.146 0 00.019-.076.137.137 0 00-.048-.106.22.22 0 00-.05-.034.323.323 0 00-.057-.021.286.286 0 00.114-.063.176.176 0 00.037-.051.139.139 0 00.014-.063.165.165 0 00-.065-.13.228.228 0 00-.072-.036A.293.293 0 00.227 0m0 .38l.042.011a.225.225 0 01.052.023c.017.01.032.023.045.038a.092.092 0 01.019.059c0 .02-.004.038-.013.053a.11.11 0 01-.034.04.198.198 0 01-.111.033.208.208 0 01-.112-.033.113.113 0 01-.046-.093c0-.023.006-.043.019-.059A.165.165 0 01.133.414.253.253 0 01.185.391.513.513 0 01.227.38m0-.328C.249.052.27.055.29.061a.17.17 0 01.054.026.13.13 0 01.038.041.11.11 0 01.014.055.103.103 0 01-.021.065.216.216 0 01-.105.071.27.27 0 01-.043.011.295.295 0 01-.1-.038.18.18 0 01-.049-.044.106.106 0 01-.02-.065.11.11 0 01.014-.055.136.136 0 01.037-.041.17.17 0 01.054-.026.228.228 0 01.064-.009z"/></symbol><use xlink:href="#X" transform="matrix(7 0 0 -7 273.298 494.133)" fill="#231f20"/><use xlink:href="#Y" transform="matrix(7 0 0 -7 277.386 494.217)" fill="#231f20"/><use xlink:href="#Y" transform="matrix(7 0 0 -7 281.642 494.217)" fill="#231f20"/><use xlink:href="#aV" transform="matrix(7 0 0 -7 285.905 494.217)" fill="#231f20"/><use xlink:href="#X" transform="matrix(7 0 0 -7 319 494.133)" fill="#231f20"/><use xlink:href="#Y" transform="matrix(7 0 0 -7 323.089 494.217)" fill="#231f20"/><use xlink:href="#x" transform="matrix(7 0 0 -7 327.12 494.133)" fill="#231f20"/><use xlink:href="#Y" transform="matrix(7 0 0 -7 329.501 494.217)" fill="#231f20"/><path stroke-width=".677" stroke-linecap="round" stroke-dasharray="0,2.258" stroke-miterlimit="10" fill="none" stroke="#bcbec0" d="M292.883 467.195v16.684M315.164 467.195v16.684M338.755 467.195v16.684M361.037 467.195v16.684"/><use xlink:href="#X" transform="matrix(7 0 0 -7 365.618 494.133)" fill="#231f20"/><use xlink:href="#Y" transform="matrix(7 0 0 -7 369.706 494.217)" fill="#231f20"/><use xlink:href="#x" transform="matrix(7 0 0 -7 373.738 494.133)" fill="#231f20"/><use xlink:href="#X" transform="matrix(7 0 0 -7 376.104 494.133)" fill="#231f20"/><path stroke-width=".677" stroke-linecap="round" stroke-dasharray="0,2.258" stroke-miterlimit="10" fill="none" stroke="#bcbec0" d="M361.255 467.195v16.684M383.536 467.195v16.684M407.128 467.195v16.684M429.408 467.195v16.684"/><use xlink:href="#X" transform="matrix(7 0 0 -7 412.726 494.133)" fill="#231f20"/><use xlink:href="#Y" transform="matrix(7 0 0 -7 416.814 494.217)" fill="#231f20"/><use xlink:href="#x" transform="matrix(7 0 0 -7 420.846 494.133)" fill="#231f20"/><use xlink:href="#aT" transform="matrix(7 0 0 -7 423.065 494.133)" fill="#231f20"/><use xlink:href="#X" transform="matrix(7 0 0 -7 457.358 494.133)" fill="#231f20"/><use xlink:href="#Y" transform="matrix(7 0 0 -7 461.446 494.217)" fill="#231f20"/><use xlink:href="#x" transform="matrix(7 0 0 -7 465.478 494.133)" fill="#231f20"/><use xlink:href="#aU" transform="matrix(7 0 0 -7 467.858 494.217)" fill="#231f20"/><path stroke-width=".677" stroke-linecap="round" stroke-dasharray="0,2.258" stroke-miterlimit="10" fill="none" stroke="#bcbec0" d="M453 467.195v16.684M475.28 467.195v16.684M498.873 467.195v16.684M521.153 467.195v16.684"/><symbol id="aW"><path d="M.214 0a.227.227 0 00-.108.023.235.235 0 00-.071.062l.033.041A.215.215 0 01.125.073.168.168 0 01.214.052c.037 0 .067.009.092.026.025.017.046.04.061.068.016.028.027.06.034.094.007.035.01.07.01.105v.031A.233.233 0 00.38.339.252.252 0 00.279.275.184.184 0 00.215.264a.264.264 0 00-.084.013.201.201 0 00-.069.039.193.193 0 00-.046.067.25.25 0 00-.001.172.2.2 0 00.114.116c.028.012.06.018.095.018a.213.213 0 00.19-.105.35.35 0 00.042-.111.627.627 0 00-.001-.255A.35.35 0 00.41.107.239.239 0 00.331.029.222.222 0 00.214 0m.011.316c.037 0 .071.01.104.031A.239.239 0 01.407.43.343.343 0 01.393.5.217.217 0 01.36.567a.162.162 0 01-.054.05.152.152 0 01-.08.02.175.175 0 01-.075-.015.17.17 0 01-.052-.038.163.163 0 01-.041-.107A.19.19 0 01.07.406a.144.144 0 01.035-.05.154.154 0 01.053-.03.217.217 0 01.067-.01z"/></symbol><use xlink:href="#X" transform="matrix(7 0 0 -7 503.797 494.133)" fill="#231f20"/><use xlink:href="#Y" transform="matrix(7 0 0 -7 507.885 494.217)" fill="#231f20"/><use xlink:href="#x" transform="matrix(7 0 0 -7 511.917 494.133)" fill="#231f20"/><use xlink:href="#aV" transform="matrix(7 0 0 -7 514.304 494.217)" fill="#231f20"/><use xlink:href="#X" transform="matrix(7 0 0 -7 527.247 494.133)" fill="#231f20"/><use xlink:href="#Y" transform="matrix(7 0 0 -7 531.335 494.217)" fill="#231f20"/><use xlink:href="#x" transform="matrix(7 0 0 -7 535.367 494.133)" fill="#231f20"/><use xlink:href="#aW" transform="matrix(7 0 0 -7 537.74 494.21)" fill="#231f20"/><path stroke-width=".677" stroke-linecap="round" stroke-dasharray="0,2.258" stroke-miterlimit="10" fill="none" stroke="#bcbec0" d="M545.619 467.195v16.684"/><path stroke-width="2" stroke-linecap="round" stroke-miterlimit="10" fill="none" stroke="#b9568f" d="M98.169 173.074l21.207 139.562 24.75 122.25 23.314-100.941 22.38-31.04 22.9-83.298 22.275-36.514 24.044 22.899 22.9 60.97 23.187 169.424 22.898-94.713 22.614-126.234 22.899 60.684 23.473-21.47 22.04 4.009 22.9 56.39 22.9-2.576 23.472-86.16"/><path stroke-width="2" stroke-linecap="round" stroke-miterlimit="10" fill="none" stroke="#6050a1" d="M97.023 206.278l24.904 106.77 22.326 54.96 22.9-50.38 23.474 7.442 22.613-77.572 22.899-11.164 22.328-6.01 22.613 34.635 23.757 100.758 22.038-63.957 23.46-30.468L373.5 316.01l23.5-30.25 22.05 7.823 23.759 32.632 22.327 22.327L488.5 274.01"/><path stroke-width="2" stroke-linecap="round" stroke-miterlimit="10" fill="none" stroke="#48709c" d="M97.023 289.29l24.045 72.133 23.185-9.446 22.042-32.632 23.759-52.383 22.326 20.896 22.041-18.033 23.472-3.149 24.904 83.87L305 440.886l22.737-169.916 22.614 36.353 23.185 22.614 27.767-2.576 17.747-3.435 23.758 2.29 22.327 6.01 22.9-14.599 22.9 5.725"/><path stroke-width="2" stroke-linecap="round" stroke-dasharray="1,3" stroke-miterlimit="10" fill="none" stroke="#48709c" d="M533.876 332.01l-21-7.875"/><symbol id="aX"><path d="M0 0v.667h.127V0H0z"/></symbol><use xlink:href="#A" transform="matrix(9 0 0 -9 491.588 228.124)" fill="#bb558f"/><use xlink:href="#B" transform="matrix(9 0 0 -9 498.032 228.016)" fill="#bb558f"/><use xlink:href="#C" transform="matrix(9 0 0 -9 500.993 228.124)" fill="#bb558f"/><use xlink:href="#D" transform="matrix(9 0 0 -9 505.871 228.124)" fill="#bb558f"/><use xlink:href="#E" transform="matrix(9 0 0 -9 510.263 228.124)" fill="#bb558f"/><use xlink:href="#F" transform="matrix(9 0 0 -9 514.916 228.016)" fill="#bb558f"/><use xlink:href="#G" transform="matrix(9 0 0 -9 517.31 228.016)" fill="#bb558f"/><use xlink:href="#C" transform="matrix(9 0 0 -9 524.7 228.124)" fill="#bb558f"/><use xlink:href="#H" transform="matrix(9 0 0 -9 529.955 228.016)" fill="#bb558f"/><use xlink:href="#I" transform="matrix(9 0 0 -9 534.671 228.124)" fill="#bb558f"/><use xlink:href="#J" transform="matrix(9 0 0 -9 537.93 228.124)" fill="#bb558f"/><use xlink:href="#K" transform="matrix(9 0 0 -9 542.807 228.016)" fill="#bb558f"/><use xlink:href="#L" transform="matrix(9 0 0 -9 491.57 237.124)" fill="#bb558f"/><use xlink:href="#C" transform="matrix(9 0 0 -9 496.844 237.124)" fill="#bb558f"/><use xlink:href="#K" transform="matrix(9 0 0 -9 501.533 237.016)" fill="#bb558f"/><use xlink:href="#O" transform="matrix(9 0 0 -9 504.431 237.016)" fill="#bb558f"/><use xlink:href="#P" transform="matrix(9 0 0 -9 509.67 237.124)" fill="#bb558f"/><use xlink:href="#Q" transform="matrix(9 0 0 -9 515.861 237.016)" fill="#bb558f"/><use xlink:href="#K" transform="matrix(9 0 0 -9 521.73 237.016)" fill="#bb558f"/><use xlink:href="#C" transform="matrix(9 0 0 -9 491.57 246.124)" fill="#bb558f"/><use xlink:href="#G" transform="matrix(9 0 0 -9 496.826 246.016)" fill="#bb558f"/><use xlink:href="#M" transform="matrix(9 0 0 -9 504.494 247.672)" fill="#bb558f"/><use xlink:href="#B" transform="matrix(9 0 0 -9 509.741 246.016)" fill="#bb558f"/><use xlink:href="#C" transform="matrix(9 0 0 -9 512.702 246.124)" fill="#bb558f"/><use xlink:href="#D" transform="matrix(9 0 0 -9 517.58 246.124)" fill="#bb558f"/><use xlink:href="#N" transform="matrix(9 0 0 -9 521.972 246.124)" fill="#bb558f"/><use xlink:href="#B" transform="matrix(9 0 0 -9 527.138 246.016)" fill="#bb558f"/><use xlink:href="#F" transform="matrix(9 0 0 -9 530.261 246.016)" fill="#bb558f"/><use xlink:href="#N" transform="matrix(9 0 0 -9 532.376 246.124)" fill="#bb558f"/><use xlink:href="#aX" transform="matrix(9 0 0 -9 537.542 246.016)" fill="#bb558f"/><use xlink:href="#A" transform="matrix(9 0 0 -9 491.696 279.298)" fill="#5f51a2"/><use xlink:href="#B" transform="matrix(9 0 0 -9 498.14 279.19)" fill="#5f51a2"/><use xlink:href="#C" transform="matrix(9 0 0 -9 501.101 279.298)" fill="#5f51a2"/><use xlink:href="#D" transform="matrix(9 0 0 -9 505.98 279.298)" fill="#5f51a2"/><use xlink:href="#E" transform="matrix(9 0 0 -9 510.371 279.298)" fill="#5f51a2"/><use xlink:href="#F" transform="matrix(9 0 0 -9 515.024 279.19)" fill="#5f51a2"/><use xlink:href="#G" transform="matrix(9 0 0 -9 517.418 279.19)" fill="#5f51a2"/><use xlink:href="#C" transform="matrix(9 0 0 -9 524.807 279.298)" fill="#5f51a2"/><use xlink:href="#H" transform="matrix(9 0 0 -9 530.063 279.19)" fill="#5f51a2"/><use xlink:href="#I" transform="matrix(9 0 0 -9 534.78 279.298)" fill="#5f51a2"/><use xlink:href="#J" transform="matrix(9 0 0 -9 538.037 279.298)" fill="#5f51a2"/><use xlink:href="#K" transform="matrix(9 0 0 -9 542.915 279.19)" fill="#5f51a2"/><use xlink:href="#I" transform="matrix(9 0 0 -9 491.462 288.298)" fill="#5f51a2"/><use xlink:href="#J" transform="matrix(9 0 0 -9 494.72 288.298)" fill="#5f51a2"/><use xlink:href="#I" transform="matrix(9 0 0 -9 499.67 288.298)" fill="#5f51a2"/><use xlink:href="#N" transform="matrix(9 0 0 -9 502.928 288.298)" fill="#5f51a2"/><use xlink:href="#aX" transform="matrix(9 0 0 -9 508.094 288.19)" fill="#5f51a2"/><use xlink:href="#K" transform="matrix(9 0 0 -9 509.804 288.19)" fill="#5f51a2"/><use xlink:href="#L" transform="matrix(9 0 0 -9 512.396 288.298)" fill="#5f51a2"/><use xlink:href="#C" transform="matrix(9 0 0 -9 517.67 288.298)" fill="#5f51a2"/><use xlink:href="#K" transform="matrix(9 0 0 -9 522.36 288.19)" fill="#5f51a2"/><use xlink:href="#O" transform="matrix(9 0 0 -9 525.257 288.19)" fill="#5f51a2"/><use xlink:href="#P" transform="matrix(9 0 0 -9 530.495 288.298)" fill="#5f51a2"/><use xlink:href="#Q" transform="matrix(9 0 0 -9 536.687 288.19)" fill="#5f51a2"/><symbol id="aY"><path d="M0 0v.667h.142V0H0z"/></symbol><symbol id="aZ"><path d="M0 0v.667h.351c.032 0 .06-.005.084-.014a.171.171 0 00.06-.038.148.148 0 00.036-.054.176.176 0 00-.022-.168.14.14 0 00-.081-.049.147.147 0 00.09-.055A.174.174 0 00.556.18.192.192 0 00.543.109.159.159 0 00.446.014.231.231 0 00.362 0H0m.32.4a.08.08 0 01.057.02c.014.013.021.03.021.052a.069.069 0 01-.021.052.077.077 0 01-.057.021H.142V.4H.32M.325.123c.027 0 .048.007.063.02A.073.073 0 01.411.2c0 .021-.007.04-.022.055S.353.278.325.278H.142V.123h.183z"/></symbol><use xlink:href="#A" transform="matrix(9 0 0 -9 491.696 341.992)" fill="#46719f"/><use xlink:href="#B" transform="matrix(9 0 0 -9 498.05 341.884)" fill="#46719f"/><use xlink:href="#C" transform="matrix(9 0 0 -9 500.921 341.992)" fill="#46719f"/><use xlink:href="#D" transform="matrix(9 0 0 -9 505.71 341.992)" fill="#46719f"/><use xlink:href="#E" transform="matrix(9 0 0 -9 510.011 341.992)" fill="#46719f"/><use xlink:href="#F" transform="matrix(9 0 0 -9 514.574 341.884)" fill="#46719f"/><use xlink:href="#G" transform="matrix(9 0 0 -9 516.878 341.884)" fill="#46719f"/><use xlink:href="#C" transform="matrix(9 0 0 -9 524.177 341.992)" fill="#46719f"/><use xlink:href="#H" transform="matrix(9 0 0 -9 529.343 341.884)" fill="#46719f"/><use xlink:href="#I" transform="matrix(9 0 0 -9 533.97 341.992)" fill="#46719f"/><use xlink:href="#J" transform="matrix(9 0 0 -9 537.137 341.992)" fill="#46719f"/><use xlink:href="#K" transform="matrix(9 0 0 -9 541.925 341.884)" fill="#46719f"/><use xlink:href="#L" transform="matrix(9 0 0 -9 491.678 350.992)" fill="#46719f"/><use xlink:href="#J" transform="matrix(9 0 0 -9 496.862 350.992)" fill="#46719f"/><use xlink:href="#K" transform="matrix(9 0 0 -9 501.65 350.884)" fill="#46719f"/><use xlink:href="#O" transform="matrix(9 0 0 -9 504.458 350.884)" fill="#46719f"/><use xlink:href="#aY" transform="matrix(9 0 0 -9 509.984 350.884)" fill="#46719f"/><use xlink:href="#aZ" transform="matrix(9 0 0 -9 512.36 350.884)" fill="#46719f"/><path stroke-width="2" stroke-miterlimit="10" fill="none" stroke="#48709c" d="M179.886 534.52h-1.68v.328h1.68zM185.61 534.52h-1.68v.328h1.68zM191.335 534.52h-1.68v.328h1.68zM197.06 534.52h-1.68v.328h1.68z"/><symbol id="ba"><path d="M.333.012v.057A.212.212 0 00.107.011a.165.165 0 00-.054.03.165.165 0 00-.039.051A.161.161 0 000 .161C0 .187.005.21.014.23c.01.02.023.037.039.05a.156.156 0 00.054.031c.02.007.04.01.062.01A.21.21 0 00.333.252V.35a.095.095 0 01-.038.082.147.147 0 01-.092.029.194.194 0 01-.082-.017A.202.202 0 01.052.39L.023.426a.258.258 0 00.082.061.25.25 0 00.104.02.254.254 0 00.069-.009A.158.158 0 00.334.47.124.124 0 00.371.421.157.157 0 00.385.352v-.34H.333M.187.041a.21.21 0 01.082.016.167.167 0 01.064.05v.106a.167.167 0 01-.064.05.198.198 0 01-.082.017.134.134 0 01-.096-.034A.113.113 0 01.055.16c0-.034.012-.062.036-.085A.134.134 0 01.187.041M.27.566a.06.06 0 00-.044.016.202.202 0 00-.028.035.305.305 0 01-.023.036.035.035 0 01-.031.016C.129.669.116.661.105.646A.14.14 0 01.09.572H.055c0 .019.002.036.006.052.004.017.01.031.018.043a.09.09 0 00.029.028.072.072 0 00.04.011C.167.706.181.701.191.69A.17.17 0 00.218.655L.241.62A.038.038 0 01.273.604c.015 0 .028.007.038.022A.14.14 0 01.326.7h.036A.226.226 0 00.356.647.133.133 0 00.338.605.086.086 0 00.309.576.075.075 0 00.27.566z"/></symbol><symbol id="bb"><path d="M0 0v.667h.274A.188.188 0 00.408.621a.158.158 0 00.05-.124.16.16 0 00-.036-.104.147.147 0 00-.081-.049.148.148 0 00.091-.057.167.167 0 00.028-.05A.15.15 0 00.471.18C.471.124.454.08.42.048A.194.194 0 00.28 0H0m.267.368C.31.368.343.38.365.403a.125.125 0 01.033.088.124.124 0 01-.033.087C.343.603.31.615.267.615h-.21V.368h.21M.271.052c.044 0 .078.012.103.035a.13.13 0 01.037.097.139.139 0 01-.009.049.117.117 0 01-.027.042.119.119 0 01-.043.03.156.156 0 01-.061.011H.057V.052h.214z"/></symbol><use xlink:href="#aH" transform="matrix(9 0 0 -9 212.925 536.375)" fill="#231f20"/><use xlink:href="#ax" transform="matrix(9 0 0 -9 218.046 536.375)" fill="#231f20"/><use xlink:href="#an" transform="matrix(9 0 0 -9 220.647 536.482)" fill="#231f20"/><use xlink:href="#au" transform="matrix(9 0 0 -9 225.336 536.375)" fill="#231f20"/><use xlink:href="#ar" transform="matrix(9 0 0 -9 230.205 536.375)" fill="#231f20"/><use xlink:href="#aq" transform="matrix(9 0 0 -9 231.88 536.482)" fill="#231f20"/><use xlink:href="#ba" transform="matrix(9 0 0 -9 236.154 536.482)" fill="#231f20"/><use xlink:href="#ak" transform="matrix(9 0 0 -9 240.825 536.482)" fill="#231f20"/><use xlink:href="#w" transform="matrix(9 0 0 -9 245.487 536.375)" fill="#231f20"/><use xlink:href="#av" transform="matrix(9 0 0 -9 248.295 536.482)" fill="#231f20"/><use xlink:href="#an" transform="matrix(9 0 0 -9 253.434 536.482)" fill="#231f20"/><use xlink:href="#w" transform="matrix(9 0 0 -9 258.06 536.375)" fill="#231f20"/><use xlink:href="#aD" transform="matrix(9 0 0 -9 260.868 536.482)" fill="#231f20"/><use xlink:href="#ax" transform="matrix(9 0 0 -9 265.566 536.375)" fill="#231f20"/><use xlink:href="#an" transform="matrix(9 0 0 -9 268.167 536.482)" fill="#231f20"/><use xlink:href="#aq" transform="matrix(9 0 0 -9 273.144 536.482)" fill="#231f20"/><use xlink:href="#aD" transform="matrix(9 0 0 -9 277.401 536.482)" fill="#231f20"/><use xlink:href="#ar" transform="matrix(9 0 0 -9 281.973 536.375)" fill="#231f20"/><use xlink:href="#as" transform="matrix(9 0 0 -9 284.025 536.375)" fill="#231f20"/><use xlink:href="#an" transform="matrix(9 0 0 -9 290.874 536.482)" fill="#231f20"/><use xlink:href="#al" transform="matrix(9 0 0 -9 296.23 536.375)" fill="#231f20"/><use xlink:href="#am" transform="matrix(9 0 0 -9 300.46 536.482)" fill="#231f20"/><use xlink:href="#ak" transform="matrix(9 0 0 -9 303.312 536.482)" fill="#231f20"/><use xlink:href="#w" transform="matrix(9 0 0 -9 307.974 536.375)" fill="#231f20"/><use xlink:href="#av" transform="matrix(9 0 0 -9 310.782 536.482)" fill="#231f20"/><use xlink:href="#ak" transform="matrix(9 0 0 -9 315.921 536.482)" fill="#231f20"/><use xlink:href="#w" transform="matrix(9 0 0 -9 320.583 536.375)" fill="#231f20"/><use xlink:href="#aH" transform="matrix(9 0 0 -9 323.661 536.375)" fill="#231f20"/><use xlink:href="#r" transform="matrix(9 0 0 -9 328.8 536.375)" fill="#231f20"/><use xlink:href="#bb" transform="matrix(9 0 0 -9 330.807 536.375)" fill="#231f20"/></g></svg>