<svg xmlns="http://www.w3.org/2000/svg" xmlns:xlink="http://www.w3.org/1999/xlink" width="793.701" height="1122.52" viewBox="0 0 595.276 841.89"><symbol id="a"><path d="M.268 0a.415.415 0 00-.101.012.29.29 0 00-.086.034.186.186 0 00-.059.057A.15.15 0 000 .185.162.162 0 00.041.29a.275.275 0 00.102.066.31.31 0 00-.052.024.188.188 0 00-.042.033.138.138 0 00-.038.1.14.14 0 00.022.08.176.176 0 00.06.055.294.294 0 00.082.031.437.437 0 00.185 0A.28.28 0 00.442.648a.176.176 0 00.06-.055.136.136 0 00.023-.08c0-.02-.004-.04-.011-.056A.138.138 0 00.486.413.188.188 0 00.444.38.31.31 0 00.392.356.275.275 0 00.493.29.152.152 0 00.524.242a.15.15 0 00-.01-.139.183.183 0 00-.06-.057A.41.41 0 00.268 0m0 .412c.01.001.021.004.034.007.013.004.026.01.037.016a.103.103 0 01.029.023.05.05 0 01.012.033C.38.515.37.534.348.547a.145.145 0 01-.08.02.152.152 0 01-.082-.02.063.063 0 01-.031-.056.05.05 0 01.012-.033.126.126 0 01.029-.023.168.168 0 01.072-.023m0-.29a.19.19 0 01.048.006.14.14 0 01.039.016C.366.151.375.16.382.17c.007.01.01.021.01.033a.05.05 0 01-.014.036.11.11 0 01-.033.027.171.171 0 01-.041.017.201.201 0 01-.036.009.196.196 0 01-.037-.009A.198.198 0 01.19.266.13.13 0 01.157.239.053.053 0 01.144.203c0-.025.012-.044.035-.059A.168.168 0 01.268.122z"/></symbol><symbol id="b"><path d="M.233 0a.326.326 0 00-.111.018.263.263 0 00-.085.051L.1.178A.193.193 0 01.157.139a.197.197 0 01.148.003.158.158 0 01.084.102.226.226 0 01.011.07v.015a.195.195 0 00-.071-.06.218.218 0 00-.101-.026.273.273 0 00-.087.014.225.225 0 00-.073.041.214.214 0 00-.05.068A.232.232 0 000 .46c0 .033.006.063.018.09.013.028.03.052.053.073a.24.24 0 00.081.048.289.289 0 00.104.018.28.28 0 00.13-.028.247.247 0 00.089-.074.31.31 0 00.051-.11.501.501 0 00-.004-.272.285.285 0 00-.158-.18A.323.323 0 00.233 0m.035.365a.167.167 0 01.131.062.179.179 0 01-.035.091.129.129 0 01-.101.045.134.134 0 01-.051-.009.12.12 0 01-.037-.023.089.089 0 01-.03-.066c0-.017.003-.032.01-.045A.097.097 0 01.183.389.123.123 0 01.222.371.182.182 0 01.268.365z"/></symbol><use xlink:href="#a" transform="matrix(6 0 0 -6 538.702 823.202)" fill="#231f20"/><use xlink:href="#b" transform="matrix(6 0 0 -6 542.308 823.196)" fill="#231f20"/><clipPath id="c"><path transform="matrix(1 0 0 -1 0 841.89)" d="M0 0h595.276v841.89H0z"/></clipPath><g clip-path="url(#c)"><symbol id="d"><path d="M.338 0a.33.33 0 00-.24.095.33.33 0 00-.072.109A.371.371 0 000 .345c0 .051.009.098.026.14a.317.317 0 00.179.18.352.352 0 00.273-.007.327.327 0 00.103-.086L.533.541a.228.228 0 01-.084.07.234.234 0 01-.111.027.275.275 0 01-.257-.174A.326.326 0 01.06.345.298.298 0 01.14.134.278.278 0 01.228.073a.286.286 0 01.11-.021.24.24 0 01.195.097l.048-.03A.349.349 0 00.477.032.287.287 0 00.338 0z"/></symbol><symbol id="e"><path d="M.326 0v.329a.16.16 0 01-.009.058.078.078 0 01-.024.036.079.079 0 01-.037.019.171.171 0 01-.093-.001.254.254 0 01-.044-.018.208.208 0 01-.067-.058V0H0v.667h.052V.41a.266.266 0 00.122.077.176.176 0 00.052.008c.05 0 .087-.012.113-.037C.365.434.378.395.378.34V0H.326z"/></symbol><symbol id="f"><path d="M.333.012v.057A.212.212 0 00.107.011a.165.165 0 00-.054.03.165.165 0 00-.039.051A.161.161 0 000 .161C0 .187.005.21.014.23c.01.02.023.037.039.05a.156.156 0 00.054.031c.02.007.04.01.062.01A.21.21 0 00.333.252V.35a.095.095 0 01-.038.082.147.147 0 01-.092.029.194.194 0 01-.082-.017A.202.202 0 01.052.39L.023.426a.258.258 0 00.082.061.25.25 0 00.104.02.254.254 0 00.069-.009A.158.158 0 00.334.47.124.124 0 00.371.421.157.157 0 00.385.352v-.34H.333M.187.041a.21.21 0 01.082.016.167.167 0 01.064.05v.106a.167.167 0 01-.064.05.198.198 0 01-.082.017.134.134 0 01-.096-.034A.113.113 0 01.055.16c0-.034.012-.062.036-.085A.134.134 0 01.187.041z"/></symbol><symbol id="g"><path d="M.22.172a.195.195 0 00-.095.024.21.21 0 00-.073.066V0H0v.667h.052V.591a.211.211 0 00.256.07.18.18 0 00.068-.05.221.221 0 00.044-.08.324.324 0 00.016-.105A.324.324 0 00.42.321a.221.221 0 00-.044-.08A.19.19 0 00.308.19.212.212 0 00.22.172M.211.219a.162.162 0 01.158.125.294.294 0 010 .163.192.192 0 01-.033.066.147.147 0 01-.054.043.153.153 0 01-.071.016.184.184 0 01-.095-.026.175.175 0 01-.064-.06V.307A.15.15 0 01.079.274.25.25 0 01.162.226.174.174 0 01.211.219z"/></symbol><symbol id="h"><path d="M.175 0C.143 0 .119.009.103.027A.12.12 0 00.08.105v.344H0v.046h.08v.132h.053V.495h.098V.449H.133V.113c0-.02.004-.035.012-.048C.153.053.165.047.183.047c.011 0 .022.002.031.007A.07.07 0 01.237.07l.02-.04A.102.102 0 00.224.008.128.128 0 00.175 0z"/></symbol><symbol id="i"><path d="M.242 0a.226.226 0 00-.174.071.246.246 0 00-.05.08.286.286 0 00.048.282.23.23 0 00.167.074.214.214 0 00.169-.076.243.243 0 00.044-.082.314.314 0 00.015-.098V.237H.057A.21.21 0 01.11.101.184.184 0 01.246.045a.218.218 0 01.158.067L.431.078A.246.246 0 00.242 0m.166.278c0 .02-.004.042-.011.063A.174.174 0 01.31.445a.168.168 0 01-.078.017.158.158 0 01-.129-.061.192.192 0 01-.046-.123h.351z"/></symbol><symbol id="j"><path d="M0 0v.483h.052V.4a.28.28 0 00.071.067.168.168 0 00.092.026V.436a926.39 926.39 0 01-.026.002.183.183 0 01-.137-.086V0H0z"/></symbol><symbol id="l"><path d="M.142 0v.589L.035.475 0 .512l.147.155h.052V0H.142z"/></symbol><symbol id="m"><path d="M.089 0l.28.615H0v.052h.437v-.04L.152 0H.089z"/></symbol><use xlink:href="#d" transform="matrix(6 0 0 -6 497.074 823.667)" fill="#231f20"/><use xlink:href="#e" transform="matrix(6 0 0 -6 501.244 823.595)" fill="#231f20"/><use xlink:href="#f" transform="matrix(6 0 0 -6 504.328 823.667)" fill="#231f20"/><use xlink:href="#g" transform="matrix(6 0 0 -6 507.61 824.699)" fill="#231f20"/><use xlink:href="#h" transform="matrix(6 0 0 -6 510.592 823.667)" fill="#231f20"/><use xlink:href="#i" transform="matrix(6 0 0 -6 512.494 823.667)" fill="#231f20"/><use xlink:href="#j" transform="matrix(6 0 0 -6 516.064 823.595)" fill="#231f20"/><use xlink:href="#k" transform="matrix(6 0 0 -6 517.48 823.595)" fill="#231f20"/><use xlink:href="#l" transform="matrix(6 0 0 -6 519.19 823.595)" fill="#231f20"/><use xlink:href="#m" transform="matrix(6 0 0 -6 521.08 823.595)" fill="#231f20"/></g><path d="M0 841.89h595.275V0H0z" fill="#48709c"/><symbol id="n"><path d="M.527 0h.219L.5.667H.246L0 0h.219l.026.086h.256L.527 0M.373.489L.449.254H.297l.076.235z"/></symbol><symbol id="o"><path d="M0 0h.202v.214h.154c.156 0 .24.1.24.224 0 .125-.084.229-.24.229H0V0m.391.44C.391.405.364.382.33.382H.202v.117H.33C.364.499.391.476.391.44z"/></symbol><symbol id="p"><path d="M.324.723h.105L.338.867H.182L.094.723h.105L.26.796.324.723M0 0h.506v.168H.202v.085h.297v.168H.202v.078h.304v.168H0V0z"/></symbol><symbol id="q"><path d="M.448 0h.194v.667H.44V.331L.208.667H0V0h.202v.358L.448 0z"/></symbol><symbol id="r"><path d="M0 0h.299c.209 0 .365.121.365.334 0 .213-.156.333-.366.333H0V0m.202.176v.315h.097c.108 0 .16-.067.16-.157A.154.154 0 00.298.176H.202z"/></symbol><symbol id="s"><path d="M0 0h.202v.667H0V0z"/></symbol><symbol id="t"><path d="M.362 0c.18 0 .269.106.308.195l-.174.08A.143.143 0 00.362.178C.27.178.205.252.205.345c0 .093.065.167.157.167A.143.143 0 00.496.415L.67.496A.313.313 0 01.362.69C.158.69 0 .551 0 .345 0 .14.158 0 .362 0z"/></symbol><symbol id="u"><path d="M0 0h.506v.168H.202v.085h.297v.168H.202v.078h.304v.168H0V0z"/></symbol><use xlink:href="#n" transform="matrix(50.4538 0 0 -50.4538 174.106 441.26)" fill="#fff"/><use xlink:href="#o" transform="matrix(50.4538 0 0 -50.4538 213.56 441.26)" fill="#fff"/><use xlink:href="#p" transform="matrix(50.4538 0 0 -50.4538 246.961 441.26)" fill="#fff"/><use xlink:href="#q" transform="matrix(50.4538 0 0 -50.4538 277.032 441.26)" fill="#fff"/><use xlink:href="#r" transform="matrix(50.4538 0 0 -50.4538 314.872 441.26)" fill="#fff"/><use xlink:href="#s" transform="matrix(50.4538 0 0 -50.4538 352.006 441.26)" fill="#fff"/><use xlink:href="#t" transform="matrix(50.4538 0 0 -50.4538 365.83 441.866)" fill="#fff"/><use xlink:href="#u" transform="matrix(50.4538 0 0 -50.4538 402.813 441.26)" fill="#fff"/></svg>